<?xml version="1.0" standalone="no"?>
<!DOCTYPE svg PUBLIC "-//W3C//DTD SVG 1.1//EN" "http://www.w3.org/Graphics/SVG/1.1/DTD/svg11.dtd">
<svg xmlns="http://www.w3.org/2000/svg">
<defs >
<font id="LexendDeca" horiz-adv-x="588" ><font-face
    font-family="Lexend Deca SemiBold"
    units-per-em="1000"
    panose-1="0 0 0 0 0 0 0 0 0 0"
    ascent="1000"
    descent="-250"
    alphabetic="0" />
<glyph unicode=" " horiz-adv-x="307" />
<glyph unicode="!" horiz-adv-x="286" d="M99 251Q91 312 84 378T72 508T68 632V708H217V632Q217 571 213 505T201 374T186 251H99ZM141 -11Q102 -11 81 11T60 74Q60 111 82 134T141 158Q179 158 200 136T222 74Q222 36 200 13T141 -11Z" />
<glyph unicode="&quot;" horiz-adv-x="456" d="M263 438L284 700H432L350 438H263ZM42 438L63 700H212L129 438H42Z" />
<glyph unicode="#" horiz-adv-x="716" d="M368 0L488 700H612L492 0H368ZM42 157V272H637V157H42ZM105 0L225 700H349L229 0H105ZM80 437V552H674V437H80Z" />
<glyph unicode="$" horiz-adv-x="631" d="M318 -10Q224 -10 155 21T35 114L113 230Q167 168 217 143T327 118Q358 118 382 127T421 151T435 189Q435 205 428 218T408 242T377 261T337 276T289 287Q214 303 164 332T90 404T66 506Q66 551 86 589T141 656T223 699T322
714Q406 714 470 687T582 602L510 498Q473 541 426 563T325 585Q292 585 268 577T231 552T217 513Q217 495 226 481T252 457T293 438T346 424Q401 413 445 395T520 352T569 292T586 214Q586 143 552 93T458 17T318 -10ZM258 -91L266 371L351 338L359 -91H258ZM381
337L296 370L288 786H389L381 337Z" />
<glyph unicode="%" horiz-adv-x="927" d="M157 0L620 700H755L287 0H157ZM209 329Q160 329 122 354T62 422T40 522Q40 578 61 622T121 691T209 716Q259 716 296 692T355 623T377 522Q377 467 355 424T295 355T209 329ZM209 423Q227 423 240 435T260 469T267 522Q267
552 260 575T240 610T209 622Q191 622 178 610T157 575T150 522Q150 492 157 470T177 435T209 423ZM713 -9Q664 -9 626 16T565 84T543 184Q543 240 564 284T624 353T713 378Q762 378 800 353T859 284T880 184Q880 129 859 85T799 16T713 -9ZM713 84Q731 84 744
96T764 131T771 184Q771 214 764 236T744 271T713 284Q694 284 681 272T661 237T653 184Q653 153 660 131T680 97T713 84Z" />
<glyph unicode="&amp;" horiz-adv-x="764" d="M578 0L502 80L456 124L300 292Q266 329 241 362T199 424T174 480T166 529Q166 582 194 624T271 690T385 714Q433 714 475 698T549 652T593 582L482 515Q465 557 443 574T388 591Q364 591 347 583T321 561T312 524Q312
503 326 476T363 421T409 367T451 322L546 218L602 165L756 0H578ZM320 -10Q244 -10 183 20T86 102T50 216Q50 291 92 349T219 438L307 347Q249 335 220 306T191 229Q191 192 208 165T258 123T338 108Q379 108 414 125T478 172T524 245T549 341H680Q671 278 650
224T596 127T521 53T429 6T320 -10Z" />
<glyph unicode="&apos;" horiz-adv-x="237" d="M42 438L63 700H212L129 438H42Z" />
<glyph unicode="(" horiz-adv-x="382" d="M290 -186Q168 -110 104 4T40 258Q40 397 104 511T291 702L370 624Q274 558 227 463T179 258Q179 149 226 54T370 -108L290 -186Z" />
<glyph unicode=")" horiz-adv-x="382" d="M91 -186L12 -108Q108 -42 155 53T203 258Q203 367 156 462T12 624L92 702Q214 626 278 512T342 258Q342 119 278 5T91 -186Z" />
<glyph unicode="*" horiz-adv-x="423" d="M164 360L176 489L189 487L71 407L23 491L150 545L149 537L21 596L70 679L191 593L176 592L163 724H264L251 585L238 592L353 678L402 594L272 535V546L400 491L352 409L238 491L252 489L266 360H164Z" />
<glyph unicode="+" horiz-adv-x="595" d="M47 224V341H548V224H47ZM232 40V527H362V40H232Z" />
<glyph unicode="," horiz-adv-x="281" d="M86 -193L42 -140Q81 -121 104 -94T128 -47Q128 -38 123 -28T101 -3Q79 14 72 29T64 63Q64 92 85 109T139 126Q166 126 188 111T224 68T237 4Q237 -28 226 -58T195 -115T147 -162T86 -193Z" />
<glyph unicode="-" horiz-adv-x="431" d="M52 221V353H379V221H52Z" />
<glyph unicode="." horiz-adv-x="247" d="M124 -11Q85 -11 64 11T43 74Q43 111 65 134T124 158Q162 158 183 136T204 74Q204 36 182 13T124 -11Z" />
<glyph unicode="/" horiz-adv-x="583" d="M11 -139L426 700H566L152 -139H11Z" />
<glyph unicode="0" horiz-adv-x="653" d="M326 -10Q236 -10 173 33T76 156T42 350Q42 463 75 543T172 667T326 710Q416 710 480 667T577 544T611 350Q611 237 578 157T480 33T326 -10ZM326 119Q394 119 430 179T467 350Q467 463 431 524T326 585Q258 585 222 524T185
350Q185 239 221 179T326 119Z" />
<glyph unicode="1" horiz-adv-x="542" d="M213 49V617L250 550L104 479L75 612L270 710H361V49H213ZM90 0V135H487V0H90Z" />
<glyph unicode="2" horiz-adv-x="548" d="M70 0L37 82L244 311Q261 329 280 353T318 402T348 452T359 497Q359 520 349 537T320 565T273 575Q247 575 224 562T181 522T146 459L34 521Q54 579 91 622T179 690T288 714Q349 714 398 689T475 618T503 514Q503 492
499 469T484 421T457 369T417 311T363 247L204 74L184 135H532V0H70Z" />
<glyph unicode="3" horiz-adv-x="571" d="M276 -10Q194 -10 134 25T22 145L132 215Q155 180 179 158T228 126T282 116Q312 116 338 130T379 170T395 228Q395 262 382 285T344 320T285 332Q270 332 253 329T216 320T174 303L139 396L324 598L362 571L68 575V704H489L516
649L285 399L251 440Q259 444 277 447T311 451Q357 451 397 434T468 387T516 317T534 231Q534 162 500 108T407 22T276 -10Z" />
<glyph unicode="4" horiz-adv-x="648" d="M350 0V566L420 562L174 261L157 285H611V159H84L22 277L375 704H495V0H350Z" />
<glyph unicode="5" horiz-adv-x="587" d="M274 -7Q198 -7 137 24T34 116L115 206Q158 158 193 141T270 124Q305 124 333 138T377 179T393 237Q393 270 377 296T335 337T274 353Q252 353 233 350T191 337T135 309L67 399L110 704H504V575H186L223 619L190 397L142
420Q157 434 183 446T241 466T303 474Q369 474 420 444T502 361T533 238Q533 169 499 114T406 26T274 -7Z" />
<glyph unicode="6" horiz-adv-x="572" d="M290 0Q237 0 191 19T110 72T56 152T36 251Q36 285 43 319T66 390T102 466T149 550L245 711H385L389 701L262 496Q235 452 215 412T179 335T150 260L121 340Q134 374 156 401T206 448T265 478T326 489Q385 489 434 458T513
374T543 260Q543 185 511 127T421 34T290 0ZM292 127Q326 127 352 142T394 186T409 250Q409 281 394 308T352 353T293 370Q258 370 231 354T188 310T172 251Q172 215 187 188T230 144T292 127Z" />
<glyph unicode="7" horiz-adv-x="549" d="M93 0L376 636L412 571H50V704H499L514 627L246 0H93Z" />
<glyph unicode="8" horiz-adv-x="592" d="M296 -3Q226 -3 169 24T78 99T44 204Q44 240 53 270T82 324T130 366T195 397L185 362Q157 373 135 388T97 424T73 467T65 517Q65 571 96 614T179 682T296 708Q360 708 412 683T495 614T526 517Q526 491 519 468T496 426T458
390T406 362L399 393Q432 383 459 366T506 324T537 269T548 204Q548 145 514 98T423 24T296 -3ZM296 120Q326 120 351 132T390 164T404 212Q404 240 390 261T352 296T296 309Q265 309 241 296T202 262T188 212Q188 186 202 166T240 133T296 120ZM296 431Q323 431
344 441T377 469T390 511Q390 534 378 552T344 582T296 593Q269 593 248 582T214 553T202 511Q202 487 214 470T247 442T296 431Z" />
<glyph unicode="9" horiz-adv-x="569" d="M214 0L210 10L426 452L447 385Q434 351 412 324T362 277T302 246T241 235Q184 235 136 266T59 348T30 460Q30 532 63 590T155 681T286 715Q338 715 384 697T465 645T519 568T539 476Q539 444 533 411T515 343T485 266T442
174L355 0H214ZM276 359Q310 359 336 374T377 414T392 471Q392 505 378 531T337 573T277 589Q246 589 222 574T183 533T168 472Q168 442 182 417T221 375T276 359Z" />
<glyph unicode=":" horiz-adv-x="247" d="M124 -10Q85 -10 64 12T43 75Q43 112 65 135T124 159Q162 159 183 137T204 75Q204 37 182 14T124 -10ZM124 369Q85 369 64 391T43 454Q43 491 65 514T124 538Q162 538 183 516T204 454Q204 416 182 393T124 369Z" />
<glyph unicode=";" horiz-adv-x="281" d="M87 -193L43 -140Q82 -121 105 -94T129 -47Q129 -38 124 -28T102 -3Q80 14 73 29T65 63Q65 92 86 109T140 126Q167 126 189 111T225 68T238 4Q238 -28 227 -58T196 -115T148 -162T87 -193ZM140 370Q101 370 80 392T59
455Q59 492 81 515T140 539Q178 539 199 517T220 455Q220 417 198 394T140 370Z" />
<glyph unicode="&lt;" horiz-adv-x="525" d="M423 -8L44 209V301L423 518L483 408L137 221V290L483 102L423 -8Z" />
<glyph unicode="=" horiz-adv-x="605" d="M62 327V444H543V327H62ZM62 119V235H543V119H62Z" />
<glyph unicode="&gt;" horiz-adv-x="525" d="M108 -8L48 102L394 290V221L48 408L108 518L487 301V209L108 -8Z" />
<glyph unicode="?" horiz-adv-x="528" d="M195 230L164 365Q197 373 224 383T274 406T311 433T335 466T344 506Q344 528 332 545T300 572T253 582Q218 582 184 558T122 481L23 570Q68 638 129 675T258 713Q323 713 375 687T457 614T488 511Q488 475 473 441T432
376T369 322T290 285L278 230H195ZM159 74Q159 111 181 134T239 158Q278 158 299 136T320 74Q320 36 298 13T239 -11Q201 -11 180 11T159 74Z" />
<glyph unicode="@" horiz-adv-x="965" d="M414 -162Q327 -162 258 -136T140 -61T66 56T40 206Q40 323 81 416T196 575T367 675T576 710Q656 710 720 688T830 623T900 524T925 396Q925 327 906 265T851 155T770 79T669 51Q632 51 603 64T558 99T542 153Q542 170
544 187T548 222L570 202Q554 154 529 120T470 69T396 51Q351 51 316 74T260 140T240 237Q240 285 257 334T308 425T385 492T481 518Q512 518 536 502T576 458T595 392L567 354L595 507H725L669 193Q666 176 671 166T686 150T708 145Q736 145 760 164T803 218T831
296T842 391Q842 466 810 520T717 602T570 631Q468 631 386 603T245 519T155 386T124 209Q124 140 143 87T200 -5T292 -62T417 -82Q464 -82 498 -76T563 -56T632 -22L669 -89Q610 -119 568 -134T490 -156T414 -162ZM432 160Q460 160 487 178T533 227T558 292Q561
307 563 319T565 342Q565 364 557 380T534 404T497 413Q463 413 436 388T392 323T376 239Q376 202 391 181T432 160Z" />
<glyph unicode="A" horiz-adv-x="696" d="M7 0L282 700H416L689 0H535L394 377Q388 393 380 418T362 471T345 524T333 567H360Q354 545 347 521T331 471T314 421T297 374L156 0H7ZM135 147L184 267H505L555 147H135Z" />
<glyph unicode="B" horiz-adv-x="694" d="M91 0V700H395Q465 700 513 680T587 620T612 527Q612 467 582 427T496 372L495 392Q542 381 576 356T630 294T649 210Q649 158 632 119T582 53T505 14T405 0H91ZM235 130H399Q431 130 453 139T488 169T500 216Q500 242
487 260T451 287T394 297H235V130ZM235 416H377Q404 416 424 426T454 453T465 493Q465 530 441 550T368 570H235V416Z" />
<glyph unicode="C" horiz-adv-x="689" d="M398 -10Q321 -10 257 16T145 91T71 206T45 352Q45 429 72 494T148 608T263 684T406 711Q456 711 504 698T593 658T663 596L569 492Q546 516 520 533T466 560T405 570Q362 570 325 554T259 510T215 441T198 351Q198 301
214 261T259 192T328 148T418 132Q450 132 480 141T535 166T581 203L655 86Q630 59 590 37T499 3T398 -10Z" />
<glyph unicode="D" horiz-adv-x="764" d="M91 0V700H378Q455 700 517 675T625 603T695 492T719 350Q719 273 695 209T626 98T518 26T378 0H91ZM241 109L225 135H373Q418 135 454 150T515 193T554 261T567 350Q567 399 554 438T516 506T454 549T373 565H222L241 589V109Z" />
<glyph unicode="E" horiz-adv-x="635" d="M91 0V700H564V568H238V132H571V0H91ZM161 293V421H516V293H161Z" />
<glyph unicode="F" horiz-adv-x="613" d="M91 0V700H241V0H91ZM160 278V407H522V278H160ZM160 565V700H564V565H160Z" />
<glyph unicode="G" horiz-adv-x="777" d="M412 -10Q331 -10 264 17T147 94T72 209T45 352Q45 429 72 494T150 608T269 684T418 711Q474 711 525 696T618 655T688 595L595 497Q569 522 541 539T482 566T417 576Q370 576 331 559T261 512T215 441T198 352Q198 305
215 264T263 192T335 144T423 126Q457 126 486 136T538 164T573 208T586 261V285L606 257H406V382H730Q731 371 732 355T734 324T735 299Q735 231 711 174T643 76T540 13T412 -10Z" />
<glyph unicode="H" horiz-adv-x="773" d="M532 0V700H682V0H532ZM91 0V700H241V0H91ZM151 281L152 417H609V281H151Z" />
<glyph unicode="I" horiz-adv-x="530" d="M73 0V129H190V571H73V700H457V571H340V129H457V0H73Z" />
<glyph unicode="J" horiz-adv-x="658" d="M260 -10Q222 -10 189 -1T129 24T80 63T43 116L130 207Q147 184 161 169T189 145T217 132T247 128Q275 128 296 141T329 177T341 230V567H213V700H596V567H488V213Q488 163 471 122T423 52T351 6T260 -10Z" />
<glyph unicode="K" horiz-adv-x="737" d="M204 207L172 343L526 700H708L204 207ZM91 0V700H241V0H91ZM545 0L283 347L386 437L723 0H545Z" />
<glyph unicode="L" horiz-adv-x="606" d="M91 0V700H241V135H558V0H91Z" />
<glyph unicode="M" horiz-adv-x="873" d="M91 0V700H228L483 285L393 286L651 700H782V0H635V240Q635 330 639 402T655 545L673 498L468 180H402L201 496L218 545Q229 478 233 408T238 240V0H91Z" />
<glyph unicode="N" horiz-adv-x="802" d="M91 0V700H225L612 177H584Q580 208 577 237T572 297T568 360T565 429T564 509V700H711V0H575L180 528L218 527Q223 475 226 439T232 375T236 328T237 290T238 252V0H91Z" />
<glyph unicode="O" horiz-adv-x="802" d="M402 -10Q324 -10 259 17T146 92T71 207T45 352Q45 431 71 497T145 611T259 687T401 714Q479 714 543 687T656 611T731 496T757 352Q757 274 731 208T657 93T544 17T402 -10ZM401 132Q446 132 483 148T547 194T589 264T605
352Q605 400 590 440T547 509T483 555T401 572Q357 572 320 556T255 510T213 440T198 352Q198 304 212 264T255 195T320 149T401 132Z" />
<glyph unicode="P" horiz-adv-x="653" d="M91 0V700H388Q451 700 501 671T580 590T610 475Q610 410 581 358T501 276T388 245H241V0H91ZM239 380H371Q395 380 414 392T444 426T456 474Q456 501 445 521T414 553T371 565H239V380Z" />
<glyph unicode="Q" horiz-adv-x="802" d="M615 -110L348 248L461 326L725 -29L615 -110ZM401 -10Q324 -10 259 17T146 92T71 207T45 352Q45 431 71 497T145 611T259 687T401 714Q479 714 543 687T656 611T731 496T757 352Q757 274 731 208T657 93T544 17T401 -10ZM401
132Q446 132 483 148T547 194T589 264T605 352Q605 400 590 440T547 509T483 555T401 572Q357 572 320 556T255 510T213 440T198 352Q198 304 212 264T255 195T320 149T401 132Z" />
<glyph unicode="R" horiz-adv-x="700" d="M91 0V700H401Q466 700 519 671T602 591T633 477Q633 414 603 363T519 281T401 251H236V0H91ZM488 0L310 316L464 341L662 -1L488 0ZM236 373H394Q421 373 441 385T473 420T484 471Q484 501 471 523T433 557T375 570H236V373Z" />
<glyph unicode="S" horiz-adv-x="631" d="M318 -10Q253 -10 200 6T105 53T30 128L124 235Q173 167 221 143T327 118Q358 118 382 127T421 151T435 189Q435 205 428 218T408 242T377 261T337 276T289 287Q233 300 191 318T121 364T80 427T66 506Q66 551 86 589T141
656T223 699T322 714Q386 714 434 700T517 659T577 592L482 500Q461 528 437 547T384 575T325 585Q292 585 268 577T231 552T217 513Q217 495 226 481T252 457T293 438T346 424Q401 413 445 395T520 352T569 292T586 214Q586 143 552 93T458 17T318 -10Z" />
<glyph unicode="T" horiz-adv-x="630" d="M237 0V565H33V700H597V565H387V0H237Z" />
<glyph unicode="U" horiz-adv-x="757" d="M379 -6Q294 -6 228 29T123 127T85 269V701H236V278Q236 236 255 203T306 149T379 129Q420 129 453 149T506 202T526 278V701H672V269Q672 190 635 128T530 30T379 -6Z" />
<glyph unicode="V" horiz-adv-x="713" d="M290 0L11 700H170L316 321Q328 290 336 267T351 223T364 183T376 140L347 139Q355 170 362 196T380 252T406 321L544 700H702L421 0H290Z" />
<glyph unicode="W" horiz-adv-x="994" d="M224 0L11 700H165L279 309Q286 288 291 264T300 217T306 175T311 142L287 143Q296 185 302 213T313 264T327 310L437 599H561L669 310Q681 280 688 253T701 200T710 148L689 144Q692 165 693 180T696 209T700 235T706
267T718 311L831 700H983L768 0H656L484 414L500 412L339 0H224Z" />
<glyph unicode="X" horiz-adv-x="698" d="M507 0L290 314L12 700H196L408 390L691 0H507ZM7 0L274 381L388 302L181 0H7ZM424 325L311 401L507 700H681L424 325Z" />
<glyph unicode="Y" horiz-adv-x="679" d="M274 0V349L281 300L-2 700H171L387 390L319 393L514 700H681L410 289L425 357V0H274Z" />
<glyph unicode="Z" horiz-adv-x="675" d="M60 0V102L443 613L488 561H86V700H607V599L226 87L180 134H618V0H60Z" />
<glyph unicode="[" horiz-adv-x="414" d="M80 -190V700H364V582H208L214 590V-84L204 -72H364V-190H80Z" />
<glyph unicode="\" horiz-adv-x="575" d="M427 -107L29 700H169L569 -107H427Z" />
<glyph unicode="]" horiz-adv-x="414" d="M50 -190V-72H206L200 -80V594L210 582H50V700H334V-190H50Z" />
<glyph unicode="^" d="M18 363L235 731H354L571 363H424L263 641L327 643L162 363H18Z" />
<glyph unicode="_" horiz-adv-x="688" d="M44 -182V-68H644V-182H44Z" />
<glyph unicode="`" horiz-adv-x="500" d="M326 591L131 696L202 793L369 657L326 591Z" />
<glyph unicode="a" horiz-adv-x="651" d="M269 -10Q203 -10 150 26T66 124T35 266Q35 346 66 408T152 505T275 540Q314 540 346 529T403 497T445 451T469 395L439 400V529H580V0H437V127L469 130Q461 102 443 77T399 33T339 2T269 -10ZM308 113Q348 113 378 132T424
185T441 266Q441 311 425 345T378 398T308 418Q269 418 240 399T193 345T176 266Q176 220 193 186T239 132T308 113Z" />
<glyph unicode="b" horiz-adv-x="649" d="M376 -10Q341 -10 308 0T248 27T203 67T180 114L212 126L205 2H71V740H214V405L186 416Q192 440 209 462T252 502T309 530T373 540Q442 540 496 505T582 407T613 265Q613 185 583 123T498 26T376 -10ZM342 111Q382 111
411 130T458 184T475 265Q475 310 459 345T412 399T342 418Q302 418 272 399T226 345T209 265Q209 219 225 185T272 131T342 111Z" />
<glyph unicode="c" horiz-adv-x="542" d="M301 -10Q225 -10 165 26T71 124T36 265Q36 344 70 406T165 504T301 540Q372 540 431 514T523 442L445 348Q431 367 410 382T365 407T314 416Q273 416 242 397T192 343T174 265Q174 223 192 189T243 135T315 115Q341 115
364 122T407 144T445 180L522 86Q489 43 429 17T301 -10Z" />
<glyph unicode="d" horiz-adv-x="648" d="M278 -10Q208 -10 154 25T68 122T36 265Q36 344 67 406T153 504T278 540Q315 540 349 529T411 497T456 453T475 402L439 395V740H582V0H447L441 122L469 119Q467 94 451 71T409 30T349 1T278 -10ZM310 108Q350 108 380
128T427 183T444 265Q444 311 427 346T380 401T310 421Q270 421 241 401T195 346T178 265Q178 218 194 183T240 128T310 108Z" />
<glyph unicode="e" horiz-adv-x="586" d="M322 -10Q236 -10 172 25T72 121T36 261Q36 323 56 374T112 462T197 520T305 541Q359 541 405 521T484 466T536 382T552 277L551 233H126L103 320H434L418 302V324Q416 351 401 372T361 406T307 419Q263 419 233 402T186
352T170 272Q170 224 190 189T248 135T337 115Q372 115 401 126T463 164L531 69Q502 43 467 26T395 -1T322 -10Z" />
<glyph unicode="f" horiz-adv-x="393" d="M112 0V566Q112 615 134 655T194 718T285 741Q320 741 351 730T404 699L362 594Q349 602 336 607T311 613Q292 613 280 607T261 588T255 556V0H184Q161 0 143 0T112 0ZM33 396V516H369V396H33Z" />
<glyph unicode="g" horiz-adv-x="663" d="M312 -230Q249 -230 188 -212T88 -163L139 -62Q159 -76 185 -87T239 -104T298 -110Q350 -110 383 -94T434 -46T451 34V126L475 121Q469 88 442 61T374 17T289 0Q216 0 159 34T69 128T36 267Q36 346 68 407T157 504T286
540Q316 540 343 533T394 514T436 486T467 452T482 416L453 408L457 529H593V40Q593 -25 574 -75T519 -159T430 -212T312 -230ZM316 114Q358 114 389 133T438 186T455 266Q455 311 438 345T390 399T316 418Q275 418 244 399T196 345T178 266Q178 221 195 187T244
133T316 114Z" />
<glyph unicode="h" horiz-adv-x="622" d="M71 0V740H211V421L183 409Q194 445 222 474T291 522T375 540Q435 540 475 516T536 444T557 324V0H415V313Q415 349 405 373T375 408T324 418Q300 418 280 411T245 389T222 357T213 318V0H143Q120 0 102 0T71 0Z" />
<glyph unicode="i" horiz-adv-x="306" d="M83 0V529H225V0H83ZM153 637Q112 637 89 657T66 715Q66 749 89 770T153 792Q194 792 217 772T240 715Q240 681 217 659T153 637Z" />
<glyph unicode="j" horiz-adv-x="299" d="M18 -206L-35 -96Q8 -96 34 -84T71 -45T83 28V529H225V-6Q225 -71 201 -115T130 -183T18 -206ZM157 637Q116 637 93 657T70 715Q70 749 93 770T157 792Q198 792 221 772T244 715Q244 681 221 659T157 637Z" />
<glyph unicode="k" horiz-adv-x="607" d="M206 159L164 276L414 529H601L206 159ZM71 0V740H213V0H71ZM429 0L239 239L339 319L600 0H429Z" />
<glyph unicode="l" horiz-adv-x="287" d="M72 0V740H214V0H72Z" />
<glyph unicode="m" horiz-adv-x="949" d="M70 0V529H207L210 428L189 424Q200 450 218 471T261 507T312 530T366 539Q407 539 440 526T496 486T532 413L510 415L517 431Q530 455 550 475T595 509T647 531T700 539Q762 539 803 515T864 441T885 321V0H743V311Q743
347 733 370T704 404T655 416Q632 416 613 409T579 388T556 356T548 316V0H405V312Q405 345 395 368T366 404T319 416Q296 416 277 409T243 388T221 356T213 317V0H70Z" />
<glyph unicode="n" horiz-adv-x="622" d="M71 0V529H207L211 421L183 409Q194 445 222 474T291 522T375 540Q435 540 475 516T536 444T557 324V0H415V313Q415 349 405 373T375 408T324 418Q300 418 280 411T245 389T222 357T213 318V0H143Q120 0 102 0T71 0Z" />
<glyph unicode="o" horiz-adv-x="633" d="M317 -10Q236 -10 173 25T73 123T36 265Q36 345 72 407T172 504T317 540Q397 540 460 505T560 407T596 265Q596 185 560 123T461 26T317 -10ZM317 114Q356 114 387 133T435 187T452 265Q453 309 436 343T387 397T317 417Q277
417 246 397T197 343T180 265Q179 222 197 188T246 134T317 114Z" />
<glyph unicode="p" horiz-adv-x="650" d="M71 -220V529H208L212 410L186 419Q193 451 220 478T289 522T375 539Q444 539 498 504T583 407T614 265Q614 186 583 124T498 27T375 -9Q329 -9 288 8T218 55T181 117L214 131V-220H71ZM343 113Q382 113 412 132T459 185T476
265Q476 310 459 344T413 397T343 416Q303 416 273 398T226 345T209 265Q209 220 226 186T273 132T343 113Z" />
<glyph unicode="q" horiz-adv-x="649" d="M436 -220V127L465 122Q463 97 447 74T404 31T345 1T278 -10Q208 -10 154 25T68 123T36 265Q36 345 67 407T152 504T274 540Q313 540 347 529T409 498T453 455T472 405L437 400L442 530H578V-220H436ZM307 113Q347 113
377 132T423 185T440 265Q440 311 424 345T377 399T307 418Q267 418 237 399T191 345T174 265Q174 220 190 186T237 132T307 113Z" />
<glyph unicode="r" horiz-adv-x="438" d="M71 0V529H208L213 359L189 394Q201 435 228 468T291 521T368 540Q385 540 401 537T428 530L390 374Q379 380 362 384T326 389Q302 389 282 381T246 357T223 320T214 274V0H71Z" />
<glyph unicode="s" horiz-adv-x="490" d="M249 -10Q175 -10 118 14T25 82L114 158Q144 125 182 111T258 96Q273 96 285 99T307 109T320 125T325 146Q325 168 307 180Q297 186 276 193T222 210Q171 223 136 240T79 280Q61 301 52 325T42 380Q42 416 58 445T102
496T168 528T246 540Q287 540 326 530T398 502T457 458L381 374Q363 391 341 405T294 427T251 435Q234 435 221 432T198 423T185 407T180 387Q180 376 185 366T201 349Q212 343 233 335T292 317Q340 304 373 288T427 251Q444 233 452 210T460 159Q460 110 433 72T357
12T249 -10Z" />
<glyph unicode="t" horiz-adv-x="394" d="M122 0V663H264V0H122ZM23 402V529H373V402H23Z" />
<glyph unicode="u" horiz-adv-x="630" d="M253 -10Q195 -10 154 15T90 88T67 203V529H209V226Q209 190 221 164T255 123T309 109Q332 109 351 116T385 138T408 171T416 212V529H558V0H423L418 109L444 121Q432 84 404 54T337 7T253 -10Z" />
<glyph unicode="v" horiz-adv-x="595" d="M237 0L15 529H171L312 134L279 128L427 529H579L346 0H237Z" />
<glyph unicode="w" horiz-adv-x="823" d="M192 0L15 529L163 530L271 169L249 172L368 453H452L576 171L552 169L660 529H808L628 0H525L400 301L416 299L294 0H192Z" />
<glyph unicode="x" horiz-adv-x="592" d="M405 0L274 187L234 243L20 529H192L320 348L364 289L575 0H405ZM18 0L229 289L307 196L185 0H18ZM358 238L282 331L395 529H562L358 238Z" />
<glyph unicode="y" horiz-adv-x="607" d="M145 -230L261 42L263 -40L5 529H166L295 224Q303 207 310 185T323 142L299 131Q306 148 313 170T329 217L440 529H602L380 0L289 -230H145Z" />
<glyph unicode="z" horiz-adv-x="529" d="M50 0V90L329 452V412H50V529H472V437L205 84L201 117H479V0H50Z" />
<glyph unicode="{" horiz-adv-x="422" d="M365 -204Q315 -194 278 -178T217 -138T182 -82T170 -7L171 88Q171 141 148 167T82 195H40V305H84Q127 306 149 332T171 412L170 507Q170 589 216 635T365 704L395 604Q357 591 336 578T306 544T297 485L299 398Q299 340
267 301T166 245V256Q234 237 266 198T299 102L297 15Q297 -20 305 -40T335 -74T395 -100L365 -204Z" />
<glyph unicode="|" horiz-adv-x="290" d="M78 -193V740H212V-193H78Z" />
<glyph unicode="}" horiz-adv-x="422" d="M56 -204L26 -104Q64 -91 85 -78T115 -44T125 15L123 102Q123 160 155 199T255 255L256 244Q188 263 156 302T123 398L125 485Q125 521 116 541T86 574T26 600L56 704Q107 694 143 678T204 638T240 582T252 507L251 412Q251
359 274 333T340 305H381V195H338Q295 194 273 168T251 88L252 -7Q252 -89 205 -135T56 -204Z" />
<glyph unicode="~" horiz-adv-x="543" d="M374 209Q358 209 338 214T298 226T261 240Q247 247 230 253T199 263T175 267Q156 267 146 252T136 206H35Q35 293 70 339T177 386Q189 386 204 383T233 375T262 364T288 353Q302 348 316 342T345 332T369 328Q386 328
396 343T405 383L507 381Q507 325 492 287T448 229T374 209Z" />
<glyph unicode="&#xa0;" horiz-adv-x="307" />
<glyph unicode="&#xa1;" horiz-adv-x="286" d="M182 279Q190 218 197 153T209 22T213 -102V-178H64V-102Q64 -41 68 25T80 156T95 279H182ZM140 541Q179 541 200 519T221 456Q221 419 199 396T140 372Q102 372 81 394T59 456Q59 494 81 517T140 541Z" />
<glyph unicode="&#xa2;" horiz-adv-x="554" d="M313 78Q236 78 175 114T79 212T44 353Q44 432 79 494T175 592T313 628Q384 628 442 602T535 530L457 436Q443 455 422 470T377 495T326 504Q284 504 252 485T201 431T182 353Q182 311 201 277T252 223T327 203Q353
203 376 210T419 232T457 268L534 174Q500 131 440 105T313 78ZM257 0V108L276 145V558L257 606V704H369V605L352 563V143L369 107V0H257Z" />
<glyph unicode="&#xa3;" horiz-adv-x="629" d="M189 53L114 74Q132 84 145 103T167 147T175 197Q175 211 173 228T166 265T154 306T139 352Q127 389 121 413T113 454T110 487Q110 556 140 607T224 686T352 714Q421 714 472 691T548 625L443 543Q431 558 417 567T385
581T348 586Q317 586 293 572T255 534T241 478Q241 447 250 415T269 353Q280 320 289 287T298 227Q298 197 287 169T253 112T189 53ZM441 -21Q410 -21 375 -12T318 4Q305 8 288 13T252 22T216 26Q184 26 148 17T75 -10L24 90Q66 116 116 130T218 145Q248 145 272
140T339 120Q360 113 385 106T436 98Q460 98 488 106T545 133L611 41Q577 11 531 -5T441 -21ZM44 310V401H464V310H44Z" />
<glyph unicode="&#xa4;" horiz-adv-x="557" d="M281 113Q225 113 180 138T109 206T82 304Q82 359 108 402T180 470T281 495Q337 495 382 470T453 402T479 304Q479 250 453 207T382 138T281 113ZM130 67L40 157L129 249L217 158L130 67ZM124 367L35 452L125 541L215
455L124 367ZM281 222Q304 222 320 232T347 261T357 304Q357 329 347 348T321 377T281 388Q259 388 242 378T215 348T205 304Q205 280 215 262T242 233T281 222ZM433 72L342 159L430 250L522 162L433 72ZM431 362L342 451L433 547L523 457L431 362Z" />
<glyph unicode="&#xa5;" horiz-adv-x="679" d="M274 0V349L281 300L-2 700H171L387 390L319 393L514 700H681L410 289L425 357V0H274ZM143 113V188L571 187V111L143 113ZM143 241V317L571 316V240L143 241Z" />
<glyph unicode="&#xa6;" horiz-adv-x="297" d="M80 -202V194H216V-202H80ZM80 345V740H216V345H80Z" />
<glyph unicode="&#xa7;" horiz-adv-x="567" d="M340 131L309 205Q340 208 359 217T388 240T397 270Q397 290 383 303T337 327L238 359Q214 369 188 383T138 419T100 471T85 543Q85 579 98 610T138 664T206 701T304 715Q348 715 387 705T457 675T511 628L437 545Q414
566 391 579T346 597T301 603Q264 603 242 587T220 544Q220 528 229 515T257 492T300 473L387 443Q462 417 498 378T532 282Q530 236 507 204T441 153T340 131ZM272 -139Q227 -139 184 -128T104 -95T41 -48L112 42Q152 6 194 -12T271 -30Q312 -30 334 -15T357 28Q357
44 346 56T316 77T273 95L177 128Q107 153 73 192T38 288Q38 329 59 363T122 418T220 441L250 362Q227 359 211 350T187 329T178 298Q178 278 194 263T247 236L326 210Q373 193 411 171T471 116T493 36Q493 -14 470 -53T397 -116T272 -139Z" />
<glyph unicode="&#xa8;" horiz-adv-x="500" d="M364 631Q325 631 304 651T283 710Q283 745 305 766T364 788Q403 788 424 768T445 710Q445 675 423 653T364 631ZM136 631Q98 631 77 651T55 710Q55 745 77 766T136 788Q175 788 196 768T217 710Q217 675 196 653T136 631Z" />
<glyph unicode="&#xa9;" horiz-adv-x="789" d="M394 -15Q318 -15 252 13T136 91T58 207T29 350Q29 427 57 493T135 609T251 687T394 715Q470 715 536 687T652 609T731 493T759 350Q759 273 731 207T653 91T536 13T394 -15ZM411 143Q351 143 303 170T227 243T198
350Q198 407 226 454T303 529T411 557Q446 557 479 545T544 510L499 414Q483 426 469 433T443 443T419 447Q390 447 367 434T331 399T318 350Q318 321 331 299T367 264T419 251Q438 251 459 259T502 283L548 187Q517 165 482 154T411 143ZM394 59Q455 59 507 81T600
144T662 236T685 350Q685 411 663 464T600 556T508 618T394 641Q334 641 281 619T189 557T126 464T103 350Q103 289 126 237T188 144T280 82T394 59Z" />
<glyph unicode="&#xaa;" horiz-adv-x="383" d="M141 391Q103 391 75 412T32 472T17 562Q17 608 34 644T82 700T153 721Q206 721 232 689T259 596L240 648V715H349V401H240V474L259 508Q259 478 245 451T203 408T141 391ZM181 474Q200 474 214 484T236 512T244
556Q244 594 227 616T180 638Q165 638 152 628T132 600T125 561Q125 534 131 515T150 485T181 474Z" />
<glyph unicode="&#xab;" horiz-adv-x="538" d="M417 34L247 253V263L416 485L499 428L377 246L378 273L499 91L417 34ZM181 34L11 253V263L180 485L263 428L141 246L142 273L263 91L181 34Z" />
<glyph unicode="&#xac;" horiz-adv-x="670" d="M490 109V319L540 286H44V412H626V109H490Z" />
<glyph unicode="&#xad;" horiz-adv-x="434" d="M56 221V353H383V221H56Z" />
<glyph unicode="&#xae;" horiz-adv-x="507" d="M259 243Q191 243 136 275T47 362T14 484Q14 535 33 578T85 654T163 706T259 725Q309 725 352 706T429 654T481 578T500 484Q500 434 482 390T430 314T354 262T259 243ZM259 307Q308 307 348 330T413 394T437 484Q437
533 413 573T349 638T259 662Q208 662 167 638T102 574T77 484Q77 434 101 394T167 331T259 307ZM293 367L256 459L319 475L370 367H293ZM163 367V606H281Q317 606 340 585T363 531Q363 498 339 477T281 455H220L236 466V367H163ZM236 495L222 502H261Q274 502
283 508T292 525Q292 536 285 542T263 548H220L236 556V495Z" />
<glyph unicode="&#xaf;" horiz-adv-x="424" d="M90 637V729H410V637H90Z" />
<glyph unicode="&#xb0;" horiz-adv-x="532" d="M266 395Q220 395 183 416T124 473T102 553Q102 598 123 634T182 692T266 713Q313 713 350 692T408 635T430 554Q430 510 408 474T349 416T266 395ZM266 482Q285 482 300 491T324 517T333 554Q333 574 324 590T300
616T266 625Q247 625 232 616T208 590T199 553Q199 533 208 517T232 491T266 482Z" />
<glyph unicode="&#xb1;" horiz-adv-x="622" d="M62 304V421H559V304H62ZM63 -5V114H560V-5H63ZM243 171V562H379V171H243Z" />
<glyph unicode="&#xb2;" horiz-adv-x="358" d="M62 418L50 498L151 586Q164 596 178 609T202 638T212 669Q212 683 205 691T182 700Q164 700 145 686T110 647L39 698Q58 727 81 748T132 779T191 790Q228 790 255 776T297 738T313 684Q313 647 295 619T252 568T201
529L143 481L145 501H320V418H62Z" />
<glyph unicode="&#xb3;" horiz-adv-x="351" d="M173 412Q148 412 126 416T84 427T43 446L84 517Q102 506 119 501T155 496Q179 496 194 507T210 539Q210 556 196 566T158 577Q145 577 131 574T102 566L80 626L209 721L221 700H68V783H276L285 705L172 620L164
627Q173 632 183 635T201 638Q249 638 278 610T308 534Q308 498 290 471T241 428T173 412Z" />
<glyph unicode="&#xb4;" horiz-adv-x="500" d="M174 590L131 656L298 793L369 695L174 590Z" />
<glyph unicode="&#xb5;" horiz-adv-x="622" d="M76 -160V529H214V222Q214 185 224 160T255 122T304 109Q328 109 347 117T381 141T404 177T413 220V529H551V0H420L415 104L428 93Q411 58 387 36T333 2T266 -11Q251 -11 237 -7T213 6T198 25L210 65L214 -160H76Z" />
<glyph unicode="&#xb6;" horiz-adv-x="747" d="M247 0V314L286 275H233Q179 275 137 302T70 376T45 484Q45 549 73 598T151 673T270 700H656V0H509V660L548 596H326L394 652V0H247Z" />
<glyph unicode="&#xb7;" horiz-adv-x="247" d="M124 253Q85 253 64 275T43 338Q43 375 65 398T124 422Q162 422 183 400T204 338Q204 300 182 277T124 253Z" />
<glyph unicode="&#xb8;" horiz-adv-x="500" d="M154 -245L145 -177Q167 -177 190 -171T230 -155T247 -133Q247 -120 234 -113T203 -102T170 -98L154 -86L224 24H299L254 -44Q305 -51 330 -77T356 -139Q356 -168 337 -188T288 -222T223 -240T154 -245Z" />
<glyph unicode="&#xb9;" horiz-adv-x="288" d="M119 430V716L133 682L75 646L33 724L144 790H220V430H170Q158 430 146 430T119 430Z" />
<glyph unicode="&#xba;" horiz-adv-x="385" d="M192 392Q144 392 108 413T50 470T28 552Q28 598 49 635T107 693T192 714Q239 714 276 693T335 634T357 552Q357 506 336 470T277 413T192 392ZM191 473Q209 473 222 483T243 511T251 553Q251 578 244 595T224 623T191
633Q173 633 160 623T140 594T132 553Q132 529 139 511T160 483T191 473Z" />
<glyph unicode="&#xbb;" horiz-adv-x="541" d="M360 36L278 93L399 275L398 248L277 430L360 487L530 268V258L360 36ZM121 36L39 93L160 275L159 248L38 430L121 487L291 268V258L121 36Z" />
<glyph unicode="&#xbc;" horiz-adv-x="812" d="M127 360V646L141 612L83 576L41 654L152 720H228V360H178Q166 360 154 360T127 360ZM95 0L562 700H693L225 0H95ZM699 156H774V73H699V156ZM521 122L505 156H649L621 127V283L650 272L521 122ZM715 -1H609V102L635
73H464L445 150L622 365H715V-1Z" />
<glyph unicode="&#xbd;" horiz-adv-x="813" d="M127 360V646L141 612L83 576L41 654L152 720H228V360H178Q166 360 154 360T127 360ZM97 0L564 700H695L227 0H97ZM520 0L508 80L609 168Q622 178 636 191T660 220T670 251Q670 265 663 273T640 282Q622 282 603
268T568 229L497 280Q516 309 539 330T590 361T649 372Q686 372 713 358T755 320T771 266Q771 229 753 201T710 150T659 111L601 63L603 83H778V0H520Z" />
<glyph unicode="&#xbe;" horiz-adv-x="831" d="M152 342Q127 342 105 346T63 357T22 376L63 447Q81 436 98 431T134 426Q158 426 173 437T189 469Q189 486 175 496T137 507Q124 507 110 504T81 496L59 556L188 651L200 630H47V713H255L264 635L151 550L143 557Q152
562 162 565T180 568Q228 568 257 540T287 464Q287 428 269 401T220 358T152 342ZM122 0L589 700H720L252 0H122ZM718 156H793V73H718V156ZM540 122L524 156H668L640 127V283L669 272L540 122ZM734 -1H628V102L654 73H483L464 150L641 365H734V-1Z" />
<glyph unicode="&#xbf;" horiz-adv-x="528" d="M316 304L347 169Q314 161 287 151T237 128T200 101T176 68T167 28Q167 6 179 -11T211 -38T258 -48Q293 -48 327 -24T389 53L488 -36Q443 -104 382 -141T253 -179Q188 -179 136 -153T54 -80T23 23Q23 59 38 93T79
158T142 212T221 249L233 304H316ZM352 460Q352 423 330 400T271 376Q233 376 212 398T191 460Q191 498 213 521T271 545Q310 545 331 523T352 460Z" />
<glyph unicode="&#xc0;" horiz-adv-x="696" d="M7 0L282 700H416L689 0H535L394 377Q388 393 380 418T362 471T345 524T333 567H360Q354 545 347 521T331 471T314 421T297 374L156 0H7ZM135 147L184 267H505L555 147H135ZM439 750L220 827L273 936L474 821L439 750Z" />
<glyph unicode="&#xc1;" horiz-adv-x="696" d="M7 0L282 700H416L689 0H535L394 377Q388 393 380 418T362 471T345 524T333 567H360Q354 545 347 521T331 471T314 421T297 374L156 0H7ZM135 147L184 267H505L555 147H135ZM266 750L232 821L432 936L484 827L266 750Z" />
<glyph unicode="&#xc2;" horiz-adv-x="696" d="M7 0L282 700H416L689 0H535L394 377Q388 393 380 418T362 471T345 524T333 567H360Q354 545 347 521T331 471T314 421T297 374L156 0H7ZM135 147L184 267H505L555 147H135ZM218 754L173 804L305 909H389L522 804L476
754L333 824H362L218 754Z" />
<glyph unicode="&#xc3;" horiz-adv-x="696" d="M7 0L282 700H416L689 0H535L394 377Q388 393 380 418T362 471T345 524T333 567H360Q354 545 347 521T331 471T314 421T297 374L156 0H7ZM135 147L184 267H505L555 147H135ZM424 768Q403 768 382 774T338 791Q320
798 308 802T285 807Q272 807 264 797T255 768H162Q162 831 198 866T286 901Q304 901 322 896T365 878Q381 871 392 867T413 863Q427 863 434 873T441 901H533Q533 865 520 835T482 786T424 768Z" />
<glyph unicode="&#xc4;" horiz-adv-x="696" d="M7 0L282 700H416L689 0H535L394 377Q388 393 380 418T362 471T345 524T333 567H360Q354 545 347 521T331 471T314 421T297 374L156 0H7ZM135 147L184 267H505L555 147H135ZM464 755Q424 755 404 776T383 834Q383
867 404 890T464 913Q504 913 524 892T545 834Q545 802 524 779T464 755ZM233 755Q192 755 172 776T151 834Q151 867 172 890T233 913Q273 913 293 892T314 834Q314 802 293 779T233 755Z" />
<glyph unicode="&#xc5;" horiz-adv-x="696" d="M7 0L282 700H416L689 0H535L394 377Q388 393 380 418T362 471T345 524T333 567H360Q354 545 347 521T331 471T314 421T297 374L156 0H7ZM135 147L184 267H505L555 147H135ZM347 675Q315 675 287 691T240 734T222
792Q222 826 239 853T285 897T347 913Q381 913 409 897T455 854T473 792Q473 761 456 735T410 692T347 675ZM347 750Q366 750 379 762T392 792Q392 812 379 823T347 835Q330 835 317 823T304 792Q304 774 317 762T347 750Z" />
<glyph unicode="&#xc6;" horiz-adv-x="1041" d="M-5 0L483 700H977V575H649V415H932V294H649V125H977V0H507V146H240L322 266H507V558L532 550L156 0H-5Z" />
<glyph unicode="&#xc7;" horiz-adv-x="689" d="M398 -10Q321 -10 257 16T145 91T71 206T45 352Q45 429 72 494T148 608T263 684T406 711Q456 711 504 698T593 658T663 596L569 492Q546 516 520 533T466 560T405 570Q362 570 325 554T259 510T215 441T198 351Q198
301 214 261T259 192T328 148T418 132Q450 132 480 141T535 166T581 203L655 86Q630 59 590 37T499 3T398 -10ZM293 -245L285 -177Q306 -177 330 -171T370 -155T387 -133Q387 -120 374 -113T343 -102T309 -98L293 -86L363 24H438L394 -44Q445 -51 470 -77T495 -139Q495
-168 477 -188T428 -222T363 -240T293 -245Z" />
<glyph unicode="&#xc8;" horiz-adv-x="635" d="M91 0V700H564V568H238V132H571V0H91ZM161 293V421H516V293H161ZM428 750L209 827L262 936L463 821L428 750Z" />
<glyph unicode="&#xc9;" horiz-adv-x="635" d="M91 0V700H564V568H238V132H571V0H91ZM161 293V421H516V293H161ZM256 750L222 821L422 936L474 827L256 750Z" />
<glyph unicode="&#xca;" horiz-adv-x="635" d="M91 0V700H564V568H238V132H571V0H91ZM161 293V421H516V293H161ZM208 754L163 804L295 909H379L512 804L466 754L323 824H352L208 754Z" />
<glyph unicode="&#xcb;" horiz-adv-x="635" d="M91 0V700H564V568H238V132H571V0H91ZM161 293V421H516V293H161ZM453 755Q413 755 393 776T372 834Q372 867 393 890T453 913Q493 913 513 892T534 834Q534 802 513 779T453 755ZM222 755Q181 755 161 776T140 834Q140
867 161 890T222 913Q262 913 282 892T303 834Q303 802 282 779T222 755Z" />
<glyph unicode="&#xcc;" horiz-adv-x="530" d="M73 0V129H190V571H73V700H457V571H340V129H457V0H73ZM356 750L137 827L190 936L391 821L356 750Z" />
<glyph unicode="&#xcd;" horiz-adv-x="530" d="M73 0V129H190V571H73V700H457V571H340V129H457V0H73ZM184 750L150 821L350 936L402 827L184 750Z" />
<glyph unicode="&#xce;" horiz-adv-x="530" d="M73 0V129H190V571H73V700H457V571H340V129H457V0H73ZM135 754L90 804L222 909H306L439 804L393 754L250 824H279L135 754Z" />
<glyph unicode="&#xcf;" horiz-adv-x="530" d="M73 0V129H190V571H73V700H457V571H340V129H457V0H73ZM381 755Q341 755 321 776T300 834Q300 867 321 890T381 913Q421 913 441 892T462 834Q462 802 441 779T381 755ZM150 755Q109 755 89 776T68 834Q68 867 89
890T150 913Q190 913 210 892T231 834Q231 802 210 779T150 755Z" />
<glyph unicode="&#xd0;" horiz-adv-x="764" d="M40 295V405H347V295H40ZM91 0V700H378Q455 700 517 675T625 603T695 492T719 350Q719 273 695 209T626 98T518 26T378 0H91ZM241 109L225 135H373Q418 135 454 150T515 193T554 261T567 350Q567 399 554 438T516
506T454 549T373 565H222L241 589V109Z" />
<glyph unicode="&#xd1;" horiz-adv-x="802" d="M91 0V700H225L612 177H584Q580 208 577 237T572 297T568 360T565 429T564 509V700H711V0H575L180 528L218 527Q223 475 226 439T232 375T236 328T237 290T238 252V0H91ZM478 768Q457 768 436 774T392 791Q374 798
362 802T339 807Q326 807 318 797T309 768H216Q216 831 252 866T340 901Q358 901 376 896T419 878Q435 871 446 867T467 863Q481 863 488 873T495 901H587Q587 865 574 835T536 786T478 768Z" />
<glyph unicode="&#xd2;" horiz-adv-x="802" d="M402 -10Q324 -10 259 17T146 92T71 207T45 352Q45 431 71 497T145 611T259 687T401 714Q479 714 543 687T656 611T731 496T757 352Q757 274 731 208T657 93T544 17T402 -10ZM401 132Q446 132 483 148T547 194T589
264T605 352Q605 400 590 440T547 509T483 555T401 572Q357 572 320 556T255 510T213 440T198 352Q198 304 212 264T255 195T320 149T401 132ZM492 750L273 827L326 936L527 821L492 750Z" />
<glyph unicode="&#xd3;" horiz-adv-x="802" d="M402 -10Q324 -10 259 17T146 92T71 207T45 352Q45 431 71 497T145 611T259 687T401 714Q479 714 543 687T656 611T731 496T757 352Q757 274 731 208T657 93T544 17T402 -10ZM401 132Q446 132 483 148T547 194T589
264T605 352Q605 400 590 440T547 509T483 555T401 572Q357 572 320 556T255 510T213 440T198 352Q198 304 212 264T255 195T320 149T401 132ZM320 750L286 821L486 936L538 827L320 750Z" />
<glyph unicode="&#xd4;" horiz-adv-x="802" d="M402 -10Q324 -10 259 17T146 92T71 207T45 352Q45 431 71 497T145 611T259 687T401 714Q479 714 543 687T656 611T731 496T757 352Q757 274 731 208T657 93T544 17T402 -10ZM401 132Q446 132 483 148T547 194T589
264T605 352Q605 400 590 440T547 509T483 555T401 572Q357 572 320 556T255 510T213 440T198 352Q198 304 212 264T255 195T320 149T401 132ZM272 754L227 804L359 909H443L576 804L530 754L387 824H416L272 754Z" />
<glyph unicode="&#xd5;" horiz-adv-x="802" d="M402 -10Q324 -10 259 17T146 92T71 207T45 352Q45 431 71 497T145 611T259 687T401 714Q479 714 543 687T656 611T731 496T757 352Q757 274 731 208T657 93T544 17T402 -10ZM401 132Q446 132 483 148T547 194T589
264T605 352Q605 400 590 440T547 509T483 555T401 572Q357 572 320 556T255 510T213 440T198 352Q198 304 212 264T255 195T320 149T401 132ZM477 768Q456 768 435 774T391 791Q373 798 361 802T338 807Q325 807 317 797T308 768H215Q215 831 251 866T339 901Q357
901 375 896T418 878Q434 871 445 867T466 863Q480 863 487 873T494 901H586Q586 865 573 835T535 786T477 768Z" />
<glyph unicode="&#xd6;" horiz-adv-x="802" d="M402 -10Q324 -10 259 17T146 92T71 207T45 352Q45 431 71 497T145 611T259 687T401 714Q479 714 543 687T656 611T731 496T757 352Q757 274 731 208T657 93T544 17T402 -10ZM401 132Q446 132 483 148T547 194T589
264T605 352Q605 400 590 440T547 509T483 555T401 572Q357 572 320 556T255 510T213 440T198 352Q198 304 212 264T255 195T320 149T401 132ZM517 755Q477 755 457 776T436 834Q436 867 457 890T517 913Q557 913 577 892T598 834Q598 802 577 779T517 755ZM286
755Q245 755 225 776T204 834Q204 867 225 890T286 913Q326 913 346 892T367 834Q367 802 346 779T286 755Z" />
<glyph unicode="&#xd7;" horiz-adv-x="517" d="M394 61L37 417L123 500L480 144L394 61ZM122 57L39 143L395 500L479 415L122 57Z" />
<glyph unicode="&#xd8;" horiz-adv-x="795" d="M134 -33L71 20L660 741L728 694L134 -33ZM401 -10Q323 -10 258 17T145 92T71 207T44 352Q44 431 70 497T145 611T258 687T401 714Q478 714 543 687T656 611T730 496T757 352Q757 274 731 208T656 93T543 17T401
-10ZM401 132Q445 132 482 148T546 194T589 264T604 352Q604 400 589 440T547 509T482 555T401 572Q356 572 319 556T255 510T212 440T197 352Q197 304 212 264T254 195T319 149T401 132Z" />
<glyph unicode="&#xd9;" horiz-adv-x="757" d="M379 -6Q294 -6 228 29T123 127T85 269V701H236V278Q236 236 255 203T306 149T379 129Q420 129 453 149T506 202T526 278V701H672V269Q672 190 635 128T530 30T379 -6ZM470 750L251 827L304 936L505 821L470 750Z" />
<glyph unicode="&#xda;" horiz-adv-x="757" d="M379 -6Q294 -6 228 29T123 127T85 269V701H236V278Q236 236 255 203T306 149T379 129Q420 129 453 149T506 202T526 278V701H672V269Q672 190 635 128T530 30T379 -6ZM297 750L263 821L463 936L515 827L297 750Z" />
<glyph unicode="&#xdb;" horiz-adv-x="757" d="M379 -6Q294 -6 228 29T123 127T85 269V701H236V278Q236 236 255 203T306 149T379 129Q420 129 453 149T506 202T526 278V701H672V269Q672 190 635 128T530 30T379 -6ZM249 754L204 804L336 909H420L553 804L507
754L364 824H393L249 754Z" />
<glyph unicode="&#xdc;" horiz-adv-x="757" d="M379 -6Q294 -6 228 29T123 127T85 269V701H236V278Q236 236 255 203T306 149T379 129Q420 129 453 149T506 202T526 278V701H672V269Q672 190 635 128T530 30T379 -6ZM494 755Q454 755 434 776T413 834Q413 867
434 890T494 913Q534 913 554 892T575 834Q575 802 554 779T494 755ZM263 755Q222 755 202 776T181 834Q181 867 202 890T263 913Q303 913 323 892T344 834Q344 802 323 779T263 755Z" />
<glyph unicode="&#xdd;" horiz-adv-x="679" d="M274 0V349L281 300L-2 700H171L387 390L319 393L514 700H681L410 289L425 357V0H274ZM258 750L224 821L424 936L476 827L258 750Z" />
<glyph unicode="&#xde;" horiz-adv-x="653" d="M91 0V700H241V584H388Q451 584 501 555T580 474T610 359Q610 294 581 242T501 159T388 128H241V0H91ZM241 263H371Q395 263 414 275T444 309T456 357Q456 384 445 404T414 436T371 448H241V263Z" />
<glyph unicode="&#xdf;" horiz-adv-x="666" d="M425 -10Q381 -10 348 4T289 46L348 138Q369 121 386 114T422 107Q458 107 479 131T501 198Q501 229 490 254T458 300T408 334T343 360V439Q367 449 384 460T411 483T427 509T433 538Q433 571 410 589T345 607Q300
607 276 578T251 499V0H112V499Q112 569 141 622T223 704T351 734Q413 734 461 714T537 656T565 568Q565 538 552 508T514 453T456 413L454 439Q495 426 528 404T586 352T624 284T637 203Q637 142 610 94T535 18T425 -10ZM33 377V500H178V377H33Z" />
<glyph unicode="&#xe0;" horiz-adv-x="651" d="M269 -10Q203 -10 150 26T66 124T35 266Q35 346 66 408T152 505T275 540Q314 540 346 529T403 497T445 451T469 395L439 400V529H580V0H437V127L469 130Q461 102 443 77T399 33T339 2T269 -10ZM308 113Q348 113 378
132T424 185T441 266Q441 311 425 345T378 398T308 418Q269 418 240 399T193 345T176 266Q176 220 193 186T239 132T308 113ZM382 595L187 700L258 797L425 661L382 595Z" />
<glyph unicode="&#xe1;" horiz-adv-x="651" d="M269 -10Q203 -10 150 26T66 124T35 266Q35 346 66 408T152 505T275 540Q314 540 346 529T403 497T445 451T469 395L439 400V529H580V0H437V127L469 130Q461 102 443 77T399 33T339 2T269 -10ZM308 113Q348 113 378
132T424 185T441 266Q441 311 425 345T378 398T308 418Q269 418 240 399T193 345T176 266Q176 220 193 186T239 132T308 113ZM250 594L207 660L374 797L445 699L250 594Z" />
<glyph unicode="&#xe2;" horiz-adv-x="651" d="M269 -10Q203 -10 150 26T66 124T35 266Q35 346 66 408T152 505T275 540Q314 540 346 529T403 497T445 451T469 395L439 400V529H580V0H437V127L469 130Q461 102 443 77T399 33T339 2T269 -10ZM308 113Q348 113 378
132T424 185T441 266Q441 311 425 345T378 398T308 418Q269 418 240 399T193 345T176 266Q176 220 193 186T239 132T308 113ZM196 603L145 647L280 771H372L507 647L456 603L311 685H341L196 603Z" />
<glyph unicode="&#xe3;" horiz-adv-x="651" d="M269 -10Q203 -10 150 26T66 124T35 266Q35 346 66 408T152 505T275 540Q314 540 346 529T403 497T445 451T469 395L439 400V529H580V0H437V127L469 130Q461 102 443 77T399 33T339 2T269 -10ZM308 113Q348 113 378
132T424 185T441 266Q441 311 425 345T378 398T308 418Q269 418 240 399T193 345T176 266Q176 220 193 186T239 132T308 113ZM388 614Q370 614 354 621T317 642Q299 657 289 663T271 669Q257 669 247 657T233 618L150 629Q152 683 182 722T264 761Q282 761 298
755T334 733Q349 721 360 714T381 706Q395 706 405 719T418 757L500 745Q500 711 486 681T447 632T388 614Z" />
<glyph unicode="&#xe4;" horiz-adv-x="651" d="M269 -10Q203 -10 150 26T66 124T35 266Q35 346 66 408T152 505T275 540Q314 540 346 529T403 497T445 451T469 395L439 400V529H580V0H437V127L469 130Q461 102 443 77T399 33T339 2T269 -10ZM308 113Q348 113 378
132T424 185T441 266Q441 311 425 345T378 398T308 418Q269 418 240 399T193 345T176 266Q176 220 193 186T239 132T308 113ZM440 635Q401 635 380 655T359 714Q359 749 381 770T440 792Q479 792 500 772T521 714Q521 679 499 657T440 635ZM212 635Q174 635 153
655T131 714Q131 749 153 770T212 792Q251 792 272 772T293 714Q293 679 272 657T212 635Z" />
<glyph unicode="&#xe5;" horiz-adv-x="651" d="M269 -10Q203 -10 150 26T66 124T35 266Q35 346 66 408T152 505T275 540Q314 540 346 529T403 497T445 451T469 395L439 400V529H580V0H437V127L469 130Q461 102 443 77T399 33T339 2T269 -10ZM308 113Q348 113 378
132T424 185T441 266Q441 311 425 345T378 398T308 418Q269 418 240 399T193 345T176 266Q176 220 193 186T239 132T308 113ZM325 604Q295 604 268 619T225 660T208 717Q208 748 224 773T267 814T325 830Q357 830 383 815T426 774T442 717Q442 686 426 661T384
620T325 604ZM325 678Q342 678 354 689T366 717Q366 734 354 745T325 757Q308 757 296 746T284 717Q284 700 296 689T325 678Z" />
<glyph unicode="&#xe6;" horiz-adv-x="900" d="M215 -10Q163 -10 123 10T59 65T35 149Q35 190 50 221T95 273T169 304T273 315H743L731 302V323Q730 351 715 372T676 406T623 418Q579 418 550 402T505 352T489 272Q489 225 510 190T571 135T661 115Q698 115 727
125T791 164L854 67Q825 42 791 25T720 -1T646 -10Q560 -10 497 24T399 120T364 261Q364 322 383 373T437 461T519 519T621 540Q693 539 748 505T835 412T866 276L865 229H272Q248 229 230 225T198 211T179 188T173 158Q173 140 181 127T206 105T242 97Q272 97
298 107T346 135T379 176L428 99Q407 66 373 42T299 4T215 -10ZM362 251V340Q362 359 355 373T335 398T304 413T265 418Q224 418 194 403T137 352L52 437Q78 469 113 492T191 527T281 540Q329 540 366 530T431 499T473 447T487 374V255L362 251Z" />
<glyph unicode="&#xe7;" horiz-adv-x="542" d="M301 -10Q225 -10 165 26T71 124T36 265Q36 344 70 406T165 504T301 540Q372 540 431 514T523 442L445 348Q431 367 410 382T365 407T314 416Q273 416 242 397T192 343T174 265Q174 223 192 189T243 135T315 115Q341
115 364 122T407 144T445 180L522 86Q489 43 429 17T301 -10ZM205 -245L196 -177Q218 -177 241 -171T281 -155T298 -133Q298 -120 285 -113T254 -102T221 -98L205 -86L275 24H350L305 -44Q356 -51 381 -77T407 -139Q407 -168 388 -188T339 -222T274 -240T205 -245Z"
/>
<glyph unicode="&#xe8;" horiz-adv-x="586" d="M322 -10Q236 -10 172 25T72 121T36 261Q36 323 56 374T112 462T197 520T305 541Q359 541 405 521T484 466T536 382T552 277L551 233H126L103 320H434L418 302V324Q416 351 401 372T361 406T307 419Q263 419 233
402T186 352T170 272Q170 224 190 189T248 135T337 115Q372 115 401 126T463 164L531 69Q502 43 467 26T395 -1T322 -10ZM361 595L166 700L237 797L404 661L361 595Z" />
<glyph unicode="&#xe9;" horiz-adv-x="586" d="M322 -10Q236 -10 172 25T72 121T36 261Q36 323 56 374T112 462T197 520T305 541Q359 541 405 521T484 466T536 382T552 277L551 233H126L103 320H434L418 302V324Q416 351 401 372T361 406T307 419Q263 419 233
402T186 352T170 272Q170 224 190 189T248 135T337 115Q372 115 401 126T463 164L531 69Q502 43 467 26T395 -1T322 -10ZM229 594L186 660L353 797L424 699L229 594Z" />
<glyph unicode="&#xea;" horiz-adv-x="586" d="M322 -10Q236 -10 172 25T72 121T36 261Q36 323 56 374T112 462T197 520T305 541Q359 541 405 521T484 466T536 382T552 277L551 233H126L103 320H434L418 302V324Q416 351 401 372T361 406T307 419Q263 419 233
402T186 352T170 272Q170 224 190 189T248 135T337 115Q372 115 401 126T463 164L531 69Q502 43 467 26T395 -1T322 -10ZM175 603L124 647L259 771H351L486 647L435 603L290 685H320L175 603Z" />
<glyph unicode="&#xeb;" horiz-adv-x="586" d="M322 -10Q236 -10 172 25T72 121T36 261Q36 323 56 374T112 462T197 520T305 541Q359 541 405 521T484 466T536 382T552 277L551 233H126L103 320H434L418 302V324Q416 351 401 372T361 406T307 419Q263 419 233
402T186 352T170 272Q170 224 190 189T248 135T337 115Q372 115 401 126T463 164L531 69Q502 43 467 26T395 -1T322 -10ZM419 635Q380 635 359 655T338 714Q338 749 360 770T419 792Q458 792 479 772T500 714Q500 679 478 657T419 635ZM191 635Q153 635 132 655T110
714Q110 749 132 770T191 792Q230 792 251 772T272 714Q272 679 251 657T191 635Z" />
<glyph unicode="&#xec;" horiz-adv-x="274" d="M66 0V529H208V0H66ZM192 595L-3 700L68 797L235 661L192 595Z" />
<glyph unicode="&#xed;" horiz-adv-x="274" d="M66 0V529H208V0H66ZM316 594L273 660L440 797L511 699L316 594Z" />
<glyph unicode="&#xee;" horiz-adv-x="274" d="M66 0V529H208V0H66ZM262 603L211 647L346 771H438L573 647L522 603L377 685H407L262 603Z" />
<glyph unicode="&#xef;" horiz-adv-x="274" d="M66 0V529H208V0H66ZM506 635Q467 635 446 655T425 714Q425 749 447 770T506 792Q545 792 566 772T587 714Q587 679 565 657T506 635ZM278 635Q240 635 219 655T197 714Q197 749 219 770T278 792Q317 792 338 772T359
714Q359 679 338 657T278 635Z" />
<glyph unicode="&#xf0;" horiz-adv-x="590" d="M294 -7Q220 -7 162 28T70 124T36 258Q36 311 56 358T110 442T189 499T283 520Q333 520 372 499T439 440T476 348L395 379Q393 423 384 459T357 525T314 577T252 618T169 650L215 744Q277 729 329 701T423 631T494
538T538 422T553 286Q553 199 521 133T430 30T294 -7ZM295 116Q330 116 359 135T404 188T421 262Q421 302 405 334T359 385T295 405Q259 405 231 386T185 335T168 262Q168 221 185 188T230 136T295 116ZM152 521L139 586L294 625L350 650L496 683L514 617L401 591L359
569L152 521Z" />
<glyph unicode="&#xf1;" horiz-adv-x="622" d="M71 0V529H207L211 421L183 409Q194 445 222 474T291 522T375 540Q435 540 475 516T536 444T557 324V0H415V313Q415 349 405 373T375 408T324 418Q300 418 280 411T245 389T222 357T213 318V0H143Q120 0 102 0T71
0ZM404 614Q386 614 370 621T333 642Q315 657 305 663T287 669Q273 669 263 657T249 618L166 629Q168 683 198 722T280 761Q298 761 314 755T350 733Q365 721 376 714T397 706Q411 706 421 719T434 757L516 745Q516 711 502 681T463 632T404 614Z" />
<glyph unicode="&#xf2;" horiz-adv-x="633" d="M317 -10Q236 -10 173 25T73 123T36 265Q36 345 72 407T172 504T317 540Q397 540 460 505T560 407T596 265Q596 185 560 123T461 26T317 -10ZM317 114Q356 114 387 133T435 187T452 265Q453 309 436 343T387 397T317
417Q277 417 246 397T197 343T180 265Q179 222 197 188T246 134T317 114ZM373 595L178 700L249 797L416 661L373 595Z" />
<glyph unicode="&#xf3;" horiz-adv-x="633" d="M317 -10Q236 -10 173 25T73 123T36 265Q36 345 72 407T172 504T317 540Q397 540 460 505T560 407T596 265Q596 185 560 123T461 26T317 -10ZM317 114Q356 114 387 133T435 187T452 265Q453 309 436 343T387 397T317
417Q277 417 246 397T197 343T180 265Q179 222 197 188T246 134T317 114ZM241 594L198 660L365 797L436 699L241 594Z" />
<glyph unicode="&#xf4;" horiz-adv-x="633" d="M317 -10Q236 -10 173 25T73 123T36 265Q36 345 72 407T172 504T317 540Q397 540 460 505T560 407T596 265Q596 185 560 123T461 26T317 -10ZM317 114Q356 114 387 133T435 187T452 265Q453 309 436 343T387 397T317
417Q277 417 246 397T197 343T180 265Q179 222 197 188T246 134T317 114ZM187 603L136 647L271 771H363L498 647L447 603L302 685H332L187 603Z" />
<glyph unicode="&#xf5;" horiz-adv-x="633" d="M317 -10Q236 -10 173 25T73 123T36 265Q36 345 72 407T172 504T317 540Q397 540 460 505T560 407T596 265Q596 185 560 123T461 26T317 -10ZM317 114Q356 114 387 133T435 187T452 265Q453 309 436 343T387 397T317
417Q277 417 246 397T197 343T180 265Q179 222 197 188T246 134T317 114ZM379 614Q361 614 345 621T308 642Q290 657 280 663T262 669Q248 669 238 657T224 618L141 629Q143 683 173 722T255 761Q273 761 289 755T325 733Q340 721 351 714T372 706Q386 706 396
719T409 757L491 745Q491 711 477 681T438 632T379 614Z" />
<glyph unicode="&#xf6;" horiz-adv-x="633" d="M317 -10Q236 -10 173 25T73 123T36 265Q36 345 72 407T172 504T317 540Q397 540 460 505T560 407T596 265Q596 185 560 123T461 26T317 -10ZM317 114Q356 114 387 133T435 187T452 265Q453 309 436 343T387 397T317
417Q277 417 246 397T197 343T180 265Q179 222 197 188T246 134T317 114ZM430 635Q391 635 370 655T349 714Q349 749 371 770T430 792Q469 792 490 772T511 714Q511 679 489 657T430 635ZM202 635Q164 635 143 655T121 714Q121 749 143 770T202 792Q241 792 262
772T283 714Q283 679 262 657T202 635Z" />
<glyph unicode="&#xf7;" horiz-adv-x="597" d="M45 204V322H552V204H45ZM295 -11Q271 -11 253 -1T224 26T213 68Q213 90 223 108T252 136T295 146Q320 146 338 137T367 109T377 68Q377 45 367 28T339 0T295 -11ZM295 378Q271 378 253 388T224 415T213 456Q213
479 223 496T252 524T295 535Q320 535 338 526T367 498T377 456Q377 435 367 417T338 389T295 378Z" />
<glyph unicode="&#xf8;" horiz-adv-x="633" d="M116 -35L50 13L509 555L576 506L116 -35ZM317 -10Q236 -10 173 25T73 123T36 265Q36 345 72 407T172 504T317 540Q397 540 460 505T560 407T596 265Q596 185 560 123T461 26T317 -10ZM317 114Q356 114 387 133T435
187T452 265Q453 309 436 343T387 397T317 417Q277 417 246 397T197 343T180 265Q179 222 197 188T246 134T317 114Z" />
<glyph unicode="&#xf9;" horiz-adv-x="630" d="M253 -10Q195 -10 154 15T90 88T67 203V529H209V226Q209 190 221 164T255 123T309 109Q332 109 351 116T385 138T408 171T416 212V529H558V0H423L418 109L444 121Q432 84 404 54T337 7T253 -10ZM371 595L176 700L247
797L414 661L371 595Z" />
<glyph unicode="&#xfa;" horiz-adv-x="630" d="M253 -10Q195 -10 154 15T90 88T67 203V529H209V226Q209 190 221 164T255 123T309 109Q332 109 351 116T385 138T408 171T416 212V529H558V0H423L418 109L444 121Q432 84 404 54T337 7T253 -10ZM239 594L196 660L363
797L434 699L239 594Z" />
<glyph unicode="&#xfb;" horiz-adv-x="630" d="M253 -10Q195 -10 154 15T90 88T67 203V529H209V226Q209 190 221 164T255 123T309 109Q332 109 351 116T385 138T408 171T416 212V529H558V0H423L418 109L444 121Q432 84 404 54T337 7T253 -10ZM185 603L134 647L269
771H361L496 647L445 603L300 685H330L185 603Z" />
<glyph unicode="&#xfc;" horiz-adv-x="630" d="M253 -10Q195 -10 154 15T90 88T67 203V529H209V226Q209 190 221 164T255 123T309 109Q332 109 351 116T385 138T408 171T416 212V529H558V0H423L418 109L444 121Q432 84 404 54T337 7T253 -10ZM429 635Q390 635
369 655T348 714Q348 749 370 770T429 792Q468 792 489 772T510 714Q510 679 488 657T429 635ZM201 635Q163 635 142 655T120 714Q120 749 142 770T201 792Q240 792 261 772T282 714Q282 679 261 657T201 635Z" />
<glyph unicode="&#xfd;" horiz-adv-x="607" d="M145 -230L261 42L263 -40L5 529H166L295 224Q303 207 310 185T323 142L299 131Q306 148 313 170T329 217L440 529H602L380 0L289 -230H145ZM228 594L185 660L352 797L423 699L228 594Z" />
<glyph unicode="&#xfe;" horiz-adv-x="650" d="M71 -220V740H214V410L186 419Q193 451 220 478T289 522T375 539Q427 539 470 519T546 462T596 375T614 265Q614 186 583 124T498 27T375 -9Q329 -9 288 8T218 55T181 117L214 131V-220H71ZM343 113Q382 113 412
132T459 185T476 265Q476 310 459 344T413 397T343 416Q303 416 273 398T226 345T209 265Q209 220 226 186T273 132T343 113Z" />
<glyph unicode="&#xff;" horiz-adv-x="607" d="M145 -230L261 42L263 -40L5 529H166L295 224Q303 207 310 185T323 142L299 131Q306 148 313 170T329 217L440 529H602L380 0L289 -230H145ZM418 635Q379 635 358 655T337 714Q337 749 359 770T418 792Q457 792 478
772T499 714Q499 679 477 657T418 635ZM190 635Q152 635 131 655T109 714Q109 749 131 770T190 792Q229 792 250 772T271 714Q271 679 250 657T190 635Z" />
<glyph unicode="&#x2013;" horiz-adv-x="569" d="M56 225V350H513V225H56Z" />
<glyph unicode="&#x2014;" horiz-adv-x="912" d="M56 225V351H857V225H56Z" />
<glyph unicode="&#x2018;" horiz-adv-x="265" d="M144 447Q115 447 92 462T54 505T40 569Q40 599 52 627T85 681T135 725T197 754L241 701Q200 683 175 658T149 615Q149 603 157 593T179 574Q202 556 210 542T219 510Q219 481 198 464T144 447Z" />
<glyph unicode="&#x2019;" horiz-adv-x="265" d="M67 444L24 497Q65 514 90 539T116 583Q116 595 108 605T86 624Q63 642 55 656T46 688Q46 717 66 734T120 751Q150 751 173 736T211 693T225 629Q225 599 213 571T180 517T130 473T67 444Z" />
<glyph unicode="&#x201a;" horiz-adv-x="281" d="M86 -193L42 -140Q81 -121 104 -94T128 -47Q128 -38 123 -28T101 -3Q79 14 72 29T64 63Q64 92 85 109T139 126Q166 126 188 111T224 68T237 4Q237 -28 226 -58T195 -115T147 -162T86 -193Z" />
<glyph unicode="&#x201c;" horiz-adv-x="487" d="M144 698Q115 698 92 713T54 756T40 820Q40 850 52 878T85 932T135 976T197 1005L241 952Q200 934 175 909T149 866Q149 854 157 844T179 825Q202 807 210 793T219 761Q219 732 198 715T144 698ZM367 442Q338 442
315 457T277 500T263 564Q263 594 275 622T308 676T358 720T420 749L464 696Q423 678 398 653T372 610Q372 598 380 588T402 569Q425 551 433 537T442 505Q442 476 421 459T367 442Z" />
<glyph unicode="&#x201d;" horiz-adv-x="486" d="M67 444L24 497Q65 514 90 539T116 583Q116 595 108 605T86 624Q63 642 55 656T46 688Q46 717 66 734T120 751Q150 751 173 736T211 693T225 629Q225 599 213 571T180 517T130 473T67 444ZM288 444L245 497Q286
514 311 539T337 583Q337 595 329 605T307 624Q284 642 276 656T267 688Q267 717 287 734T341 751Q371 751 394 736T432 693T446 629Q446 599 434 571T401 517T351 473T288 444Z" />
<glyph unicode="&#x201e;" horiz-adv-x="506" d="M86 -193L42 -140Q81 -121 104 -94T128 -47Q128 -38 123 -28T101 -3Q79 14 72 29T64 63Q64 92 85 109T139 126Q166 126 188 111T224 68T237 4Q237 -28 226 -58T195 -115T147 -162T86 -193ZM311 -193L267 -140Q306
-121 329 -94T353 -47Q353 -38 348 -28T326 -3Q304 14 297 29T289 63Q289 92 310 109T364 126Q391 126 413 111T449 68T462 4Q462 -28 451 -58T420 -115T372 -162T311 -193Z" />
<glyph unicode="&#x2022;" horiz-adv-x="346" d="M173 216Q136 216 105 234T56 283T37 351Q37 389 55 420T104 469T173 488Q211 488 242 470T291 420T310 351Q310 314 292 283T242 234T173 216Z" />
<glyph unicode="&#x2039;" horiz-adv-x="301" d="M181 34L11 253V263L180 485L263 428L141 246L142 273L263 91L181 34Z" />
<glyph unicode="&#x203a;" horiz-adv-x="303" d="M121 36L39 93L160 275L159 248L38 430L121 487L291 268V258L121 36Z" />
</font>
</defs>
</svg>
