<?xml version="1.0" standalone="no"?>
<!DOCTYPE svg PUBLIC "-//W3C//DTD SVG 1.1//EN" "http://www.w3.org/Graphics/SVG/1.1/DTD/svg11.dtd">
<svg xmlns="http://www.w3.org/2000/svg">
<defs >
<font id="LexendDeca" horiz-adv-x="588" ><font-face
    font-family="Lexend Deca ExtraBold"
    units-per-em="1000"
    panose-1="0 0 0 0 0 0 0 0 0 0"
    ascent="1000"
    descent="-250"
    alphabetic="0" />
<glyph unicode=" " horiz-adv-x="338" />
<glyph unicode="!" horiz-adv-x="343" d="M112 262Q103 321 94 385T79 512T73 634V717H269V634Q269 575 263 512T248 385T230 262H112ZM171 -11Q127 -11 102 14T77 85Q77 127 103 154T171 181Q216 181 240 156T265 85Q265 43 239 16T171 -11Z" />
<glyph unicode="&quot;" horiz-adv-x="507" d="M282 434L301 700H486L401 434H282ZM48 434L67 700H251L166 434H48Z" />
<glyph unicode="#" horiz-adv-x="760" d="M369 0L489 700H653L533 0H369ZM55 140V289H667V140H55ZM108 0L228 700H393L273 0H108ZM93 420V569H704V420H93Z" />
<glyph unicode="$" horiz-adv-x="639" d="M323 -10Q219 -10 145 19T18 101L102 251Q160 198 217 176T329 154Q351 154 369 158T396 173T406 200Q406 214 398 224T376 241T345 255T311 264T278 272Q199 290 147 319T69 392T43 497Q43 546 66 587T127 657T214 702T318
718Q405 718 474 695T605 619L535 482Q490 519 436 536T326 553Q301 553 283 548T254 534T244 508Q244 494 255 484T283 466T319 455T355 447Q410 436 455 419T535 375T587 310T605 221Q605 146 568 95T467 17T323 -10ZM262 -91L279 380L352 347L368 -91H262ZM370
345L297 378L281 790H387L370 345Z" />
<glyph unicode="%" horiz-adv-x="1026" d="M190 0L653 700H822L354 0H190ZM226 329Q173 329 131 354T64 425T40 526Q40 585 63 629T129 699T226 725Q281 725 323 700T388 630T411 526Q411 470 387 426T321 355T226 329ZM226 444Q241 444 250 454T265 482T270 526Q270
551 265 570T251 599T226 610Q212 610 202 600T186 570T180 526Q180 501 185 483T201 454T226 444ZM800 -10Q747 -10 705 16T638 86T614 187Q614 246 637 290T703 360T800 386Q855 386 896 361T961 291T985 187Q985 131 961 87T895 16T800 -10ZM800 105Q814 105
824 115T839 144T844 187Q844 213 839 231T824 260T800 271Q786 271 776 261T760 232T754 187Q754 162 759 144T775 116T800 105Z" />
<glyph unicode="&amp;" horiz-adv-x="793" d="M582 0L522 61L441 134L307 274Q261 321 233 358T190 425T170 480T164 526Q164 581 193 624T275 693T396 718Q448 718 494 702T574 655T622 585L473 498Q458 537 442 549T403 561Q386 561 374 556T354 539T347 511Q347
492 364 465T408 406T462 347T510 299L556 251L643 174L809 0H582ZM336 -10Q254 -10 190 20T88 102T50 221Q50 291 92 349T217 438L332 332Q281 320 254 295T226 231Q226 201 241 180T283 147T351 135Q388 135 421 151T481 195T523 264T543 354H718Q710 289 687
233T629 132T549 55T451 7T336 -10Z" />
<glyph unicode="&apos;" horiz-adv-x="272" d="M48 434L67 700H251L166 434H48Z" />
<glyph unicode="(" horiz-adv-x="400" d="M290 -186Q168 -110 104 4T40 258Q40 397 104 511T291 702L397 607Q309 547 268 455T226 258Q226 154 267 62T397 -91L290 -186Z" />
<glyph unicode=")" horiz-adv-x="400" d="M109 -186L3 -91Q91 -31 132 61T174 258Q174 362 133 454T3 607L110 702Q232 626 296 512T360 258Q360 119 296 5T109 -186Z" />
<glyph unicode="*" horiz-adv-x="464" d="M169 343L186 488L209 484L73 392L12 496L157 550V540L12 604L73 710L212 604L186 601L166 752H299L282 600L262 605L392 709L453 603L303 539V549L451 496L390 392L265 488H283L301 343H169Z" />
<glyph unicode="+" horiz-adv-x="599" d="M49 211V359H550V211H49ZM220 38V529H379V38H220Z" />
<glyph unicode="," horiz-adv-x="296" d="M83 -209L33 -148Q76 -130 101 -102T127 -54Q127 -44 122 -34T99 -12Q75 5 66 22T56 62Q56 96 81 116T146 136Q177 136 201 120T240 74T255 5Q255 -30 243 -63T207 -126T152 -176T83 -209Z" />
<glyph unicode="-" horiz-adv-x="472" d="M51 204V371H422V204H51Z" />
<glyph unicode="." horiz-adv-x="270" d="M135 -11Q90 -11 66 14T41 85Q41 127 67 154T135 181Q179 181 204 156T229 85Q229 43 203 16T135 -11Z" />
<glyph unicode="/" horiz-adv-x="612" d="M3 -146L421 700H607L191 -146H3Z" />
<glyph unicode="0" horiz-adv-x="705" d="M352 -10Q251 -10 181 32T74 155T37 350Q37 464 73 544T180 667T352 710Q453 710 524 668T631 545T668 350Q668 236 632 156T524 33T352 -10ZM352 155Q413 155 446 205T480 350Q480 448 447 501T352 554Q291 554 258 501T224
350Q224 256 257 206T352 155Z" />
<glyph unicode="1" horiz-adv-x="589" d="M209 49V617L246 506L90 437L61 614L266 710H401V49H209ZM73 0V171H540V0H73Z" />
<glyph unicode="2" horiz-adv-x="548" d="M44 0L10 82L210 297Q228 316 248 340T288 390T320 440T332 483Q332 497 325 508T304 527T266 535Q246 535 228 526T194 496T160 442L15 518Q37 576 78 621T172 693T285 718Q348 717 400 691T483 619T514 510Q514 490
510 468T495 421T469 370T430 312T376 247L217 74L197 171H549V0H44Z" />
<glyph unicode="3" horiz-adv-x="619" d="M303 -10Q214 -10 146 26T24 153L164 243Q184 209 207 189T255 161T308 152Q333 152 354 162T387 191T400 236Q400 263 388 281T354 309T301 319Q287 319 271 316T237 307T201 292L160 399L309 560L367 538L78 546V708H522L557
637L324 392L278 449Q286 453 304 456T343 460Q390 460 433 443T509 395T561 324T580 235Q580 165 543 110T444 22T303 -10Z" />
<glyph unicode="4" horiz-adv-x="681" d="M348 0V567L469 566L205 244L172 282H649V123H93L13 273L377 708H539V0H348Z" />
<glyph unicode="5" horiz-adv-x="609" d="M294 -7Q210 -7 142 25T28 117L134 233Q172 191 207 175T285 159Q314 159 335 170T369 202T381 246Q381 272 369 292T334 324T283 336Q258 336 238 331T195 317T146 289L66 394L111 708H524V546H197L251 619L218 397L143
414Q166 433 195 447T257 471T324 480Q392 480 445 450T530 364T561 238Q561 169 526 114T430 26T294 -7Z" />
<glyph unicode="6" horiz-adv-x="589" d="M299 0Q243 0 195 19T111 74T53 156T32 256Q32 296 40 331T62 400T95 468T138 541L239 710H420L424 700L276 473Q252 435 236 403T205 338T171 260L135 313Q141 351 163 383T216 439T282 476T347 489Q407 489 457 458T537
374T567 260Q567 186 532 127T436 34T299 0ZM302 158Q330 158 352 170T386 204T399 254Q399 278 386 299T351 334T302 347Q274 347 252 335T218 301T205 254Q205 226 217 205T252 171T302 158Z" />
<glyph unicode="7" horiz-adv-x="558" d="M72 0L347 640L411 538H39V708H506L523 622L266 0H72Z" />
<glyph unicode="8" horiz-adv-x="607" d="M303 -3Q228 -3 167 24T70 99T34 207Q34 250 45 283T77 341T130 383T202 410L188 361Q158 372 135 388T95 426T69 472T59 526Q59 582 92 625T180 692T303 717Q371 717 426 693T514 625T547 526Q547 497 539 473T514 428T473
390T417 361L406 406Q443 398 473 383T526 343T561 285T573 207Q573 146 537 99T440 24T303 -3ZM303 146Q327 146 346 155T376 182T387 221Q387 244 377 261T347 288T303 298Q279 298 260 288T230 261T219 221Q219 200 230 183T260 156T303 146ZM303 450Q324 450
341 458T367 481T377 516Q377 535 368 550T341 575T303 584Q282 584 265 575T239 551T229 516Q229 496 238 482T265 459T303 450Z" />
<glyph unicode="9" d="M199 0L195 10L420 452L460 402Q454 364 432 332T377 277T308 240T241 226Q184 226 136 258T59 343T30 457Q30 531 65 590T161 684T299 719Q354 719 402 700T488 646T545 568T566 473Q566 433 559 396T539 322T508 250T471 174L380 0H199ZM290
376Q317 376 338 388T371 422T383 468Q383 496 371 517T338 550T290 562Q263 562 243 551T211 518T199 468Q199 444 211 423T244 389T290 376Z" />
<glyph unicode=":" horiz-adv-x="270" d="M135 -11Q90 -11 66 14T41 85Q41 127 67 154T135 181Q179 181 204 156T229 85Q229 43 203 16T135 -11ZM135 352Q90 352 66 377T41 448Q41 490 67 517T135 544Q179 544 204 519T229 448Q229 406 203 379T135 352Z" />
<glyph unicode=";" horiz-adv-x="304" d="M90 -209L40 -148Q83 -130 108 -102T134 -54Q134 -44 129 -34T106 -12Q82 5 73 22T63 62Q63 96 88 116T153 136Q184 136 208 120T247 74T262 5Q262 -30 250 -63T214 -126T159 -176T90 -209ZM149 353Q104 353 80 378T55
449Q55 491 81 518T149 545Q193 545 218 520T243 449Q243 407 217 380T149 353Z" />
<glyph unicode="&lt;" horiz-adv-x="526" d="M438 -21L38 208V312L438 541L511 391L180 225V295L511 129L438 -21Z" />
<glyph unicode="=" horiz-adv-x="649" d="M75 323V471H574V323H75ZM75 92V240H574V92H75Z" />
<glyph unicode="&gt;" horiz-adv-x="526" d="M101 -21L28 129L359 295V225L28 391L101 541L501 312V208L101 -21Z" />
<glyph unicode="?" horiz-adv-x="547" d="M196 253L161 379Q186 385 210 393T255 411T292 434T318 463T327 499Q327 515 320 525T300 542T270 548Q240 548 209 527T149 451L24 570Q71 641 134 679T268 718Q335 718 389 691T475 617T507 511Q507 472 491 434T446
363T378 306T293 268L287 253H196ZM160 85Q160 127 186 154T254 181Q298 181 323 156T348 85Q348 43 322 16T254 -11Q209 -11 185 14T160 85Z" />
<glyph unicode="@" horiz-adv-x="965" d="M414 -162Q327 -162 258 -136T140 -61T66 56T40 206Q40 323 81 416T196 575T367 675T576 710Q656 710 720 688T830 623T900 524T925 396Q925 326 906 264T851 152T770 75T669 47Q629 47 598 60T550 97T532 152Q532 169
533 186T534 222L565 202Q549 153 524 118T465 65T391 47Q344 47 307 71T248 138T226 237Q226 286 245 337T297 431T375 500T470 527Q501 527 525 510T565 463T584 394L551 381L581 514H745L682 194Q679 179 683 170T696 158T717 154Q743 154 766 172T805 224T832
299T842 391Q842 467 810 521T716 603T569 632Q466 632 384 604T244 520T155 387T124 209Q124 140 143 87T200 -5T292 -62T417 -82Q464 -82 498 -76T563 -56T632 -22L669 -89Q610 -119 568 -134T490 -156T414 -162ZM441 183Q464 183 485 198T523 239T545 298Q547
311 548 321T550 343Q550 360 545 372T529 392T500 399Q472 399 449 378T414 322T401 246Q401 217 412 200T441 183Z" />
<glyph unicode="A" horiz-adv-x="692" d="M-12 0L267 700H427L704 0H507L387 325Q377 352 369 375T354 420T341 465T329 515L361 516Q355 487 349 464T335 420T320 376T301 325L181 0H-12ZM124 116L183 256H507L562 116H124Z" />
<glyph unicode="B" horiz-adv-x="709" d="M83 0V700H400Q474 700 525 679T604 620T631 530Q631 468 602 427T518 372L515 391Q561 380 595 356T649 296T668 214Q668 160 649 120T594 53T512 13T410 0H83ZM268 159H404Q427 159 442 166T466 189T475 225Q475 245
466 258T440 278T399 286H268V159ZM268 423H368Q392 423 408 430T432 450T440 482Q440 509 422 525T365 541H268V423Z" />
<glyph unicode="C" horiz-adv-x="701" d="M417 -10Q335 -10 266 17T147 92T69 207T41 354Q41 433 69 499T149 615T270 691T423 718Q473 718 520 706T610 669T685 609L566 471Q549 490 528 505T481 528T422 537Q385 537 353 525T296 488T259 430T245 352Q245 310
258 277T297 220T358 183T438 170Q469 170 496 179T547 203T588 236L682 87Q657 59 615 37T521 3T417 -10Z" />
<glyph unicode="D" horiz-adv-x="783" d="M83 0V700H385Q464 700 529 674T642 602T716 491T742 350Q742 274 716 210T642 99T529 26T385 0H83ZM281 126L250 171H380Q417 171 446 184T497 220T530 277T542 350Q542 390 530 423T497 479T446 516T380 529H247L281 572V126Z" />
<glyph unicode="E" horiz-adv-x="659" d="M83 0V700H592V537H273V163H607V0H83ZM177 278V432H552V278H177Z" />
<glyph unicode="F" horiz-adv-x="625" d="M83 0V700H281V0H83ZM177 255V414H539V255H177ZM177 529V700H578V529H177Z" />
<glyph unicode="G" horiz-adv-x="788" d="M413 -10Q326 -10 257 17T140 93T66 209T41 354Q41 433 68 499T148 615T270 691T427 718Q486 718 538 703T633 662T705 604L587 478Q565 499 541 514T488 538T424 547Q385 547 353 533T296 493T259 432T245 354Q245 313
259 278T298 216T357 176T432 161Q460 161 484 170T525 194T553 231T563 278V306L589 264H405V408H743Q744 397 745 375T747 330T748 299Q748 232 723 175T653 77T547 13T413 -10Z" />
<glyph unicode="H" horiz-adv-x="788" d="M507 0V700H705V0H507ZM83 0V700H281V0H83ZM158 262L159 436H616V262H158Z" />
<glyph unicode="I" horiz-adv-x="590" d="M74 0V162H196V538H74V700H515V538H394V162H515V0H74Z" />
<glyph unicode="J" horiz-adv-x="675" d="M263 -10Q223 -10 188 -2T124 23T73 62T34 115L145 230Q156 214 166 202T188 182T211 170T237 165Q256 165 270 174T293 199T301 237V530H172V700H600V530H492V213Q492 160 475 119T426 49T354 5T263 -10Z" />
<glyph unicode="K" horiz-adv-x="742" d="M223 201L161 355L500 700H728L223 201ZM83 0V700H281V0H83ZM526 0L270 336L400 448L753 0H526Z" />
<glyph unicode="L" horiz-adv-x="613" d="M83 0V700H281V171H586V0H83Z" />
<glyph unicode="M" horiz-adv-x="884" d="M83 0V700H256L511 285L376 286L634 700H801V0H610V187Q610 277 614 349T630 492L652 433L473 156H407L232 433L254 492Q265 425 269 355T274 187V0H83Z" />
<glyph unicode="N" horiz-adv-x="813" d="M83 0V700H260L600 234L559 244Q554 281 551 311T545 368T541 422T539 481T539 553V700H730V0H551L185 500L254 483Q259 442 262 412T268 358T271 312T273 265T274 208V0H83Z" />
<glyph unicode="O" horiz-adv-x="825" d="M413 -10Q332 -10 264 17T146 93T69 208T41 354Q41 434 68 500T146 615T264 691T413 718Q494 718 561 691T679 615T757 500T784 355Q784 275 757 209T680 93T562 17T413 -10ZM413 174Q449 174 480 187T534 224T569 282T582
354Q582 393 570 426T534 483T480 521T413 534Q376 534 345 521T291 484T256 427T243 354Q243 315 255 282T291 225T345 187T413 174Z" />
<glyph unicode="P" horiz-adv-x="675" d="M83 0V700H393Q462 700 516 670T602 586T634 464Q634 393 603 338T517 250T393 218H281V0H83ZM278 389H359Q380 389 396 397T421 422T431 461Q431 484 422 499T396 521T359 529H278V389Z" />
<glyph unicode="Q" horiz-adv-x="825" d="M616 -110L347 259L488 359L754 -7L616 -110ZM413 -10Q332 -10 264 17T146 93T69 208T41 354Q41 434 68 500T146 615T264 691T413 718Q494 718 561 691T679 615T757 500T784 354Q784 275 757 209T680 93T562 17T413 -10ZM413
174Q449 174 480 187T534 224T569 282T582 354Q582 393 570 426T534 483T480 521T413 534Q376 534 345 521T291 484T256 427T243 354Q243 315 255 282T291 225T345 187T413 174Z" />
<glyph unicode="R" horiz-adv-x="705" d="M83 0V700H406Q477 700 533 671T620 592T652 477Q652 407 621 353T533 269T406 238H269V0H83ZM458 0L280 316L483 341L681 0H458ZM269 380H379Q405 380 422 390T449 419T459 463Q459 487 449 504T420 531T371 541H269V380Z" />
<glyph unicode="S" horiz-adv-x="638" d="M323 -10Q248 -10 190 7T87 56T7 131L123 262Q173 197 226 176T329 154Q351 154 369 158T396 173T406 200Q406 214 398 224T376 241T345 255T311 264T278 272Q219 285 175 305T102 352T58 416T43 497Q43 546 66 587T127
657T214 702T318 718Q392 718 444 704T531 662T593 599L475 485Q454 508 430 523T379 545T326 553Q301 553 283 548T254 534T244 508Q244 494 255 484T283 466T319 455T355 447Q410 436 455 419T535 375T587 310T605 221Q605 146 568 95T467 17T323 -10Z" />
<glyph unicode="T" horiz-adv-x="691" d="M243 0V529H31V700H660V529H441V0H243Z" />
<glyph unicode="U" horiz-adv-x="777" d="M388 -6Q299 -6 230 29T121 127T81 269V700H281V278Q281 245 295 220T333 180T388 165Q421 165 446 179T486 219T501 278V700H695V269Q695 189 656 127T547 30T388 -6Z" />
<glyph unicode="V" horiz-adv-x="711" d="M275 0L-4 700H196L317 374Q329 343 337 321T351 279T363 238T375 186H342Q351 225 359 252T376 306T401 374L520 700H715L434 0H275Z" />
<glyph unicode="W" horiz-adv-x="991" d="M199 0L-4 700H195L286 364Q293 335 298 308T307 257T312 213T315 180H296Q299 210 301 238T310 297T328 364L422 622H575L668 364Q682 326 689 295T701 235T707 181L690 180Q691 195 691 210T692 241T695 277T701 317T711
364L802 700H995L791 0H637L479 387H503L361 0H199Z" />
<glyph unicode="X" horiz-adv-x="713" d="M487 0L270 314L-8 700H231L443 390L726 0H487ZM-13 0L254 381L423 302L216 0H-13ZM459 325L291 401L487 700H716L459 325Z" />
<glyph unicode="Y" horiz-adv-x="702" d="M261 0V349L268 300L-15 700H207L423 390L306 393L501 700H717L446 289L461 357V0H261Z" />
<glyph unicode="Z" horiz-adv-x="694" d="M60 0V129L426 613L505 521H86V700H624V572L260 87L180 169H635V0H60Z" />
<glyph unicode="[" horiz-adv-x="427" d="M80 -190V700H395V537H255L261 545V-39L251 -27H395V-190H80Z" />
<glyph unicode="\" horiz-adv-x="596" d="M406 -107L8 700H194L594 -107H406Z" />
<glyph unicode="]" horiz-adv-x="427" d="M32 -190V-27H172L166 -35V549L176 537H32V700H347V-190H32Z" />
<glyph unicode="^" horiz-adv-x="598" d="M5 358L228 735H370L593 358H411L244 650L356 651L184 358H5Z" />
<glyph unicode="_" horiz-adv-x="685" d="M34 -207V-52H651V-207H34Z" />
<glyph unicode="`" horiz-adv-x="500" d="M332 574L114 691L191 805L386 656L332 574Z" />
<glyph unicode="a" horiz-adv-x="671" d="M263 -9Q197 -9 145 26T62 124T31 267Q31 349 61 411T144 508T266 544Q303 544 334 534T388 505T428 462T456 410L418 412V533H601V0H414V130L455 128Q446 99 429 74T386 31T331 2T263 -9ZM316 144Q348 144 371 158T406
201T419 267Q419 306 407 334T371 376T316 391Q284 391 262 377T227 334T215 267Q215 229 227 201T261 159T316 144Z" />
<glyph unicode="b" horiz-adv-x="671" d="M409 -11Q372 -11 339 -2T280 24T237 63T215 110L253 120L240 1H70V740H257V404L217 417Q223 444 240 467T283 507T339 534T404 544Q473 544 525 509T608 410T639 266Q639 185 609 123T527 25T409 -11ZM355 142Q387 142
409 157T444 200T457 266Q457 305 445 333T410 375T355 390Q323 390 300 376T265 333T252 266Q252 228 264 201T300 158T355 142Z" />
<glyph unicode="c" horiz-adv-x="550" d="M308 -10Q229 -10 167 26T68 124T32 267Q32 347 68 409T166 508T308 544Q380 544 440 521T537 455L436 335Q425 349 408 360T371 378T325 385Q292 385 267 370T229 329T215 268Q215 234 228 208T266 166T325 150Q350 150
370 156T407 173T436 199L537 78Q500 36 440 13T308 -10Z" />
<glyph unicode="d" horiz-adv-x="663" d="M264 -11Q197 -11 145 24T62 122T32 266Q32 347 62 409T146 508T267 544Q302 544 334 534T391 506T434 464T457 413L414 401V740H601V0H432L419 119L456 112Q452 86 435 64T393 25T334 -1T264 -11ZM317 141Q349 141 372
156T407 199T419 266Q419 305 407 333T372 376T317 391Q285 391 262 377T227 334T215 266Q215 227 227 200T262 157T317 141Z" />
<glyph unicode="e" horiz-adv-x="586" d="M327 -10Q236 -10 170 25T68 123T32 266Q32 326 52 377T108 465T193 523T302 544Q360 544 407 524T489 467T542 380T559 270L558 228H138L115 321H409L391 301V320Q391 342 380 358T349 384T306 393Q272 393 250 380T215
341T203 281Q203 241 219 212T268 167T348 151Q379 151 402 159T453 187L539 66Q504 38 469 22T398 -2T327 -10Z" />
<glyph unicode="f" horiz-adv-x="393" d="M93 0V545Q93 600 117 645T184 717T284 744Q324 744 357 733T420 702L370 569Q357 573 346 575T327 578Q310 578 300 572T285 554T280 525V0H187Q153 0 130 0T93 0ZM18 367V516H382V367H18Z" />
<glyph unicode="g" horiz-adv-x="678" d="M317 -230Q248 -230 180 -211T69 -160L132 -33Q154 -47 178 -57T230 -73T287 -78Q335 -78 365 -65T410 -23T425 49V133L464 128Q457 95 430 69T363 27T278 11Q206 11 151 43T64 134T32 270Q32 351 63 412T149 509T273
544Q303 544 330 538T380 521T422 495T451 461T467 423L429 414L438 533H612V49Q612 -18 592 -69T534 -157T441 -211T317 -230ZM322 147Q356 147 380 162T417 204T430 269Q430 307 417 334T380 376T322 391Q288 391 264 377T228 335T215 269Q215 231 227 204T264
162T322 147Z" />
<glyph unicode="h" horiz-adv-x="653" d="M70 0V740H252V425L214 413Q224 451 253 480T322 527T406 544Q466 544 507 520T570 447T592 328V0H406V313Q406 339 398 356T374 383T336 391Q319 391 305 386T279 371T263 347T257 318V0H164Q130 0 107 0T70 0Z" />
<glyph unicode="i" horiz-adv-x="338" d="M76 0V533H262V0H76ZM169 634Q118 634 90 657T62 724Q62 764 90 789T169 815Q219 815 247 792T276 724Q276 684 247 659T169 634Z" />
<glyph unicode="j" horiz-adv-x="338" d="M29 -215L-42 -71Q7 -71 33 -60T70 -21T80 59V533H266V15Q266 -68 240 -118T161 -192T29 -215ZM176 634Q125 634 97 657T69 724Q69 764 97 789T176 815Q226 815 254 792T283 724Q283 684 254 659T176 634Z" />
<glyph unicode="k" horiz-adv-x="652" d="M252 152L168 276L415 533H658L252 152ZM70 0V740H257V0H70ZM433 0L251 248L382 344L648 0H433Z" />
<glyph unicode="l" horiz-adv-x="328" d="M71 0V740H257V0H71Z" />
<glyph unicode="m" horiz-adv-x="981" d="M70 0V533H244L251 445L228 449Q242 475 261 493T303 522T350 539T396 544Q433 544 464 534T520 498T561 428L532 430L540 444Q555 470 575 488T621 519T672 538T723 544Q788 544 832 519T898 446T920 327V0H734V312Q734
338 726 355T703 382T666 391Q649 391 635 386T610 370T594 347T588 317V0H402V313Q402 338 394 355T371 381T334 391Q317 391 303 386T278 370T262 347T256 318V0H70Z" />
<glyph unicode="n" horiz-adv-x="653" d="M70 0V533H244L252 425L214 413Q224 451 253 480T322 527T406 544Q466 544 507 520T570 447T592 328V0H406V313Q406 339 398 356T374 383T336 391Q319 391 305 386T279 371T263 347T257 318V0H164Q130 0 107 0T70 0Z" />
<glyph unicode="o" horiz-adv-x="652" d="M327 -10Q242 -10 175 26T70 124T32 267Q32 348 70 410T175 508T327 544Q412 544 478 508T583 410T621 267Q621 186 583 124T479 26T327 -10ZM327 147Q357 147 381 162T419 205T433 267Q433 303 420 330T382 372T327 388Q296
388 272 373T234 330T220 267Q220 233 234 206T272 163T327 147Z" />
<glyph unicode="p" horiz-adv-x="671" d="M70 -220V533H244L253 415L217 424Q223 458 250 485T319 528T408 544Q475 544 527 509T609 411T639 267Q639 187 609 125T526 27T405 -9Q360 -9 320 7T252 52T216 117L258 131V-220H70ZM355 144Q387 144 410 159T445 201T457
267Q457 306 445 333T410 376T355 391Q323 391 300 377T265 334T253 267Q253 229 265 202T300 159T355 144Z" />
<glyph unicode="q" horiz-adv-x="671" d="M413 -220V130L454 118Q449 92 432 69T390 28T333 1T267 -9Q199 -9 146 26T63 124T32 267Q32 349 62 411T144 508T263 544Q300 544 333 535T393 508T436 469T457 420L418 412L427 533H600V-220H413ZM316 144Q348 144 371
158T406 200T418 267Q418 306 406 334T371 376T316 391Q284 391 261 377T226 334T214 267Q214 229 226 201T261 159T316 144Z" />
<glyph unicode="r" horiz-adv-x="478" d="M70 0V533H244L254 358L215 388Q228 432 255 467T322 523T404 544Q422 544 438 542T468 535L417 329Q406 336 386 341T343 347Q323 347 307 341T280 322T263 294T257 255V0H70Z" />
<glyph unicode="s" horiz-adv-x="502" d="M252 -10Q169 -10 106 16T8 83L117 177Q149 148 189 134T261 120Q272 120 281 122T295 128T304 138T308 151Q308 168 291 177Q282 181 262 187T207 202Q165 213 132 228T76 265Q54 286 42 313T29 374Q29 414 47 445T97
498T169 532T251 544Q298 544 339 535T417 508T483 465L387 359Q370 374 348 387T301 408T256 417Q243 417 234 415T219 409T210 399T207 386Q207 377 212 369T228 356Q237 351 258 344T321 325Q367 312 401 295T456 256Q471 239 479 219T487 173Q487 120 457 79T373
14T252 -10Z" />
<glyph unicode="t" horiz-adv-x="405" d="M105 0V668H291V0H105ZM17 375V533H384V375H17Z" />
<glyph unicode="u" horiz-adv-x="658" d="M250 -11Q190 -11 148 14T84 88T62 204V533H248V223Q248 197 257 179T282 152T321 142Q339 142 353 147T378 162T394 186T400 216V533H586V0H414L404 108L439 120Q428 83 400 53T333 6T250 -11Z" />
<glyph unicode="v" horiz-adv-x="620" d="M230 0L8 533H215L334 135L286 134L406 533H612L379 0H230Z" />
<glyph unicode="w" horiz-adv-x="849" d="M181 0L8 533H205L291 210L270 214L367 465H475L580 214L559 211L644 533H841L659 0H519L418 262H425L321 0H181Z" />
<glyph unicode="x" horiz-adv-x="626" d="M388 0L300 149L231 246L27 533H247L329 395L404 292L607 0H388ZM19 0L236 311L334 195L238 0H19ZM384 221L287 337L381 533H600L384 221Z" />
<glyph unicode="y" horiz-adv-x="638" d="M128 -230L256 72L258 -10L5 533H213L302 321Q313 296 321 272T334 225L313 209Q317 222 325 245T343 298L424 533H633L402 0L309 -230H128Z" />
<glyph unicode="z" horiz-adv-x="580" d="M50 0V94L338 456V385H50V533H516V433L249 84L245 148H526V0H50Z" />
<glyph unicode="{" horiz-adv-x="433" d="M362 -208Q309 -197 270 -181T205 -140T166 -82T153 -7L154 88Q154 134 134 154T75 175H37V325H77Q116 326 135 345T154 412L153 507Q153 589 204 637T362 708L404 573Q372 562 355 553T330 526T322 476L324 398Q324 340
285 301T157 241V260Q245 238 284 199T324 102L322 24Q322 -5 329 -20T354 -45T404 -64L362 -208Z" />
<glyph unicode="|" horiz-adv-x="358" d="M90 -193V740H267V-193H90Z" />
<glyph unicode="}" horiz-adv-x="433" d="M72 -208L29 -73Q61 -62 79 -53T104 -26T112 24L110 102Q110 160 149 199T276 259V240Q189 262 150 301T110 398L112 476Q112 506 105 521T79 545T29 564L72 708Q124 698 163 681T228 640T267 582T280 507L279 412Q279
366 299 346T358 325H397V175H356Q317 174 298 155T279 88L280 -7Q280 -89 229 -137T72 -208Z" />
<glyph unicode="~" horiz-adv-x="580" d="M395 192Q378 192 360 196T323 206T286 221Q272 227 256 233T226 243T202 248Q182 248 172 231T161 182H28Q28 290 68 348T194 406Q206 406 220 403T249 395T276 385T301 374Q313 369 326 363T353 353T378 349Q395 349
406 367T415 413L548 412Q548 339 531 291T480 217T395 192Z" />
<glyph unicode="&#xa0;" horiz-adv-x="338" />
<glyph unicode="&#xa1;" horiz-adv-x="343" d="M229 268Q238 209 247 146T262 19T268 -104V-187H72V-104Q72 -45 78 19T93 146T111 268H229ZM170 541Q214 541 239 516T264 445Q264 403 238 376T170 349Q125 349 101 374T76 445Q76 487 102 514T170 541Z" />
<glyph unicode="&#xa2;" horiz-adv-x="575" d="M333 78Q251 78 187 114T86 212T48 355Q48 435 85 497T187 596T333 632Q405 632 465 609T562 543L461 423Q449 437 433 448T396 466T350 473Q314 473 288 458T246 417T231 356Q231 322 246 296T287 254T350 238Q375
238 395 244T432 261T461 287L562 166Q525 124 465 101T333 78ZM276 0V108L311 146V552L276 606V708H407V605L378 554V144L407 107V0H276Z" />
<glyph unicode="&#xa3;" horiz-adv-x="651" d="M180 53L105 74Q125 85 141 105T166 149T175 194Q175 208 171 228T161 270T148 314T135 352Q123 389 117 413T109 454T106 487Q106 557 138 609T228 689T365 718Q438 718 491 694T571 625L429 513Q421 527 410 535T386
546T357 550Q332 550 313 540T283 512T272 469Q272 438 279 410T297 353Q308 316 315 284T323 231Q323 200 310 172T265 115T180 53ZM459 -21Q419 -21 383 -12T325 4Q312 8 295 13T259 22T219 26Q185 26 152 15T82 -14L17 119Q63 147 115 164T222 181Q254 181 278
176T346 156Q367 149 392 142T449 134Q469 134 496 142T553 169L635 45Q598 12 549 -4T459 -21ZM44 295V392H477V295H44Z" />
<glyph unicode="&#xa4;" horiz-adv-x="565" d="M283 104Q219 104 169 130T90 202T61 307Q61 366 89 412T168 484T283 510Q347 510 396 484T475 412T504 307Q504 248 475 202T397 130T283 104ZM131 50L20 163L104 248L214 133L131 50ZM96 376L18 453L130 564L211
484L96 376ZM283 235Q303 235 318 244T342 269T350 307Q350 329 342 345T319 371T283 380Q263 380 248 371T223 346T214 307Q214 286 223 270T247 244T283 235ZM438 52L355 134L464 248L550 164L438 52ZM459 362L347 473L438 566L550 454L459 362Z" />
<glyph unicode="&#xa5;" horiz-adv-x="702" d="M261 0V349L268 300L-15 700H207L423 390L306 393L501 700H717L446 289L461 357V0H261ZM140 138V203L585 202V138H140ZM140 253V318L585 317V253H140Z" />
<glyph unicode="&#xa6;" horiz-adv-x="362" d="M91 -202V190H271V-202H91ZM91 349V740H271V349H91Z" />
<glyph unicode="&#xa7;" horiz-adv-x="586" d="M360 134L307 222Q331 225 346 232T370 250T378 274Q378 291 365 301T324 324L259 350Q218 368 184 387T126 430T88 483T74 552Q74 585 87 615T130 668T204 705T314 718Q367 718 412 707T492 675T551 627L456 526Q427
551 402 564T354 582T314 587Q283 587 268 576T252 548Q252 532 263 522T292 503T330 485L412 452Q483 422 518 382T553 286Q552 245 529 213T464 160T360 134ZM269 -146Q216 -146 170 -134T87 -101T26 -53L119 50Q165 12 202 -1T268 -15Q301 -15 316 -5T332 27Q332
41 319 52T285 72T240 92L168 120Q98 149 64 189T29 285Q29 326 51 358T116 412T219 438L272 348Q250 346 235 339T213 322T206 297Q206 280 219 269T262 245L321 222Q380 197 422 172T487 114T510 30Q510 -18 486 -58T408 -122T269 -146Z" />
<glyph unicode="&#xa8;" horiz-adv-x="500" d="M380 619Q334 619 310 643T285 713Q285 754 310 780T380 807Q425 807 450 783T475 713Q475 671 450 645T380 619ZM121 619Q75 619 51 643T26 713Q26 754 51 780T121 807Q166 807 191 783T216 713Q216 671 191 645T121 619Z" />
<glyph unicode="&#xa9;" horiz-adv-x="793" d="M395 -24Q317 -24 250 5T131 85T51 204T22 350Q22 428 50 496T130 615T249 695T395 724Q473 724 540 695T660 615T740 496T769 350Q769 272 741 204T660 85T541 5T395 -24ZM410 144Q351 144 304 171T228 244T199
349Q199 406 227 453T303 529T410 557Q447 557 481 545T548 507L494 389Q482 398 470 403T448 411T428 414Q407 414 392 405T368 382T359 349Q359 330 368 316T392 293T428 284Q442 284 460 289T496 308L552 188Q520 166 484 155T410 144ZM395 50Q458 50 512 73T608
138T672 233T695 350Q695 412 672 467T608 562T513 626T395 650Q333 650 279 627T183 563T119 467T96 350Q96 288 119 234T183 138T278 74T395 50Z" />
<glyph unicode="&#xaa;" horiz-adv-x="402" d="M138 390Q102 390 75 411T34 472T19 562Q19 608 36 644T82 701T150 722Q208 722 234 691T261 600L238 648V715H364V401H238V474L261 504Q261 475 247 449T206 407T138 390ZM192 491Q206 491 217 499T235 523T242
557Q242 587 229 604T191 621Q177 621 167 613T150 590T144 560Q144 538 149 523T165 500T192 491Z" />
<glyph unicode="&#xab;" horiz-adv-x="597" d="M456 16L273 250V267L456 502L561 430L437 237V281L561 88L456 16ZM193 16L10 250V267L193 502L298 430L174 237V281L298 88L193 16Z" />
<glyph unicode="&#xac;" horiz-adv-x="670" d="M461 100V319L546 263H38V421H632V100H461Z" />
<glyph unicode="&#xad;" horiz-adv-x="481" d="M59 204V371H430V204H59Z" />
<glyph unicode="&#xae;" horiz-adv-x="507" d="M260 226Q187 226 127 260T32 353T-3 484Q-3 538 17 585T74 667T157 722T260 742Q312 742 358 722T439 667T494 585T514 484Q514 430 494 383T439 301T359 246T260 226ZM260 290Q312 290 355 316T424 386T450 484Q450
538 424 582T355 652T260 679Q205 679 160 653T87 582T60 484Q60 429 87 385T159 316T260 290ZM294 367L257 450L331 469L391 367H294ZM153 367V606H280Q320 606 345 585T370 528Q370 493 344 471T280 449H231L243 462V367H153ZM243 495L231 502H260Q269 502 275
507T282 521Q282 530 277 534T262 539H231L243 547V495Z" />
<glyph unicode="&#xaf;" horiz-adv-x="424" d="M71 630V743H429V630H71Z" />
<glyph unicode="&#xb0;" horiz-adv-x="532" d="M266 391Q218 391 179 412T116 471T93 553Q93 599 116 636T177 695T266 717Q316 717 354 696T416 637T439 554Q439 509 416 472T354 413T266 391ZM266 499Q280 499 291 506T310 526T317 554Q317 569 310 581T292
601T266 608Q251 608 240 601T222 581T215 553Q215 538 222 526T240 506T266 499Z" />
<glyph unicode="&#xb1;" horiz-adv-x="667" d="M75 325V473H589V325H75ZM77 -8V140H592V-8H77ZM247 202V595H418V202H247Z" />
<glyph unicode="&#xb2;" horiz-adv-x="373" d="M58 418L43 507L147 583Q165 596 180 610T205 638T215 666Q215 678 209 685T191 693Q170 693 153 677T125 641L36 704Q59 736 84 758T137 791T201 802Q242 802 272 787T319 746T336 689Q336 644 315 612T262 557T196
515L148 486L149 518H348V418H58Z" />
<glyph unicode="&#xb3;" horiz-adv-x="362" d="M182 412Q150 412 125 415T77 426T26 446L77 534Q93 526 111 521T150 515Q170 515 183 524T196 548Q196 560 185 568T151 576Q137 576 123 574T95 567L71 630L232 734L235 696H57V796H289L300 704L171 616L169 622Q182
630 195 634T218 638Q260 638 290 610T321 535Q321 498 302 471T251 428T182 412Z" />
<glyph unicode="&#xb4;" horiz-adv-x="500" d="M168 573L114 655L309 804L386 690L168 573Z" />
<glyph unicode="&#xb5;" horiz-adv-x="663" d="M72 -164V533H257V222Q257 196 265 178T289 151T327 142Q345 142 359 147T384 163T401 188T407 218V533H592V0H421L412 93L431 86Q407 51 384 31T331 2T262 -12Q254 -12 248 -11T238 -8T231 -3L249 68L257 -164H72Z" />
<glyph unicode="&#xb6;" horiz-adv-x="786" d="M248 0V314L305 271H229Q175 271 133 298T66 373T41 482Q41 548 69 597T147 673T266 700H703V0H512V660L578 596H345L439 652V0H248Z" />
<glyph unicode="&#xb7;" horiz-adv-x="270" d="M135 253Q90 253 66 278T41 349Q41 391 67 418T135 445Q179 445 204 420T229 349Q229 307 203 280T135 253Z" />
<glyph unicode="&#xb8;" horiz-adv-x="500" d="M148 -246L138 -162Q157 -162 178 -158T213 -146T228 -127Q228 -117 219 -110T196 -100T166 -97L146 -82L214 24H306L259 -41Q312 -46 337 -74T363 -139Q363 -172 343 -193T291 -226T221 -243T148 -246Z" />
<glyph unicode="&#xb9;" horiz-adv-x="295" d="M111 431V730L134 679L67 639L16 730L143 804H243V431H177Q161 431 145 431T111 431Z" />
<glyph unicode="&#xba;" horiz-adv-x="421" d="M209 393Q159 393 121 414T60 471T37 555Q37 602 59 638T120 697T209 719Q258 719 298 697T361 638T384 555Q384 508 362 472T299 414T209 393ZM208 484Q224 484 234 493T251 519T257 557Q257 579 252 594T235 618T208
627Q194 627 183 618T166 593T160 557Q160 535 166 519T182 493T208 484Z" />
<glyph unicode="&#xbb;" horiz-adv-x="598" d="M405 19L300 91L424 284V240L300 433L404 505L588 271V254L405 19ZM141 19L36 91L160 284V240L36 433L140 505L324 271V254L141 19Z" />
<glyph unicode="&#xbc;" horiz-adv-x="833" d="M120 361V660L143 609L76 569L25 660L152 734H252V361H186Q170 361 154 361T120 361ZM79 0L546 700H711L243 0H79ZM728 164H801V64H728V164ZM536 130L520 164H668L628 123V282L657 271L536 130ZM744 0H603V104L642
64H455L434 149L620 375H744V0Z" />
<glyph unicode="&#xbd;" horiz-adv-x="846" d="M120 361V660L143 609L76 569L25 660L152 734H252V361H186Q170 361 154 361T120 361ZM79 0L546 700H711L243 0H79ZM517 0L502 89L606 165Q624 178 639 192T664 220T674 248Q674 260 668 267T650 275Q629 275 612
259T584 223L495 286Q518 318 543 340T596 373T660 384Q701 384 731 369T778 328T795 271Q795 226 774 194T721 139T655 97L607 68L608 100H807V0H517Z" />
<glyph unicode="&#xbe;" horiz-adv-x="876" d="M180 342Q148 342 123 345T75 356T24 376L75 464Q91 456 109 451T148 445Q168 445 181 454T194 478Q194 490 183 498T149 506Q135 506 121 504T93 497L69 560L230 664L233 626H55V726H287L298 634L169 546L167 552Q180
560 193 564T216 568Q258 568 288 540T319 465Q319 428 300 401T249 358T180 342ZM124 0L591 700H756L288 0H124ZM771 164H844V64H771V164ZM579 130L563 164H711L671 123V282L700 271L579 130ZM787 0H646V104L685 64H498L477 149L663 375H787V0Z" />
<glyph unicode="&#xbf;" horiz-adv-x="547" d="M335 281L370 155Q345 149 321 141T276 123T239 100T213 71T204 35Q204 20 211 9T231 -8T261 -14Q292 -14 322 7T382 83L507 -36Q460 -107 397 -145T263 -184Q196 -184 142 -157T56 -83T24 23Q24 63 40 100T85 171T153
228T238 266L245 281H335ZM372 449Q372 407 346 380T278 353Q233 353 209 378T184 449Q184 491 210 518T278 545Q322 545 347 520T372 449Z" />
<glyph unicode="&#xc0;" horiz-adv-x="692" d="M-12 0L267 700H427L704 0H507L387 325Q377 352 369 375T354 420T341 465T329 515L361 516Q355 487 349 464T335 420T320 376T301 325L181 0H-12ZM124 116L183 256H507L562 116H124ZM453 744L216 824L274 953L494
838L453 744Z" />
<glyph unicode="&#xc1;" horiz-adv-x="692" d="M-12 0L267 700H427L704 0H507L387 325Q377 352 369 375T354 420T341 465T329 515L361 516Q355 487 349 464T335 420T320 376T301 325L181 0H-12ZM124 116L183 256H507L562 116H124ZM248 744L208 838L428 953L486
824L248 744Z" />
<glyph unicode="&#xc2;" horiz-adv-x="692" d="M-12 0L267 700H427L704 0H507L387 325Q377 352 369 375T354 420T341 465T329 515L361 516Q355 487 349 464T335 420T320 376T301 325L181 0H-12ZM124 116L183 256H507L562 116H124ZM211 753L156 820L298 929H395L536
820L482 753L331 827H361L211 753Z" />
<glyph unicode="&#xc3;" horiz-adv-x="692" d="M-12 0L267 700H427L704 0H507L387 325Q377 352 369 375T354 420T341 465T329 515L361 516Q355 487 349 464T335 420T320 376T301 325L181 0H-12ZM124 116L183 256H507L562 116H124ZM424 768Q406 768 387 773T343
790Q324 799 312 803T290 808Q275 808 267 798T259 769H149Q149 840 185 881T283 923Q299 923 315 919T362 901Q379 892 389 888T408 884Q421 884 427 895T433 923H542Q542 880 528 845T486 789T424 768Z" />
<glyph unicode="&#xc4;" horiz-adv-x="692" d="M-12 0L267 700H427L704 0H507L387 325Q377 352 369 375T354 420T341 465T329 515L361 516Q355 487 349 464T335 420T320 376T301 325L181 0H-12ZM124 116L183 256H507L562 116H124ZM475 752Q430 752 406 776T381
846Q381 886 406 913T475 940Q521 940 545 916T570 846Q570 805 545 779T475 752ZM215 752Q170 752 146 776T121 846Q121 886 146 913T215 940Q261 940 285 916T310 846Q310 805 285 779T215 752Z" />
<glyph unicode="&#xc5;" horiz-adv-x="692" d="M-12 0L267 700H427L704 0H507L387 325Q377 352 369 375T354 420T341 465T329 515L361 516Q355 487 349 464T335 420T320 376T301 325L181 0H-12ZM124 116L183 256H507L562 116H124ZM346 671Q308 671 276 689T223
736T203 801Q203 839 222 870T274 921T346 940Q384 940 416 921T468 871T488 801Q488 766 469 737T417 689T346 671ZM346 763Q361 763 372 774T383 801Q383 818 372 828T346 839Q331 839 320 828T308 801Q308 785 319 774T346 763Z" />
<glyph unicode="&#xc6;" horiz-adv-x="1123" d="M-16 0L472 700H1071V539H743V430H1026V278H743V161H1071V0H554V138H281L385 290H554V558L579 550L203 0H-16Z" />
<glyph unicode="&#xc7;" horiz-adv-x="701" d="M417 -10Q335 -10 266 17T147 92T69 207T41 354Q41 433 69 499T149 615T270 691T423 718Q473 718 520 706T610 669T685 609L566 471Q549 490 528 505T481 528T422 537Q385 537 353 525T296 488T259 430T245 352Q245
310 258 277T297 220T358 183T438 170Q469 170 496 179T547 203T588 236L682 87Q657 59 615 37T521 3T417 -10ZM304 -246L294 -162Q313 -162 334 -158T369 -146T384 -127Q384 -117 375 -110T352 -100T322 -97L302 -82L370 24H462L415 -41Q468 -46 493 -74T519 -139Q519
-172 499 -193T447 -226T377 -243T304 -246Z" />
<glyph unicode="&#xc8;" horiz-adv-x="659" d="M83 0V700H592V537H273V163H607V0H83ZM177 278V432H552V278H177ZM457 744L220 824L278 953L498 838L457 744Z" />
<glyph unicode="&#xc9;" horiz-adv-x="659" d="M83 0V700H592V537H273V163H607V0H83ZM177 278V432H552V278H177ZM251 744L211 838L431 953L489 824L251 744Z" />
<glyph unicode="&#xca;" horiz-adv-x="659" d="M83 0V700H592V537H273V163H607V0H83ZM177 278V432H552V278H177ZM214 753L159 820L301 929H398L539 820L485 753L334 827H364L214 753Z" />
<glyph unicode="&#xcb;" horiz-adv-x="659" d="M83 0V700H592V537H273V163H607V0H83ZM177 278V432H552V278H177ZM479 752Q434 752 410 776T385 846Q385 886 410 913T479 940Q525 940 549 916T574 846Q574 805 549 779T479 752ZM219 752Q174 752 150 776T125 846Q125
886 150 913T219 940Q265 940 289 916T314 846Q314 805 289 779T219 752Z" />
<glyph unicode="&#xcc;" horiz-adv-x="590" d="M74 0V162H196V538H74V700H515V538H394V162H515V0H74ZM402 744L165 824L223 953L443 838L402 744Z" />
<glyph unicode="&#xcd;" horiz-adv-x="590" d="M74 0V162H196V538H74V700H515V538H394V162H515V0H74ZM196 744L156 838L376 953L434 824L196 744Z" />
<glyph unicode="&#xce;" horiz-adv-x="590" d="M74 0V162H196V538H74V700H515V538H394V162H515V0H74ZM160 753L105 820L247 929H344L485 820L431 753L280 827H310L160 753Z" />
<glyph unicode="&#xcf;" horiz-adv-x="590" d="M74 0V162H196V538H74V700H515V538H394V162H515V0H74ZM424 752Q379 752 355 776T330 846Q330 886 355 913T424 940Q470 940 494 916T519 846Q519 805 494 779T424 752ZM164 752Q119 752 95 776T70 846Q70 886 95
913T164 940Q210 940 234 916T259 846Q259 805 234 779T164 752Z" />
<glyph unicode="&#xd0;" horiz-adv-x="783" d="M29 284V416H380V284H29ZM83 0V700H385Q464 700 529 674T642 602T716 491T742 350Q742 274 716 210T642 99T529 26T385 0H83ZM281 126L250 171H380Q417 171 446 184T497 220T530 277T542 350Q542 390 530 423T497
479T446 516T380 529H247L281 572V126Z" />
<glyph unicode="&#xd1;" horiz-adv-x="813" d="M83 0V700H260L600 234L559 244Q554 281 551 311T545 368T541 422T539 481T539 553V700H730V0H551L185 500L254 483Q259 442 262 412T268 358T271 312T273 265T274 208V0H83ZM485 768Q467 768 448 773T404 790Q385
799 373 803T351 808Q336 808 328 798T320 769H210Q210 840 246 881T344 923Q360 923 376 919T423 901Q440 892 450 888T469 884Q482 884 488 895T494 923H603Q603 880 589 845T547 789T485 768Z" />
<glyph unicode="&#xd2;" horiz-adv-x="825" d="M413 -10Q332 -10 264 17T146 93T69 208T41 354Q41 434 68 500T146 615T264 691T413 718Q494 718 561 691T679 615T757 500T784 355Q784 275 757 209T680 93T562 17T413 -10ZM413 174Q449 174 480 187T534 224T569
282T582 354Q582 393 570 426T534 483T480 521T413 534Q376 534 345 521T291 484T256 427T243 354Q243 315 255 282T291 225T345 187T413 174ZM520 744L283 824L341 953L561 838L520 744Z" />
<glyph unicode="&#xd3;" horiz-adv-x="825" d="M413 -10Q332 -10 264 17T146 93T69 208T41 354Q41 434 68 500T146 615T264 691T413 718Q494 718 561 691T679 615T757 500T784 355Q784 275 757 209T680 93T562 17T413 -10ZM413 174Q449 174 480 187T534 224T569
282T582 354Q582 393 570 426T534 483T480 521T413 534Q376 534 345 521T291 484T256 427T243 354Q243 315 255 282T291 225T345 187T413 174ZM314 744L274 838L494 953L552 824L314 744Z" />
<glyph unicode="&#xd4;" horiz-adv-x="825" d="M413 -10Q332 -10 264 17T146 93T69 208T41 354Q41 434 68 500T146 615T264 691T413 718Q494 718 561 691T679 615T757 500T784 355Q784 275 757 209T680 93T562 17T413 -10ZM413 174Q449 174 480 187T534 224T569
282T582 354Q582 393 570 426T534 483T480 521T413 534Q376 534 345 521T291 484T256 427T243 354Q243 315 255 282T291 225T345 187T413 174ZM277 753L222 820L364 929H461L602 820L548 753L397 827H427L277 753Z" />
<glyph unicode="&#xd5;" horiz-adv-x="825" d="M413 -10Q332 -10 264 17T146 93T69 208T41 354Q41 434 68 500T146 615T264 691T413 718Q494 718 561 691T679 615T757 500T784 355Q784 275 757 209T680 93T562 17T413 -10ZM413 174Q449 174 480 187T534 224T569
282T582 354Q582 393 570 426T534 483T480 521T413 534Q376 534 345 521T291 484T256 427T243 354Q243 315 255 282T291 225T345 187T413 174ZM491 768Q473 768 454 773T410 790Q391 799 379 803T357 808Q342 808 334 798T326 769H216Q216 840 252 881T350 923Q366
923 382 919T429 901Q446 892 456 888T475 884Q488 884 494 895T500 923H609Q609 880 595 845T553 789T491 768Z" />
<glyph unicode="&#xd6;" horiz-adv-x="825" d="M413 -10Q332 -10 264 17T146 93T69 208T41 354Q41 434 68 500T146 615T264 691T413 718Q494 718 561 691T679 615T757 500T784 355Q784 275 757 209T680 93T562 17T413 -10ZM413 174Q449 174 480 187T534 224T569
282T582 354Q582 393 570 426T534 483T480 521T413 534Q376 534 345 521T291 484T256 427T243 354Q243 315 255 282T291 225T345 187T413 174ZM542 752Q497 752 473 776T448 846Q448 886 473 913T542 940Q588 940 612 916T637 846Q637 805 612 779T542 752ZM282
752Q237 752 213 776T188 846Q188 886 213 913T282 940Q328 940 352 916T377 846Q377 805 352 779T282 752Z" />
<glyph unicode="&#xd7;" horiz-adv-x="554" d="M404 41L39 407L150 517L515 152L404 41ZM150 40L40 152L404 517L514 406L150 40Z" />
<glyph unicode="&#xd8;" horiz-adv-x="823" d="M146 -33L83 20L672 741L740 694L146 -33ZM413 -10Q332 -10 264 17T146 93T69 208T41 354Q41 434 68 500T146 615T264 691T412 718Q494 718 561 691T679 615T756 500T784 355Q784 275 757 209T679 93T562 17T413
-10ZM412 174Q449 174 480 187T534 224T569 282T582 354Q582 393 570 426T534 483T480 521T412 534Q376 534 345 521T291 484T256 427T243 354Q243 315 255 282T291 225T345 187T412 174Z" />
<glyph unicode="&#xd9;" horiz-adv-x="777" d="M388 -6Q299 -6 230 29T121 127T81 269V700H281V278Q281 245 295 220T333 180T388 165Q421 165 446 179T486 219T501 278V700H695V269Q695 189 656 127T547 30T388 -6ZM495 744L258 824L316 953L536 838L495 744Z" />
<glyph unicode="&#xda;" horiz-adv-x="777" d="M388 -6Q299 -6 230 29T121 127T81 269V700H281V278Q281 245 295 220T333 180T388 165Q421 165 446 179T486 219T501 278V700H695V269Q695 189 656 127T547 30T388 -6ZM290 744L250 838L470 953L528 824L290 744Z" />
<glyph unicode="&#xdb;" horiz-adv-x="777" d="M388 -6Q299 -6 230 29T121 127T81 269V700H281V278Q281 245 295 220T333 180T388 165Q421 165 446 179T486 219T501 278V700H695V269Q695 189 656 127T547 30T388 -6ZM253 753L198 820L340 929H437L578 820L524
753L373 827H403L253 753Z" />
<glyph unicode="&#xdc;" horiz-adv-x="777" d="M388 -6Q299 -6 230 29T121 127T81 269V700H281V278Q281 245 295 220T333 180T388 165Q421 165 446 179T486 219T501 278V700H695V269Q695 189 656 127T547 30T388 -6ZM517 752Q472 752 448 776T423 846Q423 886
448 913T517 940Q563 940 587 916T612 846Q612 805 587 779T517 752ZM257 752Q212 752 188 776T163 846Q163 886 188 913T257 940Q303 940 327 916T352 846Q352 805 327 779T257 752Z" />
<glyph unicode="&#xdd;" horiz-adv-x="702" d="M261 0V349L268 300L-15 700H207L423 390L306 393L501 700H717L446 289L461 357V0H261ZM252 744L212 838L432 953L490 824L252 744Z" />
<glyph unicode="&#xde;" horiz-adv-x="675" d="M83 0V700H281V595H393Q462 595 516 565T602 481T634 360Q634 289 603 233T517 146T393 114H281V0H83ZM281 284H359Q380 284 396 293T421 318T431 356Q431 379 422 394T396 417T359 425H281V284Z" />
<glyph unicode="&#xdf;" horiz-adv-x="669" d="M429 -10Q390 -10 359 1T304 34L372 169Q386 158 397 154T421 150Q445 150 459 164T473 207Q473 230 462 249T431 283T389 310T342 333V427Q360 435 372 443T391 461T402 481T405 507Q405 535 388 550T340 565Q308
565 293 547T278 496V0H93V499Q93 569 123 622T210 704T347 734Q412 734 464 714T548 656T580 562Q580 527 566 492T526 429T464 384L462 434Q505 421 540 400T600 349T640 284T654 203Q654 142 625 94T545 18T429 -10ZM18 347V504H177V347H18Z" />
<glyph unicode="&#xe0;" horiz-adv-x="671" d="M263 -9Q197 -9 145 26T62 124T31 267Q31 349 61 411T144 508T266 544Q303 544 334 534T388 505T428 462T456 410L418 412V533H601V0H414V130L455 128Q446 99 429 74T386 31T331 2T263 -9ZM316 144Q348 144 371 158T406
201T419 267Q419 306 407 334T371 376T316 391Q284 391 262 377T227 334T215 267Q215 229 227 201T261 159T316 144ZM398 582L180 699L257 813L452 664L398 582Z" />
<glyph unicode="&#xe1;" horiz-adv-x="671" d="M263 -9Q197 -9 145 26T62 124T31 267Q31 349 61 411T144 508T266 544Q303 544 334 534T388 505T428 462T456 410L418 412V533H601V0H414V130L455 128Q446 99 429 74T386 31T331 2T263 -9ZM316 144Q348 144 371 158T406
201T419 267Q419 306 407 334T371 376T316 391Q284 391 262 377T227 334T215 267Q215 229 227 201T261 159T316 144ZM254 581L200 663L395 812L472 698L254 581Z" />
<glyph unicode="&#xe2;" horiz-adv-x="671" d="M263 -9Q197 -9 145 26T62 124T31 267Q31 349 61 411T144 508T266 544Q303 544 334 534T388 505T428 462T456 410L418 412V533H601V0H414V130L455 128Q446 99 429 74T386 31T331 2T263 -9ZM316 144Q348 144 371 158T406
201T419 267Q419 306 407 334T371 376T316 391Q284 391 262 377T227 334T215 267Q215 229 227 201T261 159T316 144ZM195 598L129 655L286 792H386L543 655L477 598L321 690H351L195 598Z" />
<glyph unicode="&#xe3;" horiz-adv-x="671" d="M263 -9Q197 -9 145 26T62 124T31 267Q31 349 61 411T144 508T266 544Q303 544 334 534T388 505T428 462T456 410L418 412V533H601V0H414V130L455 128Q446 99 429 74T386 31T331 2T263 -9ZM316 144Q348 144 371 158T406
201T419 267Q419 306 407 334T371 376T316 391Q284 391 262 377T227 334T215 267Q215 229 227 201T261 159T316 144ZM412 613Q396 613 377 618T331 641Q314 654 303 659T284 664Q269 664 258 654T245 621L146 634Q146 694 177 735T263 776Q279 776 297 772T342
750Q353 742 365 735T391 727Q405 727 415 737T428 770L526 756Q526 719 512 686T472 633T412 613Z" />
<glyph unicode="&#xe4;" horiz-adv-x="671" d="M263 -9Q197 -9 145 26T62 124T31 267Q31 349 61 411T144 508T266 544Q303 544 334 534T388 505T428 462T456 410L418 412V533H601V0H414V130L455 128Q446 99 429 74T386 31T331 2T263 -9ZM316 144Q348 144 371 158T406
201T419 267Q419 306 407 334T371 376T316 391Q284 391 262 377T227 334T215 267Q215 229 227 201T261 159T316 144ZM465 627Q419 627 395 651T370 721Q370 762 395 788T465 815Q510 815 535 791T560 721Q560 679 535 653T465 627ZM206 627Q160 627 136 651T111
721Q111 762 136 788T206 815Q251 815 276 791T301 721Q301 679 276 653T206 627Z" />
<glyph unicode="&#xe5;" horiz-adv-x="671" d="M263 -9Q197 -9 145 26T62 124T31 267Q31 349 61 411T144 508T266 544Q303 544 334 534T388 505T428 462T456 410L418 412V533H601V0H414V130L455 128Q446 99 429 74T386 31T331 2T263 -9ZM316 144Q348 144 371 158T406
201T419 267Q419 306 407 334T371 376T316 391Q284 391 262 377T227 334T215 267Q215 229 227 201T261 159T316 144ZM336 604Q303 604 275 620T228 664T210 724Q210 758 227 786T273 830T336 847Q371 847 399 831T445 786T462 724Q462 691 445 664T399 621T336
604ZM336 693Q350 693 359 702T368 724Q368 739 359 748T336 757Q322 757 313 748T304 725Q304 711 313 702T336 693Z" />
<glyph unicode="&#xe6;" horiz-adv-x="901" d="M214 -10Q162 -10 121 10T55 65T31 149Q31 189 46 219T92 270T167 301T272 311H712L706 301V320Q705 342 695 358T667 383T624 393Q588 393 564 380T528 341T515 281Q515 242 533 213T585 167T669 151Q703 151 728
159T782 187L860 66Q825 38 790 22T720 -2T648 -10Q557 -10 491 25T390 123T354 266Q354 326 374 377T430 465T514 523T621 544Q696 544 754 509T844 412T874 270L873 220H283Q268 220 255 217T233 206T220 189T216 166Q216 153 222 143T240 126T267 120Q289 120
308 127T344 147T370 179L427 90Q407 59 373 36T298 2T214 -10ZM350 245V322Q350 342 345 355T330 377T304 388T268 392Q230 392 206 379T160 334L53 439Q77 470 113 493T197 530T300 544Q348 544 387 534T454 500T497 442T512 358V246L350 245Z" />
<glyph unicode="&#xe7;" horiz-adv-x="550" d="M308 -10Q229 -10 167 26T68 124T32 267Q32 347 68 409T166 508T308 544Q380 544 440 521T537 455L436 335Q425 349 408 360T371 378T325 385Q292 385 267 370T229 329T215 268Q215 234 228 208T266 166T325 150Q350
150 370 156T407 173T436 199L537 78Q500 36 440 13T308 -10ZM206 -246L196 -162Q215 -162 236 -158T271 -146T286 -127Q286 -117 277 -110T254 -100T224 -97L204 -82L272 24H364L317 -41Q370 -46 395 -74T421 -139Q421 -172 401 -193T349 -226T279 -243T206 -246Z"
/>
<glyph unicode="&#xe8;" horiz-adv-x="586" d="M327 -10Q236 -10 170 25T68 123T32 266Q32 326 52 377T108 465T193 523T302 544Q360 544 407 524T489 467T542 380T559 270L558 228H138L115 321H409L391 301V320Q391 342 380 358T349 384T306 393Q272 393 250
380T215 341T203 281Q203 241 219 212T268 167T348 151Q379 151 402 159T453 187L539 66Q504 38 469 22T398 -2T327 -10ZM364 582L146 699L223 813L418 664L364 582Z" />
<glyph unicode="&#xe9;" horiz-adv-x="586" d="M327 -10Q236 -10 170 25T68 123T32 266Q32 326 52 377T108 465T193 523T302 544Q360 544 407 524T489 467T542 380T559 270L558 228H138L115 321H409L391 301V320Q391 342 380 358T349 384T306 393Q272 393 250
380T215 341T203 281Q203 241 219 212T268 167T348 151Q379 151 402 159T453 187L539 66Q504 38 469 22T398 -2T327 -10ZM220 581L166 663L361 812L438 698L220 581Z" />
<glyph unicode="&#xea;" horiz-adv-x="586" d="M327 -10Q236 -10 170 25T68 123T32 266Q32 326 52 377T108 465T193 523T302 544Q360 544 407 524T489 467T542 380T559 270L558 228H138L115 321H409L391 301V320Q391 342 380 358T349 384T306 393Q272 393 250
380T215 341T203 281Q203 241 219 212T268 167T348 151Q379 151 402 159T453 187L539 66Q504 38 469 22T398 -2T327 -10ZM161 598L95 655L252 792H352L509 655L443 598L287 690H317L161 598Z" />
<glyph unicode="&#xeb;" horiz-adv-x="586" d="M327 -10Q236 -10 170 25T68 123T32 266Q32 326 52 377T108 465T193 523T302 544Q360 544 407 524T489 467T542 380T559 270L558 228H138L115 321H409L391 301V320Q391 342 380 358T349 384T306 393Q272 393 250
380T215 341T203 281Q203 241 219 212T268 167T348 151Q379 151 402 159T453 187L539 66Q504 38 469 22T398 -2T327 -10ZM431 627Q385 627 361 651T336 721Q336 762 361 788T431 815Q476 815 501 791T526 721Q526 679 501 653T431 627ZM172 627Q126 627 102 651T77
721Q77 762 102 788T172 815Q217 815 242 791T267 721Q267 679 242 653T172 627Z" />
<glyph unicode="&#xec;" horiz-adv-x="310" d="M62 0V533H248V0H62ZM473 582L255 699L332 813L527 664L473 582Z" />
<glyph unicode="&#xed;" horiz-adv-x="310" d="M62 0V533H248V0H62ZM329 581L275 663L470 812L547 698L329 581Z" />
<glyph unicode="&#xee;" horiz-adv-x="310" d="M62 0V533H248V0H62ZM270 598L204 655L361 792H461L618 655L552 598L396 690H426L270 598Z" />
<glyph unicode="&#xef;" horiz-adv-x="310" d="M62 0V533H248V0H62ZM540 627Q494 627 470 651T445 721Q445 762 470 788T540 815Q585 815 610 791T635 721Q635 679 610 653T540 627ZM281 627Q235 627 211 651T186 721Q186 762 211 788T281 815Q326 815 351 791T376
721Q376 679 351 653T281 627Z" />
<glyph unicode="&#xf0;" horiz-adv-x="607" d="M302 -7Q221 -7 161 28T66 121T32 254Q32 306 53 353T110 435T193 491T292 511Q342 511 381 492T448 435T485 348L368 379Q366 422 358 456T335 519T298 569T243 607T169 637L219 748Q284 733 339 705T438 635T512
542T559 427T576 291Q576 203 542 136T447 31T302 -7ZM304 147Q331 147 354 162T390 203T404 262Q404 293 391 318T354 359T304 374Q276 374 253 360T217 320T204 262Q204 230 217 204T253 162T304 147ZM148 512L135 577L300 620L359 650L505 683L523 617L410 591L365
564L148 512Z" />
<glyph unicode="&#xf1;" horiz-adv-x="653" d="M70 0V533H244L252 425L214 413Q224 451 253 480T322 527T406 544Q466 544 507 520T570 447T592 328V0H406V313Q406 339 398 356T374 383T336 391Q319 391 305 386T279 371T263 347T257 318V0H164Q130 0 107 0T70
0ZM433 613Q417 613 398 618T352 641Q335 654 324 659T305 664Q290 664 279 654T266 621L167 634Q167 694 198 735T284 776Q300 776 318 772T363 750Q374 742 386 735T412 727Q426 727 436 737T449 770L547 756Q547 719 533 686T493 633T433 613Z" />
<glyph unicode="&#xf2;" horiz-adv-x="652" d="M327 -10Q242 -10 175 26T70 124T32 267Q32 348 70 410T175 508T327 544Q412 544 478 508T583 410T621 267Q621 186 583 124T479 26T327 -10ZM327 147Q357 147 381 162T419 205T433 267Q433 303 420 330T382 372T327
388Q296 388 272 373T234 330T220 267Q220 233 234 206T272 163T327 147ZM388 582L170 699L247 813L442 664L388 582Z" />
<glyph unicode="&#xf3;" horiz-adv-x="652" d="M327 -10Q242 -10 175 26T70 124T32 267Q32 348 70 410T175 508T327 544Q412 544 478 508T583 410T621 267Q621 186 583 124T479 26T327 -10ZM327 147Q357 147 381 162T419 205T433 267Q433 303 420 330T382 372T327
388Q296 388 272 373T234 330T220 267Q220 233 234 206T272 163T327 147ZM244 581L190 663L385 812L462 698L244 581Z" />
<glyph unicode="&#xf4;" horiz-adv-x="652" d="M327 -10Q242 -10 175 26T70 124T32 267Q32 348 70 410T175 508T327 544Q412 544 478 508T583 410T621 267Q621 186 583 124T479 26T327 -10ZM327 147Q357 147 381 162T419 205T433 267Q433 303 420 330T382 372T327
388Q296 388 272 373T234 330T220 267Q220 233 234 206T272 163T327 147ZM185 598L119 655L276 792H376L533 655L467 598L311 690H341L185 598Z" />
<glyph unicode="&#xf5;" horiz-adv-x="652" d="M327 -10Q242 -10 175 26T70 124T32 267Q32 348 70 410T175 508T327 544Q412 544 478 508T583 410T621 267Q621 186 583 124T479 26T327 -10ZM327 147Q357 147 381 162T419 205T433 267Q433 303 420 330T382 372T327
388Q296 388 272 373T234 330T220 267Q220 233 234 206T272 163T327 147ZM402 613Q386 613 367 618T321 641Q304 654 293 659T274 664Q259 664 248 654T235 621L136 634Q136 694 167 735T253 776Q269 776 287 772T332 750Q343 742 355 735T381 727Q395 727 405
737T418 770L516 756Q516 719 502 686T462 633T402 613Z" />
<glyph unicode="&#xf6;" horiz-adv-x="652" d="M327 -10Q242 -10 175 26T70 124T32 267Q32 348 70 410T175 508T327 544Q412 544 478 508T583 410T621 267Q621 186 583 124T479 26T327 -10ZM327 147Q357 147 381 162T419 205T433 267Q433 303 420 330T382 372T327
388Q296 388 272 373T234 330T220 267Q220 233 234 206T272 163T327 147ZM455 627Q409 627 385 651T360 721Q360 762 385 788T455 815Q500 815 525 791T550 721Q550 679 525 653T455 627ZM196 627Q150 627 126 651T101 721Q101 762 126 788T196 815Q241 815 266
791T291 721Q291 679 266 653T196 627Z" />
<glyph unicode="&#xf7;" horiz-adv-x="597" d="M40 193V341H558V193H40ZM298 -41Q267 -41 244 -30T209 2T196 53Q196 81 209 102T244 135T298 147Q329 147 352 137T387 105T400 53Q400 26 387 5T352 -28T298 -41ZM298 385Q267 385 244 396T209 428T196 479Q196
506 209 527T244 561T298 574Q329 574 352 563T387 530T400 479Q400 452 387 431T352 398T298 385Z" />
<glyph unicode="&#xf8;" horiz-adv-x="652" d="M126 -35L60 13L526 567L593 518L126 -35ZM327 -10Q242 -10 175 26T70 124T32 267Q32 348 70 410T175 508T327 544Q412 544 478 508T583 410T621 267Q621 186 583 124T479 26T327 -10ZM327 147Q357 147 381 162T419
205T433 267Q433 303 420 330T382 372T327 388Q296 388 272 373T234 330T220 267Q220 233 234 206T272 163T327 147Z" />
<glyph unicode="&#xf9;" horiz-adv-x="658" d="M250 -11Q190 -11 148 14T84 88T62 204V533H248V223Q248 197 257 179T282 152T321 142Q339 142 353 147T378 162T394 186T400 216V533H586V0H414L404 108L439 120Q428 83 400 53T333 6T250 -11ZM392 582L174 699L251
813L446 664L392 582Z" />
<glyph unicode="&#xfa;" horiz-adv-x="658" d="M250 -11Q190 -11 148 14T84 88T62 204V533H248V223Q248 197 257 179T282 152T321 142Q339 142 353 147T378 162T394 186T400 216V533H586V0H414L404 108L439 120Q428 83 400 53T333 6T250 -11ZM248 581L194 663L389
812L466 698L248 581Z" />
<glyph unicode="&#xfb;" horiz-adv-x="658" d="M250 -11Q190 -11 148 14T84 88T62 204V533H248V223Q248 197 257 179T282 152T321 142Q339 142 353 147T378 162T394 186T400 216V533H586V0H414L404 108L439 120Q428 83 400 53T333 6T250 -11ZM189 598L123 655L280
792H380L537 655L471 598L315 690H345L189 598Z" />
<glyph unicode="&#xfc;" horiz-adv-x="658" d="M250 -11Q190 -11 148 14T84 88T62 204V533H248V223Q248 197 257 179T282 152T321 142Q339 142 353 147T378 162T394 186T400 216V533H586V0H414L404 108L439 120Q428 83 400 53T333 6T250 -11ZM459 627Q413 627
389 651T364 721Q364 762 389 788T459 815Q504 815 529 791T554 721Q554 679 529 653T459 627ZM200 627Q154 627 130 651T105 721Q105 762 130 788T200 815Q245 815 270 791T295 721Q295 679 270 653T200 627Z" />
<glyph unicode="&#xfd;" horiz-adv-x="638" d="M128 -230L256 72L258 -10L5 533H213L302 321Q313 296 321 272T334 225L313 209Q317 222 325 245T343 298L424 533H633L402 0L309 -230H128ZM237 581L183 663L378 812L455 698L237 581Z" />
<glyph unicode="&#xfe;" horiz-adv-x="671" d="M70 -220V740H258V415L217 424Q223 458 250 485T319 528T408 544Q459 544 501 524T574 467T622 379T639 267Q639 187 609 125T526 27T405 -9Q360 -9 320 7T252 52T216 117L258 131V-220H70ZM355 144Q387 144 410
159T445 201T457 267Q457 306 445 333T410 376T355 391Q323 391 300 377T265 334T253 267Q253 229 265 202T300 159T355 144Z" />
<glyph unicode="&#xff;" horiz-adv-x="638" d="M128 -230L256 72L258 -10L5 533H213L302 321Q313 296 321 272T334 225L313 209Q317 222 325 245T343 298L424 533H633L402 0L309 -230H128ZM448 627Q402 627 378 651T353 721Q353 762 378 788T448 815Q493 815 518
791T543 721Q543 679 518 653T448 627ZM189 627Q143 627 119 651T94 721Q94 762 119 788T189 815Q234 815 259 791T284 721Q284 679 259 653T189 627Z" />
<glyph unicode="&#x2013;" horiz-adv-x="631" d="M59 212V366H573V212H59Z" />
<glyph unicode="&#x2014;" horiz-adv-x="963" d="M59 212V366H904V212H59Z" />
<glyph unicode="&#x2018;" horiz-adv-x="292" d="M151 410Q119 410 94 426T55 473T40 541Q40 576 52 609T89 670T144 720T214 752L263 691Q220 674 195 646T169 598Q169 589 174 579T197 557Q222 541 231 524T241 484Q241 450 216 430T151 410Z" />
<glyph unicode="&#x2019;" horiz-adv-x="292" d="M78 408L28 469Q71 487 97 515T123 562Q123 572 118 582T95 603Q70 619 61 636T51 676Q51 710 76 730T141 750Q172 750 197 734T237 688T252 619Q252 585 239 552T203 490T147 440T78 408Z" />
<glyph unicode="&#x201a;" horiz-adv-x="296" d="M83 -209L33 -148Q76 -130 101 -102T127 -54Q127 -44 122 -34T99 -12Q75 5 66 22T56 62Q56 96 81 116T146 136Q177 136 201 120T240 74T255 5Q255 -30 243 -63T207 -126T152 -176T83 -209Z" />
<glyph unicode="&#x201c;" horiz-adv-x="532" d="M151 661Q119 661 94 677T55 724T40 792Q40 827 52 860T89 921T144 971T214 1003L263 942Q220 925 195 897T169 849Q169 840 174 830T197 808Q222 792 231 775T241 735Q241 701 216 681T151 661ZM391 405Q359 405
334 421T295 468T280 536Q280 571 292 604T329 665T384 715T454 747L503 686Q460 669 435 641T409 593Q409 584 414 574T437 552Q462 536 471 519T481 479Q481 445 456 425T391 405Z" />
<glyph unicode="&#x201d;" horiz-adv-x="532" d="M78 408L28 469Q71 487 97 515T123 562Q123 572 118 582T95 603Q70 619 61 636T51 676Q51 710 76 730T141 750Q172 750 197 734T237 688T252 619Q252 585 239 552T203 490T147 440T78 408ZM319 408L269 469Q312
487 338 515T364 562Q364 572 359 582T336 603Q311 619 302 636T292 676Q292 710 317 730T382 750Q413 750 438 734T478 688T493 619Q493 585 480 552T444 490T388 440T319 408Z" />
<glyph unicode="&#x201e;" horiz-adv-x="521" d="M83 -209L33 -148Q76 -130 101 -102T127 -54Q127 -44 122 -34T99 -12Q75 5 66 22T56 62Q56 96 81 116T146 136Q177 136 201 120T240 74T255 5Q255 -30 243 -63T207 -126T152 -176T83 -209ZM308 -209L258 -148Q301
-130 326 -102T352 -54Q352 -44 347 -34T324 -12Q300 5 291 22T281 62Q281 96 306 116T371 136Q402 136 426 120T465 74T480 5Q480 -30 468 -63T432 -126T377 -176T308 -209Z" />
<glyph unicode="&#x2022;" horiz-adv-x="346" d="M173 216Q136 216 105 234T56 283T37 351Q37 389 55 420T104 469T173 488Q211 488 242 470T291 420T310 351Q310 314 292 283T242 234T173 216Z" />
<glyph unicode="&#x2039;" horiz-adv-x="334" d="M193 16L10 250V267L193 502L298 430L174 237V281L298 88L193 16Z" />
<glyph unicode="&#x203a;" horiz-adv-x="334" d="M141 19L36 91L160 284V240L36 433L140 505L324 271V254L141 19Z" />
</font>
</defs>
</svg>
