<?xml version="1.0" standalone="no"?>
<!DOCTYPE svg PUBLIC "-//W3C//DTD SVG 1.1//EN" "http://www.w3.org/Graphics/SVG/1.1/DTD/svg11.dtd">
<svg xmlns="http://www.w3.org/2000/svg">
<defs >
<font id="LexendDeca" horiz-adv-x="588" ><font-face
    font-family="Lexend Deca Light"
    units-per-em="1000"
    panose-1="0 0 0 0 0 0 0 0 0 0"
    ascent="1000"
    descent="-250"
    alphabetic="0" />
<glyph unicode=" " horiz-adv-x="280" />
<glyph unicode="!" horiz-adv-x="242" d="M101 241Q94 304 90 371T84 505T82 630V700H163V630Q163 568 161 500T155 366T143 241H101ZM119 -10Q92 -10 78 6T63 52Q63 79 78 96T119 114Q146 114 160 98T175 52Q175 24 160 7T119 -10Z" />
<glyph unicode="&quot;" horiz-adv-x="396" d="M236 442L265 700H357L284 442H236ZM44 442L72 700H165L91 442H44Z" />
<glyph unicode="#" horiz-adv-x="681" d="M381 0L501 700H570L451 0H381ZM35 187V251H609V187H35ZM111 0L231 700H300L181 0H111ZM73 460V524H646V460H73Z" />
<glyph unicode="$" horiz-adv-x="608" d="M307 -10Q227 -10 161 23T52 114L106 174Q151 117 199 90T314 63Q359 63 396 78T454 120T475 182Q475 204 468 222T447 254T411 279T360 299T294 317Q226 332 180 357T110 422T86 517Q86 558 103 593T152 653T225 693T315
707Q396 707 453 677T544 594L489 539Q459 583 415 609T314 635Q270 635 237 620T184 579T165 518Q165 493 174 475T201 442T252 416T329 393Q382 381 423 363T494 322T539 267T554 197Q554 135 523 89T437 16T307 -10ZM265 -91V363L338 330V-91H265ZM359 330L287
363V782H359V330Z" />
<glyph unicode="%" horiz-adv-x="844" d="M144 0L609 700H688L221 0H144ZM196 329Q151 329 117 353T63 420T43 518Q43 573 62 616T117 684T197 709Q242 709 276 685T330 617T350 518Q350 465 330 422T275 354T196 329ZM197 389Q224 389 243 404T273 449T284 519Q284
559 274 588T243 633T196 649Q169 649 149 633T119 587T108 518Q108 478 118 449T149 405T197 389ZM639 -9Q594 -9 560 15T505 82T485 180Q485 235 504 278T559 346T639 371Q684 371 718 347T772 279T792 180Q792 127 772 84T718 16T639 -9ZM639 51Q666 51 686
66T716 111T727 181Q727 221 717 250T686 295T639 311Q611 311 592 295T562 250T551 180Q551 140 561 111T591 67T639 51Z" />
<glyph unicode="&amp;" horiz-adv-x="718" d="M577 0L498 83L481 103L295 308Q264 343 240 373T200 429T176 479T168 528Q168 580 194 620T267 684T374 707Q421 707 460 691T527 646T568 579L509 541Q488 593 456 615T374 637Q335 637 307 625T264 589T249 531Q249
507 261 482T291 431T330 383T366 343L533 157L558 130L678 0H577ZM311 -10Q236 -10 177 19T84 100T50 215Q50 291 93 349T221 438L269 381Q201 364 166 324T130 224Q130 177 155 141T224 83T324 62Q374 62 415 81T489 135T542 219T572 329H646Q638 268 618 216T569
122T500 51T414 6T311 -10Z" />
<glyph unicode="&apos;" horiz-adv-x="199" d="M44 442L72 700H165L91 442H44Z" />
<glyph unicode="(" horiz-adv-x="358" d="M280 -186Q158 -110 94 4T30 258Q30 397 94 511T281 702L322 655Q215 580 159 479T102 258Q102 139 158 38T322 -139L280 -186Z" />
<glyph unicode=")" horiz-adv-x="358" d="M77 -186L36 -139Q143 -64 199 37T255 258Q255 377 199 478T36 655L78 702Q200 626 264 512T328 258Q328 119 264 5T77 -186Z" />
<glyph unicode="*" horiz-adv-x="392" d="M167 376L175 507L182 504L68 431L39 483L162 543L161 533L38 593L67 644L183 570L175 565L167 700H227L219 561L209 569L325 643L354 592L232 532V543L354 483L324 432L209 506H219L227 376H167Z" />
<glyph unicode="+" horiz-adv-x="591" d="M50 249V317H541V249H50ZM256 42V525H333V42H256Z" />
<glyph unicode="," horiz-adv-x="249" d="M83 -165L55 -129Q87 -110 105 -88T123 -46Q123 -35 119 -25T99 0Q85 13 79 25T72 50Q72 70 86 82T123 95Q146 95 163 83T189 50T199 -1Q199 -28 191 -51T168 -96T132 -134T83 -165Z" />
<glyph unicode="-" horiz-adv-x="394" d="M56 241V316H338V241H56Z" />
<glyph unicode="." horiz-adv-x="228" d="M114 -10Q87 -10 73 6T58 52Q58 79 73 96T114 114Q141 114 155 98T170 52Q170 24 155 7T114 -10Z" />
<glyph unicode="/" horiz-adv-x="560" d="M37 -119L443 700H518L114 -119H37Z" />
<glyph unicode="0" horiz-adv-x="612" d="M306 -10Q224 -10 167 33T79 156T48 350Q48 463 78 543T166 667T306 710Q387 710 445 667T533 544T564 350Q564 237 534 157T445 33T306 -10ZM306 63Q392 63 438 138T485 350Q485 487 439 562T306 637Q219 637 173 562T126
350Q126 213 172 138T306 63Z" />
<glyph unicode="1" horiz-adv-x="458" d="M207 34V638L236 616L106 538L83 608L256 710H286V34H207ZM104 0V76H391V0H104Z" />
<glyph unicode="2" horiz-adv-x="548" d="M93 0L69 58L305 323Q322 342 340 366T375 416T402 469T412 520Q412 557 396 582T351 622T282 636Q248 636 215 620T155 571T113 487L51 524Q69 585 104 626T187 689T290 710Q348 710 394 687T467 621T494 523Q494 499
489 475T472 427T446 378T410 327T364 273L163 49L151 75H516V0H93Z" />
<glyph unicode="3" horiz-adv-x="529" d="M256 -10Q182 -10 126 23T20 138L84 178Q111 135 139 110T198 73T262 62Q304 62 339 82T395 138T416 218Q416 263 397 297T345 350T267 369Q251 369 233 366T193 353T146 325L123 387L370 656L387 627H69V700H447L467
660L227 404L207 424Q220 432 238 437T274 443Q320 443 360 426T429 379T476 308T493 221Q493 156 462 104T377 21T256 -10Z" />
<glyph unicode="4" horiz-adv-x="620" d="M380 0V607L402 600L112 246L104 264H578V190H75L38 264L395 700H456V0H380Z" />
<glyph unicode="5" horiz-adv-x="568" d="M257 -7Q188 -7 132 24T39 115L86 166Q128 110 170 89T258 67Q306 67 345 89T408 150T431 234Q431 279 410 315T353 373T270 395Q245 395 220 390T169 373T112 344L68 403L109 700H487V627H150L175 645L138 400L115 416Q131
429 158 441T217 460T281 468Q346 468 397 439T478 358T508 239Q508 169 475 114T385 26T257 -7Z" />
<glyph unicode="6" horiz-adv-x="574" d="M292 -5Q240 -5 196 13T119 64T68 143T50 243Q50 269 57 300T78 369T112 448T158 533L260 706H336L340 696L227 506Q203 466 184 427T147 349T114 268L100 340Q119 372 141 396T190 437T245 463T306 472Q367 472 416 441T496
357T526 241Q526 171 495 115T411 27T292 -5ZM289 68Q334 68 370 90T427 149T448 234Q448 278 427 315T370 375T290 398Q243 398 207 376T149 317T128 235Q128 188 149 151T206 91T289 68Z" />
<glyph unicode="7" horiz-adv-x="516" d="M107 0L401 654L414 627H39V700H461L474 639L192 0H107Z" />
<glyph unicode="8" horiz-adv-x="580" d="M290 -3Q225 -3 172 24T86 98T54 201Q54 232 63 259T91 310T137 353T199 387L193 366Q166 374 144 389T107 423T84 466T76 515Q76 566 104 608T181 675T290 700Q349 700 397 675T474 608T503 515Q503 490 496 467T473
425T436 390T385 366L382 383Q414 372 440 353T486 309T515 258T526 201Q526 144 495 98T410 24T290 -3ZM290 71Q335 71 370 88T426 136T447 203Q447 241 427 270T371 317T290 335Q245 335 210 318T154 271T133 203Q133 166 153 137T209 89T290 71ZM290 402Q328
402 358 416T406 455T424 513Q424 545 407 570T359 611T290 626Q251 626 221 611T173 571T155 513Q155 481 172 456T220 416T290 402Z" />
<glyph unicode="9" horiz-adv-x="550" d="M254 0L250 10L454 434L461 386Q441 351 418 325T369 280T313 253T253 243Q193 243 144 274T65 356T35 469Q35 538 67 593T154 679T276 711Q326 711 368 693T443 643T494 569T512 477Q512 448 505 414T483 341T451 260T412
174L329 0H254ZM270 317Q315 317 351 338T408 396T429 476Q429 521 409 558T352 616T271 637Q227 637 192 616T137 559T116 477Q116 433 136 397T192 339T270 317Z" />
<glyph unicode=":" horiz-adv-x="228" d="M114 -10Q87 -10 73 6T58 52Q58 79 73 96T114 114Q141 114 155 98T170 52Q170 24 155 7T114 -10ZM114 409Q87 409 73 425T58 471Q58 498 73 515T114 533Q141 533 155 517T170 471Q170 443 155 426T114 409Z" />
<glyph unicode=";" horiz-adv-x="252" d="M86 -165L58 -129Q90 -110 108 -88T126 -46Q126 -35 122 -25T102 0Q88 13 82 25T75 50Q75 70 89 82T126 95Q149 95 166 83T192 50T202 -1Q202 -28 194 -51T171 -96T135 -134T86 -165ZM133 409Q106 409 92 425T77 471Q77
498 92 515T133 533Q160 533 174 517T189 471Q189 443 174 426T133 409Z" />
<glyph unicode="&lt;" horiz-adv-x="506" d="M408 15L52 219V285L408 489L443 434L89 230V274L443 70L408 15Z" />
<glyph unicode="=" horiz-adv-x="566" d="M55 336V404H511V336H55ZM55 158V226H511V158H55Z" />
<glyph unicode="&gt;" horiz-adv-x="506" d="M97 15L62 70L417 274V230L62 434L97 489L454 285V219L97 15Z" />
<glyph unicode="?" horiz-adv-x="504" d="M202 206L185 339Q225 349 256 362T309 391T347 425T369 465T377 511Q377 546 360 574T312 617T243 633Q198 633 157 606T84 525L29 572Q71 635 128 670T248 706Q308 706 355 680T431 610T459 511Q459 476 446 444T407
383T348 333T274 298L260 206H202ZM175 52Q175 79 190 96T231 114Q257 114 272 98T287 52Q287 24 272 7T231 -10Q204 -10 190 6T175 52Z" />
<glyph unicode="@" horiz-adv-x="972" d="M418 -162Q332 -162 264 -135T146 -59T71 58T45 209Q45 321 85 413T196 571T362 674T566 710Q647 710 713 687T827 621T901 520T927 392Q927 320 908 259T854 152T775 81T679 55Q648 55 626 66T592 98T580 146Q580 161
584 179T595 226L610 213Q594 163 565 128T498 74T415 55Q370 55 335 77T280 140T260 235Q260 286 277 335T325 423T399 486T494 510Q528 510 556 496T606 455T637 386L615 354L637 501H711L655 186Q651 164 655 148T671 124T699 116Q732 116 761 136T813 194T849
280T863 388Q863 468 826 526T722 617T563 649Q462 649 379 617T236 525T143 387T110 214Q110 142 131 84T193 -15T291 -79T420 -101Q465 -101 502 -93T574 -70T642 -37L672 -89Q624 -115 581 -131T498 -154T418 -162ZM431 119Q472 119 507 141T568 202T601 287Q604
302 605 313T607 334Q607 368 594 393T555 432T498 446Q455 446 418 417T358 339T335 232Q335 181 361 150T431 119Z" />
<glyph unicode="A" horiz-adv-x="673" d="M25 0L293 700H382L648 0H563L392 454Q385 473 377 498T359 551T341 605T325 651H345Q337 626 329 601T311 550T293 499T275 449L105 0H25ZM139 193L168 269H499L531 193H139Z" />
<glyph unicode="B" horiz-adv-x="671" d="M103 0V700H387Q448 700 492 679T561 618T585 524Q585 466 552 425T462 367L460 386Q509 377 545 352T601 289T622 206Q622 159 606 121T561 56T490 15T397 0H103ZM181 76H391Q436 76 469 91T521 136T540 203Q540 239
521 266T467 308T386 323H181V76ZM181 399H381Q417 399 445 413T489 453T505 511Q505 562 471 593T374 624H181V399Z" />
<glyph unicode="C" horiz-adv-x="676" d="M393 -10Q318 -10 255 16T146 91T75 206T49 350Q49 427 74 491T147 604T256 679T392 705Q441 705 489 690T577 647T644 585L590 529Q565 559 533 581T464 615T392 627Q336 627 288 607T204 549T150 461T130 350Q130 288
149 236T205 147T291 89T402 68Q438 68 474 78T540 108T591 151L631 86Q608 58 570 37T485 3T393 -10Z" />
<glyph unicode="D" horiz-adv-x="743" d="M103 0V700H367Q439 700 498 675T602 602T670 491T694 350Q694 273 670 209T603 98T499 26T367 0H103ZM181 62L172 76H362Q417 76 463 95T543 151T595 238T614 350Q614 412 596 462T543 548T463 604T362 624H169L181 636V62Z" />
<glyph unicode="E" horiz-adv-x="599" d="M103 0V700H527V624H181V76H525V0H103ZM139 322V398H471V322H139Z" />
<glyph unicode="F" horiz-adv-x="593" d="M103 0V700H181V0H103ZM142 312V389H496V312H142ZM142 624V700H543V624H142Z" />
<glyph unicode="G" horiz-adv-x="764" d="M413 -10Q336 -10 270 17T154 92T77 205T49 348Q49 425 76 490T152 604T266 678T407 705Q460 705 511 690T605 648T673 587L621 534Q593 563 558 584T485 617T408 629Q349 629 299 608T210 550T151 461T130 348Q130 289
151 238T212 148T304 88T416 67Q463 67 504 81T577 120T625 180T642 253V288L658 268H412V345H720Q721 337 722 327T723 306T724 286Q724 221 700 167T634 73T535 12T413 -10Z" />
<glyph unicode="H" horiz-adv-x="752" d="M571 0V700H649V0H571ZM103 0V700H181V0H103ZM141 311V387H604V311H141Z" />
<glyph unicode="I" horiz-adv-x="444" d="M70 0V74H183V626H70V700H374V626H261V74H374V0H70Z" />
<glyph unicode="J" horiz-adv-x="632" d="M263 -10Q229 -10 199 -2T143 23T96 64T59 117L111 171Q129 141 147 121T184 89T222 72T263 67Q304 67 335 86T384 140T402 219V626H275V700H585V626H482V213Q482 165 466 124T421 53T352 7T263 -10Z" />
<glyph unicode="K" horiz-adv-x="699" d="M162 215L159 308L555 700H660L162 215ZM103 0V700H181V0H103ZM572 0L291 374L348 424L670 0H572Z" />
<glyph unicode="L" horiz-adv-x="566" d="M103 0V700H181V76H517V0H103Z" />
<glyph unicode="M" horiz-adv-x="858" d="M103 0V700H179L448 263L412 264L684 700H755V0H677V320Q677 410 680 482T691 625L705 597L454 203H400L156 592L167 625Q175 558 178 488T181 320V0H103Z" />
<glyph unicode="N" horiz-adv-x="787" d="M103 0V700H174L632 94L618 76Q615 92 614 124T611 196T608 281T607 367T606 443V700H684V0H611L155 598L167 619Q170 579 172 540T176 465T179 399T180 348T181 318V0H103Z" />
<glyph unicode="O" horiz-adv-x="785" d="M392 -10Q318 -10 256 16T147 91T75 204T49 348Q49 426 74 491T146 605T255 680T392 707Q467 707 529 681T638 606T710 492T736 348Q736 271 711 206T639 92T530 17T392 -10ZM392 67Q449 67 497 87T581 146T635 235T655
348Q655 410 636 461T581 551T498 610T392 631Q335 631 287 610T203 551T149 462T130 348Q130 287 149 236T203 146T286 88T392 67Z" />
<glyph unicode="P" horiz-adv-x="622" d="M103 0V700H380Q435 700 479 673T549 599T575 492Q575 430 549 382T479 305T380 276H181V0H103ZM181 352H384Q415 352 439 370T479 420T494 493Q494 530 479 559T440 606T384 624H181V352Z" />
<glyph unicode="Q" horiz-adv-x="785" d="M637 -103L381 234L444 276L699 -58L637 -103ZM392 -10Q318 -10 256 16T147 91T75 204T49 348Q49 426 74 491T146 605T255 680T392 707Q467 707 529 681T638 606T710 492T736 348Q736 271 711 206T639 92T530 17T392 -10ZM392
67Q449 67 497 87T581 146T635 235T655 348Q655 410 636 461T581 551T498 610T392 631Q335 631 287 610T203 551T149 462T130 348Q130 287 149 236T203 146T286 88T392 67Z" />
<glyph unicode="R" horiz-adv-x="660" d="M103 0V700H377Q438 700 487 672T566 594T595 483Q595 425 567 378T491 304T383 276H181V0H103ZM530 0L354 308L429 334L623 0H530ZM181 352H390Q427 352 455 369T499 415T515 483Q515 524 496 556T444 606T367 624H181V352Z" />
<glyph unicode="S" horiz-adv-x="608" d="M307 -10Q254 -10 207 5T121 50T52 124L106 184Q153 117 202 90T314 63Q359 63 396 78T454 120T475 182Q475 205 468 223T445 255T408 280T358 300T294 318Q243 330 205 346T140 387T100 442T86 517Q86 558 103 593T152
653T225 693T315 707Q369 707 411 693T487 650T544 583L489 529Q468 562 442 586T384 622T314 635Q270 635 237 620T184 579T165 518Q165 493 174 474T202 440T253 414T329 392Q381 380 422 363T493 323T538 268T554 197Q554 135 523 89T437 16T307 -10Z" />
<glyph unicode="T" horiz-adv-x="545" d="M230 0V624H30V700H516V624H308V0H230Z" />
<glyph unicode="U" horiz-adv-x="747" d="M372 -7Q293 -7 231 28T134 126T98 268V700H176V277Q176 218 202 171T272 97T372 70Q430 70 475 97T547 171T573 277V700H648V268Q648 189 613 127T515 29T372 -7Z" />
<glyph unicode="V" horiz-adv-x="680" d="M296 0L25 700H113L287 244Q299 213 308 189T324 144T339 101T354 55L328 54Q338 88 347 117T367 176T394 248L567 700H655L376 0H296Z" />
<glyph unicode="W" horiz-adv-x="955" d="M236 0L25 700H109L244 238Q252 214 257 193T267 152T275 113T283 72L266 73Q279 119 287 146T304 194T322 242L440 539H513L632 239Q644 211 653 186T670 135T687 77L671 74Q676 99 679 115T685 143T691 168T699 198T712
243L847 700H931L718 0H653L464 450L482 447L300 0H236Z" />
<glyph unicode="X" horiz-adv-x="652" d="M530 0L298 328L30 700H128L345 390L628 0H530ZM25 0L289 377L338 321L115 0H25ZM360 332L314 387L527 700H618L360 332Z" />
<glyph unicode="Y" horiz-adv-x="645" d="M294 0V349L301 300L18 700H113L345 368L324 370L537 700H627L356 289L371 357V0H294Z" />
<glyph unicode="Z" horiz-adv-x="648" d="M60 0V60L493 645L508 624H86V700H583V641L152 55L137 76H594V0H60Z" />
<glyph unicode="[" horiz-adv-x="374" d="M85 -190V700H327V638H149L155 646V-140L145 -128H327V-190H85Z" />
<glyph unicode="\" horiz-adv-x="545" d="M442 -107L44 700H119L519 -107H442Z" />
<glyph unicode="]" horiz-adv-x="374" d="M47 -190V-128H225L219 -136V650L229 638H47V700H289V-190H47Z" />
<glyph unicode="^" horiz-adv-x="584" d="M38 368L250 727H334L546 368H462L286 667L299 668L120 368H38Z" />
<glyph unicode="_" horiz-adv-x="692" d="M54 -144V-82H638V-144H54Z" />
<glyph unicode="`" horiz-adv-x="500" d="M318 602L155 699L203 762L346 643L318 602Z" />
<glyph unicode="a" horiz-adv-x="620" d="M277 -10Q209 -10 154 25T67 122T35 262Q35 341 68 402T156 498T281 533Q322 533 357 521T419 488T465 438T491 376L469 387L472 522H547V0H471V128L491 141Q484 111 464 84T416 35T352 2T277 -10ZM294 62Q346 62 387
87T451 158T475 262Q475 320 452 365T387 436T294 462Q241 462 201 436T137 365T113 262Q113 205 136 160T200 88T294 62Z" />
<glyph unicode="b" horiz-adv-x="619" d="M338 -10Q301 -10 266 1T203 33T155 79T128 133L150 132L147 1H73V740H148V397L133 393Q140 421 158 446T205 491T266 522T336 533Q406 533 461 498T550 402T583 262Q583 183 551 122T464 25T338 -10ZM326 61Q379 61 420
87T484 159T508 262Q508 320 485 365T420 436T326 462Q273 462 232 436T168 365T144 262Q144 204 167 159T232 87T326 61Z" />
<glyph unicode="c" horiz-adv-x="526" d="M293 -10Q219 -10 161 25T70 122T36 262Q36 340 69 401T161 498T294 533Q361 533 416 507T504 433L460 379Q441 404 415 423T358 452T297 463Q244 463 202 437T136 365T111 262Q111 204 135 159T202 87T296 61Q326 61
355 70T410 98T458 143L502 89Q468 44 411 17T293 -10Z" />
<glyph unicode="d" horiz-adv-x="621" d="M285 -10Q214 -10 158 25T69 121T36 261Q36 340 69 401T158 498T284 533Q323 533 359 521T425 488T473 439T496 381L473 389V740H548V0H474L472 130L491 137Q487 109 469 83T422 35T359 2T285 -10ZM296 59Q348 59 389
85T453 157T477 262Q477 321 454 366T389 438T296 465Q242 465 202 439T138 367T114 262Q114 204 137 158T201 86T296 59Z" />
<glyph unicode="e" horiz-adv-x="562" d="M303 -10Q225 -10 165 24T70 119T36 259Q36 320 55 369T108 456T191 513T295 534Q348 534 391 515T466 463T514 383T528 282L527 247H92L81 310H470L452 293V317Q450 353 431 386T378 441T295 462Q239 462 198 440T135
373T113 264Q113 202 137 157T205 86T313 61Q350 61 386 73T467 123L506 69Q483 46 451 29T381 1T303 -10Z" />
<glyph unicode="f" horiz-adv-x="378" d="M133 0V603Q133 642 150 672T198 719T272 737Q304 737 329 726T372 694L346 635Q330 652 312 659T276 667Q254 667 239 660T217 638T209 603V0H174Q163 0 153 0T133 0ZM40 448V518H342V448H40Z" />
<glyph unicode="g" horiz-adv-x="629" d="M298 -230Q240 -230 188 -212T102 -167L132 -104Q152 -120 178 -132T236 -152T299 -160Q357 -160 397 -139T459 -75T481 29V129L493 132Q484 94 454 62T381 10T290 -10Q217 -10 160 25T69 121T36 261Q36 340 69 401T160
498T288 533Q319 533 348 526T401 504T446 472T479 433T499 390L478 393L481 522H556V32Q556 -31 538 -79T486 -161T404 -212T298 -230ZM299 62Q352 62 393 87T459 158T483 262Q483 320 460 365T394 436T299 462Q245 462 204 436T138 365T114 262Q114 205 137 160T202
88T299 62Z" />
<glyph unicode="h" horiz-adv-x="576" d="M73 0V740H148V408L133 393Q144 434 174 465T244 515T327 533Q387 533 427 510T486 439T506 317V0H430V313Q430 365 417 398T375 448T305 463Q272 463 243 452T193 420T160 374T148 318V0H111Q104 0 95 0T73 0Z" />
<glyph unicode="i" horiz-adv-x="259" d="M93 0V522H168V0H93ZM130 635Q102 635 88 649T73 689Q73 714 88 729T130 744Q157 744 172 730T187 689Q187 665 172 650T130 635Z" />
<glyph unicode="j" horiz-adv-x="236" d="M0 -196L-30 -136Q11 -136 36 -123T73 -82T85 -14V522H161V-36Q161 -84 141 -120T85 -176T0 -196ZM124 635Q97 635 82 649T67 689Q67 714 82 729T124 744Q151 744 166 730T181 689Q181 665 166 650T124 635Z" />
<glyph unicode="k" horiz-adv-x="538" d="M140 168L137 255L410 522H511L140 168ZM73 0V740H148V0H73ZM431 0L211 255L264 307L529 0H431Z" />
<glyph unicode="l" horiz-adv-x="225" d="M75 0V740H150V0H75Z" />
<glyph unicode="m" horiz-adv-x="911" d="M72 0V522H147L149 403L134 398Q142 428 160 452T205 495T262 522T327 532Q368 532 400 519T455 473T490 387L472 396L479 413Q489 436 508 457T553 496T609 522T672 532Q727 532 765 509T822 437T842 315V0H765V311Q765
363 752 396T714 445T649 462Q615 462 587 451T538 419T506 372T494 316V0H418V312Q418 362 405 395T365 445T301 462Q268 462 240 451T192 419T160 373T148 317V0H72Z" />
<glyph unicode="n" horiz-adv-x="576" d="M73 0V522H147L150 413L138 408Q148 442 177 470T246 515T330 533Q388 533 427 510T486 439T506 317V0H430V313Q430 365 417 398T375 448T306 463Q272 463 243 452T193 420T160 374T148 318V0H111Q104 0 95 0T73 0Z" />
<glyph unicode="o" horiz-adv-x="607" d="M304 -10Q226 -10 166 25T71 122T36 263Q36 341 70 402T165 498T304 533Q381 533 441 498T536 402T571 263Q571 184 537 122T442 25T304 -10ZM304 61Q359 61 402 87T469 159T493 263Q493 321 469 366T402 436T304 462Q249
462 206 437T138 366T114 263Q113 205 137 160T205 88T304 61Z" />
<glyph unicode="p" horiz-adv-x="622" d="M73 -220V522H148L150 395L136 393Q145 431 175 462T248 513T339 532Q409 532 464 497T553 401T586 261Q586 183 554 122T466 26T340 -10Q291 -10 247 10T172 62T131 133H149V-220H73ZM328 62Q381 62 422 88T487 159T511
261Q511 319 487 364T422 435T328 461Q275 461 234 436T168 365T144 262Q144 204 168 159T233 88T328 62Z" />
<glyph unicode="q" horiz-adv-x="620" d="M472 -220V128L488 137Q484 109 466 83T419 35T356 2T284 -10Q213 -10 157 25T69 121T36 261Q36 340 68 401T157 498T282 533Q322 533 357 521T422 487T470 439T493 381L469 387L472 523H547V-220H472ZM293 62Q345 62
386 87T452 158T476 262Q476 320 452 365T387 436T293 462Q240 462 199 436T135 365T111 262Q111 205 134 160T198 88T293 62Z" />
<glyph unicode="r" horiz-adv-x="373" d="M73 0V522H148L150 383L142 402Q153 437 177 467T236 515T311 533Q328 533 343 531T368 524L347 440Q334 446 321 448T295 451Q261 451 234 439T188 406T159 356T149 296V0H73Z" />
<glyph unicode="s" horiz-adv-x="479" d="M244 -10Q177 -10 124 15T40 81L93 127Q122 92 161 74T250 56Q275 56 295 61T330 78T353 104T361 137Q361 170 332 192Q319 201 295 210T237 229Q181 245 144 261T86 300Q71 318 64 339T56 385Q56 417 69 444T107 491T165
522T238 533Q275 533 311 523T378 494T431 449L385 399Q366 419 343 435T295 460T242 469Q218 469 198 463T163 447T141 421T133 388Q133 373 139 361T156 340Q170 329 195 320T259 300Q303 288 333 276T384 246Q411 226 422 200T434 141Q434 97 410 63T342 10T244
-10Z" />
<glyph unicode="t" horiz-adv-x="371" d="M145 0V659H220V0H145ZM27 450V522H352V450H27Z" />
<glyph unicode="u" horiz-adv-x="582" d="M258 -10Q198 -10 157 14T94 86T72 203V522H148V218Q148 165 162 130T206 76T279 58Q312 58 340 69T389 101T422 148T434 205V522H509V0H435L432 110L444 116Q432 81 404 53T338 7T258 -10Z" />
<glyph unicode="v" horiz-adv-x="538" d="M235 0L15 522H98L272 95L252 84L443 522H523L289 0H235Z" />
<glyph unicode="w" horiz-adv-x="771" d="M196 0L15 522L95 523L236 98L211 100L364 442H409L563 100L533 98L677 522H756L575 0H531L369 372L399 370L242 0H196Z" />
<glyph unicode="x" horiz-adv-x="538" d="M428 0L247 233L238 244L21 522H116L294 293L304 280L522 0H428ZM17 0L230 275L275 221L107 0H17ZM309 256L266 309L418 522H509L309 256Z" />
<glyph unicode="y" horiz-adv-x="549" d="M161 -230L262 16L269 -55L7 522H92L271 122Q279 106 287 85T302 42L274 45Q281 62 287 80T300 115L457 522H543L332 0L242 -230H161Z" />
<glyph unicode="z" horiz-adv-x="464" d="M44 0V65L332 471L341 455H44V522H411V458L124 53L114 68H422V0H44Z" />
<glyph unicode="{" horiz-adv-x="408" d="M367 -196Q322 -186 289 -171T234 -133T201 -79T190 -7L191 88Q191 150 164 185T85 221H47V279H87Q138 280 164 314T191 412L190 507Q190 587 233 631T367 696L381 643Q335 627 309 610T271 566T259 493L261 398Q261 340
237 302T163 249L162 252Q212 235 236 197T261 102L259 7Q259 -38 270 -65T308 -109T381 -143L367 -196Z" />
<glyph unicode="|" horiz-adv-x="229" d="M79 -193V740H151V-193H79Z" />
<glyph unicode="}" horiz-adv-x="408" d="M41 -196L27 -143Q74 -127 100 -110T137 -66T148 7L146 102Q146 160 171 198T245 251L246 248Q196 265 171 303T146 398L148 493Q148 538 137 565T100 610T27 643L41 696Q86 686 119 671T174 633T207 579T218 507L217
412Q217 350 244 315T323 279H361V221H321Q270 220 244 186T217 88L218 -7Q218 -87 175 -131T41 -196Z" />
<glyph unicode="~" horiz-adv-x="510" d="M362 238Q347 238 324 243T279 256T239 269Q225 274 208 279T176 289T151 293Q131 293 121 279T111 238H52Q52 295 79 326T154 357Q165 357 181 354T214 346T247 336T277 326Q291 321 307 316T339 307T365 303Q383 303
393 316T402 350L461 349Q461 313 450 289T416 251T362 238Z" />
<glyph unicode="&#xa0;" horiz-adv-x="280" />
<glyph unicode="&#xa1;" horiz-adv-x="242" d="M137 289Q144 226 148 159T155 25T157 -100V-170H76V-100Q76 -38 78 30T84 164T95 289H137ZM119 540Q146 540 160 524T175 478Q175 451 160 434T119 416Q92 416 78 432T63 478Q63 506 78 523T119 540Z" />
<glyph unicode="&#xa2;" horiz-adv-x="536" d="M302 78Q228 78 170 113T79 210T45 350Q45 428 78 489T170 586T304 621Q371 621 426 595T513 521L469 467Q450 492 424 511T367 540T307 551Q253 551 211 525T145 453T120 350Q120 292 145 247T211 175T303 149Q335
149 363 158T418 185T467 230L512 177Q478 132 422 105T302 78ZM259 0V98L263 133V570L259 606V700H331V605L327 575V131L331 97V0H259Z" />
<glyph unicode="&#xa3;" horiz-adv-x="610" d="M192 55L132 76Q147 84 159 102T178 147T185 201Q185 215 184 229T179 260T170 300T153 352Q141 391 135 415T127 458T124 492Q124 556 151 604T226 678T340 705Q404 705 451 683T522 620L464 576Q448 598 428 610T385
627T341 633Q299 633 267 615T217 564T198 491Q198 458 208 422T229 353Q239 323 249 289T259 224Q259 195 253 166T232 109T192 55ZM433 -15Q406 -15 373 -7T313 10Q299 14 280 19T242 29T207 33Q177 33 143 24T73 1L41 58Q78 78 122 90T216 102Q240 102 264 97T334
76Q359 67 383 61T433 54Q459 54 485 63T538 89L580 35Q551 11 513 -2T433 -15ZM49 333V399H447V333H49Z" />
<glyph unicode="&#xa4;" horiz-adv-x="555" d="M279 122Q230 122 190 146T125 211T101 302Q101 352 125 393T189 458T279 482Q328 482 368 458T433 392T457 302Q457 252 433 211T369 146T279 122ZM116 94L63 147L149 233L202 181L116 94ZM148 377L59 460L111 512L200
428L148 377ZM279 188Q311 188 335 202T373 243T387 302Q387 335 374 361T336 401T279 416Q247 416 223 402T186 361T172 302Q172 269 185 243T223 203T279 188ZM442 98L353 182L406 234L494 151L442 98ZM409 378L357 430L443 517L495 464L409 378Z" />
<glyph unicode="&#xa5;" horiz-adv-x="645" d="M294 0V349L301 300L18 700H113L345 368L324 370L537 700H627L356 289L371 357V0H294ZM146 108V174L532 173V107L146 108ZM146 250V316L532 315V249L146 250Z" />
<glyph unicode="&#xa6;" horiz-adv-x="233" d="M81 -202V198H152V-202H81ZM81 341V740H152V341H81Z" />
<glyph unicode="&#xa7;" horiz-adv-x="545" d="M316 144L303 191Q338 194 364 206T404 237T419 284Q419 310 403 327T345 357L213 400Q201 405 182 415T144 444T113 489T100 552Q100 585 112 613T149 662T208 695T287 707Q324 707 356 698T416 671T468 631L427
578Q408 596 385 609T337 630T282 638Q236 638 205 616T174 554Q174 533 183 517T211 489T256 467L362 432Q426 412 460 378T493 290Q492 245 470 213T408 164T316 144ZM278 -108Q238 -108 199 -98T125 -68T65 -26L102 32Q139 -1 185 -20T279 -40Q330 -40 360 -19T391
42Q391 63 381 78T354 104T312 124L179 169Q126 187 95 220T64 308Q64 349 85 381T146 432T236 453L248 402Q220 399 196 388T157 359T142 312Q142 289 157 269T212 237L345 193Q375 184 402 165T448 118T466 48Q466 3 444 -32T379 -87T278 -108Z" />
<glyph unicode="&#xa8;" horiz-adv-x="500" d="M348 633Q321 633 306 647T291 688Q291 712 306 727T348 743Q375 743 390 729T405 688Q405 664 390 649T348 633ZM153 633Q125 633 110 647T95 687Q95 712 110 727T153 742Q180 742 195 728T210 687Q210 663 195
648T153 633Z" />
<glyph unicode="&#xa9;" horiz-adv-x="786" d="M393 -7Q318 -7 254 20T140 97T64 210T36 350Q36 425 63 489T140 603T253 679T393 707Q467 707 531 680T645 603T722 490T750 350Q750 275 723 211T646 97T532 21T393 -7ZM407 142Q347 142 299 169T222 243T193 350Q193
407 221 454T298 529T407 557Q441 557 474 546T536 512L507 457Q492 468 476 476T443 490T407 495Q365 495 332 475T279 422T259 350Q259 308 278 275T331 223T407 204Q435 204 460 213T512 240L540 185Q510 164 476 153T407 142ZM393 54Q455 54 509 77T603 140T666
234T689 350Q689 413 666 466T603 560T509 623T393 646Q331 646 277 624T183 561T120 467T97 350Q97 288 120 234T183 140T277 77T393 54Z" />
<glyph unicode="&#xaa;" horiz-adv-x="365" d="M155 391Q114 391 84 412T37 472T20 562Q20 608 38 644T88 700T163 721Q215 721 245 686T278 592L258 638V715H325V401H258V474L278 504Q274 476 258 450T215 408T155 391ZM169 442Q197 442 217 456T250 495T262
555Q262 608 237 639T169 670Q146 670 128 655T98 616T87 562Q87 525 97 499T125 457T169 442Z" />
<glyph unicode="&#xab;" horiz-adv-x="476" d="M388 51L228 258V260L388 469L439 435L308 253V267L439 86L388 51ZM185 51L25 258V260L185 469L236 435L105 253V267L236 86L185 51Z" />
<glyph unicode="&#xac;" horiz-adv-x="670" d="M539 117V340L558 328H55V399H615V117H539Z" />
<glyph unicode="&#xad;" horiz-adv-x="394" d="M56 241V316H338V241H56Z" />
<glyph unicode="&#xae;" horiz-adv-x="513" d="M260 256Q195 256 142 286T58 368T27 484Q27 532 45 573T95 645T169 694T260 712Q307 712 349 694T423 645T473 573T491 484Q491 436 473 395T424 323T350 274T260 256ZM260 308Q309 308 350 331T415 395T440 484Q440
533 416 573T350 637T260 661Q209 661 168 637T103 573T78 484Q78 435 102 395T168 332T260 308ZM306 367L262 467L305 481L357 367H306ZM176 367V609H278Q313 609 335 588T357 534Q357 501 334 480T278 458H202L223 470V367H176ZM223 487L204 497H263Q284 497
297 506T311 531Q311 548 300 557T265 566H201L223 577V487Z" />
<glyph unicode="&#xaf;" horiz-adv-x="424" d="M111 646V704H389V646H111Z" />
<glyph unicode="&#xb0;" horiz-adv-x="532" d="M266 399Q222 399 187 419T131 475T110 553Q110 597 130 632T186 688T266 709Q311 709 346 689T401 633T422 554Q422 511 402 476T346 420T266 399ZM266 452Q293 452 314 466T349 503T362 554Q362 582 349 605T315
642T266 656Q239 656 217 642T183 605T170 553Q170 525 183 502T217 466T266 452Z" />
<glyph unicode="&#xb1;" horiz-adv-x="590" d="M55 306V374H535V306H55ZM55 21V90H535V21H55ZM258 155V529H334V155H258Z" />
<glyph unicode="&#xb2;" horiz-adv-x="346" d="M67 418L56 471L173 593Q185 605 197 618T218 647T227 679Q227 699 214 711T179 724Q155 724 133 708T89 661L47 692Q62 718 83 737T130 768T184 779Q215 779 238 767T275 733T289 683Q289 659 277 636T247 593T212
556L119 460L124 471H299V418H67Z" />
<glyph unicode="&#xb3;" horiz-adv-x="342" d="M168 412Q149 412 130 416T92 428T60 446L87 490Q109 476 127 471T162 465Q197 465 219 482T241 531Q241 557 221 573T171 590Q156 590 142 587T111 576L95 615L219 726L228 719H76V772H276L282 720L172 625L150
624Q160 631 170 634T187 637Q237 637 268 609T299 532Q299 497 282 470T235 428T168 412Z" />
<glyph unicode="&#xb4;" horiz-adv-x="500" d="M182 602L155 643L297 762L346 699L182 602Z" />
<glyph unicode="&#xb5;" horiz-adv-x="573" d="M76 -157V522H149V212Q149 160 162 126T203 75T271 58Q304 58 332 70T383 104T417 152T429 212V522H502V0H430L427 120L438 112Q420 70 393 43T333 3T265 -10Q237 -10 212 -2T168 24T135 69L148 76L149 -157H76Z" />
<glyph unicode="&#xb6;" horiz-adv-x="662" d="M263 0V314L287 279H237Q183 279 141 306T74 379T49 486Q49 551 77 599T155 673T274 700H559V0H481V670L503 627H297L341 667V0H263Z" />
<glyph unicode="&#xb7;" horiz-adv-x="228" d="M114 254Q87 254 73 270T58 316Q58 343 73 360T114 378Q141 378 155 362T170 316Q170 288 155 271T114 254Z" />
<glyph unicode="&#xb8;" horiz-adv-x="500" d="M167 -237L160 -194Q187 -193 213 -186T257 -167T275 -139Q275 -123 259 -114T222 -102T184 -98L171 -88L237 15H288L245 -53Q293 -62 317 -83T341 -137Q341 -163 325 -182T284 -214T228 -231T167 -237Z" />
<glyph unicode="&#xb9;" horiz-adv-x="281" d="M137 430V725L146 706L80 666L54 715L159 777H194V430H166Q158 430 151 430T137 430Z" />
<glyph unicode="&#xba;" horiz-adv-x="354" d="M176 392Q133 392 99 412T45 468T25 549Q25 595 45 631T99 689T176 710Q219 710 253 689T308 631T329 549Q329 504 309 469T254 413T176 392ZM176 447Q202 447 222 460T253 496T264 549Q264 581 253 604T222 641T176
655Q149 655 130 642T101 605T90 549Q90 519 101 496T131 460T176 447Z" />
<glyph unicode="&#xbb;" horiz-adv-x="491" d="M304 52L253 86L384 268V254L253 435L304 470L464 263V261L304 52ZM88 52L37 86L168 268V254L37 435L88 470L248 263V261L88 52Z" />
<glyph unicode="&#xbc;" horiz-adv-x="782" d="M151 359V654L160 635L94 595L68 644L173 706H208V359H180Q172 359 165 359T151 359ZM119 0L585 700H663L196 0H119ZM667 135H740V82H667V135ZM491 106L480 135H638L622 120V312L651 301L491 106ZM679 -1H622V98L637
82H458L446 132L626 356H679V-1Z" />
<glyph unicode="&#xbd;" horiz-adv-x="794" d="M151 359V654L160 635L94 595L68 644L173 706H208V359H180Q172 359 165 359T151 359ZM120 0L586 700H664L197 0H120ZM524 0L513 53L630 175Q642 187 654 200T675 229T684 261Q684 281 671 293T636 306Q612 306 590
290T546 243L504 274Q519 300 540 319T587 350T641 361Q672 361 695 349T732 315T746 265Q746 241 734 218T704 175T669 138L576 42L581 53H756V0H524Z" />
<glyph unicode="&#xbe;" horiz-adv-x="788" d="M128 342Q109 342 90 346T52 358T20 376L47 420Q69 406 87 401T122 395Q157 395 179 412T201 461Q201 487 181 503T131 520Q116 520 102 517T71 506L55 545L179 656L188 649H36V702H236L242 650L132 555L110 554Q120
561 130 564T147 567Q197 567 228 539T259 462Q259 427 242 400T195 358T128 342ZM127 0L593 700H671L204 0H127ZM673 135H746V82H673V135ZM497 106L486 135H644L628 120V312L657 301L497 106ZM685 -1H628V98L643 82H464L452 132L632 356H685V-1Z" />
<glyph unicode="&#xbf;" horiz-adv-x="504" d="M286 328L303 195Q263 185 232 172T179 143T141 109T119 69T111 23Q111 -12 128 -40T176 -83T245 -99Q290 -99 331 -72T404 9L459 -38Q417 -101 360 -136T239 -172Q179 -172 132 -146T57 -76T29 23Q29 58 42 90T81
151T140 201T214 236L228 328H286ZM313 482Q313 455 298 438T257 420Q230 420 216 436T201 482Q201 510 216 527T257 544Q284 544 298 528T313 482Z" />
<glyph unicode="&#xc0;" horiz-adv-x="673" d="M25 0L293 700H382L648 0H563L392 454Q385 473 377 498T359 551T341 605T325 651H345Q337 626 329 601T311 550T293 499T275 449L105 0H25ZM139 193L168 269H499L531 193H139ZM402 757L218 834L259 904L426 799L402 757Z" />
<glyph unicode="&#xc1;" horiz-adv-x="673" d="M25 0L293 700H382L648 0H563L392 454Q385 473 377 498T359 551T341 605T325 651H345Q337 626 329 601T311 550T293 499T275 449L105 0H25ZM139 193L168 269H499L531 193H139ZM275 757L252 799L419 904L460 834L275 757Z" />
<glyph unicode="&#xc2;" horiz-adv-x="673" d="M25 0L293 700H382L648 0H563L392 454Q385 473 377 498T359 551T341 605T325 651H345Q337 626 329 601T311 550T293 499T275 449L105 0H25ZM139 193L168 269H499L531 193H139ZM214 760L181 790L303 886H370L491 790L459
760L321 836H351L214 760Z" />
<glyph unicode="&#xc3;" horiz-adv-x="673" d="M25 0L293 700H382L648 0H563L392 454Q385 473 377 498T359 551T341 605T325 651H345Q337 626 329 601T311 550T293 499T275 449L105 0H25ZM139 193L168 269H499L531 193H139ZM408 774Q386 774 364 782T319 799Q305
805 293 810T270 815Q256 815 246 805T236 774H175Q175 821 204 848T271 875Q293 875 313 868T355 850Q367 845 380 840T404 835Q418 835 428 845T437 874H498Q498 846 487 824T455 788T408 774Z" />
<glyph unicode="&#xc4;" horiz-adv-x="673" d="M25 0L293 700H382L648 0H563L392 454Q385 473 377 498T359 551T341 605T325 651H345Q337 626 329 601T311 550T293 499T275 449L105 0H25ZM139 193L168 269H499L531 193H139ZM438 769Q410 769 396 784T381 824Q381
846 395 862T438 879Q467 879 481 864T496 824Q496 802 482 786T438 769ZM236 769Q207 769 193 784T178 824Q178 846 192 862T236 879Q264 879 278 864T293 824Q293 802 279 786T236 769Z" />
<glyph unicode="&#xc5;" horiz-adv-x="673" d="M25 0L293 700H382L648 0H563L392 454Q385 473 377 498T359 551T341 605T325 651H345Q337 626 329 601T311 550T293 499T275 449L105 0H25ZM139 193L168 269H499L531 193H139ZM336 685Q307 685 282 699T242 738T227
790Q227 820 242 844T282 882T336 896Q365 896 390 882T430 844T446 790Q446 762 431 738T390 700T336 685ZM336 734Q361 734 378 750T396 790Q396 817 379 832T336 848Q311 848 294 832T277 790Q277 767 294 751T336 734Z" />
<glyph unicode="&#xc6;" horiz-adv-x="955" d="M2 0L489 700H883V629H540V394H831V322H540V71H881V0H465V173H190L238 243H465V594L491 586L86 0H2Z" />
<glyph unicode="&#xc7;" horiz-adv-x="676" d="M393 -10Q318 -10 255 16T146 91T75 206T49 350Q49 427 74 491T147 604T256 679T392 705Q441 705 489 690T577 647T644 585L590 529Q565 559 533 581T464 615T392 627Q336 627 288 607T204 549T150 461T130 350Q130
288 149 236T205 147T291 89T402 68Q438 68 474 78T540 108T591 151L631 86Q608 58 570 37T485 3T393 -10ZM292 -237L285 -194Q312 -193 338 -186T382 -167T400 -139Q400 -123 384 -114T347 -102T309 -98L296 -88L362 15H413L370 -53Q418 -62 442 -83T466 -137Q466
-163 451 -182T409 -214T353 -231T292 -237Z" />
<glyph unicode="&#xc8;" horiz-adv-x="599" d="M103 0V700H527V624H181V76H525V0H103ZM139 322V398H471V322H139ZM390 757L206 834L247 904L414 799L390 757Z" />
<glyph unicode="&#xc9;" horiz-adv-x="599" d="M103 0V700H527V624H181V76H525V0H103ZM139 322V398H471V322H139ZM263 757L240 799L407 904L448 834L263 757Z" />
<glyph unicode="&#xca;" horiz-adv-x="599" d="M103 0V700H527V624H181V76H525V0H103ZM139 322V398H471V322H139ZM202 760L169 790L291 886H358L479 790L447 760L309 836H339L202 760Z" />
<glyph unicode="&#xcb;" horiz-adv-x="599" d="M103 0V700H527V624H181V76H525V0H103ZM139 322V398H471V322H139ZM426 769Q398 769 384 784T369 824Q369 846 383 862T426 879Q455 879 469 864T484 824Q484 802 470 786T426 769ZM224 769Q195 769 181 784T166 824Q166
846 180 862T224 879Q252 879 266 864T281 824Q281 802 267 786T224 769Z" />
<glyph unicode="&#xcc;" horiz-adv-x="444" d="M70 0V74H183V626H70V700H374V626H261V74H374V0H70ZM543 757L359 834L400 904L567 799L543 757Z" />
<glyph unicode="&#xcd;" horiz-adv-x="444" d="M70 0V74H183V626H70V700H374V626H261V74H374V0H70ZM416 757L393 799L560 904L601 834L416 757Z" />
<glyph unicode="&#xce;" horiz-adv-x="444" d="M70 0V74H183V626H70V700H374V626H261V74H374V0H70ZM355 760L322 790L444 886H511L632 790L600 760L462 836H492L355 760Z" />
<glyph unicode="&#xcf;" horiz-adv-x="444" d="M70 0V74H183V626H70V700H374V626H261V74H374V0H70ZM579 769Q551 769 537 784T522 824Q522 846 536 862T579 879Q608 879 622 864T637 824Q637 802 623 786T579 769ZM377 769Q348 769 334 784T319 824Q319 846 333
862T377 879Q405 879 419 864T434 824Q434 802 420 786T377 769Z" />
<glyph unicode="&#xd0;" horiz-adv-x="743" d="M45 316V383H313V316H45ZM103 0V700H367Q439 700 498 675T602 602T670 491T694 350Q694 273 670 209T603 98T499 26T367 0H103ZM181 62L172 76H362Q417 76 463 95T543 151T595 238T614 350Q614 412 596 462T543 548T463
604T362 624H169L181 636V62Z" />
<glyph unicode="&#xd1;" horiz-adv-x="787" d="M103 0V700H174L632 94L618 76Q615 92 614 124T611 196T608 281T607 367T606 443V700H684V0H611L155 598L167 619Q170 579 172 540T176 465T179 399T180 348T181 318V0H103ZM465 774Q443 774 421 782T376 799Q362
805 350 810T327 815Q313 815 303 805T293 774H232Q232 821 261 848T328 875Q350 875 370 868T412 850Q424 845 437 840T461 835Q475 835 485 845T494 874H555Q555 846 544 824T512 788T465 774Z" />
<glyph unicode="&#xd2;" horiz-adv-x="785" d="M392 -10Q318 -10 256 16T147 91T75 204T49 348Q49 426 74 491T146 605T255 680T392 707Q467 707 529 681T638 606T710 492T736 348Q736 271 711 206T639 92T530 17T392 -10ZM392 67Q449 67 497 87T581 146T635 235T655
348Q655 410 636 461T581 551T498 610T392 631Q335 631 287 610T203 551T149 462T130 348Q130 287 149 236T203 146T286 88T392 67ZM458 757L274 834L315 904L482 799L458 757Z" />
<glyph unicode="&#xd3;" horiz-adv-x="785" d="M392 -10Q318 -10 256 16T147 91T75 204T49 348Q49 426 74 491T146 605T255 680T392 707Q467 707 529 681T638 606T710 492T736 348Q736 271 711 206T639 92T530 17T392 -10ZM392 67Q449 67 497 87T581 146T635 235T655
348Q655 410 636 461T581 551T498 610T392 631Q335 631 287 610T203 551T149 462T130 348Q130 287 149 236T203 146T286 88T392 67ZM331 757L308 799L475 904L516 834L331 757Z" />
<glyph unicode="&#xd4;" horiz-adv-x="785" d="M392 -10Q318 -10 256 16T147 91T75 204T49 348Q49 426 74 491T146 605T255 680T392 707Q467 707 529 681T638 606T710 492T736 348Q736 271 711 206T639 92T530 17T392 -10ZM392 67Q449 67 497 87T581 146T635 235T655
348Q655 410 636 461T581 551T498 610T392 631Q335 631 287 610T203 551T149 462T130 348Q130 287 149 236T203 146T286 88T392 67ZM270 760L237 790L359 886H426L547 790L515 760L377 836H407L270 760Z" />
<glyph unicode="&#xd5;" horiz-adv-x="785" d="M392 -10Q318 -10 256 16T147 91T75 204T49 348Q49 426 74 491T146 605T255 680T392 707Q467 707 529 681T638 606T710 492T736 348Q736 271 711 206T639 92T530 17T392 -10ZM392 67Q449 67 497 87T581 146T635 235T655
348Q655 410 636 461T581 551T498 610T392 631Q335 631 287 610T203 551T149 462T130 348Q130 287 149 236T203 146T286 88T392 67ZM464 774Q442 774 420 782T375 799Q361 805 349 810T326 815Q312 815 302 805T292 774H231Q231 821 260 848T327 875Q349 875 369
868T411 850Q423 845 436 840T460 835Q474 835 484 845T493 874H554Q554 846 543 824T511 788T464 774Z" />
<glyph unicode="&#xd6;" horiz-adv-x="785" d="M392 -10Q318 -10 256 16T147 91T75 204T49 348Q49 426 74 491T146 605T255 680T392 707Q467 707 529 681T638 606T710 492T736 348Q736 271 711 206T639 92T530 17T392 -10ZM392 67Q449 67 497 87T581 146T635 235T655
348Q655 410 636 461T581 551T498 610T392 631Q335 631 287 610T203 551T149 462T130 348Q130 287 149 236T203 146T286 88T392 67ZM494 769Q466 769 452 784T437 824Q437 846 451 862T494 879Q523 879 537 864T552 824Q552 802 538 786T494 769ZM292 769Q263 769
249 784T234 824Q234 846 248 862T292 879Q320 879 334 864T349 824Q349 802 335 786T292 769Z" />
<glyph unicode="&#xd7;" horiz-adv-x="470" d="M383 86L38 431L87 478L432 133L383 86ZM86 84L40 133L383 478L430 430L86 84Z" />
<glyph unicode="&#xd8;" horiz-adv-x="779" d="M118 -31L70 11L660 733L711 693L118 -31ZM391 -10Q317 -10 255 16T146 91T74 204T48 348Q48 426 73 491T145 605T254 680T391 707Q466 707 528 681T637 606T709 492T735 348Q735 271 710 206T638 92T529 17T391
-10ZM391 67Q448 67 496 87T580 146T634 235T654 348Q654 410 635 461T580 551T497 610T391 631Q334 631 286 610T202 551T148 462T129 348Q129 287 148 236T202 146T285 88T391 67Z" />
<glyph unicode="&#xd9;" horiz-adv-x="747" d="M372 -7Q293 -7 231 28T134 126T98 268V700H176V277Q176 218 202 171T272 97T372 70Q430 70 475 97T547 171T573 277V700H648V268Q648 189 613 127T515 29T372 -7ZM439 757L255 834L296 904L463 799L439 757Z" />
<glyph unicode="&#xda;" horiz-adv-x="747" d="M372 -7Q293 -7 231 28T134 126T98 268V700H176V277Q176 218 202 171T272 97T372 70Q430 70 475 97T547 171T573 277V700H648V268Q648 189 613 127T515 29T372 -7ZM312 757L289 799L456 904L497 834L312 757Z" />
<glyph unicode="&#xdb;" horiz-adv-x="747" d="M372 -7Q293 -7 231 28T134 126T98 268V700H176V277Q176 218 202 171T272 97T372 70Q430 70 475 97T547 171T573 277V700H648V268Q648 189 613 127T515 29T372 -7ZM251 760L218 790L340 886H407L528 790L496 760L358
836H388L251 760Z" />
<glyph unicode="&#xdc;" horiz-adv-x="747" d="M372 -7Q293 -7 231 28T134 126T98 268V700H176V277Q176 218 202 171T272 97T372 70Q430 70 475 97T547 171T573 277V700H648V268Q648 189 613 127T515 29T372 -7ZM475 769Q447 769 433 784T418 824Q418 846 432
862T475 879Q504 879 518 864T533 824Q533 802 519 786T475 769ZM273 769Q244 769 230 784T215 824Q215 846 229 862T273 879Q301 879 315 864T330 824Q330 802 316 786T273 769Z" />
<glyph unicode="&#xdd;" horiz-adv-x="645" d="M294 0V349L301 300L18 700H113L345 368L324 370L537 700H627L356 289L371 357V0H294ZM261 757L238 799L405 904L446 834L261 757Z" />
<glyph unicode="&#xde;" horiz-adv-x="611" d="M103 0V700H181V563H365Q421 563 465 536T536 462T563 358Q563 301 537 254T466 179T365 151H181V0H103ZM181 229H363Q399 229 426 247T468 294T483 358Q483 393 468 421T426 467T363 485H181V229Z" />
<glyph unicode="&#xdf;" horiz-adv-x="648" d="M403 -10Q350 -10 311 9T244 63L288 107Q313 81 342 67T406 52Q462 52 496 90T530 190Q530 229 518 260T481 317T416 362T323 394V444Q357 453 382 465T425 493T450 527T459 567Q459 610 427 637T338 664Q269 664
230 619T190 503V0H118V499Q118 568 145 620T221 702T339 732Q398 732 441 712T508 656T532 575Q532 539 515 509T467 457T397 426L399 437Q449 422 487 399T551 345T590 277T603 197Q603 138 578 92T508 18T403 -10ZM40 421V490H160V421H40Z" />
<glyph unicode="&#xe0;" horiz-adv-x="620" d="M277 -10Q209 -10 154 25T67 122T35 262Q35 341 68 402T156 498T281 533Q322 533 357 521T419 488T465 438T491 376L469 387L472 522H547V0H471V128L491 141Q484 111 464 84T416 35T352 2T277 -10ZM294 62Q346 62
387 87T451 158T475 262Q475 320 452 365T387 436T294 462Q241 462 201 436T137 365T113 262Q113 205 136 160T200 88T294 62ZM358 855L195 952L243 1015L386 896L358 855Z" />
<glyph unicode="&#xe1;" horiz-adv-x="620" d="M277 -10Q209 -10 154 25T67 122T35 262Q35 341 68 402T156 498T281 533Q322 533 357 521T419 488T465 438T491 376L469 387L472 522H547V0H471V128L491 141Q484 111 464 84T416 35T352 2T277 -10ZM294 62Q346 62
387 87T451 158T475 262Q475 320 452 365T387 436T294 462Q241 462 201 436T137 365T113 262Q113 205 136 160T200 88T294 62ZM247 855L220 896L362 1015L411 952L247 855Z" />
<glyph unicode="&#xe2;" horiz-adv-x="620" d="M277 -10Q209 -10 154 25T67 122T35 262Q35 341 68 402T156 498T281 533Q322 533 357 521T419 488T465 438T491 376L469 387L472 522H547V0H471V128L491 141Q484 111 464 84T416 35T352 2T277 -10ZM294 62Q346 62
387 87T451 158T475 262Q475 320 452 365T387 436T294 462Q241 462 201 436T137 365T113 262Q113 205 136 160T200 88T294 62ZM194 861L161 889L273 996H347L459 889L426 861L295 946H325L194 861Z" />
<glyph unicode="&#xe3;" horiz-adv-x="620" d="M277 -10Q209 -10 154 25T67 122T35 262Q35 341 68 402T156 498T281 533Q322 533 357 521T419 488T465 438T491 376L469 387L472 522H547V0H471V128L491 141Q484 111 464 84T416 35T352 2T277 -10ZM294 62Q346 62
387 87T451 158T475 262Q475 320 452 365T387 436T294 462Q241 462 201 436T137 365T113 262Q113 205 136 160T200 88T294 62ZM369 869Q348 869 333 878T297 905Q283 918 274 924T254 930Q237 930 225 916T209 872L155 879Q159 924 187 955T259 987Q278 987 293
979T328 953Q343 941 352 934T372 927Q387 927 397 941T411 979L466 972Q464 944 452 921T418 883T369 869Z" />
<glyph unicode="&#xe4;" horiz-adv-x="620" d="M277 -10Q209 -10 154 25T67 122T35 262Q35 341 68 402T156 498T281 533Q322 533 357 521T419 488T465 438T491 376L469 387L472 522H547V0H471V128L491 141Q484 111 464 84T416 35T352 2T277 -10ZM294 62Q346 62
387 87T451 158T475 262Q475 320 452 365T387 436T294 462Q241 462 201 436T137 365T113 262Q113 205 136 160T200 88T294 62ZM408 886Q381 886 366 900T351 941Q351 965 366 980T408 996Q435 996 450 982T465 941Q465 917 450 902T408 886ZM213 886Q185 886 170
900T155 940Q155 965 170 980T213 995Q240 995 255 981T270 940Q270 916 255 901T213 886Z" />
<glyph unicode="&#xe5;" horiz-adv-x="620" d="M277 -10Q209 -10 154 25T67 122T35 262Q35 341 68 402T156 498T281 533Q322 533 357 521T419 488T465 438T491 376L469 387L472 522H547V0H471V128L491 141Q484 111 464 84T416 35T352 2T277 -10ZM294 62Q346 62
387 87T451 158T475 262Q475 320 452 365T387 436T294 462Q241 462 201 436T137 365T113 262Q113 205 136 160T200 88T294 62ZM309 850Q282 850 258 864T218 901T203 952Q203 981 217 1004T256 1041T309 1056Q338 1056 362 1042T401 1004T416 952Q416 925 402 902T363
864T309 850ZM309 898Q333 898 350 914T367 952Q367 977 350 992T309 1007Q284 1007 268 992T252 952Q252 930 269 914T309 898Z" />
<glyph unicode="&#xe6;" horiz-adv-x="890" d="M213 -10Q162 -10 122 10T59 65T35 149Q35 189 50 219T94 270T168 301T271 311H798L780 293V316Q779 353 760 386T708 440T628 462Q576 462 538 440T478 373T456 264Q456 203 480 158T550 87T655 61Q692 61 728 74T807
123L845 68Q822 46 791 29T722 1T646 -10Q568 -10 509 24T417 118T384 259Q384 322 402 372T452 459T530 514T628 533Q697 533 748 501T828 412T856 282L855 247H258Q222 247 195 241T148 222T119 192T109 151Q109 123 123 103T161 70T217 58Q257 58 292 72T356
111T400 167L438 116Q415 78 380 50T301 6T213 -10ZM384 274V360Q384 382 375 401T349 433T309 454T254 462Q205 462 166 442T93 382L42 432Q72 466 106 488T177 522T256 533Q301 533 337 523T398 494T438 446T452 381V276L384 274Z" />
<glyph unicode="&#xe7;" horiz-adv-x="526" d="M293 -10Q219 -10 161 25T70 122T36 262Q36 340 69 401T161 498T294 533Q361 533 416 507T504 433L460 379Q441 404 415 423T358 452T297 463Q244 463 202 437T136 365T111 262Q111 204 135 159T202 87T296 61Q326
61 355 70T410 98T458 143L502 89Q468 44 411 17T293 -10ZM201 -237L194 -194Q221 -193 247 -186T291 -167T309 -139Q309 -123 293 -114T256 -102T218 -98L205 -88L271 15H322L279 -53Q327 -62 351 -83T375 -137Q375 -163 359 -182T318 -214T262 -231T201 -237Z"
/>
<glyph unicode="&#xe8;" horiz-adv-x="562" d="M303 -10Q225 -10 165 24T70 119T36 259Q36 320 55 369T108 456T191 513T295 534Q348 534 391 515T466 463T514 383T528 282L527 247H92L81 310H470L452 293V317Q450 353 431 386T378 441T295 462Q239 462 198 440T135
373T113 264Q113 202 137 157T205 86T313 61Q350 61 386 73T467 123L506 69Q483 46 451 29T381 1T303 -10ZM342 855L179 952L227 1015L370 896L342 855Z" />
<glyph unicode="&#xe9;" horiz-adv-x="562" d="M303 -10Q225 -10 165 24T70 119T36 259Q36 320 55 369T108 456T191 513T295 534Q348 534 391 515T466 463T514 383T528 282L527 247H92L81 310H470L452 293V317Q450 353 431 386T378 441T295 462Q239 462 198 440T135
373T113 264Q113 202 137 157T205 86T313 61Q350 61 386 73T467 123L506 69Q483 46 451 29T381 1T303 -10ZM231 855L204 896L346 1015L395 952L231 855Z" />
<glyph unicode="&#xea;" horiz-adv-x="562" d="M303 -10Q225 -10 165 24T70 119T36 259Q36 320 55 369T108 456T191 513T295 534Q348 534 391 515T466 463T514 383T528 282L527 247H92L81 310H470L452 293V317Q450 353 431 386T378 441T295 462Q239 462 198 440T135
373T113 264Q113 202 137 157T205 86T313 61Q350 61 386 73T467 123L506 69Q483 46 451 29T381 1T303 -10ZM179 861L146 889L258 996H332L444 889L411 861L280 946H310L179 861Z" />
<glyph unicode="&#xeb;" horiz-adv-x="562" d="M303 -10Q225 -10 165 24T70 119T36 259Q36 320 55 369T108 456T191 513T295 534Q348 534 391 515T466 463T514 383T528 282L527 247H92L81 310H470L452 293V317Q450 353 431 386T378 441T295 462Q239 462 198 440T135
373T113 264Q113 202 137 157T205 86T313 61Q350 61 386 73T467 123L506 69Q483 46 451 29T381 1T303 -10ZM392 886Q365 886 350 900T335 941Q335 965 350 980T392 996Q419 996 434 982T449 941Q449 917 434 902T392 886ZM197 886Q169 886 154 900T139 940Q139
965 154 980T197 995Q224 995 239 981T254 940Q254 916 239 901T197 886Z" />
<glyph unicode="&#xec;" horiz-adv-x="221" d="M73 0V522H148V0H73ZM157 599L-6 696L42 759L185 640L157 599Z" />
<glyph unicode="&#xed;" horiz-adv-x="221" d="M73 0V522H148V0H73ZM46 599L19 640L161 759L210 696L46 599Z" />
<glyph unicode="&#xee;" horiz-adv-x="221" d="M73 0V522H148V0H73ZM-6 605L-39 633L73 740H147L259 633L226 605L95 690H125L-6 605Z" />
<glyph unicode="&#xef;" horiz-adv-x="221" d="M73 0V522H148V0H73ZM207 630Q180 630 165 644T150 685Q150 709 165 724T207 740Q234 740 249 726T264 685Q264 661 249 646T207 630ZM12 630Q-16 630 -31 644T-46 684Q-46 709 -31 724T12 739Q39 739 54 725T69
684Q69 660 54 645T12 630Z" />
<glyph unicode="&#xf0;" horiz-adv-x="566" d="M283 -9Q213 -9 157 26T69 123T36 263Q36 318 55 366T107 451T186 507T282 527Q331 527 371 506T440 448T482 364L446 380Q444 423 431 462T396 536T341 599T268 648T176 682L207 739Q266 725 316 697T405 627T473
532T515 413T530 273Q530 191 499 127T411 27T283 -9ZM283 64Q333 64 372 90T433 160T456 263Q456 318 434 362T372 431T283 457Q234 457 195 432T133 363T110 263Q110 205 132 161T194 90T283 64ZM154 540L144 592L312 636L351 649L483 681L497 628L394 603L363
592L154 540Z" />
<glyph unicode="&#xf1;" horiz-adv-x="576" d="M73 0V522H147L150 413L138 408Q148 442 177 470T246 515T330 533Q388 533 427 510T486 439T506 317V0H430V313Q430 365 417 398T375 448T306 463Q272 463 243 452T193 420T160 374T148 318V0H111Q104 0 95 0T73
0ZM377 869Q356 869 341 878T305 905Q291 918 282 924T262 930Q245 930 233 916T217 872L163 879Q167 924 195 955T267 987Q286 987 301 979T336 953Q351 941 360 934T380 927Q395 927 405 941T419 979L474 972Q472 944 460 921T426 883T377 869Z" />
<glyph unicode="&#xf2;" horiz-adv-x="607" d="M304 -10Q226 -10 166 25T71 122T36 263Q36 341 70 402T165 498T304 533Q381 533 441 498T536 402T571 263Q571 184 537 122T442 25T304 -10ZM304 61Q359 61 402 87T469 159T493 263Q493 321 469 366T402 436T304
462Q249 462 206 437T138 366T114 263Q113 205 137 160T205 88T304 61ZM351 855L188 952L236 1015L379 896L351 855Z" />
<glyph unicode="&#xf3;" horiz-adv-x="607" d="M304 -10Q226 -10 166 25T71 122T36 263Q36 341 70 402T165 498T304 533Q381 533 441 498T536 402T571 263Q571 184 537 122T442 25T304 -10ZM304 61Q359 61 402 87T469 159T493 263Q493 321 469 366T402 436T304
462Q249 462 206 437T138 366T114 263Q113 205 137 160T205 88T304 61ZM241 855L214 896L356 1015L405 952L241 855Z" />
<glyph unicode="&#xf4;" horiz-adv-x="607" d="M304 -10Q226 -10 166 25T71 122T36 263Q36 341 70 402T165 498T304 533Q381 533 441 498T536 402T571 263Q571 184 537 122T442 25T304 -10ZM304 61Q359 61 402 87T469 159T493 263Q493 321 469 366T402 436T304
462Q249 462 206 437T138 366T114 263Q113 205 137 160T205 88T304 61ZM188 861L155 889L267 996H341L453 889L420 861L289 946H319L188 861Z" />
<glyph unicode="&#xf5;" horiz-adv-x="607" d="M304 -10Q226 -10 166 25T71 122T36 263Q36 341 70 402T165 498T304 533Q381 533 441 498T536 402T571 263Q571 184 537 122T442 25T304 -10ZM304 61Q359 61 402 87T469 159T493 263Q493 321 469 366T402 436T304
462Q249 462 206 437T138 366T114 263Q113 205 137 160T205 88T304 61ZM362 869Q341 869 326 878T290 905Q276 918 267 924T247 930Q230 930 218 916T202 872L148 879Q152 924 180 955T252 987Q271 987 286 979T321 953Q336 941 345 934T365 927Q380 927 390 941T404
979L459 972Q457 944 445 921T411 883T362 869Z" />
<glyph unicode="&#xf6;" horiz-adv-x="607" d="M304 -10Q226 -10 166 25T71 122T36 263Q36 341 70 402T165 498T304 533Q381 533 441 498T536 402T571 263Q571 184 537 122T442 25T304 -10ZM304 61Q359 61 402 87T469 159T493 263Q493 321 469 366T402 436T304
462Q249 462 206 437T138 366T114 263Q113 205 137 160T205 88T304 61ZM401 886Q374 886 359 900T344 941Q344 965 359 980T401 996Q428 996 443 982T458 941Q458 917 443 902T401 886ZM206 886Q178 886 163 900T148 940Q148 965 163 980T206 995Q233 995 248 981T263
940Q263 916 248 901T206 886Z" />
<glyph unicode="&#xf7;" horiz-adv-x="594" d="M52 242V311H541V242H52ZM294 49Q278 49 266 56T246 76T238 104Q238 119 245 132T265 151T294 158Q310 158 322 152T342 133T349 104Q349 88 342 76T323 57T294 49ZM295 386Q278 386 266 393T246 412T239 440Q239
456 246 468T265 488T295 495Q311 495 323 488T343 469T350 440Q350 425 343 413T323 393T295 386Z" />
<glyph unicode="&#xf8;" horiz-adv-x="607" d="M96 -29L46 7L504 545L555 508L96 -29ZM304 -10Q226 -10 166 25T71 122T36 263Q36 341 70 402T165 498T304 533Q381 533 441 498T536 402T571 263Q571 184 537 122T442 25T304 -10ZM304 61Q359 61 402 87T469 159T493
263Q493 321 469 366T402 436T304 462Q249 462 206 437T138 366T114 263Q113 205 137 160T205 88T304 61Z" />
<glyph unicode="&#xf9;" horiz-adv-x="582" d="M258 -10Q198 -10 157 14T94 86T72 203V522H148V218Q148 165 162 130T206 76T279 58Q312 58 340 69T389 101T422 148T434 205V522H509V0H435L432 110L444 116Q432 81 404 53T338 7T258 -10ZM339 855L176 952L224
1015L367 896L339 855Z" />
<glyph unicode="&#xfa;" horiz-adv-x="582" d="M258 -10Q198 -10 157 14T94 86T72 203V522H148V218Q148 165 162 130T206 76T279 58Q312 58 340 69T389 101T422 148T434 205V522H509V0H435L432 110L444 116Q432 81 404 53T338 7T258 -10ZM228 855L201 896L343
1015L392 952L228 855Z" />
<glyph unicode="&#xfb;" horiz-adv-x="582" d="M258 -10Q198 -10 157 14T94 86T72 203V522H148V218Q148 165 162 130T206 76T279 58Q312 58 340 69T389 101T422 148T434 205V522H509V0H435L432 110L444 116Q432 81 404 53T338 7T258 -10ZM175 861L142 889L254
996H328L440 889L407 861L276 946H306L175 861Z" />
<glyph unicode="&#xfc;" horiz-adv-x="582" d="M258 -10Q198 -10 157 14T94 86T72 203V522H148V218Q148 165 162 130T206 76T279 58Q312 58 340 69T389 101T422 148T434 205V522H509V0H435L432 110L444 116Q432 81 404 53T338 7T258 -10ZM389 886Q362 886 347
900T332 941Q332 965 347 980T389 996Q416 996 431 982T446 941Q446 917 431 902T389 886ZM194 886Q166 886 151 900T136 940Q136 965 151 980T194 995Q221 995 236 981T251 940Q251 916 236 901T194 886Z" />
<glyph unicode="&#xfd;" horiz-adv-x="549" d="M161 -230L262 16L269 -55L7 522H92L271 122Q279 106 287 85T302 42L274 45Q281 62 287 80T300 115L457 522H543L332 0L242 -230H161ZM212 855L185 896L327 1015L376 952L212 855Z" />
<glyph unicode="&#xfe;" horiz-adv-x="622" d="M73 -220V740H149V395L136 393Q145 431 175 462T248 513T339 532Q391 532 436 512T515 456T567 370T586 261Q586 183 554 122T466 26T340 -10Q291 -10 247 10T172 62T131 133H149V-220H73ZM328 62Q381 62 422 88T487
159T511 261Q511 319 487 364T422 435T328 461Q275 461 234 436T168 365T144 262Q144 204 168 159T233 88T328 62Z" />
<glyph unicode="&#xff;" horiz-adv-x="549" d="M161 -230L262 16L269 -55L7 522H92L271 122Q279 106 287 85T302 42L274 45Q281 62 287 80T300 115L457 522H543L332 0L242 -230H161ZM372 886Q345 886 330 900T315 941Q315 965 330 980T372 996Q399 996 414 982T429
941Q429 917 414 902T372 886ZM177 886Q149 886 134 900T119 940Q119 965 134 980T177 995Q204 995 219 981T234 940Q234 916 219 901T177 886Z" />
<glyph unicode="&#x2013;" horiz-adv-x="514" d="M53 253V326H461V253H53Z" />
<glyph unicode="&#x2014;" horiz-adv-x="868" d="M53 253V327H815V253H53Z" />
<glyph unicode="&#x2018;" horiz-adv-x="239" d="M134 504Q110 504 92 516T63 549T53 600Q53 625 61 647T84 689T122 725T174 754L201 718Q168 701 148 680T128 640Q128 627 135 617T155 596Q171 584 177 573T184 550Q184 529 171 517T134 504Z" />
<glyph unicode="&#x2019;" horiz-adv-x="239" d="M66 502L38 538Q71 555 91 576T111 616Q111 628 104 638T84 660Q69 672 62 683T55 706Q55 727 69 739T106 752Q130 752 148 740T176 707T187 656Q187 631 179 609T155 567T117 531T66 502Z" />
<glyph unicode="&#x201a;" horiz-adv-x="249" d="M83 -165L55 -129Q87 -110 105 -88T123 -46Q123 -35 119 -25T99 0Q85 13 79 25T72 50Q72 70 86 82T123 95Q146 95 163 83T189 50T199 -1Q199 -28 191 -51T168 -96T132 -134T83 -165Z" />
<glyph unicode="&#x201c;" horiz-adv-x="426" d="M134 755Q110 755 92 767T63 800T53 851Q53 876 61 898T84 940T122 976T174 1005L201 969Q168 952 148 931T128 891Q128 878 135 868T155 847Q171 835 177 824T184 801Q184 780 171 768T134 755ZM320 499Q296 499
278 511T249 544T239 595Q239 620 247 642T270 684T308 720T360 749L387 713Q354 696 334 675T314 635Q314 622 321 612T341 591Q357 579 363 568T370 545Q370 524 357 512T320 499Z" />
<glyph unicode="&#x201d;" horiz-adv-x="426" d="M66 502L38 538Q71 555 91 576T111 616Q111 628 104 638T84 660Q69 672 62 683T55 706Q55 727 69 739T106 752Q130 752 148 740T176 707T187 656Q187 631 179 609T155 567T117 531T66 502ZM252 502L224 538Q257
555 277 576T297 616Q297 628 290 638T270 660Q255 672 248 683T241 706Q241 727 255 739T292 752Q316 752 334 740T362 707T373 656Q373 631 365 609T341 567T303 531T252 502Z" />
<glyph unicode="&#x201e;" horiz-adv-x="454" d="M83 -165L55 -129Q87 -110 105 -88T123 -46Q123 -35 119 -25T99 0Q85 13 79 25T72 50Q72 70 86 82T123 95Q146 95 163 83T189 50T199 -1Q199 -28 191 -51T168 -96T132 -134T83 -165ZM287 -165L259 -129Q291 -110
309 -88T327 -46Q327 -35 323 -25T303 0Q289 13 283 25T276 50Q276 70 290 82T327 95Q350 95 367 83T393 50T403 -1Q403 -28 395 -51T372 -96T336 -134T287 -165Z" />
<glyph unicode="&#x2022;" horiz-adv-x="347" d="M172 230Q141 230 114 246T70 289T54 348Q54 382 70 409T113 452T172 468Q206 468 233 452T277 409T293 348Q293 316 277 289T234 246T172 230Z" />
<glyph unicode="&#x2039;" horiz-adv-x="273" d="M185 51L25 258V260L185 469L236 435L105 253V267L236 86L185 51Z" />
<glyph unicode="&#x203a;" horiz-adv-x="275" d="M88 52L37 86L168 268V254L37 435L88 470L248 263V261L88 52Z" />
</font>
</defs>
</svg>
