<?xml version="1.0" standalone="no"?>
<!DOCTYPE svg PUBLIC "-//W3C//DTD SVG 1.1//EN" "http://www.w3.org/Graphics/SVG/1.1/DTD/svg11.dtd">
<svg xmlns="http://www.w3.org/2000/svg">
<defs >
<font id="LexendDeca" horiz-adv-x="588" ><font-face
    font-family="Lexend Deca Medium"
    units-per-em="1000"
    panose-1="0 0 0 0 0 0 0 0 0 0"
    ascent="1000"
    descent="-250"
    alphabetic="0" />
<glyph unicode=" " horiz-adv-x="294" />
<glyph unicode="!" horiz-adv-x="262" d="M93 246Q86 308 80 374T69 506T65 631V704H195V631Q195 570 192 503T182 370T167 246H93ZM128 -11Q92 -11 73 10T53 69Q53 104 73 126T128 149Q164 149 183 129T203 69Q203 34 183 12T128 -11Z" />
<glyph unicode="&quot;" horiz-adv-x="435" d="M254 440L277 700H410L328 440H254ZM40 440L62 700H196L114 440H40Z" />
<glyph unicode="#" horiz-adv-x="698" d="M367 0L487 700H596L476 0H367ZM37 165V264H624V165H37ZM103 0L223 700H331L211 0H103ZM75 445V544H661V445H75Z" />
<glyph unicode="$" horiz-adv-x="628" d="M316 -10Q226 -10 158 23T42 120L119 221Q170 155 218 129T326 103Q360 103 388 113T432 142T448 185Q448 202 442 216T422 242T390 264T347 281T294 294Q220 309 172 337T99 409T75 510Q75 554 94 591T148 655T227 697T324
712Q406 712 469 683T573 595L499 505Q465 551 421 574T324 598Q288 598 262 588T220 560T205 515Q205 495 214 480T239 452T282 431T341 415Q396 404 440 386T515 342T562 284T578 211Q578 142 546 93T454 17T316 -10ZM256 -91L260 367L351 334L355 -91H256ZM386
334L295 367L291 784H390L386 334Z" />
<glyph unicode="%" horiz-adv-x="885" d="M144 0L607 700H726L258 0H144ZM201 329Q154 329 118 354T61 422T40 520Q40 576 60 619T117 688T202 713Q249 713 285 688T342 620T363 520Q363 466 342 423T284 354T201 329ZM202 414Q221 414 235 427T257 463T265 520Q265
553 257 577T235 614T201 627Q182 627 168 614T145 577T137 520Q137 487 144 464T167 427T202 414ZM676 -9Q629 -9 593 16T535 84T514 182Q514 238 534 281T592 350T676 375Q724 375 760 350T816 282T837 182Q837 128 816 85T759 16T676 -9ZM676 75Q695 75 709
88T732 125T740 182Q740 214 732 238T710 275T676 289Q656 289 642 276T619 239T611 182Q611 149 619 126T641 89T676 75Z" />
<glyph unicode="&amp;" horiz-adv-x="752" d="M577 0L493 88L461 120L298 300Q268 332 244 363T203 424T177 480T167 531Q167 583 194 624T269 688T380 712Q427 712 468 696T538 650T581 580L486 521Q468 566 443 584T382 603Q354 603 335 595T306 570T296 529Q296
508 310 481T344 426T387 374T425 332L542 203L585 160L733 0H577ZM313 -10Q240 -10 180 20T85 102T50 214Q50 291 93 349T220 438L297 354Q236 340 206 310T175 228Q175 189 194 160T248 114T332 97Q375 97 411 114T477 162T525 238T551 335H664Q656 273 635 220T582
125T509 52T419 6T313 -10Z" />
<glyph unicode="&apos;" horiz-adv-x="221" d="M40 440L62 700H196L114 440H40Z" />
<glyph unicode="(" horiz-adv-x="374" d="M290 -186Q168 -110 104 4T40 258Q40 397 104 511T291 702L358 632Q260 564 210 467T159 258Q159 146 209 49T358 -116L290 -186Z" />
<glyph unicode=")" horiz-adv-x="374" d="M83 -186L16 -116Q114 -48 165 49T216 258Q216 370 165 467T16 632L84 702Q206 626 270 512T334 258Q334 119 270 5T83 -186Z" />
<glyph unicode="*" horiz-adv-x="406" d="M161 368L172 490L181 489L70 414L27 488L147 542L146 536L26 593L69 667L182 588L172 589L161 713H250L239 580L228 587L338 665L380 590L258 533V544L379 489L336 415L227 492L240 490L250 368H161Z" />
<glyph unicode="+" horiz-adv-x="593" d="M46 229V333H547V229H46ZM237 41V526H355V41H237Z" />
<glyph unicode="," horiz-adv-x="274" d="M87 -186L46 -137Q83 -117 105 -91T128 -45Q128 -35 124 -26T102 0Q81 19 74 33T67 64Q67 90 86 106T135 122Q162 122 183 107T217 66T229 4Q229 -27 219 -56T189 -111T144 -155T87 -186Z" />
<glyph unicode="-" horiz-adv-x="413" d="M52 227V345H361V227H52Z" />
<glyph unicode="." horiz-adv-x="238" d="M119 -11Q83 -11 64 10T44 69Q44 104 64 126T119 149Q155 149 174 129T194 69Q194 34 174 12T119 -11Z" />
<glyph unicode="/" horiz-adv-x="570" d="M14 -135L428 700H548L136 -135H14Z" />
<glyph unicode="0" horiz-adv-x="631" d="M315 -10Q230 -10 170 33T77 157T44 350Q44 462 76 542T169 666T315 710Q400 710 461 667T554 543T587 350Q587 238 555 158T461 34T315 -10ZM315 104Q385 104 423 168T462 350Q462 468 424 533T315 598Q245 598 207 533T168
350Q168 233 206 169T315 104Z" />
<glyph unicode="1" horiz-adv-x="522" d="M215 49V617L252 569L110 497L81 611L272 710H344V49H215ZM98 0V120H464V0H98Z" />
<glyph unicode="2" horiz-adv-x="548" d="M81 0L48 82L258 317Q276 335 295 358T331 407T360 457T371 503Q371 530 360 550T327 581T275 592Q248 592 223 577T176 533T140 465L42 523Q60 581 96 623T182 689T290 712Q350 712 397 687T471 618T499 515Q499 493
494 470T479 421T451 368T411 310T357 247L198 74L178 120H524V0H81Z" />
<glyph unicode="3" horiz-adv-x="551" d="M264 -10Q186 -10 128 24T21 142L119 204Q142 167 166 145T216 112T271 101Q304 101 331 117T375 161T392 225Q392 261 379 286T340 324T278 338Q262 338 244 335T206 325T162 309L130 394L329 614L359 585L64 587V702H475L499
654L269 403L239 436Q247 440 265 443T298 447Q342 447 382 431T451 384T498 315T515 229Q515 160 482 107T391 22T264 -10Z" />
<glyph unicode="4" horiz-adv-x="635" d="M351 0V565L399 560L161 269L150 287H595V174H80L26 278L374 702H476V0H351Z" />
<glyph unicode="5" horiz-adv-x="578" d="M266 -7Q193 -7 134 24T36 116L108 194Q152 145 187 127T264 108Q302 108 332 124T380 169T398 232Q398 269 381 297T335 343T269 360Q249 360 231 357T190 345T130 317L68 401L109 702H496V587H182L211 619L178 397L141
423Q154 435 179 446T235 464T294 471Q359 471 410 441T491 359T521 238Q521 169 488 114T396 26T266 -7Z" />
<glyph unicode="6" horiz-adv-x="565" d="M287 0Q234 0 189 19T110 71T57 150T38 249Q38 279 45 313T68 385T105 466T154 554L247 712H371L375 702L256 506Q227 458 205 416T168 335T142 260L115 351Q130 383 152 409T201 453T257 480T318 489Q376 489 425 458T503
374T533 260Q533 185 502 127T414 34T287 0ZM288 114Q324 114 352 131T397 178T413 249Q413 283 397 312T352 360T289 379Q251 379 222 362T176 315T159 249Q159 211 175 181T221 132T288 114Z" />
<glyph unicode="7" horiz-adv-x="546" d="M102 0L389 634L413 585H55V702H496L511 629L237 0H102Z" />
<glyph unicode="8" horiz-adv-x="586" d="M292 -3Q225 -3 170 24T81 98T48 202Q48 236 57 265T85 317T130 358T191 391L183 363Q157 374 136 389T99 423T75 465T67 513Q67 567 97 610T179 678T292 704Q355 704 406 679T487 610T518 513Q518 488 510 466T488 425T451
391T400 363L395 387Q427 376 453 358T498 316T527 263T538 202Q538 144 505 98T417 24T292 -3ZM292 109Q326 109 353 122T395 157T411 208Q411 239 396 262T353 299T292 313Q259 313 233 300T190 263T174 208Q174 180 190 158T232 123T292 109ZM292 423Q322 423
345 434T382 464T395 508Q395 534 382 553T346 584T292 596Q263 596 240 585T203 554T190 508Q190 483 203 464T239 434T292 423Z" />
<glyph unicode="9" horiz-adv-x="560" d="M221 0L217 10L429 452L441 377Q426 345 405 320T356 277T299 249T241 239Q184 239 136 269T59 350T30 461Q30 532 63 589T152 680T280 714Q331 714 376 696T455 644T508 568T528 477Q528 448 523 418T505 351T475 272T430
174L345 0H221ZM270 351Q306 351 335 367T380 411T396 473Q396 509 380 538T336 583T272 600Q238 600 212 584T171 540T155 473Q155 441 170 413T212 368T270 351Z" />
<glyph unicode=":" horiz-adv-x="238" d="M119 -10Q83 -10 64 11T44 70Q44 105 64 127T119 150Q155 150 174 130T194 70Q194 35 174 13T119 -10ZM119 377Q83 377 64 398T44 457Q44 492 64 514T119 537Q155 537 174 517T194 457Q194 422 174 400T119 377Z" />
<glyph unicode=";" horiz-adv-x="272" d="M341 -186L300 -137Q337 -117 359 -91T382 -45Q382 -35 378 -26T356 0Q335 19 328 33T321 64Q321 90 340 106T389 122Q416 122 437 107T471 66T483 4Q483 -27 473 -56T443 -111T398 -155T341 -186ZM136 377Q100 377 81
398T61 457Q61 492 81 514T136 537Q172 537 191 517T211 457Q211 422 191 400T136 377Z" />
<glyph unicode="&lt;" horiz-adv-x="524" d="M418 -2L47 210V297L418 509L472 416L120 220V287L472 91L418 -2Z" />
<glyph unicode="=" horiz-adv-x="586" d="M56 329V433H530V329H56ZM56 130V233H530V130H56Z" />
<glyph unicode="&gt;" horiz-adv-x="525" d="M110 -2L56 91L408 287V220L56 416L110 509L481 297V210L110 -2Z" />
<glyph unicode="?" horiz-adv-x="520" d="M194 221L166 359Q201 368 230 379T282 403T319 433T342 468T350 508Q350 534 337 554T300 585T247 596Q209 596 173 570T110 493L23 570Q66 637 126 674T254 711Q318 711 369 685T450 614T480 511Q480 477 466 444T426
381T365 330T288 293L274 221H194ZM158 69Q158 104 179 126T234 149Q269 149 289 129T309 69Q309 34 288 12T234 -11Q198 -11 178 10T158 69Z" />
<glyph unicode="@" horiz-adv-x="965" d="M414 -162Q327 -162 258 -136T140 -61T66 56T40 206Q40 323 81 416T196 575T367 675T576 710Q656 710 720 688T830 623T900 524T925 396Q925 328 906 266T851 156T770 81T669 53Q633 53 606 65T562 100T546 154Q546 170
549 187T554 222L572 202Q557 154 532 121T472 71T398 53Q354 53 320 76T266 141T246 237Q246 285 263 333T313 422T389 488T486 514Q517 514 541 499T581 456T600 391L574 343L601 504H717L663 193Q660 175 665 164T680 147T704 141Q733 141 758 160T802 215T831
295T842 391Q842 466 810 519T717 602T571 631Q469 631 386 602T245 519T156 386T124 209Q124 140 143 87T200 -5T292 -62T417 -82Q464 -82 498 -76T563 -56T632 -22L669 -89Q610 -119 568 -134T490 -156T414 -162ZM427 151Q459 151 488 170T538 222T564 289Q567
306 568 318T570 342Q570 366 562 383T537 409T496 419Q460 419 430 392T383 323T365 235Q365 196 382 174T427 151Z" />
<glyph unicode="A" horiz-adv-x="698" d="M16 0L289 700H411L682 0H547L397 398Q392 410 384 436T365 492T347 549T335 588L360 589Q354 569 346 544T329 492T312 440T296 395L146 0H16ZM140 160L185 273H504L552 160H140Z" />
<glyph unicode="B" horiz-adv-x="688" d="M94 0V700H392Q461 700 508 680T580 621T605 525Q605 467 574 427T487 372L486 392Q533 382 568 357T622 294T642 208Q642 157 626 118T577 53T501 14T402 0H94ZM221 117H396Q433 117 458 128T497 160T511 212Q511 240
497 260T455 290T391 301H221V117ZM221 413H380Q409 413 430 424T464 454T476 498Q476 538 449 560T370 583H221V413Z" />
<glyph unicode="C" horiz-adv-x="684" d="M391 -10Q315 -10 252 16T143 90T72 205T46 351Q46 427 73 492T148 606T260 682T399 709Q450 709 498 694T586 653T653 591L570 500Q544 527 517 545T460 573T399 583Q353 583 313 566T243 518T196 445T179 350Q179 297
195 254T242 180T315 133T409 116Q442 116 473 125T530 150T579 189L643 86Q619 59 579 37T490 3T391 -10Z" />
<glyph unicode="D" horiz-adv-x="757" d="M94 0V700H375Q451 700 512 675T618 603T686 492T710 350Q710 272 687 208T619 97T513 25T375 0H94ZM224 101L214 120H370Q419 120 457 136T523 182T564 254T578 350Q578 403 564 445T523 518T457 564T370 580H211L224 597V101Z" />
<glyph unicode="E" horiz-adv-x="625" d="M94 0V700H552V582H222V118H556V0H94ZM154 300V416H501V300H154Z" />
<glyph unicode="F" horiz-adv-x="608" d="M94 0V700H224V0H94ZM154 287V405H515V287H154ZM154 580V700H558V580H154Z" />
<glyph unicode="G" horiz-adv-x="771" d="M412 -10Q333 -10 266 17T150 94T73 208T46 351Q46 427 73 492T151 606T268 682T414 709Q469 709 520 694T612 652T680 591L598 505Q570 532 541 550T479 578T413 588Q363 588 321 570T247 520T197 445T179 351Q179 302
197 258T249 181T325 130T418 111Q455 111 487 122T544 152T582 198T596 254V276L614 255H407V371H724Q726 360 727 347T728 321T729 299Q729 230 705 174T638 76T537 13T412 -10Z" />
<glyph unicode="H" horiz-adv-x="768" d="M543 0V700H673V0H543ZM94 0V700H224V0H94ZM148 288V410H606V288H148Z" />
<glyph unicode="I" horiz-adv-x="505" d="M73 0V115H188V585H73V700H433V585H318V115H433V0H73Z" />
<glyph unicode="J" horiz-adv-x="650" d="M258 -10Q222 -10 190 -1T131 24T83 64T46 117L125 198Q143 172 159 155T189 129T219 116T251 112Q283 112 307 126T344 167T358 226V583H229V700H594V583H486V213Q486 164 469 124T422 53T350 7T258 -10Z" />
<glyph unicode="K" horiz-adv-x="734" d="M197 209L177 338L537 700H700L197 209ZM94 0V700H224V0H94ZM553 0L288 353L380 432L711 0H553Z" />
<glyph unicode="L" horiz-adv-x="602" d="M94 0V700H224V120H547V0H94Z" />
<glyph unicode="M" horiz-adv-x="869" d="M94 0V700H217L472 285L400 286L658 700H775V0H646V263Q646 353 650 425T666 568L682 525L465 190H399L189 522L203 568Q214 501 218 431T223 263V0H94Z" />
<glyph unicode="N" horiz-adv-x="798" d="M94 0V700H211L617 153L595 149Q591 177 588 206T583 268T579 335T576 408T575 490V700H704V0H585L177 539L203 546Q208 490 211 451T217 383T220 335T222 301T223 271V0H94Z" />
<glyph unicode="O" horiz-adv-x="793" d="M396 -10Q321 -10 257 17T146 92T72 207T46 351Q46 429 72 495T145 609T257 685T396 712Q472 712 536 685T647 609T720 495T746 351Q746 274 720 208T647 93T536 17T396 -10ZM396 114Q444 114 483 131T552 181T597 257T614
351Q614 402 598 445T552 520T484 570T396 588Q349 588 309 571T240 521T195 446T179 351Q179 300 195 257T240 181T309 132T396 114Z" />
<glyph unicode="P" horiz-adv-x="644" d="M94 0V700H385Q445 700 493 671T571 592T600 480Q600 417 571 367T494 286T385 256H224V0H94ZM224 376H376Q401 376 421 390T454 427T467 479Q467 508 455 530T422 566T376 580H224V376Z" />
<glyph unicode="Q" horiz-adv-x="793" d="M614 -110L348 242L449 311L712 -38L614 -110ZM396 -10Q321 -10 257 17T146 92T72 207T46 351Q46 429 72 495T145 609T257 685T396 712Q472 712 536 685T647 609T720 495T746 351Q746 274 720 208T647 93T536 17T396 -10ZM396
114Q444 114 483 131T552 181T597 257T614 351Q614 402 598 445T552 520T484 570T396 588Q349 588 309 571T240 521T195 446T179 351Q179 300 195 257T240 181T309 132T396 114Z" />
<glyph unicode="R" horiz-adv-x="697" d="M94 0V700H398Q461 700 513 671T595 591T626 477Q626 417 596 367T514 287T398 257H221V0H94ZM500 0L322 316L456 341L654 -1L500 0ZM221 370H399Q428 370 449 383T483 421T495 474Q495 507 480 531T438 569T376 583H221V370Z" />
<glyph unicode="S" horiz-adv-x="627" d="M316 -10Q255 -10 204 5T112 52T39 127L124 223Q173 155 220 129T326 103Q360 103 388 113T432 142T448 185Q448 202 442 216T422 242T390 264T347 281T294 294Q239 305 198 323T129 369T88 431T75 510Q75 554 94 591T148
655T227 697T324 712Q383 712 429 698T511 657T570 590L484 505Q464 536 439 556T385 587T324 598Q288 598 262 588T220 560T205 515Q205 495 214 480T239 452T282 431T341 415Q396 404 440 386T515 342T562 284T578 211Q578 142 546 93T454 17T316 -10Z" />
<glyph unicode="T" horiz-adv-x="604" d="M234 0V580H34V700H570V580H364V0H234Z" />
<glyph unicode="U" horiz-adv-x="749" d="M374 -6Q291 -6 226 29T124 127T86 269V701H217V278Q217 231 238 195T296 136T374 114Q420 114 457 136T515 194T537 278V701H663V269Q663 190 626 128T523 30T374 -6Z" />
<glyph unicode="V" horiz-adv-x="714" d="M297 0L17 700H159L315 299Q327 268 336 244T352 199T364 160T377 120H349Q356 147 364 173T382 230T408 299L554 700H697L415 0H297Z" />
<glyph unicode="W" horiz-adv-x="995" d="M235 0L17 700H153L277 287Q283 268 288 245T297 200T304 158T310 126L283 127Q295 174 302 203T314 251T326 288L444 590H555L670 288Q680 260 688 235T701 185T712 134L688 129Q692 153 694 168T698 195T702 218T708
246T720 289L843 700H978L759 0H665L487 426L499 422L330 0H235Z" />
<glyph unicode="X" horiz-adv-x="692" d="M515 0L298 314L20 700H182L394 390L677 0H515ZM15 0L282 381L374 302L167 0H15ZM410 325L319 401L515 700H667L410 325Z" />
<glyph unicode="Y" horiz-adv-x="670" d="M280 0V349L287 300L4 700H156L372 390L325 393L520 700H666L395 289L410 357V0H280Z" />
<glyph unicode="Z" horiz-adv-x="668" d="M60 0V91L451 613L482 578H86V700H601V610L212 87L180 120H612V0H60Z" />
<glyph unicode="[" horiz-adv-x="409" d="M80 -190V700H351V600H189L195 608V-102L185 -90H351V-190H80Z" />
<glyph unicode="\" horiz-adv-x="567" d="M436 -107L38 700H159L559 -107H436Z" />
<glyph unicode="]" horiz-adv-x="409" d="M58 -190V-90H220L214 -98V612L224 600H58V700H329V-190H58Z" />
<glyph unicode="^" horiz-adv-x="584" d="M23 366L237 729H347L561 366H430L272 637L314 640L152 366H23Z" />
<glyph unicode="_" horiz-adv-x="689" d="M48 -171V-75H640V-171H48Z" />
<glyph unicode="`" horiz-adv-x="500" d="M323 598L138 698L206 788L362 657L323 598Z" />
<glyph unicode="a" horiz-adv-x="642" d="M271 -10Q206 -10 153 26T68 124T36 265Q36 344 68 406T155 503T279 538Q319 538 352 527T410 494T451 446T474 388L447 395V527H571V0H446V126L475 131Q468 104 450 79T404 34T343 2T271 -10ZM305 99Q348 99 381 120T432
178T451 265Q451 313 433 350T381 408T305 429Q262 429 230 408T179 350T161 265Q161 216 179 179T229 120T305 99Z" />
<glyph unicode="b" horiz-adv-x="640" d="M363 -10Q328 -10 295 0T234 29T189 69T165 115L194 128L191 2H72V740H195V405L173 415Q178 439 195 460T239 499T296 527T359 538Q430 538 484 503T570 406T602 265Q602 185 571 123T486 26T363 -10ZM337 98Q379 98 412
119T464 178T483 265Q483 313 465 350T413 408T337 429Q294 429 261 408T209 350T190 265Q190 216 209 179T261 120T337 98Z" />
<glyph unicode="c" horiz-adv-x="539" d="M298 -10Q224 -10 165 26T72 124T38 264Q38 342 72 404T165 502T298 538Q369 538 427 511T517 436L449 354Q434 375 411 392T362 419T310 429Q266 429 232 408T177 349T157 264Q157 217 177 180T233 121T311 99Q337 99
361 107T408 132T449 172L517 89Q483 45 424 18T298 -10Z" />
<glyph unicode="d" horiz-adv-x="641" d="M284 -10Q214 -10 159 25T71 122T38 264Q38 343 70 405T157 502T283 538Q321 538 356 526T420 494T464 448T483 396L450 392V740H573V0H454L451 124L475 122Q474 97 458 74T415 32T355 2T284 -10ZM308 94Q351 94 384 116T435
176T454 264Q454 313 436 351T384 411T308 433Q265 433 232 412T181 352T162 264Q162 214 180 176T232 116T308 94Z" />
<glyph unicode="e" horiz-adv-x="586" d="M319 -10Q236 -10 173 25T74 120T38 259Q38 321 58 372T113 460T198 518T307 539Q359 539 404 519T482 465T532 383T549 279L548 236H121L98 320H445L429 303V325Q426 356 409 379T366 416T307 430Q258 430 225 411T174
357T157 268Q157 217 178 179T239 121T332 100Q369 100 400 112T467 155L528 70Q501 45 467 28T394 0T319 -10Z" />
<glyph unicode="f" horiz-adv-x="393" d="M120 0V574Q120 622 141 659T199 718T285 740Q319 740 348 729T397 697L359 604Q346 615 332 621T304 627Q284 627 271 621T251 601T244 570V0H182Q164 0 149 0T120 0ZM38 408V516H363V408H38Z" />
<glyph unicode="g" horiz-adv-x="656" d="M309 -230Q250 -230 192 -212T97 -165L141 -74Q162 -89 188 -100T243 -117T302 -123Q355 -123 390 -107T444 -57T462 27V124L480 117Q474 86 447 58T379 13T295 -5Q220 -5 163 30T72 125T38 265Q38 344 71 405T161 502T291
538Q321 538 349 531T400 511T443 482T474 448T489 413L463 405L465 527H586V36Q586 -28 567 -77T512 -160T425 -212T309 -230ZM314 100Q359 100 393 121T447 179T466 264Q466 313 447 350T393 409T314 430Q269 430 235 409T182 350T162 264Q162 217 181 180T235
121T314 100Z" />
<glyph unicode="h" horiz-adv-x="609" d="M72 0V740H194V419L171 407Q181 443 210 472T279 520T361 538Q421 538 461 514T522 442T543 322V0H420V313Q420 353 409 379T375 418T319 430Q292 430 270 422T231 398T205 362T195 318V0H134Q116 0 101 0T72 0Z" />
<glyph unicode="i" horiz-adv-x="293" d="M86 0V527H209V0H86ZM146 639Q109 639 89 657T68 710Q68 742 89 762T146 782Q184 782 204 764T225 710Q225 679 204 659T146 639Z" />
<glyph unicode="j" horiz-adv-x="283" d="M14 -201L-33 -107Q9 -107 34 -94T72 -54T85 15V527H208V-14Q208 -73 185 -115T118 -179T14 -201ZM149 639Q111 639 91 657T70 710Q70 742 91 762T149 782Q186 782 206 764T227 710Q227 679 206 659T149 639Z" />
<glyph unicode="k" horiz-adv-x="589" d="M187 161L163 276L413 527H577L187 161ZM72 0V740H195V0H72ZM428 0L234 235L321 309L580 0H428Z" />
<glyph unicode="l" horiz-adv-x="270" d="M73 0V740H197V0H73Z" />
<glyph unicode="m" horiz-adv-x="936" d="M70 0V527H191L193 421L173 413Q182 439 200 461T243 500T296 526T353 536Q396 536 429 523T485 480T519 406L500 410L508 426Q519 450 539 469T584 504T636 528T691 536Q751 536 791 512T851 439T871 318V0H747V310Q747
350 737 376T705 414T651 427Q626 427 604 419T565 395T540 359T531 315V0H407V311Q407 349 396 374T364 413T313 427Q288 427 266 419T228 395T203 360T194 316V0H70Z" />
<glyph unicode="n" horiz-adv-x="609" d="M72 0V527H192L194 419L171 407Q181 443 210 472T279 520T361 538Q421 538 461 514T522 442T543 322V0H420V313Q420 353 409 379T375 418T319 430Q292 430 270 422T231 398T205 362T195 318V0H134Q116 0 101 0T72 0Z" />
<glyph unicode="o" horiz-adv-x="624" d="M313 -10Q234 -10 172 25T74 123T38 264Q38 343 74 405T172 502T313 538Q391 538 453 503T550 405T586 264Q586 185 551 123T453 26T313 -10ZM313 99Q356 99 389 121T442 180T461 264Q462 312 443 349T390 407T313 429Q270
429 236 408T182 349T163 264Q163 217 182 180T235 121T313 99Z" />
<glyph unicode="p" horiz-adv-x="641" d="M72 -220V527H193L195 407L174 416Q180 447 208 474T276 519T361 536Q431 536 485 501T571 405T603 264Q603 185 572 124T486 27T363 -9Q317 -9 275 9T203 56T166 117L196 131V-220H72ZM338 100Q380 100 413 121T464 179T483
264Q483 312 465 348T414 406T338 427Q294 427 262 407T210 349T191 264Q191 216 210 179T261 121T338 100Z" />
<glyph unicode="q" horiz-adv-x="640" d="M445 -220V126L470 123Q469 99 453 76T410 33T351 2T283 -10Q213 -10 158 25T70 123T38 264Q38 344 69 405T155 502T280 538Q318 538 353 526T416 494T460 449T478 398L446 395L448 528H568V-220H445ZM303 99Q346 99 379
120T430 178T449 264Q449 313 431 350T379 409T303 430Q260 430 227 409T176 350T157 264Q157 216 175 179T227 120T303 99Z" />
<glyph unicode="r" horiz-adv-x="421" d="M72 0V527H193L195 359L178 397Q189 437 216 469T278 519T353 538Q370 538 385 535T411 528L378 393Q367 399 351 403T319 407Q294 407 272 398T232 371T206 332T196 281V0H72Z" />
<glyph unicode="s" horiz-adv-x="485" d="M248 -10Q178 -10 123 13T32 81L112 150Q142 116 179 101T257 86Q274 86 287 90T311 102T326 120T332 144Q332 168 314 182Q304 189 283 197T227 213Q173 227 137 245T81 287Q64 306 56 330T47 382Q47 417 62 445T105
495T168 527T243 538Q283 538 320 528T390 500T446 455L378 380Q359 398 337 412T291 434T248 443Q229 443 214 440T189 429T174 412T168 387Q169 375 174 365T190 347Q201 340 223 331T280 314Q329 301 362 285T414 248Q433 230 441 206T449 153Q449 106 423 69T351
11T248 -10Z" />
<glyph unicode="t" horiz-adv-x="389" d="M129 0V661H252V0H129ZM25 413V527H367V413H25Z" />
<glyph unicode="u" horiz-adv-x="618" d="M255 -10Q198 -10 156 15T92 88T70 202V527H193V228Q193 186 206 157T244 111T304 95Q330 95 351 103T389 127T414 164T423 211V527H546V0H426L424 110L446 122Q434 84 406 55T338 8T255 -10Z" />
<glyph unicode="v" horiz-adv-x="584" d="M241 0L19 527H153L303 133L277 126L435 527H566L333 0H241Z" />
<glyph unicode="w" horiz-adv-x="812" d="M196 0L19 527L145 528L263 152L241 154L369 448H443L574 154L548 151L667 527H793L615 0H527L392 316L411 314L283 0H196Z" />
<glyph unicode="x" horiz-adv-x="578" d="M413 0L263 203L235 241L18 527H170L316 329L347 287L562 0H413ZM17 0L226 280L296 196L162 0H17ZM347 246L280 329L401 527H546L347 246Z" />
<glyph unicode="y" horiz-adv-x="595" d="M152 -230L264 29L265 -53L5 527H147L292 183Q299 170 306 149T318 106L293 98Q300 117 308 138T323 183L447 527H590L370 0L280 -230H152Z" />
<glyph unicode="z" horiz-adv-x="507" d="M50 0V88L325 450V424H50V527H453V439L186 84L182 103H460V0H50Z" />
<glyph unicode="{" horiz-adv-x="416" d="M367 -202Q317 -192 281 -176T222 -137T188 -82T176 -7L177 88Q177 143 153 172T84 203H42V297H86Q131 298 154 327T177 412L176 507Q176 589 221 635T367 702L391 617Q351 604 328 590T296 552T286 489L288 398Q288 340
259 302T170 247L169 254Q229 236 258 198T288 102L286 11Q286 -27 295 -49T328 -86T391 -115L367 -202Z" />
<glyph unicode="|" horiz-adv-x="262" d="M73 -193V740H189V-193H73Z" />
<glyph unicode="}" horiz-adv-x="416" d="M49 -202L25 -117Q66 -104 88 -90T120 -52T130 11L128 102Q128 160 157 198T247 253V246Q187 264 158 302T128 398L130 489Q130 527 121 549T89 587T25 615L49 702Q99 692 135 676T194 637T229 582T240 507L239 412Q239
357 263 328T332 297H374V203H330Q285 202 262 173T239 88L240 -7Q240 -89 195 -135T49 -202Z" />
<glyph unicode="~" horiz-adv-x="527" d="M366 217Q350 217 329 222T287 235T251 249Q236 255 219 261T187 271T163 276Q145 276 136 261T126 216H37Q37 294 70 336T170 378Q182 378 197 375T227 366T257 356T283 345Q296 340 312 334T342 324T365 319Q382 319
392 333T401 371L489 368Q489 319 475 286T434 235T366 217Z" />
<glyph unicode="&#xa0;" horiz-adv-x="294" />
<glyph unicode="&#xa1;" horiz-adv-x="262" d="M163 284Q170 222 176 156T186 24T190 -101V-174H61V-101Q61 -40 64 27T74 160T88 284H163ZM128 541Q163 541 183 520T203 461Q203 426 182 404T128 381Q92 381 73 401T53 461Q53 496 73 518T128 541Z" />
<glyph unicode="&#xa2;" horiz-adv-x="545" d="M304 78Q229 78 170 114T77 212T42 352Q42 430 76 492T170 590T304 626Q375 626 433 599T523 524L455 442Q440 463 417 480T368 507T316 517Q271 517 236 496T181 437T161 352Q161 305 182 268T238 209T317 187Q343
187 367 195T414 220T455 260L523 177Q490 133 430 106T304 78ZM248 0V108L262 145V560L248 606V702H353V605L341 568V142L353 107V0H248Z" />
<glyph unicode="&#xa3;" horiz-adv-x="620" d="M193 53L118 74Q134 83 147 102T167 146T175 199Q175 213 173 228T167 263T157 303T141 352Q129 389 123 413T115 454T112 487Q112 555 141 605T222 684T346 712Q415 712 465 689T539 625L449 555Q435 571 419 581T384
596T344 601Q310 601 284 586T243 543T228 482Q228 451 238 417T258 353Q268 321 277 288T287 226Q287 195 277 167T247 111T193 53ZM433 -21Q406 -21 372 -12T316 4Q303 8 285 13T249 22T215 26Q183 26 147 17T73 -8L27 78Q68 103 117 116T216 130Q246 130 270
125T337 105Q358 98 382 91T431 83Q457 83 484 91T542 118L601 39Q569 10 524 -5T433 -21ZM44 316V404H458V316H44Z" />
<glyph unicode="&#xa4;" horiz-adv-x="554" d="M280 118Q227 118 184 142T116 209T91 303Q91 355 116 397T184 464T280 489Q333 489 375 464T443 397T468 303Q468 251 443 209T376 143T280 118ZM130 74L49 155L139 250L219 168L130 74ZM135 363L42 451L122 532L216
442L135 363ZM280 216Q304 216 321 227T349 258T359 303Q359 329 349 349T322 380T280 391Q257 391 239 380T211 349T201 303Q201 278 211 259T239 228T280 216ZM430 81L336 170L416 251L511 161L430 81ZM420 362L339 442L431 539L512 459L420 362Z" />
<glyph unicode="&#xa5;" horiz-adv-x="670" d="M280 0V349L287 300L4 700H156L372 390L325 393L520 700H666L395 289L410 357V0H280ZM145 102V183L565 181V100L145 102ZM145 236V316L565 315V234L145 236Z" />
<glyph unicode="&#xa6;" horiz-adv-x="269" d="M76 -202V196H193V-202H76ZM76 343V740H193V343H76Z" />
<glyph unicode="&#xa7;" horiz-adv-x="558" d="M332 129L310 198Q343 202 364 212T395 236T406 268Q406 289 391 303T343 328L230 363Q213 369 189 381T143 414T105 465T89 540Q89 577 102 608T141 663T207 700T300 713Q341 713 376 704T441 675T494 628L428 553Q408
573 387 585T342 604T296 610Q257 610 232 592T207 543Q207 526 216 512T243 487T287 468L377 439Q453 415 489 376T523 280Q520 233 497 200T431 150T332 129ZM273 -137Q231 -137 189 -126T111 -93T48 -46L108 39Q147 3 190 -16T272 -36Q318 -36 343 -20T368 28Q368
45 358 57T329 80T288 97L181 131Q111 154 77 193T43 289Q43 331 64 365T124 420T221 443L241 368Q218 365 202 356T176 332T167 299Q167 277 184 260T242 231L328 205Q370 192 406 171T464 117T486 38Q486 -12 463 -51T392 -114T273 -137Z" />
<glyph unicode="&#xa8;" horiz-adv-x="500" d="M357 636Q321 636 302 655T282 708Q282 740 302 760T357 781Q393 781 413 762T433 708Q433 676 413 656T357 636ZM143 636Q107 636 88 655T68 708Q68 740 88 760T143 781Q179 781 198 762T218 708Q218 676 198 656T143 636Z" />
<glyph unicode="&#xa9;" horiz-adv-x="788" d="M394 -11Q318 -11 253 17T138 94T61 209T33 350Q33 426 60 491T137 605T252 683T394 711Q468 711 533 683T649 606T727 491T755 350Q755 274 727 209T649 95T534 17T394 -11ZM411 142Q351 142 303 169T226 243T197
350Q197 407 225 454T302 529T411 557Q445 557 478 545T542 511L501 425Q483 438 468 446T440 457T415 461Q382 461 357 446T317 406T302 350Q302 317 316 292T356 252T415 238Q436 238 458 246T504 273L546 186Q515 164 481 153T411 142ZM394 63Q453 63 505 85T597
147T658 238T681 350Q681 411 659 462T597 553T506 615T394 637Q334 637 282 615T190 554T129 463T107 350Q107 290 129 238T190 147T281 86T394 63Z" />
<glyph unicode="&#xaa;" horiz-adv-x="374" d="M142 391Q103 391 75 412T31 472T16 562Q16 608 33 644T82 700T154 721Q205 721 231 688T258 594L241 648V715H342V401H241V474L258 510Q258 480 243 453T202 408T142 391ZM177 466Q197 466 212 477T236 508T245
556Q245 598 227 622T176 646Q160 646 147 635T125 604T117 561Q117 532 124 511T144 478T177 466Z" />
<glyph unicode="&#xab;" horiz-adv-x="513" d="M401 42L236 255V261L400 479L473 427L353 251L354 270L474 93L401 42ZM176 42L11 255V261L175 479L248 427L128 251L129 270L249 93L176 42Z" />
<glyph unicode="&#xac;" horiz-adv-x="670" d="M502 113V319L537 296H47V408H623V113H502Z" />
<glyph unicode="&#xad;" horiz-adv-x="415" d="M54 227V345H363V227H54Z" />
<glyph unicode="&#xae;" horiz-adv-x="507" d="M259 251Q193 251 139 282T53 366T21 484Q21 533 39 575T91 649T167 699T259 717Q307 717 350 699T425 649T475 575T494 484Q494 435 476 393T425 319T351 269T259 251ZM259 314Q307 314 345 336T407 398T431 484Q431
531 408 570T346 632T259 655Q210 655 171 632T107 570T83 484Q83 437 107 398T170 337T259 314ZM292 367L255 463L314 478L362 367H292ZM167 367V606H281Q316 606 337 586T359 533Q359 500 337 479T281 458H216L232 468V367H167ZM232 495L217 502H261Q277 502
286 509T296 527Q296 539 288 545T263 552H215L232 560V495Z" />
<glyph unicode="&#xaf;" horiz-adv-x="424" d="M99 639V723H401V639H99Z" />
<glyph unicode="&#xb0;" horiz-adv-x="532" d="M266 397Q221 397 185 418T127 474T106 553Q106 598 127 633T184 690T266 711Q312 711 348 690T405 634T426 554Q426 510 405 475T348 418T266 397ZM266 474Q287 474 303 485T330 514T340 554Q340 576 330 594T304
622T266 633Q245 633 228 623T202 594T192 553Q192 531 202 513T228 485T266 474Z" />
<glyph unicode="&#xb1;" horiz-adv-x="603" d="M56 295V399H546V295H56ZM57 -3V103H547V-3H57ZM242 157V549H362V157H242Z" />
<glyph unicode="&#xb2;" horiz-adv-x="353" d="M63 418L53 493L153 587Q164 596 177 609T201 638T211 671Q211 686 203 695T179 704Q161 704 142 691T103 650L41 696Q58 723 80 743T129 774T187 785Q222 785 248 771T288 734T303 681Q303 649 287 622T247 573T203
535L140 478L144 493H309V418H63Z" />
<glyph unicode="&#xb3;" horiz-adv-x="347" d="M169 412Q147 412 126 416T86 427T49 446L87 509Q105 498 122 493T157 487Q183 487 199 500T216 536Q216 554 202 565T162 577Q148 577 133 574T106 566L84 624L200 716L215 702H74V778H271L279 705L173 622L162
629Q169 633 178 635T194 638Q243 638 273 610T303 533Q303 498 285 471T237 428T169 412Z" />
<glyph unicode="&#xb4;" horiz-adv-x="500" d="M177 598L138 657L294 787L362 698L177 598Z" />
<glyph unicode="&#xb5;" horiz-adv-x="605" d="M78 -159V527H197V222Q197 180 208 152T241 110T295 95Q321 95 343 104T381 131T406 171T416 221V527H535V0H419L417 109L427 97Q412 61 389 38T334 2T267 -10Q249 -10 233 -5T203 12T185 36L195 63L197 -159H78Z" />
<glyph unicode="&#xb6;" horiz-adv-x="730" d="M246 0V314L279 277H234Q180 277 138 304T71 378T46 485Q46 550 74 598T152 673T271 700H636V0H507V660L536 596H319L375 652V0H246Z" />
<glyph unicode="&#xb7;" horiz-adv-x="238" d="M119 253Q83 253 64 274T44 333Q44 368 64 390T119 413Q155 413 174 393T194 333Q194 298 174 276T119 253Z" />
<glyph unicode="&#xb8;" horiz-adv-x="500" d="M156 -245L149 -184Q171 -184 196 -177T238 -159T255 -135Q255 -122 240 -115T206 -103T172 -99L157 -88L228 24H295L251 -45Q302 -54 327 -78T352 -139Q352 -167 334 -187T287 -220T224 -240T156 -245Z" />
<glyph unicode="&#xb9;" horiz-adv-x="284" d="M122 429V710L132 684L78 650L39 722L144 784H211V429H167Q156 429 145 429T122 429Z" />
<glyph unicode="&#xba;" horiz-adv-x="370" d="M184 392Q138 392 102 412T45 469T24 550Q24 597 45 633T102 691T184 712Q230 712 266 691T324 633T346 550Q346 505 325 470T267 413T184 392ZM184 468Q204 468 218 478T240 508T248 551Q248 577 240 596T218 625T184
636Q165 636 151 625T129 595T121 551Q121 527 128 508T150 479T184 468Z" />
<glyph unicode="&#xbb;" horiz-adv-x="517" d="M341 42L268 94L388 270L387 251L267 428L340 479L505 266V260L341 42ZM113 42L40 94L160 270L159 251L39 428L112 479L277 266V260L113 42Z" />
<glyph unicode="&#xbc;" horiz-adv-x="803" d="M130 359V640L140 614L86 580L47 652L152 714H219V359H175Q164 359 153 359T130 359ZM103 0L570 700H685L217 0H103ZM688 153H764V77H688V153ZM515 119L499 153H642L618 128V284L647 273L515 119ZM704 -2H612V101L632
77H469L451 150L623 361H704V-2Z" />
<glyph unicode="&#xbd;" horiz-adv-x="800" d="M130 359V640L140 614L86 580L47 652L152 714H219V359H175Q164 359 153 359T130 359ZM105 0L572 700H687L219 0H105ZM521 0L511 75L611 169Q622 178 635 191T659 220T669 253Q669 268 661 277T637 286Q619 286 600
273T561 232L499 278Q516 305 538 325T587 356T645 367Q680 367 706 353T746 316T761 263Q761 231 745 204T705 155T661 117L598 60L602 75H767V0H521Z" />
<glyph unicode="&#xbe;" horiz-adv-x="812" d="M141 342Q119 342 98 346T58 357T21 376L59 439Q77 428 94 423T129 417Q155 417 171 430T188 466Q188 484 174 495T134 507Q120 507 105 504T78 496L56 554L172 646L187 632H46V708H243L251 635L145 552L134 559Q141
563 150 565T166 568Q215 568 245 540T275 463Q275 428 257 401T209 358T141 342ZM122 0L589 700H704L236 0H122ZM697 153H773V77H697V153ZM524 119L508 153H651L627 128V284L656 273L524 119ZM713 -2H621V101L641 77H478L460 150L632 361H713V-2Z" />
<glyph unicode="&#xbf;" horiz-adv-x="520" d="M309 313L337 175Q301 166 272 155T221 131T183 101T160 66T152 26Q152 0 165 -20T202 -51T256 -62Q294 -62 329 -36T393 41L480 -36Q436 -103 376 -140T249 -177Q185 -177 134 -151T53 -80T23 23Q23 58 37 91T77
153T137 204T214 241L228 313H309ZM344 465Q344 430 323 408T269 385Q233 385 214 405T194 465Q194 500 214 522T269 545Q305 545 324 524T344 465Z" />
<glyph unicode="&#xc0;" horiz-adv-x="698" d="M16 0L289 700H411L682 0H547L397 398Q392 410 384 436T365 492T347 549T335 588L360 589Q354 569 346 544T329 492T312 440T296 395L146 0H16ZM140 160L185 273H504L552 160H140ZM433 752L222 829L274 928L466 815L433
752Z" />
<glyph unicode="&#xc1;" horiz-adv-x="698" d="M16 0L289 700H411L682 0H547L397 398Q392 410 384 436T365 492T347 549T335 588L360 589Q354 569 346 544T329 492T312 440T296 395L146 0H16ZM140 160L185 273H504L552 160H140ZM274 752L243 815L435 928L485 829L274
752Z" />
<glyph unicode="&#xc2;" horiz-adv-x="698" d="M16 0L289 700H411L682 0H547L397 398Q392 410 384 436T365 492T347 549T335 588L360 589Q354 569 346 544T329 492T312 440T296 395L146 0H16ZM140 160L185 273H504L552 160H140ZM222 755L181 797L309 900H388L516
797L475 755L334 822H363L222 755Z" />
<glyph unicode="&#xc3;" horiz-adv-x="698" d="M16 0L289 700H411L682 0H547L397 398Q392 410 384 436T365 492T347 549T335 588L360 589Q354 569 346 544T329 492T312 440T296 395L146 0H16ZM140 160L185 273H504L552 160H140ZM424 768Q402 768 380 775T335 791Q318
798 306 802T284 806Q270 806 262 797T254 768H169Q169 826 204 858T287 891Q307 891 326 885T367 869Q382 863 394 859T416 855Q430 855 437 865T444 891H528Q528 859 516 831T480 785T424 768Z" />
<glyph unicode="&#xc4;" horiz-adv-x="698" d="M16 0L289 700H411L682 0H547L397 398Q392 410 384 436T365 492T347 549T335 588L360 589Q354 569 346 544T329 492T312 440T296 395L146 0H16ZM140 160L185 273H504L552 160H140ZM459 757Q421 757 402 776T383 829Q383
858 402 879T459 901Q496 901 515 882T534 829Q534 800 515 779T459 757ZM239 757Q202 757 183 776T164 829Q164 858 183 879T239 901Q277 901 296 882T315 829Q315 800 296 779T239 757Z" />
<glyph unicode="&#xc5;" horiz-adv-x="698" d="M16 0L289 700H411L682 0H547L397 398Q392 410 384 436T365 492T347 549T335 588L360 589Q354 569 346 544T329 492T312 440T296 395L146 0H16ZM140 160L185 273H504L552 160H140ZM348 677Q318 677 291 692T248 733T231
788Q231 820 247 846T291 887T348 902Q379 902 406 887T449 846T466 788Q466 758 450 733T406 693T348 677ZM348 744Q368 744 381 757T395 788Q395 810 381 821T348 833Q329 833 316 821T302 788Q302 770 315 757T348 744Z" />
<glyph unicode="&#xc6;" horiz-adv-x="1007" d="M0 0L488 700H937V590H609V409H892V301H609V110H937V0H487V149H222L295 256H487V558L512 550L136 0H0Z" />
<glyph unicode="&#xc7;" horiz-adv-x="684" d="M391 -10Q315 -10 252 16T143 90T72 205T46 351Q46 427 73 492T148 606T260 682T399 709Q450 709 498 694T586 653T653 591L570 500Q544 527 517 545T460 573T399 583Q353 583 313 566T243 518T196 445T179 350Q179
297 195 254T242 180T315 133T409 116Q442 116 473 125T530 150T579 189L643 86Q619 59 579 37T490 3T391 -10ZM289 -245L281 -184Q304 -184 328 -177T370 -159T387 -135Q387 -122 372 -115T338 -103T304 -99L290 -88L361 24H428L384 -45Q434 -54 459 -78T485 -139Q485
-167 467 -187T420 -220T357 -240T289 -245Z" />
<glyph unicode="&#xc8;" horiz-adv-x="625" d="M94 0V700H552V582H222V118H556V0H94ZM154 300V416H501V300H154ZM416 752L205 829L257 928L449 815L416 752Z" />
<glyph unicode="&#xc9;" horiz-adv-x="625" d="M94 0V700H552V582H222V118H556V0H94ZM154 300V416H501V300H154ZM257 752L226 815L418 928L468 829L257 752Z" />
<glyph unicode="&#xca;" horiz-adv-x="625" d="M94 0V700H552V582H222V118H556V0H94ZM154 300V416H501V300H154ZM206 755L165 797L293 900H372L500 797L459 755L318 822H347L206 755Z" />
<glyph unicode="&#xcb;" horiz-adv-x="625" d="M94 0V700H552V582H222V118H556V0H94ZM154 300V416H501V300H154ZM442 757Q404 757 385 776T366 829Q366 858 385 879T442 901Q479 901 498 882T517 829Q517 800 498 779T442 757ZM222 757Q185 757 166 776T147 829Q147
858 166 879T222 901Q260 901 279 882T298 829Q298 800 279 779T222 757Z" />
<glyph unicode="&#xcc;" horiz-adv-x="505" d="M73 0V115H188V585H73V700H433V585H318V115H433V0H73ZM592 752L381 829L433 928L625 815L592 752Z" />
<glyph unicode="&#xcd;" horiz-adv-x="505" d="M73 0V115H188V585H73V700H433V585H318V115H433V0H73ZM177 752L146 815L338 928L388 829L177 752Z" />
<glyph unicode="&#xce;" horiz-adv-x="505" d="M73 0V115H188V585H73V700H433V585H318V115H433V0H73ZM126 755L85 797L213 900H292L420 797L379 755L238 822H267L126 755Z" />
<glyph unicode="&#xcf;" horiz-adv-x="505" d="M73 0V115H188V585H73V700H433V585H318V115H433V0H73ZM362 757Q324 757 305 776T286 829Q286 858 305 879T362 901Q399 901 418 882T437 829Q437 800 418 779T362 757ZM142 757Q105 757 86 776T67 829Q67 858 86
879T142 901Q180 901 199 882T218 829Q218 800 199 779T142 757Z" />
<glyph unicode="&#xd0;" horiz-adv-x="757" d="M44 300V400H332V300H44ZM94 0V700H375Q451 700 512 675T618 603T686 492T710 350Q710 272 687 208T619 97T513 25T375 0H94ZM224 101L214 120H370Q419 120 457 136T523 182T564 254T578 350Q578 403 564 445T523
518T457 564T370 580H211L224 597V101Z" />
<glyph unicode="&#xd1;" horiz-adv-x="798" d="M94 0V700H211L617 153L595 149Q591 177 588 206T583 268T579 335T576 408T575 490V700H704V0H585L177 539L203 546Q208 490 211 451T217 383T220 335T222 301T223 271V0H94ZM474 768Q452 768 430 775T385 791Q368
798 356 802T334 806Q320 806 312 797T304 768H219Q219 826 254 858T337 891Q357 891 376 885T417 869Q432 863 444 859T466 855Q480 855 487 865T494 891H578Q578 859 566 831T530 785T474 768Z" />
<glyph unicode="&#xd2;" horiz-adv-x="793" d="M396 -10Q321 -10 257 17T146 92T72 207T46 351Q46 429 72 495T145 609T257 685T396 712Q472 712 536 685T647 609T720 495T746 351Q746 274 720 208T647 93T536 17T396 -10ZM396 114Q444 114 483 131T552 181T597
257T614 351Q614 402 598 445T552 520T484 570T396 588Q349 588 309 571T240 521T195 446T179 351Q179 300 195 257T240 181T309 132T396 114ZM480 752L269 829L321 928L513 815L480 752Z" />
<glyph unicode="&#xd3;" horiz-adv-x="793" d="M396 -10Q321 -10 257 17T146 92T72 207T46 351Q46 429 72 495T145 609T257 685T396 712Q472 712 536 685T647 609T720 495T746 351Q746 274 720 208T647 93T536 17T396 -10ZM396 114Q444 114 483 131T552 181T597
257T614 351Q614 402 598 445T552 520T484 570T396 588Q349 588 309 571T240 521T195 446T179 351Q179 300 195 257T240 181T309 132T396 114ZM321 752L290 815L482 928L532 829L321 752Z" />
<glyph unicode="&#xd4;" horiz-adv-x="793" d="M396 -10Q321 -10 257 17T146 92T72 207T46 351Q46 429 72 495T145 609T257 685T396 712Q472 712 536 685T647 609T720 495T746 351Q746 274 720 208T647 93T536 17T396 -10ZM396 114Q444 114 483 131T552 181T597
257T614 351Q614 402 598 445T552 520T484 570T396 588Q349 588 309 571T240 521T195 446T179 351Q179 300 195 257T240 181T309 132T396 114ZM269 755L228 797L356 900H435L563 797L522 755L381 822H410L269 755Z" />
<glyph unicode="&#xd5;" horiz-adv-x="793" d="M396 -10Q321 -10 257 17T146 92T72 207T46 351Q46 429 72 495T145 609T257 685T396 712Q472 712 536 685T647 609T720 495T746 351Q746 274 720 208T647 93T536 17T396 -10ZM396 114Q444 114 483 131T552 181T597
257T614 351Q614 402 598 445T552 520T484 570T396 588Q349 588 309 571T240 521T195 446T179 351Q179 300 195 257T240 181T309 132T396 114ZM471 768Q449 768 427 775T382 791Q365 798 353 802T331 806Q317 806 309 797T301 768H216Q216 826 251 858T334 891Q354
891 373 885T414 869Q429 863 441 859T463 855Q477 855 484 865T491 891H575Q575 859 563 831T527 785T471 768Z" />
<glyph unicode="&#xd6;" horiz-adv-x="793" d="M396 -10Q321 -10 257 17T146 92T72 207T46 351Q46 429 72 495T145 609T257 685T396 712Q472 712 536 685T647 609T720 495T746 351Q746 274 720 208T647 93T536 17T396 -10ZM396 114Q444 114 483 131T552 181T597
257T614 351Q614 402 598 445T552 520T484 570T396 588Q349 588 309 571T240 521T195 446T179 351Q179 300 195 257T240 181T309 132T396 114ZM506 757Q468 757 449 776T430 829Q430 858 449 879T506 901Q543 901 562 882T581 829Q581 800 562 779T506 757ZM286
757Q249 757 230 776T211 829Q211 858 230 879T286 901Q324 901 343 882T362 829Q362 800 343 779T286 757Z" />
<glyph unicode="&#xd7;" horiz-adv-x="501" d="M390 69L36 421L111 494L465 141L390 69ZM111 63L39 140L391 494L463 418L111 63Z" />
<glyph unicode="&#xd8;" horiz-adv-x="783" d="M129 -33L66 20L655 741L723 694L129 -33ZM396 -10Q320 -10 256 17T145 92T72 207T46 351Q46 429 71 495T144 609T256 685T395 712Q471 712 535 685T646 609T719 495T745 351Q745 274 720 208T647 93T535 17T396
-10ZM395 114Q443 114 482 131T551 181T596 257T613 351Q613 402 597 445T551 520T483 570T395 588Q348 588 309 571T240 521T194 446T178 351Q178 300 194 257T239 181T308 132T395 114Z" />
<glyph unicode="&#xd9;" horiz-adv-x="749" d="M374 -6Q291 -6 226 29T124 127T86 269V701H217V278Q217 231 238 195T296 136T374 114Q420 114 457 136T515 194T537 278V701H663V269Q663 190 626 128T523 30T374 -6ZM458 752L247 829L299 928L491 815L458 752Z" />
<glyph unicode="&#xda;" horiz-adv-x="749" d="M374 -6Q291 -6 226 29T124 127T86 269V701H217V278Q217 231 238 195T296 136T374 114Q420 114 457 136T515 194T537 278V701H663V269Q663 190 626 128T523 30T374 -6ZM299 752L268 815L460 928L510 829L299 752Z" />
<glyph unicode="&#xdb;" horiz-adv-x="749" d="M374 -6Q291 -6 226 29T124 127T86 269V701H217V278Q217 231 238 195T296 136T374 114Q420 114 457 136T515 194T537 278V701H663V269Q663 190 626 128T523 30T374 -6ZM248 755L207 797L335 900H414L542 797L501
755L360 822H389L248 755Z" />
<glyph unicode="&#xdc;" horiz-adv-x="749" d="M374 -6Q291 -6 226 29T124 127T86 269V701H217V278Q217 231 238 195T296 136T374 114Q420 114 457 136T515 194T537 278V701H663V269Q663 190 626 128T523 30T374 -6ZM484 757Q446 757 427 776T408 829Q408 858
427 879T484 901Q521 901 540 882T559 829Q559 800 540 779T484 757ZM264 757Q227 757 208 776T189 829Q189 858 208 879T264 901Q302 901 321 882T340 829Q340 800 321 779T264 757Z" />
<glyph unicode="&#xdd;" horiz-adv-x="670" d="M280 0V349L287 300L4 700H156L372 390L325 393L520 700H666L395 289L410 357V0H280ZM260 752L229 815L421 928L471 829L260 752Z" />
<glyph unicode="&#xde;" horiz-adv-x="644" d="M94 0V700H224V578H385Q445 578 493 549T571 470T600 358Q600 296 571 245T494 164T385 134H224V0H94ZM224 255H376Q401 255 421 268T454 305T467 358Q467 387 455 409T422 445T376 458H224V255Z" />
<glyph unicode="&#xdf;" horiz-adv-x="665" d="M424 -10Q378 -10 343 5T282 51L338 126Q362 105 382 97T423 88Q464 88 488 117T512 193Q512 229 502 257T469 307T416 345T344 372V444Q370 455 388 467T419 493T438 520T444 551Q444 586 419 605T348 625Q297 625
268 591T239 501V0H120V499Q120 569 148 622T228 704T352 734Q414 734 460 714T533 657T560 571Q560 542 547 514T509 463T453 426L451 441Q491 429 523 406T580 353T617 284T630 203Q630 142 603 94T530 18T424 -10ZM38 390V499H179V390H38Z" />
<glyph unicode="&#xe0;" horiz-adv-x="642" d="M271 -10Q206 -10 153 26T68 124T36 265Q36 344 68 406T155 503T279 538Q319 538 352 527T410 494T451 446T474 388L447 395V527H571V0H446V126L475 131Q468 104 450 79T404 34T343 2T271 -10ZM305 99Q348 99 381
120T432 178T451 265Q451 313 433 350T381 408T305 429Q262 429 230 408T179 350T161 265Q161 216 179 179T229 120T305 99ZM375 600L190 700L258 790L414 659L375 600Z" />
<glyph unicode="&#xe1;" horiz-adv-x="642" d="M271 -10Q206 -10 153 26T68 124T36 265Q36 344 68 406T155 503T279 538Q319 538 352 527T410 494T451 446T474 388L447 395V527H571V0H446V126L475 131Q468 104 450 79T404 34T343 2T271 -10ZM305 99Q348 99 381
120T432 178T451 265Q451 313 433 350T381 408T305 429Q262 429 230 408T179 350T161 265Q161 216 179 179T229 120T305 99ZM249 600L210 659L366 789L434 700L249 600Z" />
<glyph unicode="&#xe2;" horiz-adv-x="642" d="M271 -10Q206 -10 153 26T68 124T36 265Q36 344 68 406T155 503T279 538Q319 538 352 527T410 494T451 446T474 388L447 395V527H571V0H446V126L475 131Q468 104 450 79T404 34T343 2T271 -10ZM305 99Q348 99 381
120T432 178T451 265Q451 313 433 350T381 408T305 429Q262 429 230 408T179 350T161 265Q161 216 179 179T229 120T305 99ZM197 605L152 644L277 763H367L492 644L447 605L307 682H337L197 605Z" />
<glyph unicode="&#xe3;" horiz-adv-x="642" d="M271 -10Q206 -10 153 26T68 124T36 265Q36 344 68 406T155 503T279 538Q319 538 352 527T410 494T451 446T474 388L447 395V527H571V0H446V126L475 131Q468 104 450 79T404 34T343 2T271 -10ZM305 99Q348 99 381
120T432 178T451 265Q451 313 433 350T381 408T305 429Q262 429 230 408T179 350T161 265Q161 216 179 179T229 120T305 99ZM379 615Q360 615 345 622T312 643Q294 659 284 665T266 671Q253 671 243 658T228 616L153 627Q154 679 184 716T265 753Q284 753 298 746T331
726Q349 712 358 705T377 698Q391 698 401 711T414 752L490 741Q489 708 475 679T437 632T379 615Z" />
<glyph unicode="&#xe4;" horiz-adv-x="642" d="M271 -10Q206 -10 153 26T68 124T36 265Q36 344 68 406T155 503T279 538Q319 538 352 527T410 494T451 446T474 388L447 395V527H571V0H446V126L475 131Q468 104 450 79T404 34T343 2T271 -10ZM305 99Q348 99 381
120T432 178T451 265Q451 313 433 350T381 408T305 429Q262 429 230 408T179 350T161 265Q161 216 179 179T229 120T305 99ZM428 638Q392 638 373 657T353 710Q353 742 373 762T428 783Q464 783 484 764T504 710Q504 678 484 658T428 638ZM214 638Q178 638 159
657T139 710Q139 742 159 762T214 783Q250 783 269 764T289 710Q289 678 269 658T214 638Z" />
<glyph unicode="&#xe5;" horiz-adv-x="642" d="M271 -10Q206 -10 153 26T68 124T36 265Q36 344 68 406T155 503T279 538Q319 538 352 527T410 494T451 446T474 388L447 395V527H571V0H446V126L475 131Q468 104 450 79T404 34T343 2T271 -10ZM305 99Q348 99 381
120T432 178T451 265Q451 313 433 350T381 408T305 429Q262 429 230 408T179 350T161 265Q161 216 179 179T229 120T305 99ZM321 604Q292 604 266 619T224 659T208 713Q208 743 223 768T265 808T321 823Q352 823 378 808T419 768T435 713Q435 684 420 659T378 619T321
604ZM321 670Q340 670 353 682T367 713Q367 732 354 744T321 756Q302 756 289 744T276 713Q276 695 289 683T321 670Z" />
<glyph unicode="&#xe6;" horiz-adv-x="899" d="M215 -10Q164 -10 124 10T60 65T36 149Q36 190 51 222T97 275T171 306T273 317H755L742 302V325Q740 355 723 378T680 415T622 429Q575 429 543 411T495 357T478 268Q478 219 501 181T565 122T658 100Q695 100 727
112T795 155L852 68Q825 44 791 27T719 0T645 -10Q562 -10 500 24T403 119T368 259Q368 320 387 371T441 459T521 517T621 538Q691 537 746 504T832 412T863 278L862 233H266Q240 233 219 228T184 213T162 188T155 155Q155 135 165 120T192 97T232 88Q264 88 293
99T346 130T382 175L429 103Q407 69 373 44T299 4T215 -10ZM367 254V348Q367 366 359 381T337 407T304 423T263 429Q221 429 188 412T128 360L51 436Q79 468 113 491T188 526T273 538Q320 538 357 528T422 498T463 449T477 381V259L367 254Z" />
<glyph unicode="&#xe7;" horiz-adv-x="539" d="M298 -10Q224 -10 165 26T72 124T38 264Q38 342 72 404T165 502T298 538Q369 538 427 511T517 436L449 354Q434 375 411 392T362 419T310 429Q266 429 232 408T177 349T157 264Q157 217 177 180T233 121T311 99Q337
99 361 107T408 132T449 172L517 89Q483 45 424 18T298 -10ZM204 -245L197 -184Q219 -184 244 -177T286 -159T303 -135Q303 -122 288 -115T254 -103T220 -99L205 -88L276 24H343L299 -45Q350 -54 375 -78T400 -139Q400 -167 382 -187T335 -220T272 -240T204 -245Z"
/>
<glyph unicode="&#xe8;" horiz-adv-x="586" d="M319 -10Q236 -10 173 25T74 120T38 259Q38 321 58 372T113 460T198 518T307 539Q359 539 404 519T482 465T532 383T549 279L548 236H121L98 320H445L429 303V325Q426 356 409 379T366 416T307 430Q258 430 225 411T174
357T157 268Q157 217 178 179T239 121T332 100Q369 100 400 112T467 155L528 70Q501 45 467 28T394 0T319 -10ZM360 600L175 700L243 790L399 659L360 600Z" />
<glyph unicode="&#xe9;" horiz-adv-x="586" d="M319 -10Q236 -10 173 25T74 120T38 259Q38 321 58 372T113 460T198 518T307 539Q359 539 404 519T482 465T532 383T549 279L548 236H121L98 320H445L429 303V325Q426 356 409 379T366 416T307 430Q258 430 225 411T174
357T157 268Q157 217 178 179T239 121T332 100Q369 100 400 112T467 155L528 70Q501 45 467 28T394 0T319 -10ZM234 600L195 659L351 789L419 700L234 600Z" />
<glyph unicode="&#xea;" horiz-adv-x="586" d="M319 -10Q236 -10 173 25T74 120T38 259Q38 321 58 372T113 460T198 518T307 539Q359 539 404 519T482 465T532 383T549 279L548 236H121L98 320H445L429 303V325Q426 356 409 379T366 416T307 430Q258 430 225 411T174
357T157 268Q157 217 178 179T239 121T332 100Q369 100 400 112T467 155L528 70Q501 45 467 28T394 0T319 -10ZM182 605L137 644L262 763H352L477 644L432 605L292 682H322L182 605Z" />
<glyph unicode="&#xeb;" horiz-adv-x="586" d="M319 -10Q236 -10 173 25T74 120T38 259Q38 321 58 372T113 460T198 518T307 539Q359 539 404 519T482 465T532 383T549 279L548 236H121L98 320H445L429 303V325Q426 356 409 379T366 416T307 430Q258 430 225 411T174
357T157 268Q157 217 178 179T239 121T332 100Q369 100 400 112T467 155L528 70Q501 45 467 28T394 0T319 -10ZM413 638Q377 638 358 657T338 710Q338 742 358 762T413 783Q449 783 469 764T489 710Q489 678 469 658T413 638ZM199 638Q163 638 144 657T124 710Q124
742 144 762T199 783Q235 783 254 764T274 710Q274 678 254 658T199 638Z" />
<glyph unicode="&#xec;" horiz-adv-x="259" d="M68 0V527H191V0H68ZM182 600L-3 700L65 790L221 659L182 600Z" />
<glyph unicode="&#xed;" horiz-adv-x="259" d="M68 0V527H191V0H68ZM312 600L273 659L429 789L497 700L312 600Z" />
<glyph unicode="&#xee;" horiz-adv-x="259" d="M68 0V527H191V0H68ZM260 605L215 644L340 763H430L555 644L510 605L370 682H400L260 605Z" />
<glyph unicode="&#xef;" horiz-adv-x="259" d="M68 0V527H191V0H68ZM491 638Q455 638 436 657T416 710Q416 742 436 762T491 783Q527 783 547 764T567 710Q567 678 547 658T491 638ZM277 638Q241 638 222 657T202 710Q202 742 222 762T277 783Q313 783 332 764T352
710Q352 678 332 658T277 638Z" />
<glyph unicode="&#xf0;" horiz-adv-x="582" d="M291 -7Q219 -7 162 28T72 124T38 260Q38 314 57 361T111 445T188 503T279 524Q329 524 368 503T434 442T472 348L406 379Q404 424 394 461T366 528T321 581T257 622T169 656L213 742Q273 728 324 700T416 630T485
536T529 420T544 283Q544 198 512 133T423 30T291 -7ZM291 103Q330 103 361 124T410 181T429 262Q429 305 411 340T361 397T291 418Q253 418 222 398T172 342T153 262Q153 217 171 181T221 124T291 103ZM154 524L141 589L291 628L347 650L493 683L511 617L398 591L356
572L154 524Z" />
<glyph unicode="&#xf1;" horiz-adv-x="609" d="M72 0V527H192L194 419L171 407Q181 443 210 472T279 520T361 538Q421 538 461 514T522 442T543 322V0H420V313Q420 353 409 379T375 418T319 430Q292 430 270 422T231 398T205 362T195 318V0H134Q116 0 101 0T72
0ZM392 615Q373 615 358 622T325 643Q307 659 297 665T279 671Q266 671 256 658T241 616L166 627Q167 679 197 716T278 753Q297 753 311 746T344 726Q362 712 371 705T390 698Q404 698 414 711T427 752L503 741Q502 708 488 679T450 632T392 615Z" />
<glyph unicode="&#xf2;" horiz-adv-x="624" d="M313 -10Q234 -10 172 25T74 123T38 264Q38 343 74 405T172 502T313 538Q391 538 453 503T550 405T586 264Q586 185 551 123T453 26T313 -10ZM313 99Q356 99 389 121T442 180T461 264Q462 312 443 349T390 407T313
429Q270 429 236 408T182 349T163 264Q163 217 182 180T235 121T313 99ZM365 600L180 700L248 790L404 659L365 600Z" />
<glyph unicode="&#xf3;" horiz-adv-x="624" d="M313 -10Q234 -10 172 25T74 123T38 264Q38 343 74 405T172 502T313 538Q391 538 453 503T550 405T586 264Q586 185 551 123T453 26T313 -10ZM313 99Q356 99 389 121T442 180T461 264Q462 312 443 349T390 407T313
429Q270 429 236 408T182 349T163 264Q163 217 182 180T235 121T313 99ZM239 600L200 659L356 789L424 700L239 600Z" />
<glyph unicode="&#xf4;" horiz-adv-x="624" d="M313 -10Q234 -10 172 25T74 123T38 264Q38 343 74 405T172 502T313 538Q391 538 453 503T550 405T586 264Q586 185 551 123T453 26T313 -10ZM313 99Q356 99 389 121T442 180T461 264Q462 312 443 349T390 407T313
429Q270 429 236 408T182 349T163 264Q163 217 182 180T235 121T313 99ZM187 605L142 644L267 763H357L482 644L437 605L297 682H327L187 605Z" />
<glyph unicode="&#xf5;" horiz-adv-x="624" d="M313 -10Q234 -10 172 25T74 123T38 264Q38 343 74 405T172 502T313 538Q391 538 453 503T550 405T586 264Q586 185 551 123T453 26T313 -10ZM313 99Q356 99 389 121T442 180T461 264Q462 312 443 349T390 407T313
429Q270 429 236 408T182 349T163 264Q163 217 182 180T235 121T313 99ZM370 615Q351 615 336 622T303 643Q285 659 275 665T257 671Q244 671 234 658T219 616L144 627Q145 679 175 716T256 753Q275 753 289 746T322 726Q340 712 349 705T368 698Q382 698 392 711T405
752L481 741Q480 708 466 679T428 632T370 615Z" />
<glyph unicode="&#xf6;" horiz-adv-x="624" d="M313 -10Q234 -10 172 25T74 123T38 264Q38 343 74 405T172 502T313 538Q391 538 453 503T550 405T586 264Q586 185 551 123T453 26T313 -10ZM313 99Q356 99 389 121T442 180T461 264Q462 312 443 349T390 407T313
429Q270 429 236 408T182 349T163 264Q163 217 182 180T235 121T313 99ZM419 638Q383 638 364 657T344 710Q344 742 364 762T419 783Q455 783 475 764T495 710Q495 678 475 658T419 638ZM205 638Q169 638 150 657T130 710Q130 742 150 762T205 783Q241 783 260
764T280 710Q280 678 260 658T205 638Z" />
<glyph unicode="&#xf7;" horiz-adv-x="597" d="M48 210V314H550V210H48ZM294 1Q273 1 256 10T229 36T219 73Q219 94 229 110T256 136T294 146Q315 146 332 137T358 111T368 73Q368 53 359 37T332 11T294 1ZM294 375Q273 375 256 384T229 410T219 447Q219 467 229
483T256 510T294 520Q315 520 332 510T358 484T368 447Q368 427 358 411T332 385T294 375Z" />
<glyph unicode="&#xf8;" horiz-adv-x="624" d="M112 -35L46 13L502 550L569 501L112 -35ZM313 -10Q234 -10 172 25T74 123T38 264Q38 343 74 405T172 502T313 538Q391 538 453 503T550 405T586 264Q586 185 551 123T453 26T313 -10ZM313 99Q356 99 389 121T442
180T461 264Q462 312 443 349T390 407T313 429Q270 429 236 408T182 349T163 264Q163 217 182 180T235 121T313 99Z" />
<glyph unicode="&#xf9;" horiz-adv-x="618" d="M255 -10Q198 -10 156 15T92 88T70 202V527H193V228Q193 186 206 157T244 111T304 95Q330 95 351 103T389 127T414 164T423 211V527H546V0H426L424 110L446 122Q434 84 406 55T338 8T255 -10ZM363 600L178 700L246
790L402 659L363 600Z" />
<glyph unicode="&#xfa;" horiz-adv-x="618" d="M255 -10Q198 -10 156 15T92 88T70 202V527H193V228Q193 186 206 157T244 111T304 95Q330 95 351 103T389 127T414 164T423 211V527H546V0H426L424 110L446 122Q434 84 406 55T338 8T255 -10ZM237 600L198 659L354
789L422 700L237 600Z" />
<glyph unicode="&#xfb;" horiz-adv-x="618" d="M255 -10Q198 -10 156 15T92 88T70 202V527H193V228Q193 186 206 157T244 111T304 95Q330 95 351 103T389 127T414 164T423 211V527H546V0H426L424 110L446 122Q434 84 406 55T338 8T255 -10ZM185 605L140 644L265
763H355L480 644L435 605L295 682H325L185 605Z" />
<glyph unicode="&#xfc;" horiz-adv-x="618" d="M255 -10Q198 -10 156 15T92 88T70 202V527H193V228Q193 186 206 157T244 111T304 95Q330 95 351 103T389 127T414 164T423 211V527H546V0H426L424 110L446 122Q434 84 406 55T338 8T255 -10ZM416 638Q380 638 361
657T341 710Q341 742 361 762T416 783Q452 783 472 764T492 710Q492 678 472 658T416 638ZM202 638Q166 638 147 657T127 710Q127 742 147 762T202 783Q238 783 257 764T277 710Q277 678 257 658T202 638Z" />
<glyph unicode="&#xfd;" horiz-adv-x="595" d="M152 -230L264 29L265 -53L5 527H147L292 183Q299 170 306 149T318 106L293 98Q300 117 308 138T323 183L447 527H590L370 0L280 -230H152ZM225 600L186 659L342 789L410 700L225 600Z" />
<glyph unicode="&#xfe;" horiz-adv-x="641" d="M72 -220V740H196V407L174 416Q180 447 208 474T276 519T361 536Q414 536 457 516T534 460T585 374T603 264Q603 185 572 124T486 27T363 -9Q317 -9 275 9T203 56T166 117L196 131V-220H72ZM338 100Q380 100 413
121T464 179T483 264Q483 312 465 348T414 406T338 427Q294 427 262 407T210 349T191 264Q191 216 210 179T261 121T338 100Z" />
<glyph unicode="&#xff;" horiz-adv-x="595" d="M152 -230L264 29L265 -53L5 527H147L292 183Q299 170 306 149T318 106L293 98Q300 117 308 138T323 183L447 527H590L370 0L280 -230H152ZM405 638Q369 638 350 657T330 710Q330 742 350 762T405 783Q441 783 461
764T481 710Q481 678 461 658T405 638ZM191 638Q155 638 136 657T116 710Q116 742 136 762T191 783Q227 783 246 764T266 710Q266 678 246 658T191 638Z" />
<glyph unicode="&#x2013;" horiz-adv-x="543" d="M54 231V343H488V231H54Z" />
<glyph unicode="&#x2014;" horiz-adv-x="891" d="M54 231V344H837V231H54Z" />
<glyph unicode="&#x2018;" horiz-adv-x="253" d="M142 463Q113 463 90 478T54 519T40 580Q40 608 51 635T83 686T131 728T191 755L231 705Q191 688 166 664T141 621Q141 609 150 599T171 580Q194 563 202 550T210 521Q210 495 191 479T142 463Z" />
<glyph unicode="&#x2019;" horiz-adv-x="253" d="M63 459L22 508Q62 526 87 550T112 592Q112 604 103 614T82 633Q59 651 51 664T43 693Q43 719 62 735T112 751Q140 751 163 736T200 695T213 633Q213 605 202 578T171 528T123 486T63 459Z" />
<glyph unicode="&#x201a;" horiz-adv-x="274" d="M87 -186L46 -137Q83 -117 105 -91T128 -45Q128 -35 124 -26T102 0Q81 19 74 33T67 64Q67 90 86 106T135 122Q162 122 183 107T217 66T229 4Q229 -27 219 -56T189 -111T144 -155T87 -186Z" />
<glyph unicode="&#x201c;" horiz-adv-x="469" d="M142 714Q113 714 90 729T54 770T40 831Q40 859 51 886T83 937T131 979T191 1006L231 956Q191 939 166 915T141 872Q141 860 150 850T171 831Q194 814 202 801T210 772Q210 746 191 730T142 714ZM357 458Q328 458
305 473T269 514T255 575Q255 603 266 630T298 681T346 723T406 750L446 700Q406 683 381 659T356 616Q356 604 365 594T386 575Q409 558 417 545T425 516Q425 490 406 474T357 458Z" />
<glyph unicode="&#x201d;" horiz-adv-x="466" d="M63 459L22 508Q62 526 87 550T112 592Q112 604 103 614T82 633Q59 651 51 664T43 693Q43 719 62 735T112 751Q140 751 163 736T200 695T213 633Q213 605 202 578T171 528T123 486T63 459ZM276 459L235 508Q275
526 300 550T325 592Q325 604 316 614T295 633Q272 651 264 664T256 693Q256 719 275 735T325 751Q353 751 376 736T413 695T426 633Q426 605 415 578T384 528T336 486T276 459Z" />
<glyph unicode="&#x201e;" horiz-adv-x="499" d="M87 -186L46 -137Q83 -117 105 -91T128 -45Q128 -35 124 -26T102 0Q81 19 74 33T67 64Q67 90 86 106T135 122Q162 122 183 107T217 66T229 4Q229 -27 219 -56T189 -111T144 -155T87 -186ZM312 -186L271 -137Q308
-117 330 -91T353 -45Q353 -35 349 -26T327 0Q306 19 299 33T292 64Q292 90 311 106T360 122Q387 122 408 107T442 66T454 4Q454 -27 444 -56T414 -111T369 -155T312 -186Z" />
<glyph unicode="&#x2022;" horiz-adv-x="346" d="M173 216Q136 216 105 234T56 283T37 351Q37 389 55 420T104 469T173 488Q211 488 242 470T291 420T310 351Q310 314 292 283T242 234T173 216Z" />
<glyph unicode="&#x2039;" horiz-adv-x="288" d="M176 42L11 255V261L175 479L248 427L128 251L129 270L249 93L176 42Z" />
<glyph unicode="&#x203a;" horiz-adv-x="289" d="M113 42L40 94L160 270L159 251L39 428L112 479L277 266V260L113 42Z" />
</font>
</defs>
</svg>
