<?xml version="1.0" standalone="no"?>
<!DOCTYPE svg PUBLIC "-//W3C//DTD SVG 1.1//EN" "http://www.w3.org/Graphics/SVG/1.1/DTD/svg11.dtd">
<svg xmlns="http://www.w3.org/2000/svg">
<defs >
<font id="LexendDeca" horiz-adv-x="588" ><font-face
    font-family="Lexend Deca"
    units-per-em="1000"
    panose-1="0 0 0 0 0 0 0 0 0 0"
    ascent="1000"
    descent="-250"
    alphabetic="0" />
<glyph unicode=" " horiz-adv-x="320" />
<glyph unicode="!" horiz-adv-x="309" d="M104 255Q96 316 88 381T75 510T70 633V711H239V633Q239 573 234 508T221 379T204 255H104ZM154 -11Q113 -11 90 12T67 78Q67 118 91 143T154 168Q195 168 217 145T240 78Q240 39 216 14T154 -11Z" />
<glyph unicode="&quot;" horiz-adv-x="477" d="M271 436L291 700H454L371 436H271ZM44 436L65 700H229L145 436H44Z" />
<glyph unicode="#" horiz-adv-x="734" d="M368 0L488 700H629L509 0H368ZM48 150V279H650V150H48ZM106 0L226 700H367L247 0H106ZM86 430V559H687V430H86Z" />
<glyph unicode="$" horiz-adv-x="634" d="M320 -10Q222 -10 151 20T28 109L108 239Q164 181 217 157T328 133Q355 133 377 140T411 160T423 194Q423 209 416 221T395 242T364 258T326 271T285 281Q207 298 157 327T81 399T56 502Q56 549 77 588T135 656T220 700T320
716Q405 716 472 690T592 609L520 491Q480 532 430 552T325 572Q295 572 274 565T240 544T228 511Q228 494 238 482T265 461T304 445T350 434Q405 423 449 405T526 361T576 300T594 217Q594 144 559 94T462 17T320 -10ZM260 -91L271 374L352 341L363 -91H260ZM377
340L296 373L285 788H388L377 340Z" />
<glyph unicode="%" horiz-adv-x="968" d="M171 0L634 700H783L315 0H171ZM216 329Q165 329 125 354T63 424T40 524Q40 581 62 625T125 695T216 720Q268 720 307 695T369 626T391 524Q391 468 368 424T306 355T216 329ZM216 432Q233 432 244 443T262 475T268 524Q268
552 262 573T245 605T216 617Q200 617 188 606T170 573T163 524Q163 496 169 475T187 443T216 432ZM749 -10Q698 -10 658 16T596 85T573 185Q573 242 595 286T657 356T749 381Q801 381 840 356T902 287T924 185Q924 130 901 86T839 16T749 -10ZM749 93Q766 93 777
104T795 136T801 185Q801 213 795 234T778 266T749 278Q732 278 720 267T702 235T695 185Q695 157 701 137T720 105T749 93Z" />
<glyph unicode="&amp;" horiz-adv-x="776" d="M580 0L510 72L450 128L303 284Q264 326 237 360T195 424T172 480T165 528Q165 582 193 624T272 691T389 716Q440 716 484 700T560 653T605 583L479 508Q462 549 442 564T395 579Q373 579 358 572T335 552T327 518Q327
499 342 472T382 415T431 359T476 313L550 232L619 169L778 0H580ZM327 -10Q248 -10 186 20T87 102T50 218Q50 291 92 349T218 438L318 341Q262 329 234 301T206 230Q206 196 222 171T269 133T343 119Q383 119 417 135T479 182T524 253T547 346H696Q687 282 665
228T610 129T533 54T438 7T327 -10Z" />
<glyph unicode="&apos;" horiz-adv-x="252" d="M44 436L65 700H229L145 436H44Z" />
<glyph unicode="(" horiz-adv-x="390" d="M290 -186Q168 -110 104 4T40 258Q40 397 104 511T291 702L381 617Q289 553 244 459T198 258Q198 151 243 57T381 -101L290 -186Z" />
<glyph unicode=")" horiz-adv-x="390" d="M99 -186L9 -101Q101 -37 146 57T191 258Q191 365 146 459T9 617L100 702Q222 626 286 512T350 258Q350 119 286 5T99 -186Z" />
<glyph unicode="*" horiz-adv-x="440" d="M166 353L180 489L197 486L72 401L18 493L153 547L152 538L17 599L71 692L200 597L180 596L164 736H279L264 591L248 598L369 691L423 598L285 537V547L421 493L368 402L249 490L265 489L281 353H166Z" />
<glyph unicode="+" horiz-adv-x="597" d="M48 218V349H549V218H48ZM227 39V528H369V39H227Z" />
<glyph unicode="," horiz-adv-x="287" d="M85 -200L39 -143Q79 -125 103 -98T127 -50Q127 -41 123 -31T100 -7Q77 10 69 26T61 63Q61 94 83 112T142 130Q171 130 194 114T231 70T245 5Q245 -29 233 -60T200 -119T149 -168T85 -200Z" />
<glyph unicode="-" horiz-adv-x="448" d="M51 214V361H397V214H51Z" />
<glyph unicode="." horiz-adv-x="257" d="M128 -11Q87 -11 65 12T42 78Q42 118 66 143T128 168Q169 168 192 145T215 78Q215 39 191 14T128 -11Z" />
<glyph unicode="/" horiz-adv-x="595" d="M8 -142L424 700H583L169 -142H8Z" />
<glyph unicode="0" horiz-adv-x="675" d="M337 -10Q243 -10 177 33T75 156T40 350Q40 463 75 543T176 667T337 710Q431 710 498 667T600 544T635 350Q635 237 600 157T498 33T337 -10ZM337 134Q402 134 437 190T473 350Q473 457 438 514T337 572Q272 572 237 515T201
350Q201 246 236 190T337 134Z" />
<glyph unicode="1" horiz-adv-x="561" d="M211 49V617L248 532L98 461L69 613L268 710H378V49H211ZM83 0V150H509V0H83Z" />
<glyph unicode="2" horiz-adv-x="548" d="M59 0L26 82L230 305Q247 324 267 348T306 397T336 447T348 491Q348 511 339 526T313 549T270 558Q247 558 226 547T187 511T152 452L26 520Q47 578 85 622T176 691T287 716Q349 715 399 690T478 619T508 512Q508 491
503 468T488 421T462 369T422 311T368 247L209 74L189 150H539V0H59Z" />
<glyph unicode="3" horiz-adv-x="591" d="M287 -10Q202 -10 139 25T23 148L145 227Q167 192 190 171T239 141T293 131Q321 131 344 143T382 179T397 231Q397 262 385 283T349 316T292 327Q277 327 260 324T224 314T185 298L148 397L318 582L364 557L72 563V706H502L533
644L302 396L262 443Q270 447 288 450T324 454Q371 454 412 437T485 390T535 320T553 233Q553 163 518 109T422 22T287 -10Z" />
<glyph unicode="4" horiz-adv-x="662" d="M349 0V566L440 564L187 254L163 284H627V144H87L19 275L376 706H513V0H349Z" />
<glyph unicode="5" horiz-adv-x="596" d="M282 -7Q203 -7 139 25T32 117L123 217Q164 172 199 156T277 139Q309 139 334 152T373 188T388 241Q388 271 374 294T335 332T278 346Q255 346 235 342T193 329T139 301L67 397L110 706H512V563H191L235 619L202 397L142
417Q161 434 188 447T248 468T312 477Q378 477 430 447T514 362T545 238Q545 169 510 114T416 26T282 -7Z" />
<glyph unicode="6" horiz-adv-x="579" d="M294 0Q240 0 193 19T110 73T55 154T34 253Q34 290 42 324T64 394T99 467T145 547L243 711H400L404 701L268 487Q242 445 223 409T189 336T159 260L127 329Q137 364 159 393T210 444T272 477T335 489Q394 489 443 458T523
374T553 260Q553 186 520 127T428 34T294 0ZM296 140Q328 140 352 154T391 193T405 252Q405 280 391 304T352 344T297 360Q265 360 240 346T200 307T186 252Q186 220 200 195T239 155T296 140Z" />
<glyph unicode="7" horiz-adv-x="553" d="M84 0L364 638L412 558H46V706H502L518 625L254 0H84Z" />
<glyph unicode="8" horiz-adv-x="599" d="M299 -3Q227 -3 169 24T75 99T40 205Q40 244 50 275T80 331T130 373T198 402L186 362Q158 373 135 389T96 425T72 470T63 520Q63 576 94 619T179 686T299 711Q364 711 417 687T503 619T535 520Q535 494 527 470T503 427T464
391T411 362L402 398Q436 389 465 373T515 332T547 276T559 205Q559 145 524 98T430 24T299 -3ZM299 131Q327 131 349 142T384 172T397 216Q397 242 385 261T350 292T299 304Q271 304 249 293T214 262T201 216Q201 192 214 173T249 143T299 131ZM299 439Q323 439
342 448T373 474T384 513Q384 535 373 552T343 579T299 589Q274 589 255 579T224 552T213 513Q213 491 224 475T254 449T299 439Z" />
<glyph unicode="9" horiz-adv-x="577" d="M208 0L204 10L423 452L452 392Q442 356 420 327T368 277T304 244T241 232Q184 232 136 263T59 346T30 459Q30 531 64 589T158 682T291 717Q345 717 392 698T474 646T530 568T550 475Q550 439 544 405T525 334T495 259T454
174L366 0H208ZM282 366Q313 366 337 380T374 417T388 470Q388 501 375 525T338 564T283 578Q253 578 231 565T195 527T181 470Q181 443 194 420T231 381T282 366Z" />
<glyph unicode=":" horiz-adv-x="257" d="M128 -11Q87 -11 65 12T42 78Q42 118 66 143T128 168Q169 168 192 145T215 78Q215 39 191 14T128 -11ZM128 362Q87 362 65 385T42 451Q42 491 66 516T128 541Q169 541 192 518T215 451Q215 412 191 387T128 362Z" />
<glyph unicode=";" horiz-adv-x="291" d="M89 -200L43 -143Q83 -125 107 -98T131 -50Q131 -41 127 -31T104 -7Q81 10 73 26T65 63Q65 94 87 112T146 130Q175 130 198 114T235 70T249 5Q249 -29 237 -60T204 -119T153 -168T89 -200ZM143 363Q102 363 80 386T57
452Q57 492 81 517T143 542Q184 542 207 519T230 452Q230 413 206 388T143 363Z" />
<glyph unicode="&lt;" horiz-adv-x="525" d="M429 -13L41 209V306L429 528L495 401L155 223V292L495 113L429 -13Z" />
<glyph unicode="=" horiz-adv-x="623" d="M67 325V455H556V325H67ZM67 108V237H556V108H67Z" />
<glyph unicode="&gt;" horiz-adv-x="526" d="M105 -13L40 113L379 292V223L40 401L105 528L493 306V209L105 -13Z" />
<glyph unicode="?" horiz-adv-x="536" d="M195 240L163 371Q192 378 218 387T266 408T303 433T328 465T337 503Q337 523 327 537T300 560T260 568Q227 568 194 545T133 469L24 570Q69 639 131 677T262 715Q328 715 381 689T465 616T496 511Q496 474 481 438T438
371T373 315T291 278L281 240H195ZM159 78Q159 118 183 143T245 168Q286 168 309 145T332 78Q332 39 308 14T245 -11Q204 -11 182 12T159 78Z" />
<glyph unicode="@" horiz-adv-x="965" d="M414 -162Q327 -162 258 -136T140 -61T66 56T40 206Q40 323 81 416T196 575T367 675T576 710Q656 710 720 688T830 623T900 524T925 396Q925 327 906 265T851 154T770 77T669 49Q631 49 601 62T555 98T538 153Q538 169
539 186T542 222L568 202Q552 153 527 119T468 67T394 49Q348 49 312 73T255 139T234 237Q234 286 252 336T303 428T381 495T477 521Q508 521 532 505T572 460T591 393L560 365L589 510H733L674 194Q671 177 676 168T690 153T711 148Q739 148 763 167T804 220T832
298T842 391Q842 467 810 520T716 603T570 632Q467 632 385 603T244 520T155 387T124 209Q124 140 143 87T200 -5T292 -62T417 -82Q464 -82 498 -76T563 -56T632 -22L669 -89Q610 -119 568 -134T490 -156T414 -162ZM436 170Q462 170 486 187T529 232T553 295Q555
309 557 320T559 343Q559 362 553 376T533 399T498 407Q467 407 442 384T401 323T386 242Q386 209 399 190T436 170Z" />
<glyph unicode="A" horiz-adv-x="694" d="M-1 0L276 700H420L695 0H523L391 355Q383 376 375 400T359 449T344 499T331 545L361 546Q355 521 348 497T333 450T316 403T299 354L167 0H-1ZM131 134L184 262H506L558 134H131Z" />
<glyph unicode="B" horiz-adv-x="701" d="M88 0V700H397Q469 700 519 680T594 621T620 528Q620 468 591 427T505 372L503 391Q550 381 584 356T638 295T657 212Q657 159 639 120T587 53T508 13T407 0H88ZM248 142H401Q429 142 448 151T479 177T490 220Q490 243
479 259T446 283T396 292H248V142ZM248 419H373Q399 419 417 427T445 451T455 489Q455 521 433 539T367 558H248V419Z" />
<glyph unicode="C" horiz-adv-x="694" d="M406 -10Q327 -10 261 16T145 91T70 206T43 353Q43 431 71 497T148 611T265 687T413 714Q463 714 511 701T600 663T672 602L568 483Q547 505 524 521T472 547T412 556Q372 556 337 542T275 501T233 436T218 351Q218 305
233 268T275 203T340 162T426 148Q458 148 487 157T540 181T584 217L666 87Q641 59 600 37T508 3T406 -10Z" />
<glyph unicode="D" horiz-adv-x="772" d="M88 0V700H381Q458 700 522 675T632 602T704 491T729 350Q729 273 704 209T633 98T522 26T381 0H88ZM258 116L235 150H376Q418 150 451 164T507 205T544 268T557 350Q557 395 544 432T508 495T451 535T376 550H232L258 582V116Z" />
<glyph unicode="E" horiz-adv-x="645" d="M88 0V700H576V555H253V145H586V0H88ZM168 287V425H531V287H168Z" />
<glyph unicode="F" horiz-adv-x="618" d="M88 0V700H258V0H88ZM167 268V410H529V268H167ZM167 550V700H570V550H167Z" />
<glyph unicode="G" horiz-adv-x="782" d="M413 -10Q329 -10 261 17T144 93T69 208T43 353Q43 431 70 496T149 611T269 687T421 714Q479 714 530 699T624 658T695 598L592 489Q567 513 541 529T484 554T420 564Q376 564 340 548T276 504T233 437T218 353Q218 308
234 269T278 202T344 157T427 140Q458 140 485 150T533 177T565 217T577 268V294L599 260H406V393H735Q737 382 738 363T739 326T740 299Q740 231 716 175T647 77T543 13T413 -10Z" />
<glyph unicode="H" horiz-adv-x="779" d="M522 0V700H692V0H522ZM88 0V700H258V0H88ZM154 273L155 425H612V273H154Z" />
<glyph unicode="I" horiz-adv-x="555" d="M74 0V143H192V557H74V700H481V557H362V143H481V0H74Z" />
<glyph unicode="J" horiz-adv-x="665" d="M261 -10Q223 -10 189 -2T127 23T77 63T39 116L136 217Q150 196 163 183T188 160T214 147T243 143Q267 143 285 154T314 186T324 233V552H196V700H598V552H490V213Q490 162 473 121T424 51T352 6T261 -10Z" />
<glyph unicode="K" horiz-adv-x="739" d="M212 205L168 348L515 700H716L212 205ZM88 0V700H258V0H88ZM537 0L277 342L392 441L735 0H537Z" />
<glyph unicode="L" horiz-adv-x="609" d="M88 0V700H258V150H570V0H88Z" />
<glyph unicode="M" horiz-adv-x="878" d="M88 0V700H240L495 285L386 286L644 700H790V0H625V218Q625 308 629 380T645 523L664 471L470 170H404L214 469L233 523Q244 456 248 386T253 218V0H88Z" />
<glyph unicode="N" horiz-adv-x="807" d="M88 0V700H240L607 200L574 205Q569 238 566 268T561 327T557 386T555 451T554 527V700H719V0H565L182 516L233 509Q238 461 241 428T247 368T251 321T252 280T253 234V0H88Z" />
<glyph unicode="O" horiz-adv-x="812" d="M407 -10Q327 -10 261 17T146 93T70 208T43 353Q43 432 70 498T146 613T261 689T406 716Q485 716 551 689T666 613T741 498T768 353Q768 275 742 209T666 93T551 17T407 -10ZM406 150Q447 150 481 165T541 207T581 272T595
353Q595 397 581 434T542 498T482 541T406 556Q365 556 331 541T270 499T231 434T217 353Q217 309 230 272T270 207T330 165T406 150Z" />
<glyph unicode="P" horiz-adv-x="662" d="M88 0V700H390Q456 700 507 670T589 588T620 471Q620 403 590 350T508 265T390 234H258V0H88ZM255 383H366Q388 383 406 394T435 424T446 468Q446 494 435 512T406 540T366 550H255V383Z" />
<glyph unicode="Q" horiz-adv-x="812" d="M615 -110L347 253L472 340L737 -20L615 -110ZM406 -10Q327 -10 261 17T146 93T70 208T43 353Q43 432 70 498T146 613T261 689T406 716Q485 716 551 689T666 613T741 498T768 353Q768 275 742 209T666 93T551 17T406 -10ZM406
150Q447 150 481 165T541 207T581 272T595 353Q595 397 581 434T542 498T482 541T406 556Q365 556 331 541T270 499T231 434T217 353Q217 309 230 272T270 207T330 165T406 150Z" />
<glyph unicode="R" horiz-adv-x="702" d="M88 0V700H403Q470 700 524 671T610 592T641 477Q641 411 610 359T525 276T403 246H250V0H88ZM476 0L298 316L472 341L670 0H476ZM250 376H388Q414 376 433 387T463 420T474 468Q474 495 462 515T428 547T373 558H250V376Z" />
<glyph unicode="S" horiz-adv-x="634" d="M320 -10Q251 -10 196 6T97 54T20 129L123 246Q173 179 223 156T328 133Q355 133 377 140T411 160T423 194Q423 209 416 221T395 242T364 258T326 271T285 281Q227 294 184 313T113 359T70 422T56 502Q56 549 77 588T135
656T220 700T320 716Q389 716 438 702T523 660T584 595L479 494Q458 520 434 537T382 563T325 572Q295 572 274 565T240 544T228 511Q228 494 238 482T265 461T304 445T350 434Q405 423 449 405T526 361T576 300T594 217Q594 144 559 94T462 17T320 -10Z" />
<glyph unicode="T" horiz-adv-x="655" d="M240 0V550H32V700H623V550H410V0H240Z" />
<glyph unicode="U" horiz-adv-x="765" d="M383 -6Q296 -6 228 29T122 127T83 269V700H255V278Q255 240 272 210T318 162T383 144Q421 144 450 161T498 209T516 278V700H682V269Q682 189 644 127T537 30T383 -6Z" />
<glyph unicode="V" horiz-adv-x="712" d="M284 0L4 700H181L316 343Q328 312 336 289T351 246T363 206T376 159H345Q353 193 361 219T379 274T404 343L534 700H708L426 0H284Z" />
<glyph unicode="W" horiz-adv-x="993" d="M214 0L4 700H177L282 332Q289 307 294 282T303 233T309 191T313 158H291Q297 195 301 224T312 278T327 332L431 609H567L669 332Q681 299 689 270T701 215T709 162L689 159Q691 177 692 192T694 222T698 253T704 288T715
333L819 700H988L778 0H648L482 403L501 401L348 0H214Z" />
<glyph unicode="X" horiz-adv-x="705" d="M499 0L282 314L4 700H211L423 390L706 0H499ZM-1 0L266 381L403 302L196 0H-1ZM439 325L303 401L499 700H696L439 325Z" />
<glyph unicode="Y" horiz-adv-x="689" d="M269 0V349L276 300L-7 700H186L402 390L314 393L509 700H696L425 289L440 357V0H269Z" />
<glyph unicode="Z" horiz-adv-x="683" d="M60 0V113L436 613L495 544H86V700H614V588L240 87L180 149H625V0H60Z" />
<glyph unicode="[" horiz-adv-x="420" d="M80 -190V700H377V563H228L234 571V-65L224 -53H377V-190H80Z" />
<glyph unicode="\" horiz-adv-x="584" d="M418 -107L20 700H180L580 -107H418Z" />
<glyph unicode="]" horiz-adv-x="420" d="M42 -190V-53H192L186 -61V575L196 563H42V700H340V-190H42Z" />
<glyph unicode="^" horiz-adv-x="592" d="M12 361L232 733H361L580 361H419L255 644L339 646L171 361H12Z" />
<glyph unicode="_" horiz-adv-x="687" d="M40 -192V-61H647V-192H40Z" />
<glyph unicode="`" horiz-adv-x="500" d="M329 584L124 694L197 798L376 656L329 584Z" />
<glyph unicode="a" horiz-adv-x="659" d="M267 -9Q200 -9 148 26T64 124T33 266Q33 347 64 409T149 506T272 542Q310 542 341 531T397 501T438 456T463 401L430 405V531H589V0H427V128L463 129Q455 101 437 76T393 32T335 2T267 -9ZM311 126Q348 126 375 143T417
191T432 266Q432 309 417 340T375 389T311 407Q275 407 249 390T207 341T192 266Q192 223 207 192T248 143T311 126Z" />
<glyph unicode="b" horiz-adv-x="658" d="M390 -11Q354 -11 321 -1T262 26T218 65T194 112L229 124L220 1H71V740H232V404L199 416Q205 442 222 464T265 504T322 532T386 542Q455 542 508 507T593 409T624 266Q624 185 594 123T510 25T390 -11ZM348 124Q384 124
411 142T452 191T467 266Q467 308 453 340T411 389T348 406Q311 406 284 389T242 340T227 266Q227 223 242 192T284 142T348 124Z" />
<glyph unicode="c" horiz-adv-x="545" d="M304 -10Q227 -10 166 26T70 124T34 266Q34 345 69 407T166 506T304 542Q375 542 434 517T529 447L442 343Q428 359 409 373T367 395T319 403Q281 403 252 386T207 337T191 266Q191 228 207 197T253 148T319 130Q345 130
367 136T407 156T442 188L528 83Q494 40 434 15T304 -10Z" />
<glyph unicode="d" horiz-adv-x="654" d="M272 -11Q203 -11 150 24T65 122T34 265Q34 345 65 407T150 506T274 542Q310 542 343 531T403 501T447 458T467 407L429 398V740H590V0H441L432 121L464 116Q461 91 445 68T402 28T343 0T272 -11ZM313 122Q350 122 377
140T418 190T433 265Q433 309 419 341T377 391T313 409Q276 409 250 391T208 341T193 265Q193 222 208 190T249 140T313 122Z" />
<glyph unicode="e" horiz-adv-x="586" d="M324 -10Q236 -10 171 25T70 122T34 263Q34 324 54 375T110 463T195 521T304 542Q360 542 406 522T487 466T539 381T555 274L554 231H131L108 321H424L407 302V322Q405 347 392 366T356 397T306 408Q267 408 240 393T198
348T184 275Q184 231 202 199T256 148T341 130Q375 130 401 140T459 174L534 68Q503 41 468 24T397 -1T324 -10Z" />
<glyph unicode="f" horiz-adv-x="393" d="M104 0V557Q104 609 126 651T189 717T284 742Q322 742 354 731T411 700L365 583Q352 590 340 594T318 598Q300 598 288 592T271 574T265 543V0H185Q158 0 138 0T104 0ZM27 384V516H374V384H27Z" />
<glyph unicode="g" horiz-adv-x="669" d="M314 -230Q249 -230 185 -211T80 -162L136 -50Q157 -64 182 -74T236 -91T293 -97Q344 -97 376 -82T424 -37T440 40V129L471 124Q464 91 437 64T369 21T284 4Q212 4 156 37T67 130T34 268Q34 348 66 409T154 506T280 542Q310
542 337 535T388 517T430 490T460 456T476 419L443 411L449 531H601V43Q601 -22 582 -72T525 -158T434 -212T314 -230ZM318 128Q357 128 385 145T429 194T445 267Q445 309 430 340T386 389T318 407Q280 407 252 390T209 341T193 267Q193 225 208 194T252 146T318
128Z" />
<glyph unicode="h" horiz-adv-x="635" d="M71 0V740H228V423L196 411Q207 447 235 476T304 524T388 542Q448 542 489 518T551 445T572 326V0H411V313Q411 345 402 366T375 397T329 407Q308 407 290 401T259 382T239 353T231 318V0H152Q124 0 104 0T71 0Z" />
<glyph unicode="i" horiz-adv-x="319" d="M80 0V531H240V0H80ZM160 636Q115 636 90 657T64 719Q64 755 90 778T160 801Q205 801 230 780T255 719Q255 682 230 659T160 636Z" />
<glyph unicode="j" horiz-adv-x="316" d="M23 -210L-38 -86Q8 -86 34 -74T71 -35T82 41V531H242V3Q242 -70 217 -117T143 -187T23 -210ZM165 636Q120 636 95 657T69 719Q69 755 95 778T165 801Q210 801 235 780T260 719Q260 682 235 659T165 636Z" />
<glyph unicode="k" horiz-adv-x="626" d="M225 156L166 276L414 531H625L225 156ZM71 0V740H231V0H71ZM431 0L244 242L357 330L620 0H431Z" />
<glyph unicode="l" horiz-adv-x="304" d="M72 0V740H232V0H72Z" />
<glyph unicode="m" horiz-adv-x="962" d="M70 0V531H222L227 435L206 434Q218 460 236 480T278 513T327 534T379 541Q418 541 450 529T506 491T544 419L519 421L527 437Q540 461 560 480T606 513T658 534T710 541Q773 541 815 517T878 443T900 324V0H739V311Q739
343 730 364T704 395T660 406Q639 406 622 399T592 380T572 352T565 316V0H404V312Q404 342 395 363T368 395T326 406Q305 406 288 399T258 380T238 352T231 317V0H70Z" />
<glyph unicode="n" horiz-adv-x="635" d="M71 0V531H223L228 423L196 411Q207 447 235 476T304 524T388 542Q448 542 489 518T551 445T572 326V0H411V313Q411 345 402 366T375 397T329 407Q308 407 290 401T259 382T239 353T231 318V0H152Q124 0 104 0T71 0Z" />
<glyph unicode="o" horiz-adv-x="641" d="M321 -10Q238 -10 174 26T72 124T34 266Q34 346 71 408T173 506T321 542Q404 542 468 506T570 408T607 266Q607 186 570 124T469 26T321 -10ZM321 128Q357 128 385 146T429 195T444 266Q445 306 429 337T385 387T321 405Q285
405 257 387T212 338T197 266Q196 226 212 195T256 146T321 128Z" />
<glyph unicode="p" horiz-adv-x="659" d="M71 -220V531H223L229 412L199 421Q206 454 233 481T301 524T389 541Q457 541 510 506T593 409T624 266Q624 186 594 124T510 27T387 -9Q342 -9 301 8T232 54T195 117L232 131V-220H71ZM348 126Q384 126 411 143T453 192T468
266Q468 308 453 339T412 388T348 406Q311 406 284 389T242 340T227 266Q227 223 242 192T284 144T348 126Z" />
<glyph unicode="q" horiz-adv-x="658" d="M426 -220V128L461 120Q457 95 440 72T398 30T340 2T274 -9Q204 -9 150 26T65 124T34 266Q34 347 64 409T148 506T269 542Q307 542 341 531T402 502T446 461T465 411L429 405L435 531H587V-220H426ZM310 126Q347 126 374
143T416 191T431 266Q431 309 416 340T374 389T310 407Q274 407 247 390T206 340T191 266Q191 223 205 192T247 143T310 126Z" />
<glyph unicode="r" horiz-adv-x="455" d="M71 0V531H223L230 358L200 391Q212 434 239 468T304 522T383 542Q401 542 416 539T445 532L401 355Q390 362 372 366T333 371Q311 371 292 364T260 342T240 309T232 266V0H71Z" />
<glyph unicode="s" horiz-adv-x="495" d="M250 -10Q172 -10 113 15T18 82L115 166Q146 135 185 121T259 106Q273 106 284 109T302 117T314 130T318 148Q318 168 300 179Q291 184 270 191T216 207Q169 219 135 235T78 274Q58 295 47 320T36 378Q36 415 53 445T100
497T168 530T248 542Q292 542 332 532T406 504T468 461L384 367Q366 384 344 397T297 419T253 427Q238 427 227 425T207 417T195 404T191 386Q191 376 196 367T212 352Q222 346 244 339T304 320Q351 307 385 291T439 253Q455 236 463 214T471 165Q471 114 443 75T364
13T250 -10Z" />
<glyph unicode="t" horiz-adv-x="398" d="M115 0V665H275V0H115ZM21 391V531H378V391H21Z" />
<glyph unicode="u" horiz-adv-x="642" d="M252 -11Q193 -11 152 14T88 88T65 203V531H226V225Q226 193 236 170T266 135T314 122Q335 122 352 129T382 148T402 177T409 214V531H570V0H419L412 109L442 121Q430 83 402 54T335 7T252 -11Z" />
<glyph unicode="v" horiz-adv-x="605" d="M234 0L12 531H189L321 134L282 130L418 531H593L360 0H234Z" />
<glyph unicode="w" horiz-adv-x="834" d="M187 0L12 531H181L279 186L258 190L368 458H462L578 189L555 187L653 531H822L641 0H523L408 285L420 283L305 0H187Z" />
<glyph unicode="x" horiz-adv-x="606" d="M398 0L285 171L233 244L23 531H215L324 368L381 290L588 0H398ZM18 0L232 298L318 195L207 0H18ZM369 231L284 333L389 531H578L369 231Z" />
<glyph unicode="y" horiz-adv-x="620" d="M138 -230L259 55L261 -27L5 531H186L298 264Q307 244 315 221T327 177L305 164Q311 179 318 201T335 250L433 531H615L389 0L297 -230H138Z" />
<glyph unicode="z" horiz-adv-x="550" d="M50 0V92L332 454V401H50V531H490V435L223 84L219 130H499V0H50Z" />
<glyph unicode="{" horiz-adv-x="427" d="M364 -206Q313 -195 275 -179T212 -139T175 -82T163 -7L164 88Q164 138 142 162T79 187H39V313H81Q122 314 143 337T164 412L163 507Q163 589 211 636T364 706L399 591Q364 579 344 568T316 536T307 482L309 398Q309 340
274 301T163 243L162 258Q238 237 273 198T309 102L307 18Q307 -14 315 -32T344 -62T399 -85L364 -206Z" />
<glyph unicode="|" horiz-adv-x="318" d="M83 -193V740H235V-193H83Z" />
<glyph unicode="}" horiz-adv-x="427" d="M63 -206L27 -91Q63 -79 82 -68T110 -36T119 18L117 102Q117 160 152 199T264 257V242Q188 263 153 302T117 398L119 482Q119 514 111 532T83 562T27 585L63 706Q114 696 152 679T214 639T251 582T264 507L263 412Q263
362 284 338T348 313H388V187H346Q304 186 284 163T263 88L264 -7Q264 -89 215 -136T63 -206Z" />
<glyph unicode="~" horiz-adv-x="558" d="M383 202Q366 202 347 206T308 218T272 232Q257 239 241 245T210 255T186 259Q167 259 157 243T147 196H32Q32 292 69 343T184 394Q196 394 211 391T240 383T268 373T294 362Q307 357 321 351T348 341T372 337Q389 337
400 353T409 395L524 394Q524 331 508 289T461 224T383 202Z" />
<glyph unicode="&#xa0;" horiz-adv-x="320" />
<glyph unicode="&#xa1;" horiz-adv-x="309" d="M202 275Q210 214 218 150T231 21T236 -103V-181H67V-103Q67 -43 72 22T85 152T102 275H202ZM152 541Q194 541 216 518T239 452Q239 412 215 387T152 362Q111 362 89 385T66 452Q66 491 90 516T152 541Z" />
<glyph unicode="&#xa2;" horiz-adv-x="563" d="M321 78Q242 78 180 114T82 212T46 354Q46 433 82 495T180 594T321 630Q393 630 452 605T546 535L459 431Q446 447 427 461T384 483T336 491Q297 491 267 474T220 425T202 354Q202 316 219 285T267 236T336 218Q362
218 384 224T424 244T459 276L546 171Q511 128 451 103T321 78ZM265 0V108L291 146V556L265 606V706H385V605L363 559V143L385 107V0H265Z" />
<glyph unicode="&#xa3;" horiz-adv-x="638" d="M186 53L111 74Q129 84 143 104T166 148T175 196Q175 210 172 228T164 267T151 309T137 352Q125 389 119 413T111 454T108 487Q108 556 139 607T225 687T357 716Q428 716 480 692T558 625L437 531Q427 545 414 553T385
566T351 571Q323 571 301 559T267 525T254 475Q254 444 262 413T281 353Q292 318 300 286T308 229Q308 198 296 170T258 114T186 53ZM449 -21Q414 -21 379 -12T321 4Q308 8 291 13T255 22T217 26Q184 26 150 16T78 -12L21 102Q65 129 116 144T220 160Q250 160 274
155T342 135Q363 128 388 121T442 113Q464 113 491 121T548 148L621 43Q586 11 538 -5T449 -21ZM44 303V397H469V303H44Z" />
<glyph unicode="&#xa4;" horiz-adv-x="560" d="M282 109Q223 109 176 134T101 204T73 305Q73 362 100 406T175 476T282 502Q341 502 388 476T462 406T489 305Q489 249 462 205T388 135T282 109ZM131 60L32 159L118 249L216 147L131 60ZM112 370L28 452L127 551L213
467L112 370ZM282 227Q303 227 319 237T345 264T354 305Q354 329 345 347T320 375T282 385Q261 385 245 375T219 347T209 305Q209 282 218 265T244 237T282 227ZM435 64L347 149L444 249L534 163L435 64ZM443 362L344 460L435 555L534 456L443 362Z" />
<glyph unicode="&#xa5;" horiz-adv-x="689" d="M269 0V349L276 300L-7 700H186L402 390L314 393L509 700H696L425 289L440 357V0H269ZM142 123V194H577V122L142 123ZM142 246V317L577 316V245L142 246Z" />
<glyph unicode="&#xa6;" horiz-adv-x="324" d="M85 -202V192H239V-202H85ZM85 347V740H239V347H85Z" />
<glyph unicode="&#xa7;" horiz-adv-x="575" d="M348 132L308 212Q336 215 354 223T380 244T389 272Q389 290 376 302T332 326L247 355Q216 368 186 384T133 423T95 476T80 547Q80 581 93 612T134 666T205 703T308 716Q356 716 397 706T471 675T528 627L445 537Q419
560 395 572T349 590T307 596Q272 596 253 582T233 546Q233 530 243 518T272 496T313 478L398 446Q471 419 506 380T541 284Q539 240 516 207T450 155T348 132ZM271 -142Q222 -142 178 -130T97 -97T35 -50L115 45Q158 9 198 -7T270 -23Q307 -23 327 -10T347 27Q347
43 335 54T303 75T259 94L174 125Q104 151 69 191T34 287Q34 328 56 361T119 416T220 440L259 356Q237 354 222 346T198 326T190 298Q190 279 205 266T253 240L324 215Q376 195 415 172T477 115T500 34Q500 -16 476 -55T402 -118T271 -142Z" />
<glyph unicode="&#xa8;" horiz-adv-x="500" d="M371 626Q329 626 307 648T284 711Q284 749 307 772T371 796Q412 796 434 774T457 711Q457 673 434 650T371 626ZM130 626Q88 626 66 648T43 711Q43 749 66 772T130 796Q172 796 194 774T217 711Q217 673 194 650T130 626Z" />
<glyph unicode="&#xa9;" horiz-adv-x="791" d="M395 -18Q317 -18 251 10T134 88T55 206T26 350Q26 427 54 494T133 611T250 690T395 718Q471 718 538 690T655 612T734 494T763 350Q763 273 735 206T656 89T538 10T395 -18ZM410 143Q351 143 303 170T227 243T198
349Q198 406 226 453T303 529T410 557Q446 557 480 545T546 509L497 404Q482 414 469 420T445 430T422 433Q397 433 378 422T347 392T335 349Q335 325 346 306T377 276T422 265Q440 265 459 271T500 294L550 187Q518 165 483 154T410 143ZM395 56Q456 56 509 78T603
141T666 235T689 350Q689 412 666 465T603 559T510 621T395 644Q333 644 280 622T186 559T123 466T100 350Q100 289 123 236T186 142T279 79T395 56Z" />
<glyph unicode="&#xaa;" horiz-adv-x="391" d="M140 390Q102 390 75 411T33 472T18 562Q18 608 35 644T82 701T152 722Q207 722 233 690T260 598L239 648V715H355V401H239V474L260 506Q260 477 246 451T204 407T140 390ZM186 481Q203 481 216 490T236 517T243
557Q243 591 228 611T185 631Q170 631 158 622T140 596T133 560Q133 536 139 518T157 491T186 481Z" />
<glyph unicode="&#xab;" horiz-adv-x="562" d="M433 26L257 252V265L433 492L524 429L402 242V276L525 90L433 26ZM186 26L10 252V265L186 492L277 429L155 242V276L278 90L186 26Z" />
<glyph unicode="&#xac;" horiz-adv-x="670" d="M478 106V319L543 277H41V415H629V106H478Z" />
<glyph unicode="&#xad;" horiz-adv-x="454" d="M57 214V361H403V214H57Z" />
<glyph unicode="&#xae;" horiz-adv-x="507" d="M260 236Q189 236 132 269T41 358T7 484Q7 536 26 581T80 660T161 713T260 732Q310 732 354 713T433 660T486 581T506 484Q506 432 487 387T434 308T356 255T260 236ZM260 300Q310 300 351 324T417 391T442 484Q442
535 418 577T352 644T260 669Q207 669 164 644T96 577T70 484Q70 432 95 390T164 324T260 300ZM293 367L256 456L324 472L379 367H293ZM159 367V606H280Q318 606 342 585T366 530Q366 496 341 474T280 452H225L239 464V367H159ZM239 495L226 502H260Q272 502 280
508T288 523Q288 533 282 539T262 545H224L239 553V495Z" />
<glyph unicode="&#xaf;" horiz-adv-x="424" d="M82 634V735H418V634H82Z" />
<glyph unicode="&#xb0;" horiz-adv-x="532" d="M266 393Q219 393 181 414T121 472T99 553Q99 599 120 635T180 693T266 715Q314 715 352 694T411 636T433 554Q433 509 411 473T351 415T266 393ZM266 489Q283 489 296 498T318 521T326 554Q326 572 318 586T297
609T266 618Q249 618 235 610T214 586T206 553Q206 535 214 521T235 498T266 489Z" />
<glyph unicode="&#xb1;" horiz-adv-x="641" d="M67 313V443H572V313H67ZM69 -6V125H573V-6H69ZM245 184V576H395V184H245Z" />
<glyph unicode="&#xb2;" horiz-adv-x="364" d="M60 418L47 502L149 585Q165 596 179 609T203 638T213 668Q213 681 206 689T186 697Q167 697 149 682T116 644L38 700Q59 731 83 752T134 784T195 795Q234 795 262 781T306 741T322 686Q322 646 303 616T256 564T199
523L145 483L147 508H332V418H60Z" />
<glyph unicode="&#xb3;" horiz-adv-x="356" d="M177 412Q149 412 126 415T81 426T36 446L81 524Q98 514 116 509T153 504Q176 504 190 514T204 543Q204 558 191 567T155 576Q142 576 128 574T99 567L76 628L219 727L227 698H63V789H282L292 704L172 618L166 625Q176
631 188 634T208 638Q254 638 284 610T314 534Q314 498 295 471T245 428T177 412Z" />
<glyph unicode="&#xb4;" horiz-adv-x="500" d="M171 583L124 656L303 798L376 693L171 583Z" />
<glyph unicode="&#xb5;" horiz-adv-x="639" d="M74 -162V531H232V222Q232 189 241 167T269 134T314 122Q335 122 352 129T383 150T403 181T410 219V531H568V0H420L414 100L429 90Q409 55 386 34T332 2T264 -11Q252 -11 242 -8T224 0T212 13L226 66L232 -162H74Z" />
<glyph unicode="&#xb6;" horiz-adv-x="763" d="M247 0V314L294 273H231Q177 273 135 300T68 375T43 483Q43 549 71 597T149 673T268 700H675V0H510V660L560 596H334L413 652V0H247Z" />
<glyph unicode="&#xb7;" horiz-adv-x="257" d="M128 253Q87 253 65 276T42 342Q42 382 66 407T128 432Q169 432 192 409T215 342Q215 303 191 278T128 253Z" />
<glyph unicode="&#xb8;" horiz-adv-x="500" d="M152 -246L142 -171Q163 -171 185 -166T223 -152T239 -131Q239 -119 228 -112T200 -102T168 -98L151 -84L220 24H302L256 -43Q308 -49 333 -75T359 -139Q359 -170 340 -190T289 -224T222 -242T152 -246Z" />
<glyph unicode="&#xb9;" horiz-adv-x="291" d="M116 430V722L133 681L72 643L26 726L143 796H230V430H173Q159 430 145 430T116 430Z" />
<glyph unicode="&#xba;" horiz-adv-x="400" d="M199 393Q151 393 113 413T53 470T31 553Q31 600 53 636T113 694T199 716Q247 716 285 695T346 636T368 553Q368 507 347 471T286 414T199 393ZM198 477Q215 477 227 487T247 514T254 555Q254 578 248 595T229 621T198
630Q182 630 170 621T151 594T144 555Q144 531 150 514T169 487T198 477Z" />
<glyph unicode="&#xbb;" horiz-adv-x="565" d="M378 29L287 92L409 279V245L286 431L378 495L553 269V256L378 29ZM129 29L38 92L160 279V245L37 431L129 495L304 269V256L129 29Z" />
<glyph unicode="&#xbc;" horiz-adv-x="821" d="M125 360V652L142 611L81 573L35 656L152 726H239V360H182Q168 360 154 360T125 360ZM89 0L556 700H701L233 0H89ZM712 159H786V69H712V159ZM527 125L511 159H658L624 125V283L653 272L527 125ZM728 -1H607V103L638
69H461L441 149L622 369H728V-1Z" />
<glyph unicode="&#xbd;" horiz-adv-x="827" d="M125 360V652L142 611L81 573L35 656L152 726H239V360H182Q168 360 154 360T125 360ZM89 0L556 700H701L233 0H89ZM519 0L506 84L608 167Q624 178 638 191T662 220T672 250Q672 263 665 271T645 279Q626 279 608
264T575 226L497 282Q518 313 542 334T593 366T654 377Q693 377 721 363T765 323T781 268Q781 228 762 198T715 146T658 105L604 65L606 90H791V0H519Z" />
<glyph unicode="&#xbe;" horiz-adv-x="850" d="M164 342Q136 342 113 345T68 356T23 376L68 454Q85 444 103 439T140 434Q163 434 177 444T191 473Q191 488 178 497T142 506Q129 506 115 504T86 497L63 558L206 657L214 628H50V719H269L279 634L159 548L153 555Q163
561 175 564T195 568Q241 568 271 540T301 464Q301 428 282 401T232 358T164 342ZM123 0L590 700H735L267 0H123ZM741 159H815V69H741V159ZM556 125L540 159H687L653 125V283L682 272L556 125ZM757 -1H636V103L667 69H490L470 149L651 369H757V-1Z" />
<glyph unicode="&#xbf;" horiz-adv-x="536" d="M324 294L356 163Q327 156 301 147T254 126T216 101T192 69T183 31Q183 12 192 -3T219 -26T259 -34Q293 -34 325 -11T386 65L496 -36Q450 -105 388 -143T257 -181Q191 -181 139 -155T55 -82T24 23Q24 61 39 96T81
163T146 219T228 256L238 294H324ZM360 456Q360 416 337 391T274 366Q233 366 211 389T188 456Q188 495 212 520T274 545Q315 545 337 522T360 456Z" />
<glyph unicode="&#xc0;" horiz-adv-x="694" d="M-1 0L276 700H420L695 0H523L391 355Q383 376 375 400T359 449T344 499T331 545L361 546Q355 521 348 497T333 450T316 403T299 354L167 0H-1ZM131 134L184 262H506L558 134H131ZM445 748L218 826L273 943L482 828L445
748Z" />
<glyph unicode="&#xc1;" horiz-adv-x="694" d="M-1 0L276 700H420L695 0H523L391 355Q383 376 375 400T359 449T344 499T331 545L361 546Q355 521 348 497T333 450T316 403T299 354L167 0H-1ZM131 134L184 262H506L558 134H131ZM258 748L221 828L430 943L485 826L258
748Z" />
<glyph unicode="&#xc2;" horiz-adv-x="694" d="M-1 0L276 700H420L695 0H523L391 355Q383 376 375 400T359 449T344 499T331 545L361 546Q355 521 348 497T333 450T316 403T299 354L167 0H-1ZM131 134L184 262H506L558 134H131ZM215 754L166 811L302 917H392L528
811L479 754L332 825H362L215 754Z" />
<glyph unicode="&#xc3;" horiz-adv-x="694" d="M-1 0L276 700H420L695 0H523L391 355Q383 376 375 400T359 449T344 499T331 545L361 546Q355 521 348 497T333 450T316 403T299 354L167 0H-1ZM131 134L184 262H506L558 134H131ZM424 768Q404 768 384 774T340 790Q322
799 310 803T287 807Q273 807 265 797T256 769H156Q156 835 192 872T284 910Q302 910 319 905T364 888Q380 880 391 876T411 872Q424 872 431 882T438 910H537Q537 872 523 839T483 787T424 768Z" />
<glyph unicode="&#xc4;" horiz-adv-x="694" d="M-1 0L276 700H420L695 0H523L391 355Q383 376 375 400T359 449T344 499T331 545L361 546Q355 521 348 497T333 450T316 403T299 354L167 0H-1ZM131 134L184 262H506L558 134H131ZM469 754Q426 754 404 776T382 839Q382
875 405 899T469 924Q511 924 533 902T556 839Q556 803 533 779T469 754ZM226 754Q183 754 161 776T139 839Q139 875 161 899T226 924Q268 924 290 902T312 839Q312 803 290 779T226 754Z" />
<glyph unicode="&#xc5;" horiz-adv-x="694" d="M-1 0L276 700H420L695 0H523L391 355Q383 376 375 400T359 449T344 499T331 545L361 546Q355 521 348 497T333 450T316 403T299 354L167 0H-1ZM131 134L184 262H506L558 134H131ZM347 673Q312 673 282 690T233 735T214
795Q214 831 232 860T281 907T347 924Q382 924 412 907T460 861T479 795Q479 763 461 735T412 690T347 673ZM347 755Q364 755 376 767T388 795Q388 814 376 825T347 837Q330 837 318 826T306 795Q306 779 318 767T347 755Z" />
<glyph unicode="&#xc6;" horiz-adv-x="1075" d="M-9 0L479 700H1016V560H688V422H971V287H688V140H1016V0H526V143H257L348 276H526V558L551 550L175 0H-9Z" />
<glyph unicode="&#xc7;" horiz-adv-x="694" d="M406 -10Q327 -10 261 16T145 91T70 206T43 353Q43 431 71 497T148 611T265 687T413 714Q463 714 511 701T600 663T672 602L568 483Q547 505 524 521T472 547T412 556Q372 556 337 542T275 501T233 436T218 351Q218
305 233 268T275 203T340 162T426 148Q458 148 487 157T540 181T584 217L666 87Q641 59 600 37T508 3T406 -10ZM298 -246L289 -171Q309 -171 331 -166T370 -152T386 -131Q386 -119 375 -112T347 -102T315 -98L297 -84L366 24H448L403 -43Q455 -49 480 -75T505 -139Q505
-170 486 -190T436 -224T369 -242T298 -246Z" />
<glyph unicode="&#xc8;" horiz-adv-x="645" d="M88 0V700H576V555H253V145H586V0H88ZM168 287V425H531V287H168ZM441 748L214 826L269 943L478 828L441 748Z" />
<glyph unicode="&#xc9;" horiz-adv-x="645" d="M88 0V700H576V555H253V145H586V0H88ZM168 287V425H531V287H168ZM254 748L217 828L426 943L481 826L254 748Z" />
<glyph unicode="&#xca;" horiz-adv-x="645" d="M88 0V700H576V555H253V145H586V0H88ZM168 287V425H531V287H168ZM210 754L161 811L297 917H387L523 811L474 754L327 825H357L210 754Z" />
<glyph unicode="&#xcb;" horiz-adv-x="645" d="M88 0V700H576V555H253V145H586V0H88ZM168 287V425H531V287H168ZM464 754Q421 754 399 776T377 839Q377 875 400 899T464 924Q506 924 528 902T551 839Q551 803 528 779T464 754ZM221 754Q178 754 156 776T134 839Q134
875 156 899T221 924Q263 924 285 902T307 839Q307 803 285 779T221 754Z" />
<glyph unicode="&#xcc;" horiz-adv-x="555" d="M74 0V143H192V557H74V700H481V557H362V143H481V0H74ZM376 748L149 826L204 943L413 828L376 748Z" />
<glyph unicode="&#xcd;" horiz-adv-x="555" d="M74 0V143H192V557H74V700H481V557H362V143H481V0H74ZM189 748L152 828L361 943L416 826L189 748Z" />
<glyph unicode="&#xce;" horiz-adv-x="555" d="M74 0V143H192V557H74V700H481V557H362V143H481V0H74ZM145 754L96 811L232 917H322L458 811L409 754L262 825H292L145 754Z" />
<glyph unicode="&#xcf;" horiz-adv-x="555" d="M74 0V143H192V557H74V700H481V557H362V143H481V0H74ZM399 754Q356 754 334 776T312 839Q312 875 335 899T399 924Q441 924 463 902T486 839Q486 803 463 779T399 754ZM156 754Q113 754 91 776T69 839Q69 875 91
899T156 924Q198 924 220 902T242 839Q242 803 220 779T156 754Z" />
<glyph unicode="&#xd0;" horiz-adv-x="772" d="M35 291V409H361V291H35ZM88 0V700H381Q458 700 522 675T632 602T704 491T729 350Q729 273 704 209T633 98T522 26T381 0H88ZM258 116L235 150H376Q418 150 451 164T507 205T544 268T557 350Q557 395 544 432T508
495T451 535T376 550H232L258 582V116Z" />
<glyph unicode="&#xd1;" horiz-adv-x="807" d="M88 0V700H240L607 200L574 205Q569 238 566 268T561 327T557 386T555 451T554 527V700H719V0H565L182 516L233 509Q238 461 241 428T247 368T251 321T252 280T253 234V0H88ZM481 768Q461 768 441 774T397 790Q379
799 367 803T344 807Q330 807 322 797T313 769H213Q213 835 249 872T341 910Q359 910 376 905T421 888Q437 880 448 876T468 872Q481 872 488 882T495 910H594Q594 872 580 839T540 787T481 768Z" />
<glyph unicode="&#xd2;" horiz-adv-x="812" d="M407 -10Q327 -10 261 17T146 93T70 208T43 353Q43 432 70 498T146 613T261 689T406 716Q485 716 551 689T666 613T741 498T768 353Q768 275 742 209T666 93T551 17T407 -10ZM406 150Q447 150 481 165T541 207T581
272T595 353Q595 397 581 434T542 498T482 541T406 556Q365 556 331 541T270 499T231 434T217 353Q217 309 230 272T270 207T330 165T406 150ZM504 748L277 826L332 943L541 828L504 748Z" />
<glyph unicode="&#xd3;" horiz-adv-x="812" d="M407 -10Q327 -10 261 17T146 93T70 208T43 353Q43 432 70 498T146 613T261 689T406 716Q485 716 551 689T666 613T741 498T768 353Q768 275 742 209T666 93T551 17T407 -10ZM406 150Q447 150 481 165T541 207T581
272T595 353Q595 397 581 434T542 498T482 541T406 556Q365 556 331 541T270 499T231 434T217 353Q217 309 230 272T270 207T330 165T406 150ZM317 748L280 828L489 943L544 826L317 748Z" />
<glyph unicode="&#xd4;" horiz-adv-x="812" d="M407 -10Q327 -10 261 17T146 93T70 208T43 353Q43 432 70 498T146 613T261 689T406 716Q485 716 551 689T666 613T741 498T768 353Q768 275 742 209T666 93T551 17T407 -10ZM406 150Q447 150 481 165T541 207T581
272T595 353Q595 397 581 434T542 498T482 541T406 556Q365 556 331 541T270 499T231 434T217 353Q217 309 230 272T270 207T330 165T406 150ZM274 754L225 811L361 917H451L587 811L538 754L391 825H421L274 754Z" />
<glyph unicode="&#xd5;" horiz-adv-x="812" d="M407 -10Q327 -10 261 17T146 93T70 208T43 353Q43 432 70 498T146 613T261 689T406 716Q485 716 551 689T666 613T741 498T768 353Q768 275 742 209T666 93T551 17T407 -10ZM406 150Q447 150 481 165T541 207T581
272T595 353Q595 397 581 434T542 498T482 541T406 556Q365 556 331 541T270 499T231 434T217 353Q217 309 230 272T270 207T330 165T406 150ZM483 768Q463 768 443 774T399 790Q381 799 369 803T346 807Q332 807 324 797T315 769H215Q215 835 251 872T343 910Q361
910 378 905T423 888Q439 880 450 876T470 872Q483 872 490 882T497 910H596Q596 872 582 839T542 787T483 768Z" />
<glyph unicode="&#xd6;" horiz-adv-x="812" d="M407 -10Q327 -10 261 17T146 93T70 208T43 353Q43 432 70 498T146 613T261 689T406 716Q485 716 551 689T666 613T741 498T768 353Q768 275 742 209T666 93T551 17T407 -10ZM406 150Q447 150 481 165T541 207T581
272T595 353Q595 397 581 434T542 498T482 541T406 556Q365 556 331 541T270 499T231 434T217 353Q217 309 230 272T270 207T330 165T406 150ZM527 754Q484 754 462 776T440 839Q440 875 463 899T527 924Q569 924 591 902T614 839Q614 803 591 779T527 754ZM284
754Q241 754 219 776T197 839Q197 875 219 899T284 924Q326 924 348 902T370 839Q370 803 348 779T284 754Z" />
<glyph unicode="&#xd7;" horiz-adv-x="532" d="M398 53L38 413L134 507L494 147L398 53ZM134 50L40 147L399 507L494 411L134 50Z" />
<glyph unicode="&#xd8;" horiz-adv-x="807" d="M139 -33L76 20L665 741L733 694L139 -33ZM406 -10Q327 -10 261 17T145 93T70 208T43 353Q43 432 69 498T145 613T260 689T406 716Q485 716 551 689T666 613T741 498T768 353Q768 275 742 209T666 93T551 17T406
-10ZM406 150Q447 150 481 165T541 207T581 272T595 353Q595 397 581 434T542 498T482 541T406 556Q364 556 330 541T270 499T230 434T216 353Q216 309 230 272T269 207T329 165T406 150Z" />
<glyph unicode="&#xd9;" horiz-adv-x="765" d="M383 -6Q296 -6 228 29T122 127T83 269V700H255V278Q255 240 272 210T318 162T383 144Q421 144 450 161T498 209T516 278V700H682V269Q682 189 644 127T537 30T383 -6ZM481 748L254 826L309 943L518 828L481 748Z" />
<glyph unicode="&#xda;" horiz-adv-x="765" d="M383 -6Q296 -6 228 29T122 127T83 269V700H255V278Q255 240 272 210T318 162T383 144Q421 144 450 161T498 209T516 278V700H682V269Q682 189 644 127T537 30T383 -6ZM294 748L257 828L466 943L521 826L294 748Z" />
<glyph unicode="&#xdb;" horiz-adv-x="765" d="M383 -6Q296 -6 228 29T122 127T83 269V700H255V278Q255 240 272 210T318 162T383 144Q421 144 450 161T498 209T516 278V700H682V269Q682 189 644 127T537 30T383 -6ZM250 754L201 811L337 917H427L563 811L514
754L367 825H397L250 754Z" />
<glyph unicode="&#xdc;" horiz-adv-x="765" d="M383 -6Q296 -6 228 29T122 127T83 269V700H255V278Q255 240 272 210T318 162T383 144Q421 144 450 161T498 209T516 278V700H682V269Q682 189 644 127T537 30T383 -6ZM504 754Q461 754 439 776T417 839Q417 875
440 899T504 924Q546 924 568 902T591 839Q591 803 568 779T504 754ZM261 754Q218 754 196 776T174 839Q174 875 196 899T261 924Q303 924 325 902T347 839Q347 803 325 779T261 754Z" />
<glyph unicode="&#xdd;" horiz-adv-x="689" d="M269 0V349L276 300L-7 700H186L402 390L314 393L509 700H696L425 289L440 357V0H269ZM256 748L219 828L428 943L483 826L256 748Z" />
<glyph unicode="&#xde;" horiz-adv-x="662" d="M88 0V700H258V589H390Q456 589 507 559T589 477T620 359Q620 292 590 238T508 153T390 122H258V0H88ZM258 272H366Q388 272 406 283T435 313T446 357Q446 382 435 400T406 428T366 439H258V272Z" />
<glyph unicode="&#xdf;" horiz-adv-x="667" d="M427 -10Q385 -10 353 3T295 41L358 151Q376 136 391 131T422 125Q453 125 471 145T489 202Q489 230 478 252T447 293T400 324T343 349V434Q364 443 379 453T403 474T417 498T421 525Q421 556 400 572T343 589Q303
589 283 565T262 498V0H104V499Q104 569 133 622T217 704T349 734Q413 734 463 714T542 656T571 565Q571 533 558 501T519 443T459 401L457 437Q499 424 533 402T592 351T630 284T644 203Q644 142 616 94T539 18T427 -10ZM27 364V502H178V364H27Z" />
<glyph unicode="&#xe0;" horiz-adv-x="659" d="M267 -9Q200 -9 148 26T64 124T33 266Q33 347 64 409T149 506T272 542Q310 542 341 531T397 501T438 456T463 401L430 405V531H589V0H427V128L463 129Q455 101 437 76T393 32T335 2T267 -9ZM311 126Q348 126 375
143T417 191T432 266Q432 309 417 340T375 389T311 407Q275 407 249 390T207 341T192 266Q192 223 207 192T248 143T311 126ZM389 590L184 700L257 804L436 662L389 590Z" />
<glyph unicode="&#xe1;" horiz-adv-x="659" d="M267 -9Q200 -9 148 26T64 124T33 266Q33 347 64 409T149 506T272 542Q310 542 341 531T397 501T438 456T463 401L430 405V531H589V0H427V128L463 129Q455 101 437 76T393 32T335 2T267 -9ZM311 126Q348 126 375
143T417 191T432 266Q432 309 417 340T375 389T311 407Q275 407 249 390T207 341T192 266Q192 223 207 192T248 143T311 126ZM251 589L204 662L383 804L456 699L251 589Z" />
<glyph unicode="&#xe2;" horiz-adv-x="659" d="M267 -9Q200 -9 148 26T64 124T33 266Q33 347 64 409T149 506T272 542Q310 542 341 531T397 501T438 456T463 401L430 405V531H589V0H427V128L463 129Q455 101 437 76T393 32T335 2T267 -9ZM311 126Q348 126 375
143T417 191T432 266Q432 309 417 340T375 389T311 407Q275 407 249 390T207 341T192 266Q192 223 207 192T248 143T311 126ZM196 601L138 651L282 780H378L522 651L464 601L315 687H345L196 601Z" />
<glyph unicode="&#xe3;" horiz-adv-x="659" d="M267 -9Q200 -9 148 26T64 124T33 266Q33 347 64 409T149 506T272 542Q310 542 341 531T397 501T438 456T463 401L430 405V531H589V0H427V128L463 129Q455 101 437 76T393 32T335 2T267 -9ZM311 126Q348 126 375
143T417 191T432 266Q432 309 417 340T375 389T311 407Q275 407 249 390T207 341T192 266Q192 223 207 192T248 143T311 126ZM399 614Q382 614 364 620T323 642Q306 656 295 661T277 667Q263 667 252 656T238 619L149 632Q150 688 181 728T264 768Q281 768 298
762T338 741Q351 730 362 723T385 715Q399 715 409 727T422 763L512 750Q511 715 497 684T458 633T399 614Z" />
<glyph unicode="&#xe4;" horiz-adv-x="659" d="M267 -9Q200 -9 148 26T64 124T33 266Q33 347 64 409T149 506T272 542Q310 542 341 531T397 501T438 456T463 401L430 405V531H589V0H427V128L463 129Q455 101 437 76T393 32T335 2T267 -9ZM311 126Q348 126 375
143T417 191T432 266Q432 309 417 340T375 389T311 407Q275 407 249 390T207 341T192 266Q192 223 207 192T248 143T311 126ZM451 632Q409 632 387 654T364 717Q364 755 387 778T451 802Q492 802 514 780T537 717Q537 679 514 656T451 632ZM210 632Q168 632 146
654T123 717Q123 755 146 778T210 802Q252 802 274 780T297 717Q297 679 274 656T210 632Z" />
<glyph unicode="&#xe5;" horiz-adv-x="659" d="M267 -9Q200 -9 148 26T64 124T33 266Q33 347 64 409T149 506T272 542Q310 542 341 531T397 501T438 456T463 401L430 405V531H589V0H427V128L463 129Q455 101 437 76T393 32T335 2T267 -9ZM311 126Q348 126 375
143T417 191T432 266Q432 309 417 340T375 389T311 407Q275 407 249 390T207 341T192 266Q192 223 207 192T248 143T311 126ZM330 604Q299 604 271 620T227 662T210 720Q210 753 226 779T270 822T330 838Q363 838 390 822T434 780T451 720Q451 689 434 663T390
620T330 604ZM330 685Q346 685 356 695T367 720Q367 737 357 747T330 757Q314 757 304 747T293 721Q293 705 304 695T330 685Z" />
<glyph unicode="&#xe6;" horiz-adv-x="900" d="M214 -10Q163 -10 122 10T57 65T33 149Q33 189 48 220T94 272T168 303T272 313H730L721 301V322Q719 347 706 366T672 397T623 408Q583 408 556 393T514 348T500 275Q500 232 520 200T577 149T664 130Q700 130 728
139T788 174L856 67Q825 40 790 24T719 -1T647 -10Q559 -10 495 25T395 121T360 263Q360 324 379 375T434 463T517 521T621 542Q694 541 750 507T838 412T869 274L868 226H277Q256 226 240 222T213 209T197 189T191 161Q191 146 198 134T220 114T253 107Q279 107
302 115T345 140T375 177L428 96Q407 63 373 39T298 3T214 -10ZM357 248V332Q357 352 351 366T333 389T304 402T266 407Q227 407 199 393T147 344L52 438Q78 469 113 492T194 529T289 542Q337 542 375 532T441 499T483 445T498 367V251L357 248Z" />
<glyph unicode="&#xe7;" horiz-adv-x="545" d="M304 -10Q227 -10 166 26T70 124T34 266Q34 345 69 407T166 506T304 542Q375 542 434 517T529 447L442 343Q428 359 409 373T367 395T319 403Q281 403 252 386T207 337T191 266Q191 228 207 197T253 148T319 130Q345
130 367 136T407 156T442 188L528 83Q494 40 434 15T304 -10ZM206 -246L196 -171Q217 -171 239 -166T277 -152T293 -131Q293 -119 282 -112T254 -102T222 -98L205 -84L274 24H356L310 -43Q362 -49 387 -75T413 -139Q413 -170 394 -190T343 -224T276 -242T206 -246Z"
/>
<glyph unicode="&#xe8;" horiz-adv-x="586" d="M324 -10Q236 -10 171 25T70 122T34 263Q34 324 54 375T110 463T195 521T304 542Q360 542 406 522T487 466T539 381T555 274L554 231H131L108 321H424L407 302V322Q405 347 392 366T356 397T306 408Q267 408 240
393T198 348T184 275Q184 231 202 199T256 148T341 130Q375 130 401 140T459 174L534 68Q503 41 468 24T397 -1T324 -10ZM363 590L158 700L231 804L410 662L363 590Z" />
<glyph unicode="&#xe9;" horiz-adv-x="586" d="M324 -10Q236 -10 171 25T70 122T34 263Q34 324 54 375T110 463T195 521T304 542Q360 542 406 522T487 466T539 381T555 274L554 231H131L108 321H424L407 302V322Q405 347 392 366T356 397T306 408Q267 408 240
393T198 348T184 275Q184 231 202 199T256 148T341 130Q375 130 401 140T459 174L534 68Q503 41 468 24T397 -1T324 -10ZM225 589L178 662L357 804L430 699L225 589Z" />
<glyph unicode="&#xea;" horiz-adv-x="586" d="M324 -10Q236 -10 171 25T70 122T34 263Q34 324 54 375T110 463T195 521T304 542Q360 542 406 522T487 466T539 381T555 274L554 231H131L108 321H424L407 302V322Q405 347 392 366T356 397T306 408Q267 408 240
393T198 348T184 275Q184 231 202 199T256 148T341 130Q375 130 401 140T459 174L534 68Q503 41 468 24T397 -1T324 -10ZM170 601L112 651L256 780H352L496 651L438 601L289 687H319L170 601Z" />
<glyph unicode="&#xeb;" horiz-adv-x="586" d="M324 -10Q236 -10 171 25T70 122T34 263Q34 324 54 375T110 463T195 521T304 542Q360 542 406 522T487 466T539 381T555 274L554 231H131L108 321H424L407 302V322Q405 347 392 366T356 397T306 408Q267 408 240
393T198 348T184 275Q184 231 202 199T256 148T341 130Q375 130 401 140T459 174L534 68Q503 41 468 24T397 -1T324 -10ZM424 632Q382 632 360 654T337 717Q337 755 360 778T424 802Q465 802 487 780T510 717Q510 679 487 656T424 632ZM183 632Q141 632 119 654T96
717Q96 755 119 778T183 802Q225 802 247 780T270 717Q270 679 247 656T183 632Z" />
<glyph unicode="&#xec;" horiz-adv-x="289" d="M64 0V531H225V0H64ZM459 590L254 700L327 804L506 662L459 590Z" />
<glyph unicode="&#xed;" horiz-adv-x="289" d="M64 0V531H225V0H64ZM321 589L274 662L453 804L526 699L321 589Z" />
<glyph unicode="&#xee;" horiz-adv-x="289" d="M64 0V531H225V0H64ZM266 601L208 651L352 780H448L592 651L534 601L385 687H415L266 601Z" />
<glyph unicode="&#xef;" horiz-adv-x="289" d="M64 0V531H225V0H64ZM521 632Q479 632 457 654T434 717Q434 755 457 778T521 802Q562 802 584 780T607 717Q607 679 584 656T521 632ZM280 632Q238 632 216 654T193 717Q193 755 216 778T280 802Q322 802 344 780T367
717Q367 679 344 656T280 632Z" />
<glyph unicode="&#xf0;" horiz-adv-x="597" d="M297 -7Q220 -7 161 28T68 122T34 256Q34 309 54 356T110 439T191 496T286 517Q336 517 376 496T443 438T479 348L384 379Q382 423 373 458T348 522T308 573T249 613T169 645L217 746Q280 731 333 703T429 633T501
540T547 424T563 288Q563 201 530 135T437 31T297 -7ZM298 129Q331 129 357 146T398 194T414 262Q414 298 399 327T357 374T298 392Q266 392 240 375T199 329T183 262Q183 224 198 194T240 147T298 129ZM150 517L137 582L297 623L354 650L500 683L518 617L405 591L362
567L150 517Z" />
<glyph unicode="&#xf1;" horiz-adv-x="635" d="M71 0V531H223L228 423L196 411Q207 447 235 476T304 524T388 542Q448 542 489 518T551 445T572 326V0H411V313Q411 345 402 366T375 397T329 407Q308 407 290 401T259 382T239 353T231 318V0H152Q124 0 104 0T71
0ZM417 614Q400 614 382 620T341 642Q324 656 313 661T295 667Q281 667 270 656T256 619L167 632Q168 688 199 728T282 768Q299 768 316 762T356 741Q369 730 380 723T403 715Q417 715 427 727T440 763L530 750Q529 715 515 684T476 633T417 614Z" />
<glyph unicode="&#xf2;" horiz-adv-x="641" d="M321 -10Q238 -10 174 26T72 124T34 266Q34 346 71 408T173 506T321 542Q404 542 468 506T570 408T607 266Q607 186 570 124T469 26T321 -10ZM321 128Q357 128 385 146T429 195T444 266Q445 306 429 337T385 387T321
405Q285 405 257 387T212 338T197 266Q196 226 212 195T256 146T321 128ZM380 590L175 700L248 804L427 662L380 590Z" />
<glyph unicode="&#xf3;" horiz-adv-x="641" d="M321 -10Q238 -10 174 26T72 124T34 266Q34 346 71 408T173 506T321 542Q404 542 468 506T570 408T607 266Q607 186 570 124T469 26T321 -10ZM321 128Q357 128 385 146T429 195T444 266Q445 306 429 337T385 387T321
405Q285 405 257 387T212 338T197 266Q196 226 212 195T256 146T321 128ZM242 589L195 662L374 804L447 699L242 589Z" />
<glyph unicode="&#xf4;" horiz-adv-x="641" d="M321 -10Q238 -10 174 26T72 124T34 266Q34 346 71 408T173 506T321 542Q404 542 468 506T570 408T607 266Q607 186 570 124T469 26T321 -10ZM321 128Q357 128 385 146T429 195T444 266Q445 306 429 337T385 387T321
405Q285 405 257 387T212 338T197 266Q196 226 212 195T256 146T321 128ZM187 601L129 651L273 780H369L513 651L455 601L306 687H336L187 601Z" />
<glyph unicode="&#xf5;" horiz-adv-x="641" d="M321 -10Q238 -10 174 26T72 124T34 266Q34 346 71 408T173 506T321 542Q404 542 468 506T570 408T607 266Q607 186 570 124T469 26T321 -10ZM321 128Q357 128 385 146T429 195T444 266Q445 306 429 337T385 387T321
405Q285 405 257 387T212 338T197 266Q196 226 212 195T256 146T321 128ZM389 614Q372 614 354 620T313 642Q296 656 285 661T267 667Q253 667 242 656T228 619L139 632Q140 688 171 728T254 768Q271 768 288 762T328 741Q341 730 352 723T375 715Q389 715 399
727T412 763L502 750Q501 715 487 684T448 633T389 614Z" />
<glyph unicode="&#xf6;" horiz-adv-x="641" d="M321 -10Q238 -10 174 26T72 124T34 266Q34 346 71 408T173 506T321 542Q404 542 468 506T570 408T607 266Q607 186 570 124T469 26T321 -10ZM321 128Q357 128 385 146T429 195T444 266Q445 306 429 337T385 387T321
405Q285 405 257 387T212 338T197 266Q196 226 212 195T256 146T321 128ZM441 632Q399 632 377 654T354 717Q354 755 377 778T441 802Q482 802 504 780T527 717Q527 679 504 656T441 632ZM200 632Q158 632 136 654T113 717Q113 755 136 778T200 802Q242 802 264
780T287 717Q287 679 264 656T200 632Z" />
<glyph unicode="&#xf7;" horiz-adv-x="597" d="M43 199V330H554V199H43ZM296 -23Q269 -23 249 -13T217 16T206 62Q206 86 217 105T249 136T296 147Q324 147 344 137T376 107T387 62Q387 37 376 18T344 -12T296 -23ZM296 381Q269 381 249 391T217 421T206 466Q206
490 217 509T249 540T296 551Q324 551 344 541T376 512T387 466Q387 442 376 423T344 393T296 381Z" />
<glyph unicode="&#xf8;" horiz-adv-x="641" d="M120 -35L54 13L516 560L583 511L120 -35ZM321 -10Q238 -10 174 26T72 124T34 266Q34 346 71 408T173 506T321 542Q404 542 468 506T570 408T607 266Q607 186 570 124T469 26T321 -10ZM321 128Q357 128 385 146T429
195T444 266Q445 306 429 337T385 387T321 405Q285 405 257 387T212 338T197 266Q196 226 212 195T256 146T321 128Z" />
<glyph unicode="&#xf9;" horiz-adv-x="642" d="M252 -11Q193 -11 152 14T88 88T65 203V531H226V225Q226 193 236 170T266 135T314 122Q335 122 352 129T382 148T402 177T409 214V531H570V0H419L412 109L442 121Q430 83 402 54T335 7T252 -11ZM380 590L175 700L248
804L427 662L380 590Z" />
<glyph unicode="&#xfa;" horiz-adv-x="642" d="M252 -11Q193 -11 152 14T88 88T65 203V531H226V225Q226 193 236 170T266 135T314 122Q335 122 352 129T382 148T402 177T409 214V531H570V0H419L412 109L442 121Q430 83 402 54T335 7T252 -11ZM242 589L195 662L374
804L447 699L242 589Z" />
<glyph unicode="&#xfb;" horiz-adv-x="642" d="M252 -11Q193 -11 152 14T88 88T65 203V531H226V225Q226 193 236 170T266 135T314 122Q335 122 352 129T382 148T402 177T409 214V531H570V0H419L412 109L442 121Q430 83 402 54T335 7T252 -11ZM187 601L129 651L273
780H369L513 651L455 601L306 687H336L187 601Z" />
<glyph unicode="&#xfc;" horiz-adv-x="642" d="M252 -11Q193 -11 152 14T88 88T65 203V531H226V225Q226 193 236 170T266 135T314 122Q335 122 352 129T382 148T402 177T409 214V531H570V0H419L412 109L442 121Q430 83 402 54T335 7T252 -11ZM442 632Q400 632
378 654T355 717Q355 755 378 778T442 802Q483 802 505 780T528 717Q528 679 505 656T442 632ZM201 632Q159 632 137 654T114 717Q114 755 137 778T201 802Q243 802 265 780T288 717Q288 679 265 656T201 632Z" />
<glyph unicode="&#xfd;" horiz-adv-x="620" d="M138 -230L259 55L261 -27L5 531H186L298 264Q307 244 315 221T327 177L305 164Q311 179 318 201T335 250L433 531H615L389 0L297 -230H138ZM232 589L185 662L364 804L437 699L232 589Z" />
<glyph unicode="&#xfe;" horiz-adv-x="659" d="M71 -220V740H232V412L199 421Q206 454 233 481T301 524T389 541Q440 541 483 521T557 464T606 377T624 266Q624 186 594 124T510 27T387 -9Q342 -9 301 8T232 54T195 117L232 131V-220H71ZM348 126Q384 126 411
143T453 192T468 266Q468 308 453 339T412 388T348 406Q311 406 284 389T242 340T227 266Q227 223 242 192T284 144T348 126Z" />
<glyph unicode="&#xff;" horiz-adv-x="620" d="M138 -230L259 55L261 -27L5 531H186L298 264Q307 244 315 221T327 177L305 164Q311 179 318 201T335 250L433 531H615L389 0L297 -230H138ZM431 632Q389 632 367 654T344 717Q344 755 367 778T431 802Q472 802 494
780T517 717Q517 679 494 656T431 632ZM190 632Q148 632 126 654T103 717Q103 755 126 778T190 802Q232 802 254 780T277 717Q277 679 254 656T190 632Z" />
<glyph unicode="&#x2013;" horiz-adv-x="595" d="M57 220V357H538V220H57Z" />
<glyph unicode="&#x2014;" horiz-adv-x="933" d="M57 220V357H876V220H57Z" />
<glyph unicode="&#x2018;" horiz-adv-x="276" d="M147 432Q117 432 93 448T54 492T40 557Q40 589 52 619T86 676T139 723T204 753L250 697Q208 679 183 653T157 608Q157 597 164 587T187 567Q210 550 219 534T228 499Q228 468 206 450T147 432Z" />
<glyph unicode="&#x2019;" horiz-adv-x="276" d="M72 429L26 485Q68 503 93 529T119 574Q119 585 112 595T89 615Q66 632 57 648T48 683Q48 714 70 732T129 750Q159 750 183 735T222 691T236 625Q236 593 224 563T190 506T137 459T72 429Z" />
<glyph unicode="&#x201a;" horiz-adv-x="287" d="M85 -200L39 -143Q79 -125 103 -98T127 -50Q127 -41 123 -31T100 -7Q77 10 69 26T61 63Q61 94 83 112T142 130Q171 130 194 114T231 70T245 5Q245 -29 233 -60T200 -119T149 -168T85 -200Z" />
<glyph unicode="&#x201c;" horiz-adv-x="506" d="M147 683Q117 683 93 699T54 743T40 808Q40 840 52 870T86 927T139 974T204 1004L250 948Q208 930 183 904T157 859Q157 848 164 838T187 818Q210 801 219 785T228 750Q228 719 206 701T147 683ZM377 427Q347 427
323 443T284 487T270 552Q270 584 282 614T316 671T369 718T434 748L480 692Q438 674 413 648T387 603Q387 592 394 582T417 562Q440 545 449 529T458 494Q458 463 436 445T377 427Z" />
<glyph unicode="&#x201d;" horiz-adv-x="505" d="M72 429L26 485Q68 503 93 529T119 574Q119 585 112 595T89 615Q66 632 57 648T48 683Q48 714 70 732T129 750Q159 750 183 735T222 691T236 625Q236 593 224 563T190 506T137 459T72 429ZM301 429L255 485Q297
503 322 529T348 574Q348 585 341 595T318 615Q295 632 286 648T277 683Q277 714 299 732T358 750Q388 750 412 735T451 691T465 625Q465 593 453 563T419 506T366 459T301 429Z" />
<glyph unicode="&#x201e;" horiz-adv-x="512" d="M85 -200L39 -143Q79 -125 103 -98T127 -50Q127 -41 123 -31T100 -7Q77 10 69 26T61 63Q61 94 83 112T142 130Q171 130 194 114T231 70T245 5Q245 -29 233 -60T200 -119T149 -168T85 -200ZM310 -200L264 -143Q304
-125 328 -98T352 -50Q352 -41 348 -31T325 -7Q302 10 294 26T286 63Q286 94 308 112T367 130Q396 130 419 114T456 70T470 5Q470 -29 458 -60T425 -119T374 -168T310 -200Z" />
<glyph unicode="&#x2022;" horiz-adv-x="346" d="M173 216Q136 216 105 234T56 283T37 351Q37 389 55 420T104 469T173 488Q211 488 242 470T291 420T310 351Q310 314 292 283T242 234T173 216Z" />
<glyph unicode="&#x2039;" horiz-adv-x="315" d="M186 26L10 252V265L186 492L277 429L155 242V276L278 90L186 26Z" />
<glyph unicode="&#x203a;" horiz-adv-x="316" d="M129 29L38 92L160 279V245L37 431L129 495L304 269V256L129 29Z" />
</font>
</defs>
</svg>
