<?xml version="1.0" standalone="no"?>
<!DOCTYPE svg PUBLIC "-//W3C//DTD SVG 1.1//EN" "http://www.w3.org/Graphics/SVG/1.1/DTD/svg11.dtd">
<svg xmlns="http://www.w3.org/2000/svg">
<defs >
<font id="LexendDeca" horiz-adv-x="588" ><font-face
    font-family="Lexend Deca"
    units-per-em="1000"
    panose-1="0 0 0 0 0 0 0 0 0 0"
    ascent="1000"
    descent="-250"
    alphabetic="0" />
<glyph unicode=" " horiz-adv-x="280" />
<glyph unicode="!" horiz-adv-x="236" d="M87 241Q80 304 75 371T66 505T63 630V700H171V630Q171 568 168 500T160 366T147 241H87ZM114 -11Q81 -11 63 8T45 64Q45 97 64 118T114 139Q147 139 165 120T183 64Q183 31 164 10T114 -11Z" />
<glyph unicode="&quot;" horiz-adv-x="412" d="M245 442L269 700H385L305 442H245ZM37 442L60 700H178L97 442H37Z" />
<glyph unicode="#" horiz-adv-x="678" d="M367 0L487 700H577L457 0H367ZM31 173V256H610V173H31ZM101 0L221 700H311L191 0H101ZM69 453V536H647V453H69Z" />
<glyph unicode="$" horiz-adv-x="624" d="M314 -10Q228 -10 163 24T50 126L124 211Q173 141 218 114T325 87Q363 87 394 99T443 132T461 180Q461 198 455 214T437 243T405 267T359 286T299 301Q227 315 180 343T109 414T85 514Q85 556 103 592T154 654T231 695T326
710Q407 710 467 679T563 587L487 512Q457 561 416 587T323 613Q284 613 255 601T210 568T193 517Q193 496 201 479T225 448T270 424T337 405Q392 393 435 375T508 331T553 275T569 208Q569 141 538 92T450 17T314 -10ZM254 -91V363L351 330V-91H254ZM391 330L294
363V782H391V330Z" />
<glyph unicode="%" horiz-adv-x="839" d="M129 0L592 700H695L227 0H129ZM193 329Q148 329 114 353T60 420T40 518Q40 573 59 616T114 684T194 709Q239 709 273 685T327 617T347 518Q347 465 327 422T272 354T193 329ZM194 404Q215 404 230 418T254 457T263 518Q263
553 255 579T231 619T193 633Q172 633 156 619T132 579T123 518Q123 483 131 458T156 418T194 404ZM636 -9Q591 -9 557 16T502 83T482 180Q482 235 501 278T556 346T636 371Q681 371 715 347T769 279T789 180Q789 127 769 84T715 16T636 -9ZM636 65Q657 65 673
79T697 119T706 180Q706 215 698 240T673 280T636 295Q614 295 598 281T574 241T565 180Q565 145 573 120T598 80T636 65Z" />
<glyph unicode="&amp;" horiz-adv-x="739" d="M575 0L484 97L468 115L295 308Q270 336 247 365T207 424T179 480T168 532Q168 583 194 623T267 687T375 710Q420 710 459 694T526 648T568 579L490 529Q471 575 444 596T375 617Q344 617 323 608T291 580T280 535Q280
513 292 487T324 433T363 383T398 343L537 188L566 156L709 0H575ZM306 -10Q235 -10 177 20T85 101T50 212Q50 291 93 349T221 438L285 361Q221 347 190 315T159 227Q159 185 179 153T236 103T326 85Q371 85 408 102T476 152T525 229T554 329H646Q638 268 618 216T567
122T497 51T409 6T306 -10Z" />
<glyph unicode="&apos;" horiz-adv-x="205" d="M37 442L60 700H178L97 442H37Z" />
<glyph unicode="(" horiz-adv-x="366" d="M290 -186Q168 -110 104 4T40 258Q40 397 104 511T291 702L346 640Q244 569 191 471T137 258Q137 144 190 46T346 -124L290 -186Z" />
<glyph unicode=")" horiz-adv-x="366" d="M75 -186L20 -124Q122 -53 175 45T229 258Q229 372 176 470T20 640L76 702Q198 626 262 512T326 258Q326 119 262 5T75 -186Z" />
<glyph unicode="*" horiz-adv-x="387" d="M159 376L167 491H172L69 421L32 486L144 540L142 535L30 589L68 653L172 583L167 585L159 700H234L225 573L217 581L320 651L357 586L244 531V542L356 487L319 423L215 493L226 491L234 376H159Z" />
<glyph unicode="+" horiz-adv-x="591" d="M45 235V325H546V235H45ZM242 42V525H347V42H242Z" />
<glyph unicode="," horiz-adv-x="267" d="M88 -179L50 -133Q85 -113 107 -87T129 -42Q129 -32 124 -23T103 4Q83 23 77 36T71 64Q71 88 88 102T132 117Q157 117 177 103T209 63T221 4Q221 -26 211 -54T183 -106T141 -149T88 -179Z" />
<glyph unicode="-" horiz-adv-x="394" d="M53 235V337H341V235H53Z" />
<glyph unicode="." horiz-adv-x="228" d="M114 -11Q81 -11 63 8T45 64Q45 97 64 118T114 139Q147 139 165 120T183 64Q183 31 164 10T114 -11Z" />
<glyph unicode="/" horiz-adv-x="557" d="M18 -132L430 700H529L118 -132H18Z" />
<glyph unicode="0" horiz-adv-x="607" d="M303 -10Q223 -10 166 34T77 158T46 350Q46 461 77 541T165 666T303 710Q383 710 441 666T530 542T561 350Q561 239 530 159T441 34T303 -10ZM303 88Q376 88 416 156T456 350Q456 475 416 543T303 612Q230 612 190 544T150
350Q150 225 190 157T303 88Z" />
<glyph unicode="1" horiz-adv-x="500" d="M217 49V617L254 589L116 516L87 610L274 710H326V49H217ZM106 0V104H440V0H106Z" />
<glyph unicode="2" horiz-adv-x="548" d="M93 0L60 82L274 323Q291 341 309 364T345 413T372 462T383 509Q383 541 371 563T335 598T278 610Q249 610 221 593T170 545T134 473L51 525Q68 583 102 624T185 688T291 710Q350 710 396 686T468 618T494 517Q494 494
489 470T473 421T445 368T405 310T351 247L192 74L172 104H516V0H93Z" />
<glyph unicode="3" horiz-adv-x="529" d="M251 -10Q177 -10 123 24T20 138L104 191Q129 154 153 131T204 96T259 85Q294 85 324 102T372 151T390 221Q390 260 376 287T335 329T271 344Q254 344 236 341T196 331T150 314L120 393L336 631L357 600H59V700H460L480
660L251 406L226 432Q234 436 252 439T283 443Q327 443 365 427T432 381T477 312T494 227Q494 159 462 106T374 21T251 -10Z" />
<glyph unicode="4" horiz-adv-x="620" d="M352 0V564L377 558L147 277L143 289H578V190H76L30 280L373 700H456V0H352Z" />
<glyph unicode="5" horiz-adv-x="568" d="M257 -7Q188 -7 132 24T39 115L99 182Q146 130 181 111T257 92Q298 92 331 110T383 159T403 228Q403 268 385 299T335 349T265 368Q246 368 229 366T188 354T125 326L68 403L109 700H487V600H177L198 619L165 397L140
426Q150 436 174 445T227 461T284 468Q348 468 398 439T478 357T508 238Q508 169 475 114T385 26T257 -7Z" />
<glyph unicode="6" horiz-adv-x="557" d="M283 0Q231 0 187 18T110 70T59 148T40 247Q40 274 47 307T70 381T108 465T159 558L250 712H355L359 702L249 517Q219 466 196 420T156 334T132 260L108 363Q127 394 149 417T196 457T250 481T308 489Q366 489 414 458T492
374T522 260Q522 185 492 127T407 34T283 0ZM283 100Q322 100 352 118T400 170T418 247Q418 284 400 316T352 369T285 389Q244 389 212 370T162 319T144 248Q144 206 162 173T211 120T283 100Z" />
<glyph unicode="7" horiz-adv-x="542" d="M112 0L402 632L414 600H60V700H493L507 631L228 0H112Z" />
<glyph unicode="8" horiz-adv-x="579" d="M289 -3Q224 -3 171 24T85 98T53 200Q53 231 61 258T87 309T130 351T188 385L182 364Q156 374 136 388T100 422T78 463T70 509Q70 562 99 605T178 674T289 700Q350 700 399 674T478 605T508 509Q508 485 501 463T479 423T444
390T395 364L392 381Q422 369 446 350T489 307T516 256T526 200Q526 143 494 97T409 24T289 -3ZM289 97Q326 97 355 111T402 149T419 204Q419 237 402 262T356 303T289 318Q252 318 223 303T177 263T160 204Q160 174 177 150T223 112T289 97ZM289 414Q321 414 346
426T386 458T401 506Q401 533 387 554T347 587T289 600Q257 600 232 588T192 554T177 506Q177 479 191 459T231 426T289 414Z" />
<glyph unicode="9" horiz-adv-x="551" d="M228 0L224 10L432 452L435 369Q417 339 396 316T349 277T296 252T241 243Q184 243 136 273T59 353T30 462Q30 533 62 589T149 679T274 712Q324 712 368 694T445 644T497 569T516 478Q516 453 511 425T495 361T464 280T417
174L334 0H228ZM264 343Q303 343 334 360T382 407T400 474Q400 513 383 544T336 594T266 612Q230 612 202 595T158 547T141 475Q141 440 157 410T202 362T264 343Z" />
<glyph unicode=":" horiz-adv-x="228" d="M114 -10Q81 -10 63 9T45 65Q45 98 64 119T114 140Q147 140 165 121T183 65Q183 32 164 11T114 -10ZM114 385Q81 385 63 404T45 460Q45 493 64 514T114 535Q147 535 165 516T183 460Q183 427 164 406T114 385Z" />
<glyph unicode=";" horiz-adv-x="262" d="M339 -179L301 -133Q336 -113 358 -87T380 -42Q380 -32 375 -23T354 4Q334 23 328 36T322 64Q322 88 339 102T383 117Q408 117 428 103T460 63T472 4Q472 -26 462 -54T434 -106T392 -149T339 -179ZM132 385Q99 385 81
404T63 460Q63 493 82 514T132 535Q165 535 183 516T201 460Q201 427 182 406T132 385Z" />
<glyph unicode="&lt;" horiz-adv-x="524" d="M411 4L50 211V292L411 499L459 424L100 218V285L459 79L411 4Z" />
<glyph unicode="=" horiz-adv-x="566" d="M50 331V421H516V331H50ZM50 142V231H516V142H50Z" />
<glyph unicode="&gt;" horiz-adv-x="524" d="M113 4L65 79L424 285V218L65 424L113 499L474 292V211L113 4Z" />
<glyph unicode="?" horiz-adv-x="511" d="M193 211L167 352Q206 362 237 374T290 401T328 433T350 469T358 511Q358 540 343 563T300 599T239 612Q199 612 162 585T97 507L22 570Q65 636 124 672T249 709Q312 709 362 683T441 612T471 511Q471 478 458 447T419
387T361 337T287 301L270 211H193ZM158 64Q158 97 177 118T227 139Q260 139 278 120T296 64Q296 31 277 10T227 -11Q194 -11 176 8T158 64Z" />
<glyph unicode="@" horiz-adv-x="965" d="M414 -162Q327 -162 258 -136T140 -61T66 56T40 206Q40 323 81 416T196 575T367 675T576 710Q656 710 720 688T830 623T900 524T925 396Q925 328 906 267T851 158T770 83T669 55Q634 55 608 67T566 102T551 155Q551 170
554 187T560 222L574 202Q559 155 534 122T474 72T400 55Q357 55 324 78T271 142T252 237Q252 284 269 332T318 420T394 485T491 510Q522 510 546 495T586 453T605 390L581 331L607 501H708L657 193Q654 174 659 162T676 143T700 137Q730 137 756 157T801 212T831
294T842 391Q842 466 810 519T718 601T572 630Q470 630 387 602T246 519T156 386T124 209Q124 140 143 87T200 -5T292 -62T417 -82Q464 -82 498 -76T563 -56T632 -22L669 -89Q610 -119 568 -134T490 -156T414 -162ZM423 140Q457 140 488 161T542 216T570 286Q573
304 575 317T577 342Q577 368 567 386T539 415T495 425Q456 425 424 397T373 324T354 232Q354 189 372 165T423 140Z" />
<glyph unicode="A" horiz-adv-x="700" d="M25 0L296 700H406L675 0H560L400 422Q397 429 389 456T369 516T349 576T337 612L360 613Q354 596 346 570T328 515T309 461T294 418L135 0H25ZM145 174L185 278H503L549 174H145Z" />
<glyph unicode="B" horiz-adv-x="681" d="M98 0V700H390Q457 700 503 680T572 621T596 524Q596 467 565 427T477 372V392Q524 382 559 357T613 293T633 206Q633 156 618 118T572 53T498 14T400 0H98ZM206 104H394Q435 104 463 116T507 151T523 208Q523 239 507
261T460 294T389 306H206V104ZM206 410H384Q414 410 437 422T474 455T488 503Q488 548 458 572T372 596H206V410Z" />
<glyph unicode="C" horiz-adv-x="679" d="M382 -10Q309 -10 248 16T142 90T73 205T48 350Q48 425 74 489T148 603T257 679T391 706Q442 706 490 691T578 648T643 585L571 510Q542 539 513 558T453 588T391 598Q342 598 300 580T226 528T176 450T158 350Q158 293
175 247T225 167T301 117T400 99Q433 99 465 108T525 134T576 174L630 86Q607 59 568 37T480 3T382 -10Z" />
<glyph unicode="D" horiz-adv-x="748" d="M98 0V700H372Q447 700 507 675T611 603T677 492T700 350Q700 272 677 208T612 97T508 25T372 0H98ZM206 93L203 104H367Q420 104 461 121T531 169T575 247T590 350Q590 407 575 452T531 530T461 579T367 596H200L206 605V93Z" />
<glyph unicode="E" horiz-adv-x="614" d="M98 0V700H539V596H206V104H539V0H98ZM147 307V411H484V307H147Z" />
<glyph unicode="F" horiz-adv-x="602" d="M98 0V700H206V0H98ZM146 298V402H507V298H146ZM146 596V700H552V596H146Z" />
<glyph unicode="G" horiz-adv-x="766" d="M411 -10Q335 -10 269 17T153 94T76 208T48 350Q48 425 75 490T152 603T268 679T410 706Q463 706 513 691T605 649T672 587L602 514Q572 543 541 562T476 591T410 601Q356 601 311 582T231 529T177 450T158 350Q158 298
178 252T233 170T315 115T414 95Q453 95 488 106T550 139T592 187T607 246V266L622 252H408V359H718Q720 348 721 338T722 318T723 299Q723 230 699 174T633 76T534 13T411 -10Z" />
<glyph unicode="H" horiz-adv-x="761" d="M555 0V700H663V0H555ZM98 0V700H206V0H98ZM145 297V401H603V297H145Z" />
<glyph unicode="I" horiz-adv-x="478" d="M72 0V100H185V600H72V700H406V600H293V100H406V0H72Z" />
<glyph unicode="J" horiz-adv-x="642" d="M256 -10Q222 -10 191 -1T134 25T86 65T50 117L118 188Q139 158 156 140T190 112T222 99T256 95Q292 95 319 111T361 157T376 223V600H248V700H592V600H484V213Q484 165 468 125T421 54T349 7T256 -10Z" />
<glyph unicode="K" horiz-adv-x="732" d="M188 212L182 333L549 700H691L188 212ZM98 0V700H206V0H98ZM562 0L294 358L374 427L697 0H562Z" />
<glyph unicode="L" horiz-adv-x="599" d="M98 0V700H206V104H534V0H98Z" />
<glyph unicode="M" horiz-adv-x="864" d="M98 0V700H204L459 285L408 286L666 700H766V0H658V287Q658 377 662 449T678 592L692 555L463 201H397L175 551L186 592Q197 525 201 455T206 287V0H98Z" />
<glyph unicode="N" horiz-adv-x="793" d="M98 0V700H195L623 127L607 118Q603 143 600 172T595 235T591 306T588 385T587 470V700H695V0H596L175 552L186 566Q191 505 194 463T200 391T204 343T205 312T206 291V0H98Z" />
<glyph unicode="O" horiz-adv-x="782" d="M391 -10Q317 -10 255 17T146 92T74 206T48 350Q48 428 73 493T145 607T254 683T391 710Q465 710 527 683T636 607T708 493T734 350Q734 273 709 208T637 93T528 17T391 -10ZM391 95Q442 95 484 114T558 167T606 248T624
350Q624 405 607 451T558 532T485 586T391 605Q340 605 298 586T224 533T175 453T158 350Q158 295 175 248T223 167T297 114T391 95Z" />
<glyph unicode="P" horiz-adv-x="634" d="M98 0V700H383Q440 700 486 672T561 594T589 485Q589 425 561 376T487 298T383 268H206V0H98ZM206 372H381Q408 372 430 387T465 428T479 485Q479 516 466 541T430 581T381 596H206V372Z" />
<glyph unicode="Q" horiz-adv-x="782" d="M613 -110L348 237L437 296L699 -48L613 -110ZM391 -10Q317 -10 255 17T146 92T74 206T48 350Q48 428 73 493T145 607T254 683T391 710Q465 710 527 683T636 607T708 493T734 350Q734 273 709 208T637 93T528 17T391 -10ZM391
95Q442 95 484 114T558 167T606 248T624 350Q624 405 607 451T558 532T485 586T391 605Q340 605 298 586T224 533T175 453T158 350Q158 295 175 248T223 167T297 114T391 95Z" />
<glyph unicode="R" horiz-adv-x="695" d="M98 0V700H396Q456 700 506 671T587 591T617 477Q617 420 587 371T507 293T396 263H206V0H98ZM514 0L336 316L447 341L645 -1L514 0ZM206 367H406Q435 367 458 381T494 421T507 478Q507 513 491 539T445 581T378 596H206V367Z" />
<glyph unicode="S" horiz-adv-x="624" d="M314 -10Q257 -10 209 5T121 50T50 126L124 211Q173 141 218 114T325 87Q363 87 394 99T443 132T461 180Q461 198 455 214T437 243T405 267T359 286T299 301Q245 312 205 330T138 375T98 436T85 514Q85 556 103 592T154
654T231 695T326 710Q380 710 425 696T505 655T563 587L487 512Q467 545 442 567T387 601T323 613Q284 613 255 601T210 568T193 517Q193 496 201 479T225 448T270 424T337 405Q392 393 435 375T508 331T553 275T569 208Q569 141 538 92T450 17T314 -10Z" />
<glyph unicode="T" horiz-adv-x="576" d="M231 0V596H35V700H541V596H339V0H231Z" />
<glyph unicode="U" horiz-adv-x="740" d="M370 -6Q289 -6 225 29T125 127T88 269V701H196V278Q196 227 220 187T283 122T370 98Q420 98 460 122T525 186T549 278V701H652V269Q652 190 616 128T515 30T370 -6Z" />
<glyph unicode="V" horiz-adv-x="715" d="M304 0L24 700H147L314 275Q326 244 335 219T352 174T365 135T377 99L351 98Q358 122 366 148T384 205T410 275L565 700H691L409 0H304Z" />
<glyph unicode="W" horiz-adv-x="996" d="M247 0L24 700H139L274 262Q280 246 285 225T294 181T301 140T308 109L279 110Q294 163 302 192T316 236T325 263L451 579H548L670 263Q680 239 687 216T701 169T714 119L688 112Q693 139 695 154T700 180T704 199T710
224T723 265L856 700H972L749 0H674L489 438L498 434L320 0H247Z" />
<glyph unicode="X" horiz-adv-x="685" d="M524 0L307 314L29 700H166L378 390L661 0H524ZM24 0L291 381L358 302L151 0H24ZM394 325L328 401L524 700H651L394 325Z" />
<glyph unicode="Y" horiz-adv-x="660" d="M286 0V349L293 300L10 700H140L356 390L331 393L526 700H650L379 289L394 357V0H286Z" />
<glyph unicode="Z" horiz-adv-x="659" d="M60 0V79L459 613L474 596H86V700H593V622L196 87L180 104H604V0H60Z" />
<glyph unicode="[" horiz-adv-x="403" d="M80 -190V700H337V621H167L173 629V-123L163 -111H337V-190H80Z" />
<glyph unicode="\" horiz-adv-x="557" d="M446 -107L48 700H147L547 -107H446Z" />
<glyph unicode="]" horiz-adv-x="403" d="M66 -190V-111H236L230 -119V633L240 621H66V700H323V-190H66Z" />
<glyph unicode="^" horiz-adv-x="579" d="M29 368L240 727H340L551 368H436L281 633L301 636L142 368H29Z" />
<glyph unicode="_" horiz-adv-x="690" d="M53 -160V-82H637V-160H53Z" />
<glyph unicode="`" horiz-adv-x="500" d="M320 606L146 700L211 782L354 657L320 606Z" />
<glyph unicode="a" horiz-adv-x="633" d="M274 -10Q209 -10 156 26T70 124T38 264Q38 343 70 404T158 501T283 536Q324 536 358 524T417 491T459 441T480 381L457 389V525H561V0H457V125L481 132Q475 105 457 80T410 34T347 2T274 -10ZM301 85Q348 85 384 108T440
171T461 264Q461 315 441 355T384 418T301 441Q255 441 220 418T164 355T143 264Q143 212 163 172T219 108T301 85Z" />
<glyph unicode="b" horiz-adv-x="630" d="M348 -10Q314 -10 281 1T220 30T174 71T149 117L175 131V3H72V740H175V405L159 414Q164 437 181 458T224 497T282 525T345 536Q416 536 471 501T558 405T590 264Q590 185 559 123T472 26T348 -10ZM331 84Q377 84 413 107T470
171T491 264Q491 315 471 355T414 419T331 442Q284 442 248 419T191 356T170 264Q170 212 191 172T248 108T331 84Z" />
<glyph unicode="c" horiz-adv-x="535" d="M295 -10Q222 -10 165 26T74 124T40 263Q40 340 73 402T164 500T295 536Q365 536 422 508T510 430L453 360Q437 383 412 402T359 432T305 443Q257 443 220 420T160 355T138 263Q138 212 161 172T222 107T306 83Q333 83
358 92T408 119T453 163L510 93Q478 48 419 19T295 -10Z" />
<glyph unicode="d" horiz-adv-x="634" d="M291 -10Q219 -10 163 25T73 122T40 263Q40 342 72 403T161 500T288 536Q327 536 363 524T429 490T474 443T491 391L461 389V740H564V0H461V125H481Q481 101 465 78T423 34T362 2T291 -10ZM305 79Q352 79 388 103T444
168T465 263Q465 316 445 357T388 423T305 447Q258 447 222 423T166 358T145 263Q145 210 165 169T222 103T305 79Z" />
<glyph unicode="e" horiz-adv-x="586" d="M317 -10Q236 -10 174 24T76 119T40 257Q40 319 60 370T115 458T200 516T308 537Q359 537 403 518T479 464T529 384T546 282L545 238H116L93 320H456L441 303V327Q438 360 419 386T371 427T308 442Q254 442 217 422T161
362T142 264Q142 209 165 169T230 106T327 84Q366 84 399 97T472 144L524 71Q500 47 466 29T393 1T317 -10Z" />
<glyph unicode="f" horiz-adv-x="393" d="M129 0V584Q129 629 149 664T204 719T285 739Q317 739 345 727T390 695L355 616Q342 628 327 635T297 643Q276 643 262 637T240 617T233 584V0H181Q168 0 155 0T129 0ZM45 421V516H357V421H45Z" />
<glyph unicode="g" horiz-adv-x="649" d="M307 -230Q251 -230 196 -213T106 -167L144 -87Q164 -102 191 -113T248 -131T307 -138Q362 -138 399 -120T455 -67T474 20V121L485 114Q480 83 453 55T384 8T300 -10Q225 -10 167 25T74 122T40 263Q40 342 73 403T165
500T297 536Q327 536 355 529T407 508T450 478T481 444T496 410L474 402V525H577V32Q577 -31 559 -79T505 -161T420 -212T307 -230ZM311 85Q360 85 398 108T457 171T478 263Q478 315 457 355T398 419T311 442Q263 442 226 419T167 355T145 263Q145 212 166 172T225
108T311 85Z" />
<glyph unicode="h" horiz-adv-x="595" d="M72 0V740H175V417L157 405Q167 440 196 469T265 517T347 536Q407 536 447 513T507 441T527 320V0H424V313Q424 358 412 387T375 430T313 442Q283 442 258 433T215 406T186 367T175 318V0H124Q111 0 98 0T72 0Z" />
<glyph unicode="i" horiz-adv-x="278" d="M89 0V525H192V0H89ZM139 641Q106 641 88 658T70 706Q70 735 88 753T139 771Q172 771 190 754T208 706Q208 677 190 659T139 641Z" />
<glyph unicode="j" horiz-adv-x="265" d="M9 -197L-30 -118Q9 -118 34 -105T73 -65T86 1V525H189V-24Q189 -75 167 -114T104 -175T9 -197ZM140 641Q107 641 89 658T71 706Q71 735 89 753T140 771Q173 771 191 754T209 706Q209 677 191 659T140 641Z" />
<glyph unicode="k" horiz-adv-x="568" d="M166 164L161 276L412 525H551L166 164ZM72 0V740H175V0H72ZM426 0L228 231L301 298L558 0H426Z" />
<glyph unicode="l" horiz-adv-x="251" d="M74 0V740H177V0H74Z" />
<glyph unicode="m" horiz-adv-x="921" d="M70 0V525H174V413L155 401Q163 427 180 451T223 493T278 523T339 534Q384 534 418 519T474 474T506 399L490 403L497 420Q508 443 527 463T572 500T625 525T680 534Q739 534 777 510T835 437T855 315V0H751V309Q751 354
740 382T705 425T646 439Q618 439 594 430T551 403T523 364T513 314V0H409V311Q409 352 397 380T362 424T306 439Q278 439 254 430T212 404T184 365T174 316V0H70Z" />
<glyph unicode="n" horiz-adv-x="595" d="M72 0V525H175V417L157 405Q167 440 196 469T265 517T347 536Q407 536 447 513T507 441T527 320V0H424V313Q424 358 412 387T375 430T313 442Q283 442 258 433T215 406T186 367T175 318V0H124Q111 0 98 0T72 0Z" />
<glyph unicode="o" horiz-adv-x="615" d="M308 -10Q231 -10 171 25T75 122T40 263Q40 342 75 403T170 500T308 536Q384 536 444 501T540 404T575 263Q575 184 540 123T445 26T308 -10ZM308 84Q355 84 392 107T450 171T470 263Q471 315 450 355T392 419T308 442Q261
442 224 419T165 355T145 263Q144 212 165 172T223 108T308 84Z" />
<glyph unicode="p" horiz-adv-x="631" d="M72 -220V525H176V405L160 414Q166 444 194 471T262 516T346 534Q417 534 472 499T559 403T591 263Q591 185 560 124T473 27T349 -9Q303 -9 260 9T187 57T150 117L176 131V-220H72ZM332 86Q378 86 414 109T471 172T492
263Q492 314 472 353T415 416T332 439Q285 439 249 417T192 354T171 263Q171 212 192 172T249 109T332 86Z" />
<glyph unicode="q" horiz-adv-x="630" d="M455 -220V125H475Q475 101 459 78T416 34T356 2T288 -10Q217 -10 161 25T73 122T40 263Q40 342 72 403T159 500T285 536Q324 536 359 523T423 489T468 443T485 391L455 389V526H558V-220H455ZM299 85Q346 85 382 108T438
171T459 263Q459 315 439 355T382 419T299 442Q252 442 216 419T160 355T139 263Q139 212 159 172T216 108T299 85Z" />
<glyph unicode="r" horiz-adv-x="403" d="M72 0V525H176V360L166 400Q177 438 203 469T264 518T336 536Q353 536 368 533T393 526L366 414Q354 419 340 422T311 426Q284 426 260 416T217 387T187 344T176 290V0H72Z" />
<glyph unicode="s" horiz-adv-x="479" d="M247 -10Q181 -10 128 13T40 81L110 141Q140 106 175 91T256 75Q274 75 289 79T316 93T334 114T340 142Q340 168 321 184Q311 191 290 199T234 217Q176 232 139 251T82 294Q67 313 60 335T53 385Q53 418 67 445T107 493T167
525T241 536Q278 536 314 526T382 497T434 452L375 387Q356 406 334 420T288 443T246 451Q225 451 208 447T180 435T162 415T156 388Q157 375 162 364T178 344Q189 336 211 327T267 310Q317 297 349 282T401 246Q421 227 429 202T437 146Q437 101 412 66T343 10T247
-10Z" />
<glyph unicode="t" horiz-adv-x="384" d="M137 0V659H240V0H137ZM28 425V525H362V425H28Z" />
<glyph unicode="u" horiz-adv-x="605" d="M256 -10Q200 -10 159 16T95 89T72 201V525H175V229Q175 183 189 150T231 98T298 80Q327 80 351 89T392 116T420 157T430 209V525H533V0H430V110L448 122Q436 85 408 55T340 8T256 -10Z" />
<glyph unicode="v" horiz-adv-x="573" d="M244 0L22 525H133L293 132L274 123L445 525H551L318 0H244Z" />
<glyph unicode="w" horiz-adv-x="800" d="M201 0L22 525L126 526L254 133L231 135L370 442H432L572 134L545 132L674 525H778L601 0H530L384 334L407 331L271 0H201Z" />
<glyph unicode="x" horiz-adv-x="562" d="M421 0L251 221L236 240L15 525H145L312 307L329 285L547 0H421ZM16 0L223 270L284 197L138 0H16ZM335 254L278 326L407 525H529L335 254Z" />
<glyph unicode="y" horiz-adv-x="581" d="M160 -230L266 15L267 -67L5 525H125L289 139Q294 129 301 109T313 68L287 62Q295 83 302 104T317 146L454 525H576L360 0L271 -230H160Z" />
<glyph unicode="z" horiz-adv-x="484" d="M50 0V86L321 448V436H50V525H433V441L166 84L162 89H439V0H50Z" />
<glyph unicode="{" horiz-adv-x="411" d="M369 -200Q320 -190 285 -175T228 -136T195 -81T184 -7L185 88Q185 146 160 178T87 212H44V288H89Q136 289 160 321T185 412L184 507Q184 589 227 634T369 700L387 631Q344 617 320 601T285 560T275 493L277 398Q277 340
251 302T174 249L173 252Q224 235 250 197T277 102L275 7Q275 -34 285 -59T319 -100T387 -131L369 -200Z" />
<glyph unicode="|" horiz-adv-x="231" d="M67 -193V740H164V-193H67Z" />
<glyph unicode="}" horiz-adv-x="411" d="M42 -200L24 -131Q67 -117 91 -101T125 -60T136 7L134 102Q134 160 160 198T237 251L238 248Q187 265 161 303T134 398L136 493Q136 534 126 559T92 600T24 631L42 700Q91 690 126 675T183 636T216 581T227 507L226 412Q226
354 251 322T324 288H367V212H322Q275 211 251 179T226 88L227 -7Q227 -89 184 -134T42 -200Z" />
<glyph unicode="~" horiz-adv-x="510" d="M356 225Q341 225 319 231T276 245T239 258Q225 264 208 270T175 280T151 285Q133 285 124 270T114 227H40Q40 295 71 332T162 369Q174 369 189 366T220 357T251 346T277 335Q291 330 307 324T338 314T361 309Q378 309
388 322T396 357L470 354Q470 312 457 284T419 240T356 225Z" />
<glyph unicode="&#xa0;" horiz-adv-x="280" />
<glyph unicode="&#xa1;" horiz-adv-x="236" d="M141 289Q148 226 153 159T162 25T165 -100V-170H57V-100Q57 -38 60 30T68 164T81 289H141ZM114 541Q147 541 165 522T183 466Q183 433 164 412T114 391Q81 391 63 410T45 466Q45 499 64 520T114 541Z" />
<glyph unicode="&#xa2;" horiz-adv-x="535" d="M295 78Q222 78 165 114T74 212T40 351Q40 428 73 490T164 588T295 624Q365 624 422 596T510 518L453 448Q437 471 412 490T359 520T305 531Q257 531 220 508T160 443T138 351Q138 300 161 260T222 195T306 171Q333
171 358 180T408 207T453 251L510 181Q478 136 419 107T295 78ZM239 0V108L246 145V563L239 606V700H336V605L329 572V141L336 107V0H239Z" />
<glyph unicode="&#xa3;" horiz-adv-x="610" d="M197 53L122 74Q137 82 149 101T168 146T175 201Q175 215 174 229T169 260T160 300T143 352Q131 389 125 413T117 454T114 487Q114 554 142 604T220 682T340 710Q407 710 456 688T529 625L455 569Q440 585 422 595T384
611T340 617Q303 617 275 600T230 554T214 486Q214 455 224 419T245 353Q255 323 265 289T275 224Q275 194 267 166T241 110T197 53ZM425 -21Q402 -21 369 -12T313 4Q300 8 282 13T246 22T214 26Q182 26 145 18T70 -6L30 65Q69 89 117 101T214 114Q243 114 267
109T334 89Q355 82 379 75T425 67Q453 67 481 75T538 102L590 37Q559 9 516 -6T425 -21ZM44 323V408H452V323H44Z" />
<glyph unicode="&#xa4;" horiz-adv-x="550" d="M279 122Q230 122 190 146T125 211T101 302Q101 352 125 393T189 458T279 482Q328 482 368 458T433 392T457 302Q457 252 433 211T369 146T279 122ZM129 82L58 152L150 250L221 179L129 82ZM148 359L50 451L120 521L218
429L148 359ZM279 210Q304 210 322 222T351 254T362 302Q362 329 352 350T323 383T279 395Q255 395 237 383T208 350T197 302Q197 275 207 255T236 222T279 210ZM428 90L330 182L400 252L498 160L428 90ZM407 362L337 432L429 530L500 460L407 362Z" />
<glyph unicode="&#xa5;" horiz-adv-x="660" d="M286 0V349L293 300L10 700H140L356 390L331 393L526 700H650L379 289L394 357V0H286ZM146 90V176L558 174V88L146 90ZM146 230V316L558 314V228L146 230Z" />
<glyph unicode="&#xa6;" horiz-adv-x="239" d="M71 -202V198H168V-202H71ZM71 341V740H168V341H71Z" />
<glyph unicode="&#xa7;" horiz-adv-x="549" d="M323 128L311 190Q347 194 370 205T404 232T415 266Q415 289 400 304T349 329L220 367Q211 370 191 380T148 409T110 460T94 536Q94 574 107 606T145 661T208 698T295 711Q332 711 365 702T425 675T476 628L419 562Q402
580 382 592T338 611T290 617Q248 617 220 596T192 541Q192 524 200 509T227 482T273 462L366 435Q443 413 479 374T513 278Q510 229 486 196T421 147T323 128ZM274 -134Q236 -134 196 -123T119 -91T55 -44L105 35Q141 0 186 -21T273 -43Q323 -43 351 -25T380 29Q380
46 370 59T343 82T303 99L185 135Q115 156 81 194T47 290Q47 333 67 367T127 423T221 444L231 374Q208 371 191 361T164 335T154 300Q154 276 173 258T235 227L330 200Q367 190 401 170T456 119T478 41Q478 -10 455 -49T387 -111T274 -134Z" />
<glyph unicode="&#xa8;" horiz-adv-x="500" d="M350 642Q317 642 299 659T281 707Q281 736 299 754T350 772Q383 772 401 755T419 707Q419 678 401 660T350 642ZM150 642Q117 642 99 659T81 707Q81 736 99 754T150 772Q183 772 201 755T219 707Q219 678 201 660T150 642Z" />
<glyph unicode="&#xa9;" horiz-adv-x="786" d="M393 -7Q318 -7 254 20T140 97T64 210T36 350Q36 425 63 489T140 603T253 679T393 707Q467 707 531 680T645 603T722 490T750 350Q750 275 723 211T646 97T532 21T393 -7ZM411 142Q351 142 303 169T226 243T197 350Q197
407 225 454T302 529T411 557Q445 557 478 546T540 512L503 437Q484 451 468 459T438 472T411 476Q374 476 345 459T300 414T283 350Q283 313 299 284T345 239T411 223Q434 223 458 232T507 261L544 185Q514 164 480 153T411 142ZM393 67Q452 67 503 89T593 149T654
239T676 350Q676 410 654 461T594 551T504 611T393 633Q334 633 283 612T193 551T132 461T110 350Q110 291 132 240T192 150T282 89T393 67Z" />
<glyph unicode="&#xaa;" horiz-adv-x="365" d="M143 391Q104 391 75 412T31 472T15 562Q15 608 33 644T82 700T155 721Q204 721 230 688T257 592L242 648V715H335V401H242V474L257 512Q257 482 242 454T200 409T143 391ZM172 458Q194 458 210 470T236 504T246
555Q246 601 226 627T171 654Q154 654 140 642T117 608T108 562Q108 530 115 507T137 471T172 458Z" />
<glyph unicode="&#xab;" horiz-adv-x="486" d="M383 50L224 257V259L382 471L445 426L326 255L327 266L446 95L383 50ZM170 50L11 257V259L169 471L232 426L113 255L114 266L233 95L170 50Z" />
<glyph unicode="&#xac;" horiz-adv-x="670" d="M515 117V319L534 307H50V404H620V117H515Z" />
<glyph unicode="&#xad;" horiz-adv-x="394" d="M53 235V337H341V235H53Z" />
<glyph unicode="&#xae;" horiz-adv-x="507" d="M259 259Q195 259 143 289T60 370T29 484Q29 531 47 572T96 643T169 691T259 709Q306 709 347 692T420 643T470 572T488 484Q488 437 470 396T421 325T349 277T259 259ZM259 322Q305 322 342 343T402 402T425 484Q425
529 403 566T343 625T259 647Q212 647 174 625T114 566T91 484Q91 439 113 402T174 344T259 322ZM292 367L255 467L308 481L352 367H292ZM172 367V606H282Q315 606 335 586T356 534Q356 502 335 482T282 461H211L229 470V367H172ZM229 495L213 502H262Q279 502
290 509T301 529Q301 542 292 549T264 556H210L229 564V495Z" />
<glyph unicode="&#xaf;" horiz-adv-x="424" d="M108 642V717H392V642H108Z" />
<glyph unicode="&#xb0;" horiz-adv-x="532" d="M266 399Q222 399 187 419T131 475T110 553Q110 597 130 632T186 688T266 709Q311 709 346 689T401 633T422 554Q422 511 402 476T346 420T266 399ZM266 466Q289 466 307 478T336 510T347 554Q347 578 336 598T307
629T266 641Q243 641 225 630T196 598T185 553Q185 529 196 509T225 478T266 466Z" />
<glyph unicode="&#xb1;" horiz-adv-x="582" d="M50 285V375H532V285H50ZM50 -1V91H532V-1H50ZM240 143V534H344V143H240Z" />
<glyph unicode="&#xb2;" horiz-adv-x="346" d="M65 418L56 489L155 588Q164 596 177 609T200 638T210 672Q210 688 201 697T175 707Q158 707 138 695T96 653L42 693Q57 719 79 738T127 768T182 779Q215 779 239 766T278 731T292 679Q292 651 277 626T242 579T205
541L138 476L142 485H296V418H65Z" />
<glyph unicode="&#xb3;" horiz-adv-x="342" d="M165 412Q146 412 127 416T89 428T57 446L90 501Q109 489 125 484T159 478Q187 478 204 492T222 532Q222 552 207 564T165 577Q152 577 137 574T109 565L88 622L190 710L209 704H79V772H265L272 706L173 624L160
631Q165 634 173 636T186 638Q238 638 267 610T297 533Q297 498 280 471T232 428T165 412Z" />
<glyph unicode="&#xb4;" horiz-adv-x="500" d="M180 606L146 657L289 782L354 700L180 606Z" />
<glyph unicode="&#xb5;" horiz-adv-x="586" d="M80 -157V525H177V222Q177 175 189 144T225 96T284 80Q313 80 337 91T380 121T408 166T419 222V525H516V0H419V114L426 100Q414 64 390 40T335 3T269 -10Q248 -10 228 -3T192 18T170 49L177 62V-157H80Z" />
<glyph unicode="&#xb6;" horiz-adv-x="712" d="M246 0V314L270 279H236Q182 279 140 306T73 379T48 486Q48 551 76 599T154 673T273 700H614V0H506V660L522 596H310L354 652V0H246Z" />
<glyph unicode="&#xb7;" horiz-adv-x="228" d="M114 253Q81 253 63 272T45 328Q45 361 64 382T114 403Q147 403 165 384T183 328Q183 295 164 274T114 253Z" />
<glyph unicode="&#xb8;" horiz-adv-x="500" d="M159 -244L152 -191Q176 -191 202 -183T246 -163T264 -138Q264 -124 247 -116T209 -104T174 -100L161 -90L233 24H292L249 -46Q299 -56 324 -80T349 -139Q349 -165 332 -185T286 -218T225 -238T159 -244Z" />
<glyph unicode="&#xb9;" horiz-adv-x="281" d="M126 429V703L132 685L82 653L47 719L145 777H201V429H164Q154 429 145 429T126 429Z" />
<glyph unicode="&#xba;" horiz-adv-x="354" d="M176 392Q131 392 96 412T41 468T20 549Q20 595 40 631T96 689T176 710Q221 710 256 689T313 631T334 549Q334 504 314 469T257 413T176 392ZM176 463Q197 463 212 474T236 504T245 549Q245 576 237 596T213 627T176
639Q155 639 140 628T117 596T108 549Q108 524 116 505T140 474T176 463Z" />
<glyph unicode="&#xbb;" horiz-adv-x="491" d="M320 50L257 95L376 266L375 255L256 426L319 471L478 264V262L320 50ZM104 50L41 95L160 266L159 255L40 426L103 471L262 264V262L104 50Z" />
<glyph unicode="&#xbc;" horiz-adv-x="793" d="M133 359V633L139 615L89 583L54 649L152 707H208V359H171Q161 359 152 359T133 359ZM111 0L578 700H677L209 0H111ZM674 149H751V81H674V149ZM508 115L492 149H633L615 130V284L644 273L508 115ZM690 -2H615V100L628
81H473L456 150L624 356H690V-2Z" />
<glyph unicode="&#xbd;" horiz-adv-x="785" d="M133 359V633L139 615L89 583L54 649L152 707H208V359H171Q161 359 152 359T133 359ZM113 0L580 700H679L211 0H113ZM522 0L513 71L612 170Q621 178 634 191T657 220T667 254Q667 270 658 279T632 289Q615 289 595
277T553 235L499 275Q514 301 536 320T584 350T639 361Q672 361 696 348T735 313T749 261Q749 233 734 208T699 161T662 123L595 58L599 67H753V0H522Z" />
<glyph unicode="&#xbe;" horiz-adv-x="791" d="M128 342Q109 342 90 346T52 358T20 376L53 431Q72 419 88 414T122 408Q150 408 167 422T185 462Q185 482 170 494T128 507Q115 507 100 504T72 495L51 552L153 640L172 634H42V702H228L235 636L136 554L123 561Q128
564 136 566T149 568Q201 568 230 540T260 463Q260 428 243 401T195 358T128 342ZM121 0L588 700H687L219 0H121ZM672 149H749V81H672V149ZM506 115L490 149H631L613 130V284L642 273L506 115ZM688 -2H613V100L626 81H471L454 150L622 356H688V-2Z" />
<glyph unicode="&#xbf;" horiz-adv-x="511" d="M300 323L326 182Q287 172 256 160T203 133T165 101T143 65T135 23Q135 -6 150 -29T193 -65T254 -78Q294 -78 331 -51T396 27L471 -36Q428 -102 369 -138T244 -175Q181 -175 131 -149T52 -78T22 23Q22 56 35 87T74
147T132 197T206 233L223 323H300ZM335 470Q335 437 316 416T266 395Q233 395 215 414T197 470Q197 503 216 524T266 545Q299 545 317 526T335 470Z" />
<glyph unicode="&#xc0;" horiz-adv-x="700" d="M25 0L296 700H406L675 0H560L400 422Q397 429 389 456T369 516T349 576T337 612L360 613Q354 596 346 570T328 515T309 461T294 418L135 0H25ZM145 174L185 278H503L549 174H145ZM426 755L224 830L273 920L456 807L426
755Z" />
<glyph unicode="&#xc1;" horiz-adv-x="700" d="M25 0L296 700H406L675 0H560L400 422Q397 429 389 456T369 516T349 576T337 612L360 613Q354 596 346 570T328 515T309 461T294 418L135 0H25ZM145 174L185 278H503L549 174H145ZM282 755L254 807L437 920L484 830L282
755Z" />
<glyph unicode="&#xc2;" horiz-adv-x="700" d="M25 0L296 700H406L675 0H560L400 422Q397 429 389 456T369 516T349 576T337 612L360 613Q354 596 346 570T328 515T309 461T294 418L135 0H25ZM145 174L185 278H503L549 174H145ZM226 755L189 790L313 891H386L510
790L473 755L335 820H364L226 755Z" />
<glyph unicode="&#xc3;" horiz-adv-x="700" d="M25 0L296 700H406L675 0H560L400 422Q397 429 389 456T369 516T349 576T337 612L360 613Q354 596 346 570T328 515T309 461T294 418L135 0H25ZM145 174L185 278H503L549 174H145ZM424 768Q401 768 378 775T333 791Q316
798 304 802T282 806Q269 806 261 797T252 768H175Q175 822 210 851T289 881Q310 881 330 874T369 859Q383 853 396 849T419 845Q433 845 441 855T448 881H524Q524 852 512 826T478 784T424 768Z" />
<glyph unicode="&#xc4;" horiz-adv-x="700" d="M25 0L296 700H406L675 0H560L400 422Q397 429 389 456T369 516T349 576T337 612L360 613Q354 596 346 570T328 515T309 461T294 418L135 0H25ZM145 174L185 278H503L549 174H145ZM453 759Q418 759 401 777T384 824Q384
849 401 869T453 889Q488 889 505 871T522 824Q522 799 505 779T453 759ZM247 759Q212 759 195 777T178 824Q178 849 195 869T247 889Q282 889 299 871T316 824Q316 799 299 779T247 759Z" />
<glyph unicode="&#xc5;" horiz-adv-x="700" d="M25 0L296 700H406L675 0H560L400 422Q397 429 389 456T369 516T349 576T337 612L360 613Q354 596 346 570T328 515T309 461T294 418L135 0H25ZM145 174L185 278H503L549 174H145ZM349 679Q321 679 296 693T256 732T240
784Q240 814 255 838T296 876T349 890Q378 890 403 876T443 838T459 784Q459 756 444 732T403 694T349 679ZM349 738Q370 738 384 751T399 784Q399 807 384 819T349 831Q329 831 315 818T300 784Q300 765 314 752T349 738Z" />
<glyph unicode="&#xc6;" horiz-adv-x="969" d="M5 0L493 700H894V607H566V402H849V308H566V93H894V0H465V153H203L266 245H465V558L490 550L114 0H5Z" />
<glyph unicode="&#xc7;" horiz-adv-x="679" d="M382 -10Q309 -10 248 16T142 90T73 205T48 350Q48 425 74 489T148 603T257 679T391 706Q442 706 490 691T578 648T643 585L571 510Q542 539 513 558T453 588T391 598Q342 598 300 580T226 528T176 450T158 350Q158
293 175 247T225 167T301 117T400 99Q433 99 465 108T525 134T576 174L630 86Q607 59 568 37T480 3T382 -10ZM284 -244L277 -191Q301 -191 327 -183T371 -163T389 -138Q389 -124 372 -116T334 -104T299 -100L286 -90L358 24H417L375 -46Q424 -56 449 -80T474 -139Q474
-165 457 -185T412 -218T351 -238T284 -244Z" />
<glyph unicode="&#xc8;" horiz-adv-x="614" d="M98 0V700H539V596H206V104H539V0H98ZM147 307V411H484V307H147ZM403 755L201 830L250 920L433 807L403 755Z" />
<glyph unicode="&#xc9;" horiz-adv-x="614" d="M98 0V700H539V596H206V104H539V0H98ZM147 307V411H484V307H147ZM259 755L231 807L414 920L461 830L259 755Z" />
<glyph unicode="&#xca;" horiz-adv-x="614" d="M98 0V700H539V596H206V104H539V0H98ZM147 307V411H484V307H147ZM203 755L166 790L290 891H363L487 790L450 755L312 820H341L203 755Z" />
<glyph unicode="&#xcb;" horiz-adv-x="614" d="M98 0V700H539V596H206V104H539V0H98ZM147 307V411H484V307H147ZM430 759Q395 759 378 777T361 824Q361 849 378 869T430 889Q465 889 482 871T499 824Q499 799 482 779T430 759ZM224 759Q189 759 172 777T155 824Q155
849 172 869T224 889Q259 889 276 871T293 824Q293 799 276 779T224 759Z" />
<glyph unicode="&#xcc;" horiz-adv-x="478" d="M72 0V100H185V600H72V700H406V600H293V100H406V0H72ZM571 755L369 830L418 920L601 807L571 755Z" />
<glyph unicode="&#xcd;" horiz-adv-x="478" d="M72 0V100H185V600H72V700H406V600H293V100H406V0H72ZM171 755L143 807L326 920L373 830L171 755Z" />
<glyph unicode="&#xce;" horiz-adv-x="478" d="M72 0V100H185V600H72V700H406V600H293V100H406V0H72ZM371 755L334 790L458 891H531L655 790L618 755L480 820H509L371 755Z" />
<glyph unicode="&#xcf;" horiz-adv-x="478" d="M72 0V100H185V600H72V700H406V600H293V100H406V0H72ZM598 759Q563 759 546 777T529 824Q529 849 546 869T598 889Q633 889 650 871T667 824Q667 799 650 779T598 759ZM392 759Q357 759 340 777T323 824Q323 849
340 869T392 889Q427 889 444 871T461 824Q461 799 444 779T392 759Z" />
<glyph unicode="&#xd0;" horiz-adv-x="748" d="M49 305V395H317V305H49ZM98 0V700H372Q447 700 507 675T611 603T677 492T700 350Q700 272 677 208T612 97T508 25T372 0H98ZM206 93L203 104H367Q420 104 461 121T531 169T575 247T590 350Q590 407 575 452T531
530T461 579T367 596H200L206 605V93Z" />
<glyph unicode="&#xd1;" horiz-adv-x="793" d="M98 0V700H195L623 127L607 118Q603 143 600 172T595 235T591 306T588 385T587 470V700H695V0H596L175 552L186 566Q191 505 194 463T200 391T204 343T205 312T206 291V0H98ZM471 768Q448 768 425 775T380 791Q363
798 351 802T329 806Q316 806 308 797T299 768H222Q222 822 257 851T336 881Q357 881 377 874T416 859Q430 853 443 849T466 845Q480 845 488 855T495 881H571Q571 852 559 826T525 784T471 768Z" />
<glyph unicode="&#xd2;" horiz-adv-x="782" d="M391 -10Q317 -10 255 17T146 92T74 206T48 350Q48 428 73 493T145 607T254 683T391 710Q465 710 527 683T636 607T708 493T734 350Q734 273 709 208T637 93T528 17T391 -10ZM391 95Q442 95 484 114T558 167T606
248T624 350Q624 405 607 451T558 532T485 586T391 605Q340 605 298 586T224 533T175 453T158 350Q158 295 175 248T223 167T297 114T391 95ZM467 755L265 830L314 920L497 807L467 755Z" />
<glyph unicode="&#xd3;" horiz-adv-x="782" d="M391 -10Q317 -10 255 17T146 92T74 206T48 350Q48 428 73 493T145 607T254 683T391 710Q465 710 527 683T636 607T708 493T734 350Q734 273 709 208T637 93T528 17T391 -10ZM391 95Q442 95 484 114T558 167T606
248T624 350Q624 405 607 451T558 532T485 586T391 605Q340 605 298 586T224 533T175 453T158 350Q158 295 175 248T223 167T297 114T391 95ZM323 755L295 807L478 920L525 830L323 755Z" />
<glyph unicode="&#xd4;" horiz-adv-x="782" d="M391 -10Q317 -10 255 17T146 92T74 206T48 350Q48 428 73 493T145 607T254 683T391 710Q465 710 527 683T636 607T708 493T734 350Q734 273 709 208T637 93T528 17T391 -10ZM391 95Q442 95 484 114T558 167T606
248T624 350Q624 405 607 451T558 532T485 586T391 605Q340 605 298 586T224 533T175 453T158 350Q158 295 175 248T223 167T297 114T391 95ZM267 755L230 790L354 891H427L551 790L514 755L376 820H405L267 755Z" />
<glyph unicode="&#xd5;" horiz-adv-x="782" d="M391 -10Q317 -10 255 17T146 92T74 206T48 350Q48 428 73 493T145 607T254 683T391 710Q465 710 527 683T636 607T708 493T734 350Q734 273 709 208T637 93T528 17T391 -10ZM391 95Q442 95 484 114T558 167T606
248T624 350Q624 405 607 451T558 532T485 586T391 605Q340 605 298 586T224 533T175 453T158 350Q158 295 175 248T223 167T297 114T391 95ZM465 768Q442 768 419 775T374 791Q357 798 345 802T323 806Q310 806 302 797T293 768H216Q216 822 251 851T330 881Q351
881 371 874T410 859Q424 853 437 849T460 845Q474 845 482 855T489 881H565Q565 852 553 826T519 784T465 768Z" />
<glyph unicode="&#xd6;" horiz-adv-x="782" d="M391 -10Q317 -10 255 17T146 92T74 206T48 350Q48 428 73 493T145 607T254 683T391 710Q465 710 527 683T636 607T708 493T734 350Q734 273 709 208T637 93T528 17T391 -10ZM391 95Q442 95 484 114T558 167T606
248T624 350Q624 405 607 451T558 532T485 586T391 605Q340 605 298 586T224 533T175 453T158 350Q158 295 175 248T223 167T297 114T391 95ZM494 759Q459 759 442 777T425 824Q425 849 442 869T494 889Q529 889 546 871T563 824Q563 799 546 779T494 759ZM288
759Q253 759 236 777T219 824Q219 849 236 869T288 889Q323 889 340 871T357 824Q357 799 340 779T288 759Z" />
<glyph unicode="&#xd7;" horiz-adv-x="484" d="M385 78L35 426L99 486L449 137L385 78ZM98 71L39 136L387 486L447 422L98 71Z" />
<glyph unicode="&#xd8;" horiz-adv-x="770" d="M123 -33L60 20L649 741L717 694L123 -33ZM390 -10Q316 -10 254 17T145 92T73 206T47 350Q47 428 72 493T144 607T253 683T390 710Q464 710 526 683T635 607T707 493T733 350Q733 273 708 208T636 93T527 17T390
-10ZM390 95Q441 95 483 114T557 167T605 248T623 350Q623 405 606 451T557 532T484 586T390 605Q339 605 297 586T223 533T174 453T157 350Q157 295 174 248T222 167T296 114T390 95Z" />
<glyph unicode="&#xd9;" horiz-adv-x="740" d="M370 -6Q289 -6 225 29T125 127T88 269V701H196V278Q196 227 220 187T283 122T370 98Q420 98 460 122T525 186T549 278V701H652V269Q652 190 616 128T515 30T370 -6ZM446 755L244 830L293 920L476 807L446 755Z" />
<glyph unicode="&#xda;" horiz-adv-x="740" d="M370 -6Q289 -6 225 29T125 127T88 269V701H196V278Q196 227 220 187T283 122T370 98Q420 98 460 122T525 186T549 278V701H652V269Q652 190 616 128T515 30T370 -6ZM302 755L274 807L457 920L504 830L302 755Z" />
<glyph unicode="&#xdb;" horiz-adv-x="740" d="M370 -6Q289 -6 225 29T125 127T88 269V701H196V278Q196 227 220 187T283 122T370 98Q420 98 460 122T525 186T549 278V701H652V269Q652 190 616 128T515 30T370 -6ZM246 755L209 790L333 891H406L530 790L493 755L355
820H384L246 755Z" />
<glyph unicode="&#xdc;" horiz-adv-x="740" d="M370 -6Q289 -6 225 29T125 127T88 269V701H196V278Q196 227 220 187T283 122T370 98Q420 98 460 122T525 186T549 278V701H652V269Q652 190 616 128T515 30T370 -6ZM473 759Q438 759 421 777T404 824Q404 849 421
869T473 889Q508 889 525 871T542 824Q542 799 525 779T473 759ZM267 759Q232 759 215 777T198 824Q198 849 215 869T267 889Q302 889 319 871T336 824Q336 799 319 779T267 759Z" />
<glyph unicode="&#xdd;" horiz-adv-x="660" d="M286 0V349L293 300L10 700H140L356 390L331 393L526 700H650L379 289L394 357V0H286ZM262 755L234 807L417 920L464 830L262 755Z" />
<glyph unicode="&#xde;" horiz-adv-x="634" d="M98 0V700H206V573H383Q440 573 486 545T561 467T589 358Q589 298 561 249T487 170T383 141H206V0H98ZM206 245H381Q408 245 430 260T465 301T479 358Q479 389 466 414T430 454T381 469H206V245Z" />
<glyph unicode="&#xdf;" horiz-adv-x="664" d="M422 -10Q374 -10 338 6T275 57L327 112Q354 88 377 78T424 68Q470 68 497 102T525 189Q525 228 515 259T482 314T425 356T344 385V450Q373 462 394 475T429 503T450 533T457 565Q457 602 429 623T350 644Q293 644
260 605T226 502V0H129V499Q129 569 156 622T234 704T354 734Q415 734 459 714T528 657T553 574Q553 547 540 521T504 474T449 439L447 443Q486 431 518 408T573 354T609 284T622 203Q622 142 596 94T525 18T422 -10ZM45 404V497H180V404H45Z" />
<glyph unicode="&#xe0;" horiz-adv-x="633" d="M274 -10Q209 -10 156 26T70 124T38 264Q38 343 70 404T158 501T283 536Q324 536 358 524T417 491T459 441T480 381L457 389V525H561V0H457V125L481 132Q475 105 457 80T410 34T347 2T274 -10ZM301 85Q348 85 384
108T440 171T461 264Q461 315 441 355T384 418T301 441Q255 441 220 418T164 355T143 264Q143 212 163 172T219 108T301 85ZM367 606L193 700L258 782L401 657L367 606Z" />
<glyph unicode="&#xe1;" horiz-adv-x="633" d="M274 -10Q209 -10 156 26T70 124T38 264Q38 343 70 404T158 501T283 536Q324 536 358 524T417 491T459 441T480 381L457 389V525H561V0H457V125L481 132Q475 105 457 80T410 34T347 2T274 -10ZM301 85Q348 85 384
108T440 171T461 264Q461 315 441 355T384 418T301 441Q255 441 220 418T164 355T143 264Q143 212 163 172T219 108T301 85ZM247 606L213 657L356 782L421 700L247 606Z" />
<glyph unicode="&#xe2;" horiz-adv-x="633" d="M274 -10Q209 -10 156 26T70 124T38 264Q38 343 70 404T158 501T283 536Q324 536 358 524T417 491T459 441T480 381L457 389V525H561V0H457V125L481 132Q475 105 457 80T410 34T347 2T274 -10ZM301 85Q348 85 384
108T440 171T461 264Q461 315 441 355T384 418T301 441Q255 441 220 418T164 355T143 264Q143 212 163 172T219 108T301 85ZM197 607L159 640L274 753H360L475 640L437 607L302 680H332L197 607Z" />
<glyph unicode="&#xe3;" horiz-adv-x="633" d="M274 -10Q209 -10 156 26T70 124T38 264Q38 343 70 404T158 501T283 536Q324 536 358 524T417 491T459 441T480 381L457 389V525H561V0H457V125L481 132Q475 105 457 80T410 34T347 2T274 -10ZM301 85Q348 85 384
108T440 171T461 264Q461 315 441 355T384 418T301 441Q255 441 220 418T164 355T143 264Q143 212 163 172T219 108T301 85ZM368 615Q348 615 335 623T306 643Q287 660 278 666T260 673Q247 673 237 659T223 615L155 625Q157 674 186 710T265 746Q285 746 298 738T327
718Q347 702 356 695T373 688Q387 688 396 703T410 746L478 736Q477 704 463 676T425 632T368 615Z" />
<glyph unicode="&#xe4;" horiz-adv-x="633" d="M274 -10Q209 -10 156 26T70 124T38 264Q38 343 70 404T158 501T283 536Q324 536 358 524T417 491T459 441T480 381L457 389V525H561V0H457V125L481 132Q475 105 457 80T410 34T347 2T274 -10ZM301 85Q348 85 384
108T440 171T461 264Q461 315 441 355T384 418T301 441Q255 441 220 418T164 355T143 264Q143 212 163 172T219 108T301 85ZM417 642Q384 642 366 659T348 707Q348 736 366 754T417 772Q450 772 468 755T486 707Q486 678 468 660T417 642ZM217 642Q184 642 166
659T148 707Q148 736 166 754T217 772Q250 772 268 755T286 707Q286 678 268 660T217 642Z" />
<glyph unicode="&#xe5;" horiz-adv-x="633" d="M274 -10Q209 -10 156 26T70 124T38 264Q38 343 70 404T158 501T283 536Q324 536 358 524T417 491T459 441T480 381L457 389V525H561V0H457V125L481 132Q475 105 457 80T410 34T347 2T274 -10ZM301 85Q348 85 384
108T440 171T461 264Q461 315 441 355T384 418T301 441Q255 441 220 418T164 355T143 264Q143 212 163 172T219 108T301 85ZM316 604Q288 604 263 618T223 657T207 709Q207 738 222 762T262 800T316 815Q346 815 371 801T411 762T426 709Q426 681 411 657T371 619T316
604ZM316 663Q337 663 351 676T366 709Q366 730 352 743T316 756Q295 756 281 743T267 709Q267 690 281 677T316 663Z" />
<glyph unicode="&#xe6;" horiz-adv-x="899" d="M216 -10Q165 -10 125 10T62 65T38 149Q38 191 53 223T98 276T172 308T274 319H769L754 302V326Q751 359 732 385T684 426T621 441Q571 441 537 421T484 362T466 264Q466 211 491 171T558 107T654 84Q693 84 726
97T799 144L849 69Q825 46 791 28T719 0T644 -10Q563 -10 502 23T407 117T373 257Q373 318 392 369T444 457T523 515T621 536Q689 535 743 502T828 412T859 281L858 237H261Q231 237 208 232T168 215T143 188T135 151Q135 129 146 113T176 87T220 78Q256 78 288
90T346 125T386 174L430 107Q407 72 373 46T299 5T216 -10ZM373 257V356Q373 374 364 390T340 417T304 434T262 441Q218 441 183 423T118 368L51 435Q80 468 113 490T185 524T264 536Q311 536 348 526T411 498T452 452T466 388V263L373 257Z" />
<glyph unicode="&#xe7;" horiz-adv-x="535" d="M295 -10Q222 -10 165 26T74 124T40 263Q40 340 73 402T164 500T295 536Q365 536 422 508T510 430L453 360Q437 383 412 402T359 432T305 443Q257 443 220 420T160 355T138 263Q138 212 161 172T222 107T306 83Q333
83 358 92T408 119T453 163L510 93Q478 48 419 19T295 -10ZM204 -244L197 -191Q221 -191 247 -183T291 -163T309 -138Q309 -124 292 -116T254 -104T219 -100L206 -90L278 24H337L294 -46Q344 -56 369 -80T394 -139Q394 -165 377 -185T331 -218T270 -238T204 -244Z"
/>
<glyph unicode="&#xe8;" horiz-adv-x="586" d="M317 -10Q236 -10 174 24T76 119T40 257Q40 319 60 370T115 458T200 516T308 537Q359 537 403 518T479 464T529 384T546 282L545 238H116L93 320H456L441 303V327Q438 360 419 386T371 427T308 442Q254 442 217 422T161
362T142 264Q142 209 165 169T230 106T327 84Q366 84 399 97T472 144L524 71Q500 47 466 29T393 1T317 -10ZM358 606L184 700L249 782L392 657L358 606Z" />
<glyph unicode="&#xe9;" horiz-adv-x="586" d="M317 -10Q236 -10 174 24T76 119T40 257Q40 319 60 370T115 458T200 516T308 537Q359 537 403 518T479 464T529 384T546 282L545 238H116L93 320H456L441 303V327Q438 360 419 386T371 427T308 442Q254 442 217 422T161
362T142 264Q142 209 165 169T230 106T327 84Q366 84 399 97T472 144L524 71Q500 47 466 29T393 1T317 -10ZM238 606L204 657L347 782L412 700L238 606Z" />
<glyph unicode="&#xea;" horiz-adv-x="586" d="M317 -10Q236 -10 174 24T76 119T40 257Q40 319 60 370T115 458T200 516T308 537Q359 537 403 518T479 464T529 384T546 282L545 238H116L93 320H456L441 303V327Q438 360 419 386T371 427T308 442Q254 442 217 422T161
362T142 264Q142 209 165 169T230 106T327 84Q366 84 399 97T472 144L524 71Q500 47 466 29T393 1T317 -10ZM188 607L150 640L265 753H351L466 640L428 607L293 680H323L188 607Z" />
<glyph unicode="&#xeb;" horiz-adv-x="586" d="M317 -10Q236 -10 174 24T76 119T40 257Q40 319 60 370T115 458T200 516T308 537Q359 537 403 518T479 464T529 384T546 282L545 238H116L93 320H456L441 303V327Q438 360 419 386T371 427T308 442Q254 442 217 422T161
362T142 264Q142 209 165 169T230 106T327 84Q366 84 399 97T472 144L524 71Q500 47 466 29T393 1T317 -10ZM408 642Q375 642 357 659T339 707Q339 736 357 754T408 772Q441 772 459 755T477 707Q477 678 459 660T408 642ZM208 642Q175 642 157 659T139 707Q139
736 157 754T208 772Q241 772 259 755T277 707Q277 678 259 660T208 642Z" />
<glyph unicode="&#xec;" horiz-adv-x="243" d="M70 0V525H173V0H70ZM170 606L-4 700L61 782L204 657L170 606Z" />
<glyph unicode="&#xed;" horiz-adv-x="243" d="M70 0V525H173V0H70ZM50 606L16 657L159 782L224 700L50 606Z" />
<glyph unicode="&#xee;" horiz-adv-x="243" d="M70 0V525H173V0H70ZM0 607L-38 640L77 753H163L278 640L240 607L105 680H135L0 607Z" />
<glyph unicode="&#xef;" horiz-adv-x="243" d="M70 0V525H173V0H70ZM220 642Q187 642 169 659T151 707Q151 736 169 754T220 772Q253 772 271 755T289 707Q289 678 271 660T220 642ZM20 642Q-13 642 -31 659T-49 707Q-49 736 -31 754T20 772Q53 772 71 755T89
707Q89 678 71 660T20 642Z" />
<glyph unicode="&#xf0;" horiz-adv-x="574" d="M287 -7Q218 -7 162 29T73 126T40 262Q40 316 59 364T111 449T186 507T275 528Q325 528 364 506T430 444T468 348L418 379Q416 425 406 462T376 530T329 584T261 627T169 662L211 740Q270 726 320 698T409 628T477
534T519 418T534 281Q534 196 503 131T415 30T287 -7ZM287 89Q329 89 363 112T417 174T437 262Q437 309 417 347T363 409T287 432Q245 432 211 410T157 349T137 262Q137 213 157 174T211 112T287 89ZM156 528L143 593L288 630L343 650L489 683L507 617L394 591L353
574L156 528Z" />
<glyph unicode="&#xf1;" horiz-adv-x="595" d="M72 0V525H175V417L157 405Q167 440 196 469T265 517T347 536Q407 536 447 513T507 441T527 320V0H424V313Q424 358 412 387T375 430T313 442Q283 442 258 433T215 406T186 367T175 318V0H124Q111 0 98 0T72 0ZM379
615Q359 615 346 623T317 643Q298 660 289 666T271 673Q258 673 248 659T234 615L166 625Q168 674 197 710T276 746Q296 746 309 738T338 718Q358 702 367 695T384 688Q398 688 407 703T421 746L489 736Q488 704 474 676T436 632T379 615Z" />
<glyph unicode="&#xf2;" horiz-adv-x="615" d="M308 -10Q231 -10 171 25T75 122T40 263Q40 342 75 403T170 500T308 536Q384 536 444 501T540 404T575 263Q575 184 540 123T445 26T308 -10ZM308 84Q355 84 392 107T450 171T470 263Q471 315 450 355T392 419T308
442Q261 442 224 419T165 355T145 263Q144 212 165 172T223 108T308 84ZM358 606L184 700L249 782L392 657L358 606Z" />
<glyph unicode="&#xf3;" horiz-adv-x="615" d="M308 -10Q231 -10 171 25T75 122T40 263Q40 342 75 403T170 500T308 536Q384 536 444 501T540 404T575 263Q575 184 540 123T445 26T308 -10ZM308 84Q355 84 392 107T450 171T470 263Q471 315 450 355T392 419T308
442Q261 442 224 419T165 355T145 263Q144 212 165 172T223 108T308 84ZM238 606L204 657L347 782L412 700L238 606Z" />
<glyph unicode="&#xf4;" horiz-adv-x="615" d="M308 -10Q231 -10 171 25T75 122T40 263Q40 342 75 403T170 500T308 536Q384 536 444 501T540 404T575 263Q575 184 540 123T445 26T308 -10ZM308 84Q355 84 392 107T450 171T470 263Q471 315 450 355T392 419T308
442Q261 442 224 419T165 355T145 263Q144 212 165 172T223 108T308 84ZM188 607L150 640L265 753H351L466 640L428 607L293 680H323L188 607Z" />
<glyph unicode="&#xf5;" horiz-adv-x="615" d="M308 -10Q231 -10 171 25T75 122T40 263Q40 342 75 403T170 500T308 536Q384 536 444 501T540 404T575 263Q575 184 540 123T445 26T308 -10ZM308 84Q355 84 392 107T450 171T470 263Q471 315 450 355T392 419T308
442Q261 442 224 419T165 355T145 263Q144 212 165 172T223 108T308 84ZM359 615Q339 615 326 623T297 643Q278 660 269 666T251 673Q238 673 228 659T214 615L146 625Q148 674 177 710T256 746Q276 746 289 738T318 718Q338 702 347 695T364 688Q378 688 387 703T401
746L469 736Q468 704 454 676T416 632T359 615Z" />
<glyph unicode="&#xf6;" horiz-adv-x="615" d="M308 -10Q231 -10 171 25T75 122T40 263Q40 342 75 403T170 500T308 536Q384 536 444 501T540 404T575 263Q575 184 540 123T445 26T308 -10ZM308 84Q355 84 392 107T450 171T470 263Q471 315 450 355T392 419T308
442Q261 442 224 419T165 355T145 263Q144 212 165 172T223 108T308 84ZM408 642Q375 642 357 659T339 707Q339 736 357 754T408 772Q441 772 459 755T477 707Q477 678 459 660T408 642ZM208 642Q175 642 157 659T139 707Q139 736 157 754T208 772Q241 772 259
755T277 707Q277 678 259 660T208 642Z" />
<glyph unicode="&#xf7;" horiz-adv-x="597" d="M50 215V305H547V215H50ZM293 15Q275 15 260 24T236 47T227 80Q227 98 236 113T260 136T293 145Q311 145 326 137T349 113T358 80Q358 62 350 48T326 24T293 15ZM293 372Q275 372 260 381T236 404T227 436Q227 454
236 469T260 493T293 502Q311 502 326 493T349 469T358 436Q358 419 349 405T325 381T293 372Z" />
<glyph unicode="&#xf8;" horiz-adv-x="615" d="M107 -35L41 13L494 545L561 496L107 -35ZM308 -10Q231 -10 171 25T75 122T40 263Q40 342 75 403T170 500T308 536Q384 536 444 501T540 404T575 263Q575 184 540 123T445 26T308 -10ZM308 84Q355 84 392 107T450
171T470 263Q471 315 450 355T392 419T308 442Q261 442 224 419T165 355T145 263Q144 212 165 172T223 108T308 84Z" />
<glyph unicode="&#xf9;" horiz-adv-x="605" d="M256 -10Q200 -10 159 16T95 89T72 201V525H175V229Q175 183 189 150T231 98T298 80Q327 80 351 89T392 116T420 157T430 209V525H533V0H430V110L448 122Q436 85 408 55T340 8T256 -10ZM353 606L179 700L244 782L387
657L353 606Z" />
<glyph unicode="&#xfa;" horiz-adv-x="605" d="M256 -10Q200 -10 159 16T95 89T72 201V525H175V229Q175 183 189 150T231 98T298 80Q327 80 351 89T392 116T420 157T430 209V525H533V0H430V110L448 122Q436 85 408 55T340 8T256 -10ZM233 606L199 657L342 782L407
700L233 606Z" />
<glyph unicode="&#xfb;" horiz-adv-x="605" d="M256 -10Q200 -10 159 16T95 89T72 201V525H175V229Q175 183 189 150T231 98T298 80Q327 80 351 89T392 116T420 157T430 209V525H533V0H430V110L448 122Q436 85 408 55T340 8T256 -10ZM183 607L145 640L260 753H346L461
640L423 607L288 680H318L183 607Z" />
<glyph unicode="&#xfc;" horiz-adv-x="605" d="M256 -10Q200 -10 159 16T95 89T72 201V525H175V229Q175 183 189 150T231 98T298 80Q327 80 351 89T392 116T420 157T430 209V525H533V0H430V110L448 122Q436 85 408 55T340 8T256 -10ZM403 642Q370 642 352 659T334
707Q334 736 352 754T403 772Q436 772 454 755T472 707Q472 678 454 660T403 642ZM203 642Q170 642 152 659T134 707Q134 736 152 754T203 772Q236 772 254 755T272 707Q272 678 254 660T203 642Z" />
<glyph unicode="&#xfd;" horiz-adv-x="581" d="M160 -230L266 15L267 -67L5 525H125L289 139Q294 129 301 109T313 68L287 62Q295 83 302 104T317 146L454 525H576L360 0L271 -230H160ZM221 606L187 657L330 782L395 700L221 606Z" />
<glyph unicode="&#xfe;" horiz-adv-x="631" d="M72 -220V740H176V405L160 414Q166 444 194 471T262 516T346 534Q399 534 443 514T521 458T573 372T591 263Q591 185 560 124T473 27T349 -9Q303 -9 260 9T187 57T150 117L176 131V-220H72ZM332 86Q378 86 414 109T471
172T492 263Q492 314 472 353T415 416T332 439Q285 439 249 417T192 354T171 263Q171 212 192 172T249 109T332 86Z" />
<glyph unicode="&#xff;" horiz-adv-x="581" d="M160 -230L266 15L267 -67L5 525H125L289 139Q294 129 301 109T313 68L287 62Q295 83 302 104T317 146L454 525H576L360 0L271 -230H160ZM391 642Q358 642 340 659T322 707Q322 736 340 754T391 772Q424 772 442
755T460 707Q460 678 442 660T391 642ZM191 642Q158 642 140 659T122 707Q122 736 140 754T191 772Q224 772 242 755T260 707Q260 678 242 660T191 642Z" />
<glyph unicode="&#x2013;" horiz-adv-x="514" d="M53 237V336H461V237H53Z" />
<glyph unicode="&#x2014;" horiz-adv-x="868" d="M53 237V337H815V237H53Z" />
<glyph unicode="&#x2018;" horiz-adv-x="241" d="M139 480Q111 480 89 494T53 534T40 593Q40 619 51 644T81 691T127 730T183 756L221 710Q182 692 157 669T132 629Q132 616 143 606T163 588Q185 570 192 558T200 533Q200 509 183 495T139 480Z" />
<glyph unicode="&#x2019;" horiz-adv-x="241" d="M58 475L20 521Q59 539 84 562T109 602Q109 615 98 625T78 643Q56 661 49 673T41 698Q41 722 58 736T102 751Q130 751 152 737T188 697T201 638Q201 612 190 587T160 540T114 501T58 475Z" />
<glyph unicode="&#x201a;" horiz-adv-x="267" d="M88 -179L50 -133Q85 -113 107 -87T129 -42Q129 -32 124 -23T103 4Q83 23 77 36T71 64Q71 88 88 102T132 117Q157 117 177 103T209 63T221 4Q221 -26 211 -54T183 -106T141 -149T88 -179Z" />
<glyph unicode="&#x201c;" horiz-adv-x="448" d="M139 731Q111 731 89 745T53 785T40 844Q40 870 51 895T81 942T127 981T183 1007L221 961Q182 943 157 920T132 880Q132 867 143 857T163 839Q185 821 192 809T200 784Q200 760 183 746T139 731ZM346 475Q318 475
296 489T260 529T247 588Q247 614 258 639T288 686T334 725T390 751L428 705Q389 687 364 664T339 624Q339 611 350 601T370 583Q392 565 399 553T407 528Q407 504 390 490T346 475Z" />
<glyph unicode="&#x201d;" horiz-adv-x="445" d="M58 475L20 521Q59 539 84 562T109 602Q109 615 98 625T78 643Q56 661 49 673T41 698Q41 722 58 736T102 751Q130 751 152 737T188 697T201 638Q201 612 190 587T160 540T114 501T58 475ZM262 475L224 521Q263
539 288 562T313 602Q313 615 302 625T282 643Q260 661 253 673T245 698Q245 722 262 736T306 751Q334 751 356 737T392 697T405 638Q405 612 394 587T364 540T318 501T262 475Z" />
<glyph unicode="&#x201e;" horiz-adv-x="492" d="M88 -179L50 -133Q85 -113 107 -87T129 -42Q129 -32 124 -23T103 4Q83 23 77 36T71 64Q71 88 88 102T132 117Q157 117 177 103T209 63T221 4Q221 -26 211 -54T183 -106T141 -149T88 -179ZM313 -179L275 -133Q310
-113 332 -87T354 -42Q354 -32 349 -23T328 4Q308 23 302 36T296 64Q296 88 313 102T357 117Q382 117 402 103T434 63T446 4Q446 -26 436 -54T408 -106T366 -149T313 -179Z" />
<glyph unicode="&#x2022;" horiz-adv-x="346" d="M173 216Q136 216 105 234T56 283T37 351Q37 389 55 420T104 469T173 488Q211 488 242 470T291 420T310 351Q310 314 292 283T242 234T173 216Z" />
<glyph unicode="&#x2039;" horiz-adv-x="273" d="M170 50L11 257V259L169 471L232 426L113 255L114 266L233 95L170 50Z" />
<glyph unicode="&#x203a;" horiz-adv-x="275" d="M104 50L41 95L160 266L159 255L40 426L103 471L262 264V262L104 50Z" />
</font>
</defs>
</svg>
